<svg id="Layer_1" data-name="Layer 1" xmlns="http://www.w3.org/2000/svg" xmlns:xlink="http://www.w3.org/1999/xlink" viewBox="0 0 200 200"><defs><style>.cls-1{opacity:0.7;}.cls-2{fill:url(#linear-gradient);}.cls-3,.cls-4,.cls-5{isolation:isolate;}.cls-4{font-size:12.31px;font-family:Montserrat-Light, Montserrat;}.cls-4,.cls-5,.cls-6{fill:#fff;}.cls-5{font-size:20.56px;font-family:Montserrat-SemiBold, Montserrat;font-weight:700;}</style><linearGradient id="linear-gradient" x1="110.9" y1="306.33" x2="110.9" y2="305.33" gradientTransform="matrix(181.33, 0, 0, -55.14, -20009.63, 16964.78)" gradientUnits="userSpaceOnUse"><stop offset="0" stop-color="#050606"/><stop offset="1" stop-color="#575958"/></linearGradient></defs><title>Google1</title><g id="Group_3004" data-name="Group 3004" class="cls-1"><rect id="Rectangle_453" data-name="Rectangle 453" class="cls-2" x="9.33" y="72.43" width="181.33" height="55.14" rx="1.95" ry="1.95"/><g id="Group_3003" data-name="Group 3003"><g id="Available_on_the" data-name="Available on the" class="cls-3"><text class="cls-4" transform="translate(58.89 90.64)">Available on the</text></g><g id="Google_Play" data-name="Google Play" class="cls-3"><text class="cls-5" transform="translate(58.9 113.1)">Google Play</text></g></g><path id="Path_6710" data-name="Path 6710" class="cls-6" d="M53,99.3l-6.91-4-5.68,5.49,5.19,5,7.4-4.27a1.29,1.29,0,0,0,.48-1.77A1.23,1.23,0,0,0,53,99.3Z"/><path id="Path_6711" data-name="Path 6711" class="cls-6" d="M44.88,94.63l-7.6-4.39L20.62,81.7,39.44,99.89Z"/><path id="Path_6712" data-name="Path 6712" class="cls-6" d="M20.9,119.63l16.41-9,7.09-4.09-5-4.79Z"/><path id="Path_6713" data-name="Path 6713" class="cls-6" d="M19.51,82.44l0,36.74,19-18.38Z"/></g></svg>