<svg xmlns="http://www.w3.org/2000/svg" width="569.98" height="627.09" viewBox="0 0 569.98 627.09">
  <title>Bike</title>
  <g>
    <ellipse cx="243.87" cy="600.53" rx="133.65" ry="12.97" style="fill: #e2e2e2;opacity: 0.5099999904632568;isolation: isolate"/>
    <ellipse cx="520.23" cy="787.29" rx="25.71" ry="265.08" transform="translate(-483.47 1119.95) rotate(-89.88)" style="fill: #e2e2e2;opacity: 0.5099999904632568;isolation: isolate"/>
    <g>
      <path d="M616.27,704.56a43.72,43.72,0,0,1-12.56,3.25c-17.3,2.56-27.92-4.29-34.39-3.46a121.28,121.28,0,0,1-19.06,0c-.28,8.58,4.8,7.3,9.23,6.5,5-.9,9.07-1.35,28.55,1.56S616.47,708,616.47,708A2.56,2.56,0,0,0,616.27,704.56Z" transform="translate(-215.32 -185.91)" style="fill: #72af44"/>
      <path d="M586.65,703.42l2.08.69,2.38-6.47-2.59-.31Z" transform="translate(-215.32 -185.91)" style="fill: #72af44"/>
      <path d="M578.8,702.24l1.49.21,2.76-5.82-1.83-.27Z" transform="translate(-215.32 -185.91)" style="fill: #72af44"/>
      <path d="M574.61,694.52l-3.25,5.57,1.8.73,3.46-5.47C575.94,695.11,575.27,694.83,574.61,694.52Z" transform="translate(-215.32 -185.91)" style="fill: #72af44"/>
      <path d="M565.48,695.94a2.37,2.37,0,0,0,1.66,1.46l4.74-4.4c-.55-.31-1-.66-1.56-1Z" transform="translate(-215.32 -185.91)" style="fill: #72af44"/>
      <path d="M562.05,692.9l4.78-3.46a20.8,20.8,0,0,1-1.59-1.52l-4.5,3.11Z" transform="translate(-215.32 -185.91)" style="fill: #72af44"/>
      <path d="M572.88,697.5l-1.49,2.59,1.77.73,1.63-2.49A19,19,0,0,1,572.88,697.5Z" transform="translate(-215.32 -185.91)" style="fill: #72af44"/>
      <path d="M578.8,702.24l1.49.21,1.07-2.25-1.59-.38Z" transform="translate(-215.32 -185.91)" style="fill: #72af44"/>
      <path d="M586.65,703.42l2.08.69.9-2.39-2.36-.38Z" transform="translate(-215.32 -185.91)" style="fill: #72af44"/>
      <path d="M611,700.89c-3.67,2.21-12.46,2.11-21.38.83l-.9,2.39-2.08-.69.62-2.08c-2-.31-4-.69-5.84-1.14l-1.07,2.25-1.49-.21,1-2.42-1.8-.45a33.21,33.21,0,0,1-3.25-1l-1.63,2.49-1.77-.73,1.49-2.59c-3.7-1.94-2.21-3.67-1.07-4.46h0l-4.6,4.39a2.36,2.36,0,0,1-1.66-1.45l4.7-4a26.88,26.88,0,0,1-3.46-2.56L562,692.93l-1.32-1.87,4.5-3.11a7.69,7.69,0,0,1-2.28-3.8,20.36,20.36,0,0,1-9,1c0,.28-1.77.28-3.46-.52a37.81,37.81,0,0,1,.24,15.71,28.89,28.89,0,0,0-.42,4.15,126.45,126.45,0,0,0,19.07,0c6.47-.94,17.3,6,34.35,3.46a44,44,0,0,0,12.6-3.25A13.07,13.07,0,0,0,611,700.89Z" transform="translate(-215.32 -185.91)" style="fill: #72af44"/>
      <path d="M583.12,696.63l-1.69,3.46c1.9.45,3.84.83,5.84,1.15l1.25-4A53.76,53.76,0,0,1,583.12,696.63Z" transform="translate(-215.32 -185.91)" style="fill: #72af44"/>
      <path d="M577.52,695.63l-.8-.28-1.93,3a33.21,33.21,0,0,0,3.25,1l1.8.45,1.41-3.46A36.66,36.66,0,0,1,577.52,695.63Z" transform="translate(-215.32 -185.91)" style="fill: #72af44"/>
      <path d="M572.88,697.5l1.73-3a26.71,26.71,0,0,1-2.8-1.48C570.67,693.83,569.18,695.56,572.88,697.5Z" transform="translate(-215.32 -185.91)" style="fill: #72af44"/>
      <path d="M591.11,697.64l-1.48,4.08c8.92,1.28,17.71,1.38,21.38-.83l-.83-.31A127.91,127.91,0,0,0,591.11,697.64Z" transform="translate(-215.32 -185.91)" style="fill: #72af44"/>
      <path d="M557.24,685.32c1.53-6.92-9-39.27-11-45.94C548.15,645.81,558,677.12,557.24,685.32Z" transform="translate(-215.32 -185.91)" style="fill: #72af44"/>
      <path d="M548.11,564.86a58.87,58.87,0,0,1-.21-20.76,15.8,15.8,0,0,0-11.59-17.92c-11.86-3.15-33.18-4.5-71.06,2.59l-64.87,11.35c.49,8.06,2.77,15.5,9,18.58l112.13-3.46s-1.35,18.82,10.37,68.74l18,62.28,13.84-1.77Z" transform="translate(-215.32 -185.91)" style="fill: #72af44"/>
    </g>
    <g>
      <path d="M616.51,704.56a43.92,43.92,0,0,1-12.59,3.25c-17.3,2.56-27.89-4.29-34.36-3.46a121.79,121.79,0,0,1-19.1,0c-.24,8.58,4.81,7.3,9.24,6.5,5-.9,9.1-1.35,28.54,1.56S616.72,708,616.72,708A2.6,2.6,0,0,0,616.51,704.56Z" transform="translate(-215.32 -185.91)" style="fill: #639b42"/>
      <path d="M586.86,703.42l2.11.69,2.39-6.47-2.63-.31Z" transform="translate(-215.32 -185.91)" style="fill: #639b42"/>
      <path d="M579.08,702.24l1.52.21,2.73-5.82-1.83-.27Z" transform="translate(-215.32 -185.91)" style="fill: #639b42"/>
      <path d="M574.82,694.52l-3.22,5.57,1.8.73,3.46-5.47C576.24,695.08,575.51,694.84,574.82,694.52Z" transform="translate(-215.32 -185.91)" style="fill: #639b42"/>
      <path d="M565.72,695.94a2.37,2.37,0,0,0,1.66,1.46l4.5-4.4-1.56-1Z" transform="translate(-215.32 -185.91)" style="fill: #639b42"/>
      <path d="M562.3,692.9l4.74-3.46a14.94,14.94,0,0,1-1.56-1.52L561,691Z" transform="translate(-215.32 -185.91)" style="fill: #639b42"/>
      <path d="M573.09,697.5l-1.49,2.59,1.8.73,1.63-2.49A19.5,19.5,0,0,1,573.09,697.5Z" transform="translate(-215.32 -185.91)" style="fill: #639b42"/>
      <path d="M579.08,702.24l1.52.21,1-2.25-1.56-.38Z" transform="translate(-215.32 -185.91)" style="fill: #639b42"/>
      <path d="M586.86,703.42l2.11.69.86-2.39-2.31-.35Z" transform="translate(-215.32 -185.91)" style="fill: #639b42"/>
      <path d="M611.25,700.89c-3.67,2.21-12.49,2.11-21.42.83l-.86,2.39-2.11-.69.66-2.08c-2-.31-4-.69-5.88-1.14l-1,2.25-1.52-.21,1-2.42-1.84-.45c-1.28-.35-2.31-.69-3.25-1l-1.59,2.49-1.8-.73,1.49-2.59c-3.67-1.94-2.18-3.67-1.07-4.46h0l-4.57,4.39a2.36,2.36,0,0,1-1.66-1.45l4.67-4a31.86,31.86,0,0,1-3.46-2.56l-4.74,3.46L561,691.06l4.49-3.11a7.69,7.69,0,0,1-2.28-3.8,20.35,20.35,0,0,1-9,1c0,.28-1.76.28-3.46-.52a36.67,36.67,0,0,1,.28,15.71,28.89,28.89,0,0,0-.42,4.15,126.32,126.32,0,0,0,19.06,0c6.47-.94,17.3,6,34.36,3.46a43.84,43.84,0,0,0,12.59-3.25A13,13,0,0,0,611.25,700.89Z" transform="translate(-215.32 -185.91)" style="fill: #639b42"/>
      <path d="M583.33,696.63l-1.69,3.46c1.9.45,3.87.83,5.88,1.18l1.21-4C586.82,697.12,585,696.88,583.33,696.63Z" transform="translate(-215.32 -185.91)" style="fill: #639b42"/>
      <path d="M577.76,695.63l-.8-.28-1.93,3a32.47,32.47,0,0,0,3.21,1l1.84.45,1.42-3.46C580,696.12,578.8,695.87,577.76,695.63Z" transform="translate(-215.32 -185.91)" style="fill: #639b42"/>
      <path d="M573.09,697.5l1.73-3c-.93-.45-1.87-.93-2.8-1.48C570.91,693.83,569.42,695.56,573.09,697.5Z" transform="translate(-215.32 -185.91)" style="fill: #639b42"/>
      <path d="M591.36,697.64l-1.53,4.08c8.93,1.28,17.75,1.38,21.42-.83l-.83-.31A129.08,129.08,0,0,0,591.36,697.64Z" transform="translate(-215.32 -185.91)" style="fill: #639b42"/>
      <path d="M557.45,685.32c1.56-6.92-9-39.27-10.93-45.94C548.35,645.81,558,677.12,557.45,685.32Z" transform="translate(-215.32 -185.91)" style="fill: #639b42"/>
      <path d="M548.35,564.86a57.94,57.94,0,0,1-.24-20.76,15.77,15.77,0,0,0-11.59-17.92c-11.87-3.15-33.18-4.5-71,2.59L400.62,540c.45,8.07,2.77,15.5,9,18.58l112.09-3.46S520.4,574,532.09,623.88l18,62.27,13.84-1.76Z" transform="translate(-215.32 -185.91)" style="fill: #639b42"/>
    </g>
    <path d="M500,599.35s-14.7,91.2,8.27,95.42S601.7,687,602.7,687s17.3,19.3-14.42,29.72-101.79,6.6-102.82,6.92-9.52-8.93-9.52-8.93" transform="translate(-215.32 -185.91)" style="fill: #7e7e7e"/>
    <path d="M343.54,616.68c-.73,1.32-2.84,6.47,2,6.92s30.2-.69,30.65-1.63,1.91-5.32,1.91-5.32,111.19,6,116.9,1.21,5.4-7.89,5.4-7.89l-134.52.73" transform="translate(-215.32 -185.91)" style="fill: #f5841f"/>
    <path d="M737.94,730.68a58.81,58.81,0,1,1-2.28-16.33A58.8,58.8,0,0,1,737.94,730.68Z" transform="translate(-215.32 -185.91)" style="fill: #212636"/>
    <circle cx="463.56" cy="544.76" r="29.48" style="fill: #fff"/>
    <path d="M730.75,719.3a45.57,45.57,0,0,0-1.59-6.72,52.58,52.58,0,0,0-5.92-12.66,34.8,34.8,0,0,0-5.12-6c-.48-.49-1.14.2-.73.72,1.39,1.8,2.6,3.67,3.84,5.57a46.4,46.4,0,0,1,7.13,18.62c.21,1.24.31,2.49.42,3.73a14.09,14.09,0,0,0,.65,3.81.77.77,0,0,0,.9.45.72.72,0,0,0,.45-.45A14.42,14.42,0,0,0,730.75,719.3Z" transform="translate(-215.32 -185.91)" style="fill: #3d455c"/>
    <path d="M731,731.61a.65.65,0,0,0-.65-.66h0a.66.66,0,0,0-.65.66h0a50.66,50.66,0,0,1-.83,5.5c-.18.94-.39,1.8-.56,2.7a6.22,6.22,0,0,0-.34,2.77.64.64,0,0,0,.76.41H729a5.58,5.58,0,0,0,1.18-2.49,28.07,28.07,0,0,0,.58-2.9A26.71,26.71,0,0,0,731,731.61Z" transform="translate(-215.32 -185.91)" style="fill: #3d455c"/>
    <path d="M712.93,691.13a6.66,6.66,0,0,0-1.87-3.46,15.22,15.22,0,0,0-2.94-2.42.69.69,0,0,0-1,.22l0,0a.81.81,0,0,0,0,.87,15.53,15.53,0,0,1,2.6,2.46,20.93,20.93,0,0,0,2.35,2.63.42.42,0,0,0,.59,0l0,0A.38.38,0,0,0,712.93,691.13Z" transform="translate(-215.32 -185.91)" style="fill: #3d455c"/>
    <path d="M422.9,737a58.81,58.81,0,1,1-2.28-16.32A58.81,58.81,0,0,1,422.9,737Z" transform="translate(-215.32 -185.91)" style="fill: #212636"/>
    <circle cx="148.59" cy="551.06" r="29.48" style="fill: #fff"/>
    <path d="M415.78,725.73a42.06,42.06,0,0,0-1.59-6.92,50.57,50.57,0,0,0-5.92-12.63,33.78,33.78,0,0,0-5.09-6c-.51-.49-1.14.21-.72.72,1.38,1.77,2.59,3.67,3.8,5.54a42.7,42.7,0,0,1,7.34,18.65c0,1.24.31,2.49.41,3.7a13,13,0,0,0,.66,3.81.71.71,0,0,0,.85.49h0a.7.7,0,0,0,.48-.48A14.35,14.35,0,0,0,415.78,725.73Z" transform="translate(-215.32 -185.91)" style="fill: #3d455c"/>
    <path d="M416.19,737.91a.69.69,0,0,0-1.38,0,42.37,42.37,0,0,1-.8,5.5c-.17.9-.38,1.8-.59,2.7a7,7,0,0,0-.34,2.77.65.65,0,0,0,.76.41.49.49,0,0,0,.24,0,5.07,5.07,0,0,0,1.18-2.52,19.94,19.94,0,0,0,.62-2.88A32.33,32.33,0,0,0,416.19,737.91Z" transform="translate(-215.32 -185.91)" style="fill: #3d455c"/>
    <path d="M398,697.43a6.91,6.91,0,0,0-1.86-3.46,18.37,18.37,0,0,0-2.94-2.42.78.78,0,0,0-1,1.14,17.5,17.5,0,0,1,2.56,2.46,25.79,25.79,0,0,0,2.38,2.63.42.42,0,0,0,.59,0l0,0A.37.37,0,0,0,398,697.43Z" transform="translate(-215.32 -185.91)" style="fill: #3d455c"/>
    <path d="M383.88,726.22a11.2,11.2,0,0,0-.42-2.15,15.23,15.23,0,0,0-1.76-3.74,18.38,18.38,0,0,0-2.49-3.14,15.69,15.69,0,0,0-3.46-2.36,1.33,1.33,0,0,0-1.59.31,1.21,1.21,0,0,0,0,1.63,19.05,19.05,0,0,1,2.52,2.56,14.48,14.48,0,0,1,2,2.7,16.1,16.1,0,0,1,1.32,3c.17.59.35,1.15.55,1.73s.38,1.6,1.14,2a1.36,1.36,0,0,0,1.6-.21A2.67,2.67,0,0,0,383.88,726.22Z" transform="translate(-215.32 -185.91)" style="fill: #3567b0"/>
    <path d="M735.56,711.06c-18.13,1.94-70.1,3.46-81.41,5.09-10.38,1.31-26.09,16-33,23a56.38,56.38,0,0,1-1.18-11.8,58.62,58.62,0,0,1,12.87-36.78c1.18-.86,12.18-5.43,12.18-5.43l21.45-5.74,24.7-1.7h16l10.11,4.88A59,59,0,0,1,735.56,711.06Z" transform="translate(-215.32 -185.91)" style="fill: #767576"/>
    <path d="M617.79,501.06c.66.27,18.09,27.68-2,38.05" transform="translate(-215.32 -185.91)" style="fill: #4d4c4d"/>
    <path d="M588,504.14v-4.95c0-3,.34-5.95.58-8.93.49-5.43,1.22-10.82,2.15-16.22a11,11,0,0,0,6.92-2.77,17.83,17.83,0,0,0,5.4-5,11.41,11.41,0,0,0,1.07-8.2A20.82,20.82,0,0,0,601.6,450a8.79,8.79,0,0,0-7.23-4.29,1.16,1.16,0,0,0-1.14.83q-2,11.73-3.78,23.52a1.47,1.47,0,0,0,0,.66v.45c-.55,2.94-1,5.92-1.48,8.89-.83,5.92-1.39,11.87-1.63,17.82V505a24.06,24.06,0,0,0-4.81,3.46c0-.61,0-1.23,0-1.84a75.14,75.14,0,0,0-.83-8.82,61.1,61.1,0,0,0-2.52-12.42A17,17,0,0,0,580.32,475a27,27,0,0,0-2.11-7.68,24.9,24.9,0,0,0-1.8-3.46,11.08,11.08,0,0,0-2.32-3.46,1.08,1.08,0,0,0-.34-.21,2.07,2.07,0,0,0-1.18-.51h0a1.18,1.18,0,0,0-.59,0v-.25a.65.65,0,0,0-.65-.65h0a.67.67,0,0,0-.59.31.78.78,0,0,0-.83.55,45.84,45.84,0,0,0-1.52,7.79c-.42,2.62-.76,5.29-1.11,8s-.62,5.26-.9,7.89c0,1.38-.27,2.73-.38,4.08s-.31,2.53-.34,3.81a2,2,0,0,0,1.28,1.94.92.92,0,0,0,1.1.38,2.85,2.85,0,0,0,.63-.25,7.39,7.39,0,0,0,2.94-1.1c1-.69,2-1.42,2.94-2.18a16.42,16.42,0,0,0,2.39-2.25c.2.59.38,1.18.55,1.76A96.1,96.1,0,0,1,579.84,506c0,1.49.2,3,.24,4.53a20.92,20.92,0,0,0-4.4,8.44c-5.39,20.76,33.84,23.5,33.84,23.5l.93-40.62A47.84,47.84,0,0,0,588,504.14Z" transform="translate(-215.32 -185.91)" style="fill: #7e7e7e"/>
    <path d="M607.31,496.39v49.06s7.75.69,8,0,3.46-49.06,3.46-49.06" transform="translate(-215.32 -185.91)" style="fill: #4d4c4d"/>
    <path d="M607.31,503.65h11l-.31,4.57H607.31" transform="translate(-215.32 -185.91)" style="fill: #4d4c4d"/>
    <path d="M598.55,504.48a.78.78,0,0,0-.76-.58,15.73,15.73,0,0,0-2.63.38,24,24,0,0,0-2.38.51c-.8.21-1.56.49-2.32.77a4.24,4.24,0,0,0-2,1.41.4.4,0,0,0,0,.59h.2a6.5,6.5,0,0,0,2.25-.62,18.06,18.06,0,0,1,2.25-.66l2.32-.45a18.26,18.26,0,0,0,2.42-.41.8.8,0,0,0,.59-.76A.52.52,0,0,1,598.55,504.48Z" transform="translate(-215.32 -185.91)" style="fill: #4d4c4d"/>
    <path d="M602.64,504.1a.59.59,0,0,0-.77-.27h-1.41a.44.44,0,0,0-.25.17.45.45,0,0,0,0,.28.33.33,0,0,0,0,.24.38.38,0,0,0,.28.21h1.42a.79.79,0,0,0,.48,0,.69.69,0,0,0,.28-.28A.43.43,0,0,0,602.64,504.1Z" transform="translate(-215.32 -185.91)" style="fill: #4d4c4d"/>
    <path d="M620.9,509.71h0a2.2,2.2,0,0,0-.2-.56h0v-.76l-.39-.14h0l-.24-.17a.53.53,0,0,0-.69,0,.74.74,0,0,0,0,.21,1.1,1.1,0,0,0,0,.76v.83a.81.81,0,0,0,0,.31.73.73,0,0,0,.38.52,1,1,0,0,0,.42,0,.84.84,0,0,0,.38-.21A1,1,0,0,0,620.9,509.71Z" transform="translate(-215.32 -185.91)" style="fill: #4d4c4d"/>
    <path d="M624.09,521.09a24.52,24.52,0,0,0-.56-4.43c-.17-.72-.38-1.44-.62-2.14a3.9,3.9,0,0,0-1.07-1.84.49.49,0,0,0-.66,0h0a5.16,5.16,0,0,0,.35,1.94c.2.69.38,1.38.51,2.08a22.33,22.33,0,0,1,0,8.23l-.41,2a4.55,4.55,0,0,0-.24,2.07.52.52,0,0,0,.62.35h0a3.13,3.13,0,0,0,1-1.77,11.37,11.37,0,0,0,.76-2A25.61,25.61,0,0,0,624.09,521.09Z" transform="translate(-215.32 -185.91)" style="fill: #fff"/>
    <path d="M512.48,558.28s-1.42,15.67-4.19,30.55a108.07,108.07,0,0,1-5.33,20c-6.26,14.81-145,2.49-152.78,0-5.88-1.84-5.33-17.54-3.73-30.79.55-4.4,1.21-8.55,1.76-11.84,2.25-13,15.05-6.05,15.12-5.84Z" transform="translate(-215.32 -185.91)" style="fill: #7e7e7e"/>
    <path d="M508.29,588.83a108.07,108.07,0,0,1-5.33,20c-6.26,14.81-145,2.49-152.78,0-5.88-1.84-5.33-17.54-3.73-30.79h0c7.95,7.19,7.3,24.21,14.15,26.12s131.19,5.6,139.42-4.81C503.69,594.75,506.35,591.29,508.29,588.83Z" transform="translate(-215.32 -185.91)" style="fill: #4d4c4d"/>
    <path d="M584,536.45a6.92,6.92,0,1,1-6.92-6.92h0A6.92,6.92,0,0,1,584,536.45Z" transform="translate(-215.32 -185.91)" style="fill: #f6901e"/>
    <path d="M305,731.82s118,1.8,117.94,0,1.56-9.79,0-14S306.76,715,306.76,715" transform="translate(-215.32 -185.91)" style="fill: #767576"/>
    <path d="M313,616c1.25,2.35,14.26,20.55,14.26,20.55l4.22-3.46-13-18.16" transform="translate(-215.32 -185.91)" style="fill: #f6901e"/>
    <path d="M333.85,631.38a11.38,11.38,0,0,0-8.3,6.75" transform="translate(-215.32 -185.91)" style="fill: #154a96"/>
    <rect x="14.43" y="267.99" width="134.17" height="145.45" style="fill: #f6901e"/>
    <rect x="9.51" y="403.19" width="140.88" height="10.21" style="fill: #76bb43"/>
    <rect x="7.4" y="264.81" width="142.99" height="7.75" style="fill: #72af44"/>
    <path d="M229.75,463.59l134.17-5.12H229.75" transform="translate(-215.32 -185.91)" style="fill: #76bb43"/>
    <path d="M610.11,550.84s47.67,83.35,46,88.74,3.46,4.71,4.22,3.78,0-10.59,0-10.59l-47.29-81.93" transform="translate(-215.32 -185.91)" style="fill: #fff"/>
    <rect x="11.38" y="305.08" width="5.88" height="22.52" rx="1.11" style="fill: #72af44"/>
    <rect x="6.57" y="308.81" width="5.88" height="15.02" rx="1.11" style="fill: #76bb43"/>
    <path d="M676,652.87c-2.7-.21,50.72-8.3,66.19,34.94,0,0-2.32,6.92-4.33,3.88S722.44,656.4,676,652.87Z" transform="translate(-215.32 -185.91)" style="fill: #fff"/>
    <path d="M386.79,446l-.84-.35Z" transform="translate(-215.32 -185.91)" style="fill: none"/>
    <path d="M384.4,445l1.17.34Z" transform="translate(-215.32 -185.91)" style="fill: none"/>
    <path d="M386,445.46h0Z" transform="translate(-215.32 -185.91)" style="fill: #035c65"/>
    <path d="M611.22,708.19a42.72,42.72,0,0,1-12.56,3.22c-17.3,2.59-27.92-4.29-34.39-3.46a116.75,116.75,0,0,1-19.07,0c-.27,8.61,4.81,7.3,9.24,6.5,5-.86,9.07-1.35,28.54,1.56s28.44-4.43,28.44-4.43A2.57,2.57,0,0,0,611.22,708.19Z" transform="translate(-215.32 -185.91)" style="fill: #d5d5bc"/>
    <path d="M581.6,707.05l2.08.66,2.42-6.44-2.63-.31Z" transform="translate(-215.32 -185.91)" style="fill: #dad6ba"/>
    <path d="M573.82,705.84l1.48.21,2.77-5.82-1.83-.27Z" transform="translate(-215.32 -185.91)" style="fill: #dad6ba"/>
    <path d="M569.56,698.12l-3.22,5.57,1.77.73,3.46-5.43Q570.55,698.6,569.56,698.12Z" transform="translate(-215.32 -185.91)" style="fill: #dad6ba"/>
    <path d="M560.43,699.54a2.59,2.59,0,0,0,1.69,1.49l4.57-4.43-1.56-1Z" transform="translate(-215.32 -185.91)" style="fill: #dad6ba"/>
    <path d="M557,696.53l4.74-3.46a18.68,18.68,0,0,1-1.59-1.49l-4.47,3.12Z" transform="translate(-215.32 -185.91)" style="fill: #dad6ba"/>
    <path d="M567.83,701.1l-1.49,2.59,1.77.73,1.62-2.49A14.57,14.57,0,0,1,567.83,701.1Z" transform="translate(-215.32 -185.91)" style="fill: none"/>
    <path d="M573.82,705.84l1.48.21,1.08-2.25-1.56-.35Z" transform="translate(-215.32 -185.91)" style="fill: none"/>
    <path d="M581.6,707.05l2.08.66.9-2.39-2.36-.35Z" transform="translate(-215.32 -185.91)" style="fill: none"/>
    <path d="M578.07,700.27l-1.69,3.46c1.9.45,3.87.83,5.84,1.17l1.25-4Z" transform="translate(-215.32 -185.91)" style="fill: #eb5524"/>
    <path d="M572.47,699.23l-.8-.24-1.94,2.94a33.39,33.39,0,0,0,3.26,1l1.83.48,1.42-3.46C574.72,699.71,573.4,699.47,572.47,699.23Z" transform="translate(-215.32 -185.91)" style="fill: #eb5524"/>
    <path d="M567.83,701.1l1.73-3a25,25,0,0,1-2.8-1.49C565.65,697.47,564.13,699.16,567.83,701.1Z" transform="translate(-215.32 -185.91)" style="fill: #eb5524"/>
    <path d="M586.06,701.27l-1.48,4.05c8.89,1.31,17.71,1.38,21.38-.8a4.53,4.53,0,0,0-.83-.34A130.7,130.7,0,0,0,586.06,701.27Z" transform="translate(-215.32 -185.91)" style="fill: #eb5524"/>
    <path d="M419.1,341.25l-8.51,6.09a64.35,64.35,0,0,0-19.07,48.72,5,5,0,0,0,0,.55l2.08,9.89v.39L399,475.56v39.79l60.86.9S440.41,411.8,444.35,373.71a27.61,27.61,0,0,0-2.21-14.6A41.87,41.87,0,0,0,430,343.16S423.11,347.48,419.1,341.25Z" transform="translate(-215.32 -185.91)" style="fill: #f68f1e"/>
    <path d="M422.07,361.18c3.46,1.77,17.93,11.14,30.55,45.22a3.15,3.15,0,0,1-1.83,4h0l-33.59,11s-36.12-63.28,3.46-60.65A3.2,3.2,0,0,1,422.07,361.18Z" transform="translate(-215.32 -185.91)" style="fill: #f68f1e"/>
    <path d="M443.87,537.39c3.7-2.7,16.3-5.09,16.3-5.09l-19.76-.8,19.65.8a29.45,29.45,0,0,0-18.51-3.7" transform="translate(-215.32 -185.91)" style="fill: none;stroke: #577234;stroke-linejoin: round;stroke-width: 0.1899999976158142px"/>
    <path d="M552.19,689c1.53-6.92-9-39.3-10.93-45.94C543.09,649.44,552.92,680.72,552.19,689Z" transform="translate(-215.32 -185.91)" style="fill: #107abf"/>
    <path d="M487.57,720.13s1.38-2.11,5.39,0,58.82,10.38,87.57-5.37c0,0,9.17-6.92,11.52-4.32s-9.86,11.35-19,15.08S492.72,736.8,487.57,720.13Z" transform="translate(-215.32 -185.91)" style="fill: #fff"/>
    <path d="M364.3,618.34H224.84a9.52,9.52,0,0,1-9.52-9.48h0a9.51,9.51,0,0,1,9.52-9.51H364.3a9.55,9.55,0,0,1,9.51,9.51h0A9.55,9.55,0,0,1,364.3,618.34Z" transform="translate(-215.32 -185.91)" style="fill: #696969"/>
    <path d="M305,694.77c-1.62,1,30.86-31.35,74-29.58s51.1,35.7,50,36.81-8.33,1.73-12.69-10.38S374.68,652.87,305,694.77Z" transform="translate(-215.32 -185.91)" style="fill: #fff"/>
    <path d="M586.93,521.44a8.24,8.24,0,0,0-8.24-8.24h0a8,8,0,0,0-4.22,1.21h0l-4.43,2.8h0a8.24,8.24,0,0,0,3.46,15.64,7.61,7.61,0,0,0,2-.27h0a8.07,8.07,0,0,0,3.77-2.15l2.11-1.24a8.6,8.6,0,0,0,2.32-1.32h0A8.25,8.25,0,0,0,586.93,521.44Z" transform="translate(-215.32 -185.91)" style="fill: #1a1717"/>
    <path d="M452.55,221.31A45.94,45.94,0,0,1,440.79,232c2.63,4.43,4.33,7.65,4.33,7.65,46.11-24.22,45.77-51.72,45.66-53.59C478.16,188.58,468.09,200.58,452.55,221.31Z" transform="translate(-215.32 -185.91)" style="fill: #f26e21"/>
    <path d="M435.77,331.05h0Z" transform="translate(-215.32 -185.91)" style="fill: #e5a68d;stroke: #0595d3;stroke-miterlimit: 10;stroke-width: 0.3199999928474426px"/>
    <path d="M433.8,335.51l2-4.46a51.7,51.7,0,0,1-13.38-8.34l-.9,3.18A17.27,17.27,0,0,0,433.8,335.51Z" transform="translate(-215.32 -185.91)" style="fill: #d0753b"/>
    <path d="M421.49,325.89l-2.43,8.51-1.48,5.26-.49,1.7h-.21v.41h0v1a1.93,1.93,0,0,0,0,.34v.52a.74.74,0,0,0,0,.21,2.41,2.41,0,0,0,0,.38h0a2.94,2.94,0,0,0,0,.42h0v1.07a1,1,0,0,0,0,.24v1l.28.28.17.2.32.28.24.21.38.27h.21l.69.42c6.26,3.46,7.51-.24,8.85-3.18l2.25-5.09,2.43-5.47A17.27,17.27,0,0,1,421.49,325.89Z" transform="translate(-215.32 -185.91)" style="fill: #e9a861"/>
    <path d="M449.72,293.44a43.36,43.36,0,0,0,24.73,12.8c.59-1.62,1.15-3.25,1.6-4.84C472.83,301.23,457.71,300.05,449.72,293.44Z" transform="translate(-215.32 -185.91)" style="fill: #d0753b"/>
    <path d="M405.36,306.52a40.55,40.55,0,0,0,6.06,8.2c5.74-.17,3.46-4,.66-7.61a5.43,5.43,0,0,1-1-2.08c-.52.24-1.25-.24-1.87,0A17.38,17.38,0,0,1,405.36,306.52Z" transform="translate(-215.32 -185.91)" style="fill: #17181a"/>
    <path d="M408,243.41c-.2-.89-.69-3.14-1-4.63l-3.11.48c-2.39.35-3.78.45-3.78.45-18.71,20.17-22.17,28.1-22.17,28.1s11.28,14.18,13.42,16.71a11,11,0,0,1,14.12,2.31,46.83,46.83,0,0,1,7.44,9.38,6.38,6.38,0,0,0,1.14-2.53,5.44,5.44,0,0,0,.21-1.28c0-1.9-3.81-7.5-6.92-15.95s-2.15-9-1.42-13.28S408.24,244.8,408,243.41Z" transform="translate(-215.32 -185.91)" style="fill: #17181a"/>
    <path d="M413.67,297.21l-.76-1.21a39.13,39.13,0,0,0-7.44-9.17c-6-5.74-11.21-4.11-14.12-2.24-.55.34-5.05,3.87-2.9,12.66a11.86,11.86,0,0,0,5.7,7.54,19.91,19.91,0,0,0,7.62,1.83,19,19,0,0,0,12.28-3,2.86,2.86,0,0,0,1.14-3A12.27,12.27,0,0,0,413.67,297.21Z" transform="translate(-215.32 -185.91)" style="fill: #e9a861"/>
    <path d="M411.76,298.7c-2.73-4.6-7.16-9.72-13-9.24a6.51,6.51,0,0,0-2.63.7,6.9,6.9,0,0,0-2,7.81,9.08,9.08,0,0,0,7.58,5.92,31.72,31.72,0,0,0,3.18.48,11.49,11.49,0,0,0,5.29-.72,3.8,3.8,0,0,0,2.08-1.59A3.47,3.47,0,0,0,411.76,298.7Z" transform="translate(-215.32 -185.91)" style="fill: #de9254"/>
    <path d="M398.62,296.73s4.43-1.63,5.77-.28.35,2-.24,2.25-1,1.21,1.18,2.11,5.47.73,5.29-.45-1.73-1-2.59-2.11a3.47,3.47,0,0,1-.9-2.25,5.83,5.83,0,0,0-4.64-2.07C400.8,294.1,398.62,296.73,398.62,296.73Z" transform="translate(-215.32 -185.91)" style="fill: #e9a861"/>
    <line x1="226.99" y1="49.72" x2="226.71" y2="49.65" style="fill: none"/>
    <path d="M485.39,264.59a8.55,8.55,0,0,0-11.14-4.12,167.5,167.5,0,0,0-17.68-41.31,6.53,6.53,0,0,0,.48-.86l-.86.24-4.4-8.55a176.11,176.11,0,0,1-14.94,13.84l-5,1.32V228c-2.76,2.25-5.84,4.67-9.27,7.27a134.18,134.18,0,0,1-15.6,3.63c.31,1.49.8,3.74,1,4.64a72.74,72.74,0,0,1-.62,8.72,31.34,31.34,0,0,0-1.21,10.38v.69c-.73,4.29-1.56,4.84,1.42,13.28s6.92,14.05,6.92,16a7.29,7.29,0,0,1-1.35,3.81h0c.24.38.52.76.76,1.21,3.15,5.26,1,6.09-2.56,7.68a5.15,5.15,0,0,0,1,2.08c2.8,3.45,5.08,7.43-.66,7.61a90,90,0,0,0,8.79,8.23v.17a48.76,48.76,0,0,0,12.94,8.06h.2a36.51,36.51,0,0,0,6.61,2,25.69,25.69,0,0,0,10.9-.34,14.68,14.68,0,0,0,3.46-1.22h0l.62-.27a24.77,24.77,0,0,0,6.54-4.6,19.68,19.68,0,0,0,2.08-2.39,53.27,53.27,0,0,0,10.76-18.16,43.46,43.46,0,0,1-24.74-12.81c7.92,6.61,23.11,7.79,26.33,8a83.58,83.58,0,0,0,3.08-23.9S488.85,271.89,485.39,264.59Z" transform="translate(-215.32 -185.91)" style="fill: #e9a861"/>
    <path d="M454.25,205.08c7.78-6.36,6.92-4.74,19.58-13a301.77,301.77,0,0,0-31.62,18.37h0c-.38-.52-.8-1-1.21-1.52a59.48,59.48,0,0,0-12,8C428.06,219,443.66,213.66,454.25,205.08Z" transform="translate(-215.32 -185.91)" style="fill: #94ba4f"/>
    <path d="M454.25,205.08c7.78-6.36,6.92-4.74,19.58-13a301.77,301.77,0,0,0-31.62,18.37h0c-.38-.52-.8-1-1.21-1.52a59.48,59.48,0,0,0-12,8C428.06,219,443.66,213.66,454.25,205.08Z" transform="translate(-215.32 -185.91)" style="fill: #f26e21"/>
    <path d="M490.47,185.91a20.44,20.44,0,0,0-5.29,1.11,20.17,20.17,0,0,0-7.4,2.94l-4,2c-12.63,8.37-11.8,6.75-19.55,13.11-10.38,8.58-26.16,13.84-25.36,12a61.41,61.41,0,0,1,12-8c-9.48-11.17-31.14-13-47.67-6.37a35.83,35.83,0,0,0-13.36,10.11,60.11,60.11,0,0,0-5,6.92,71.07,71.07,0,0,0-9.58,23.11,9.39,9.39,0,0,0,0,2.8,20.66,20.66,0,0,0,1.25,4A74.21,74.21,0,0,0,374.19,263c2.46,3.46,4.78,6.47,5.85,7.79h0s2.49-7.34,16.29-23.32c1.87-2.18,3.95-4.5,6.27-6.92,0,0,28-2.39,48.43-15.85,10.38-6.92,25-35.46,39.58-38.4Z" transform="translate(-215.32 -185.91)" style="fill: #f6901e"/>
    <g>
      <path d="M460.48,258.91c.93,3.29,0,6.4-1.87,6.92s-4.29-1.62-5.23-4.91,0-6.43,1.87-6.92S459.54,255.7,460.48,258.91Z" transform="translate(-215.32 -185.91)" style="fill: #343c41"/>
      <path d="M458.05,260.75c.42,1.55,0,3-.89,3.28s-2-.76-2.43-2.28,0-3,.87-3.29S457.71,259.16,458.05,260.75Z" transform="translate(-215.32 -185.91)" style="fill: #fff"/>
    </g>
    <g>
      <path d="M410.52,207.85l2.9,3a5.16,5.16,0,0,1,.42-1.73,3.73,3.73,0,0,1,1.31-1.42,5,5,0,0,1,2.39-.83,5.18,5.18,0,0,1,2.6.48,8.26,8.26,0,0,1,2.49,1.77,8.39,8.39,0,0,1,1.31,1.83,4.11,4.11,0,0,1,.52,1.8,3.45,3.45,0,0,1-1.62,3,4.88,4.88,0,0,1-1.08.52,4.26,4.26,0,0,1-1.9.24l-1.14-.17v.21a1.52,1.52,0,0,1,.52,1,1,1,0,0,1-.49.79,1.37,1.37,0,0,1-1,.24,1.93,1.93,0,0,1-1.07-.65l-8.3-8.62a2,2,0,0,1-.59-1.11,1,1,0,0,1,.45-.83,1.5,1.5,0,0,1,1.07-.24A2.21,2.21,0,0,1,410.52,207.85Zm5.67,5.78a4.41,4.41,0,0,0,2.36,1.42,2.84,2.84,0,0,0,2.21-.45,1.88,1.88,0,0,0,.8-1.63,3.51,3.51,0,0,0-1.18-2.25,6,6,0,0,0-1.56-1.18,3.49,3.49,0,0,0-1.52-.38,2.41,2.41,0,0,0-1.38.42,1.81,1.81,0,0,0-.83,1.07,2.16,2.16,0,0,0,0,1.42,4.76,4.76,0,0,0,1,1.56Z" transform="translate(-215.32 -185.91)" style="fill: #fff"/>
      <path d="M420.72,201l2.88,3a4.49,4.49,0,0,1,.45-1.76,3.35,3.35,0,0,1,1.31-1.38,4.76,4.76,0,0,1,2.35-.83,5.06,5.06,0,0,1,2.6.48,8.05,8.05,0,0,1,2.49,1.76,8.21,8.21,0,0,1,1.31,1.84,4.07,4.07,0,0,1,.52,1.8,3.1,3.1,0,0,1-.38,1.66,3.26,3.26,0,0,1-1.24,1.31,4.54,4.54,0,0,1-1,.56,4,4,0,0,1-1.07.24h-2v.21a1.31,1.31,0,0,1,.52,1,1,1,0,0,1-.49.8,1.36,1.36,0,0,1-1,.24,2.21,2.21,0,0,1-1.08-.66l-8.3-8.61a2.08,2.08,0,0,1-.59-1.11,1,1,0,0,1,.45-.83,1.44,1.44,0,0,1,1.28-.38A2.4,2.4,0,0,1,420.72,201Zm5.85,5.78a4.42,4.42,0,0,0,2.35,1.42,3,3,0,0,0,2.22-.45,1.69,1.69,0,0,0,.79-1.63,3.43,3.43,0,0,0-1.17-2.24,4.59,4.59,0,0,0-1.52-1.18,3.42,3.42,0,0,0-1.56-.38,2.56,2.56,0,0,0-1.39.41,2,2,0,0,0-.83,1.08,2.3,2.3,0,0,0,0,1.42A4.85,4.85,0,0,0,426.57,206.74Z" transform="translate(-215.32 -185.91)" style="fill: #fff"/>
    </g>
    <path d="M416.82,421.35s10.86-10.69,19.85-12.56a49.24,49.24,0,0,1,16.06-.87s-1.11,6.16-16.06,10.8S416.82,421.35,416.82,421.35Z" transform="translate(-215.32 -185.91)" style="fill: #f26f21"/>
    <path d="M585.44,514.83c-5.4-8.13-29-1.18-29-1.18l-91.13-38.57L445,408.34a.49.49,0,0,0-.42-.42A29.08,29.08,0,0,0,422.32,417l30.06,72.65c25.26,19.48,101.27,31.45,101.27,31.45a43.65,43.65,0,0,0,11.66,2.21,4.7,4.7,0,0,1,5.5-3.73,4.59,4.59,0,0,1,1.41.52c5.71,1.31,4.29,8.65,4.29,8.65-.48,3.21,1.42,1.66,1.42,1.66a12,12,0,0,0,.52-7.61,12.36,12.36,0,0,1-.21,6.74,1.14,1.14,0,0,0,1.29,1h.06a1.09,1.09,0,0,0,.7-.38l.27-.62c1.25,2.31,2.74,0,2.74,0,2.14-6.92,1.35-8.86.9-9.48,1.69,1.9-.7,8.85-.7,8.85a2.67,2.67,0,0,0,2.6-1.69A9.59,9.59,0,0,0,585.44,514.83Zm-4.81,14.87a16.1,16.1,0,0,0,1.32-8.13A13.58,13.58,0,0,1,580.63,529.7Z" transform="translate(-215.32 -185.91)" style="fill: #e9a861"/>
    <path d="M604.16,689.82a31.93,31.93,0,0,1-9.14,2.84c-12.59,2.49-20.75-2.18-25.39-1.25a91.47,91.47,0,0,1-13.84.66c0,6.33,3.77,5.19,6.92,4.46s6.61-1.31,21,0,20.75-4.29,20.75-4.29A1.89,1.89,0,0,0,604.16,689.82Z" transform="translate(-215.32 -185.91)" style="fill: #d4d3bc"/>
    <path d="M582.26,690l1.55.41,1.53-4.81H583.4Z" transform="translate(-215.32 -185.91)" style="fill: #d9d5ba"/>
    <path d="M576.55,689.44h1.11l1.83-4.36h-1.35Z" transform="translate(-215.32 -185.91)" style="fill: #d9d5ba"/>
    <path d="M573.16,683.9,571,688.12l1.35.49,2.42-4.15A13,13,0,0,1,573.16,683.9Z" transform="translate(-215.32 -185.91)" style="fill: #d9d5ba"/>
    <path d="M566.52,685.29a1.73,1.73,0,0,0,1.28,1l3.18-3.46-1.14-.66Z" transform="translate(-215.32 -185.91)" style="fill: #d9d5ba"/>
    <path d="M563.89,683.18l3.46-2.74a7.94,7.94,0,0,1-1.21-1l-3.22,2.42Z" transform="translate(-215.32 -185.91)" style="fill: #d9d5ba"/>
    <path d="M571.88,686.15l-1,2,1.34.49,1.11-1.9A8.21,8.21,0,0,1,571.88,686.15Z" transform="translate(-215.32 -185.91)" style="fill: none"/>
    <path d="M576.55,689.44h1.11l.72-1.7-1.17-.2Z" transform="translate(-215.32 -185.91)" style="fill: none"/>
    <path d="M582.26,690l1.55.41.56-1.76-1.73-.18Z" transform="translate(-215.32 -185.91)" style="fill: none"/>
    <path d="M600.14,687.33c-2.59,1.73-9.09,2-15.7,1.35l-.56,1.76-1.55-.41.38-1.53a23.09,23.09,0,0,1-4.33-.65l-.72,1.69h-1.11l.66-1.8-1.35-.31c-1-.21-1.77-.41-2.42-.62l-1.11,1.87-1.35-.49,1-1.93c-2.81-1.28-1.77-2.6-1-3.26h0l-3.22,3.46a1.77,1.77,0,0,1-1.28-1l3.46-3a23.69,23.69,0,0,1-2.56-1.76L564,683.31,563,682l3.22-2.46a5.63,5.63,0,0,1-1.83-2.69,15.07,15.07,0,0,1-6.54,1c0,.21-1.32.28-2.67-.24a27.85,27.85,0,0,1,.77,11.52,22.61,22.61,0,0,0,0,3.08,88.81,88.81,0,0,0,13.83-.66c4.74-.93,12.8,3.74,25.4,1.25a32.94,32.94,0,0,0,9.13-2.84A9.73,9.73,0,0,0,600.14,687.33Z" transform="translate(-215.32 -185.91)" style="fill: #f6901e"/>
    <path d="M579.49,685.18l-1.11,2.67c1.39.24,2.87.48,4.33.65l.76-3Z" transform="translate(-215.32 -185.91)" style="fill: #eb5524"/>
    <path d="M575.34,684.7h-.59L573.44,687a18.38,18.38,0,0,0,2.42.65l1.35.28.93-2.59A9.65,9.65,0,0,0,575.34,684.7Z" transform="translate(-215.32 -185.91)" style="fill: #eb5524"/>
    <path d="M571.88,686.15l1.18-2.25a21.27,21.27,0,0,1-2.12-1C570.25,683.56,569.21,684.87,571.88,686.15Z" transform="translate(-215.32 -185.91)" style="fill: #eb5524"/>
    <path d="M585.41,685.63l-1,3c6.61.62,13.11.38,15.7-1.35l-.62-.21A91.65,91.65,0,0,0,585.41,685.63Z" transform="translate(-215.32 -185.91)" style="fill: #eb5524"/>
    <path d="M606,704.52c-3.46,2.18-12.46,2.11-21.38.8l-.9,2.39-2.08-.66.62-2.08c-2-.34-3.94-.72-5.84-1.17l-1.08,2.25-1.48-.21,1-2.39L573,703c-1.1-.29-2.19-.64-3.26-1l-1.62,2.49-1.77-.73,1.49-2.59c-3.7-1.94-2.21-3.63-1.07-4.47h0l-4.57,4.43a2.44,2.44,0,0,1-1.69-1.48l4.7-3.91a31.26,31.26,0,0,1-3.46-2.6L557,696.53l-1.35-1.9,4.5-3.08a8,8,0,0,1-2.28-3.81,21.13,21.13,0,0,1-9,1c0,.27-1.77.27-3.46-.56a37.81,37.81,0,0,1,.24,15.71,36,36,0,0,0-.42,4.15,121.41,121.41,0,0,0,19.07,0c6.47-.93,17.3,6,34.39,3.46a42.58,42.58,0,0,0,12.55-3.22A12.82,12.82,0,0,0,606,704.52Z" transform="translate(-215.32 -185.91)" style="fill: #f68f1e"/>
    <path d="M398.55,516.56c-1.7,6.54-8.82,37.78,5.4,45.42a1.61,1.61,0,0,0,.86.21l109.91-3.46a1.58,1.58,0,0,1,1.66,1.52v0h0c0,5.57.65,25.57,10.37,67.05l17.58,61.06a1.59,1.59,0,0,0,1.76,1.14l10.73-1.35a1.65,1.65,0,0,0,1.42-1.8h0l-15.19-117.9h0a58.27,58.27,0,0,1-.42-19.45A17.3,17.3,0,0,0,530,529.46c-11.9-2.87-32.62-3.91-68.29,2.67a1.65,1.65,0,0,1-1.84-1.18l-3.63-13.84a1.61,1.61,0,0,0-1.56-1.18l-54.56-.41A1.59,1.59,0,0,0,398.55,516.56Z" transform="translate(-215.32 -185.91)" style="fill: #76bb43"/>
    <path d="M588.35,514.83c-.42,0-24.74,11.9-11.7,35.53s33.8,128.91,20.24,148.77S498.12,728.71,490,707.26,503,609,503,609s-148.25-3.88-152.78,0-58.09,47.22-55.63,106l153.33,2.8A46.94,46.94,0,0,0,488.26,752c34.15,4.94,111.64-.35,122.92-21.11s59.51-53.55,54.94-88.74S590,515,590,515" transform="translate(-215.32 -185.91)" style="fill: #f6901e"/>
    <path d="M439.65,722.76s-1.83-60.45-54-61.48-101.34,27.05-103.79,67.36H439.65" transform="translate(-215.32 -185.91)" style="fill: #76bb43"/>
    <path d="M606.65,743.24s23.46-19.07,41.9-36c0,0,102.26,2.18,103.79-2.49s-9-58.16-77.22-58.5C675.12,646.3,593.81,657.57,606.65,743.24Z" transform="translate(-215.32 -185.91)" style="fill: #76bb43"/>
    <path d="M305,698.54c-1.62,1,30.86-31.35,74-29.58s51.1,35.7,50,36.88-8.33,1.76-12.69-10.38S374.68,656.68,305,698.54Z" transform="translate(-215.32 -185.91)" style="fill: #fff"/>
    <path d="M674,652.87c-2.66-.21,50.72-8.3,66.22,34.94,0,0-2.32,6.92-4.33,3.88S720.65,656.4,674,652.87Z" transform="translate(-215.32 -185.91)" style="fill: #fff"/>
    <g>
      <g>
        <path d="M254.21,520.26l.48,5.57a9.62,9.62,0,0,1,1.94-1.83,6.26,6.26,0,0,1,2.6-.8,5.63,5.63,0,0,1,5.64,2.91,9.33,9.33,0,0,1,1.07,3.8,10.6,10.6,0,0,1,0,3.08,7.42,7.42,0,0,1-1,2.53,5.41,5.41,0,0,1-1.83,1.73,5.62,5.62,0,0,1-2.46.79,8.45,8.45,0,0,1-1.59,0,4.08,4.08,0,0,1-1.31-.41,6.2,6.2,0,0,1-1-.63,8.59,8.59,0,0,1-1.07-.93v.35a2.27,2.27,0,0,1-.35,1.62,1.74,1.74,0,0,1-1.21.63,1.45,1.45,0,0,1-1.28-.42,2.28,2.28,0,0,1-.62-1.52l-1.39-16a2.64,2.64,0,0,1,.28-1.7,1.6,1.6,0,0,1,1.21-.69,1.77,1.77,0,0,1,1.25.24A2.56,2.56,0,0,1,254.21,520.26Zm1.11,10.83a4.91,4.91,0,0,0,1.31,3.25,3.1,3.1,0,0,0,2.7.93,3,3,0,0,0,2.28-1.38,5.51,5.51,0,0,0,.7-3.46,7.08,7.08,0,0,0-.66-2.46,3.16,3.16,0,0,0-1.32-1.48,2.8,2.8,0,0,0-1.83-.42,3.16,3.16,0,0,0-1.8.73,3.82,3.82,0,0,0-1.14,1.76A6.37,6.37,0,0,0,255.32,531.09Z" transform="translate(-215.32 -185.91)" style="fill: #2e8742;stroke: #fff;stroke-miterlimit: 10;stroke-width: 1.899999976158142px"/>
        <path d="M279.15,529.81l-7.12.62a4.7,4.7,0,0,0,.69,2.15,3.45,3.45,0,0,0,1.42,1.31,3.72,3.72,0,0,0,1.83.35,4.83,4.83,0,0,0,1.18-.28,3.61,3.61,0,0,0,1-.59,5,5,0,0,0,.87-.79,12,12,0,0,0,1-1.11,1.47,1.47,0,0,1,.8-.31,1.29,1.29,0,0,1,.93.24,1.18,1.18,0,0,1,.42.83,3,3,0,0,1-.28,1.21,4.53,4.53,0,0,1-1.07,1.35A6.6,6.6,0,0,1,279,536a8.63,8.63,0,0,1-2.7.62,7.22,7.22,0,0,1-5.64-1.52,7.47,7.47,0,0,1-2.42-5.26,9.13,9.13,0,0,1,.21-3,7,7,0,0,1,1.21-2.53,5.52,5.52,0,0,1,2.14-1.69,7.76,7.76,0,0,1,3-.8,6.93,6.93,0,0,1,3.73.56,5.75,5.75,0,0,1,2.49,2.14,6,6,0,0,1,1,2.87,1.8,1.8,0,0,1-.62,1.84A5.2,5.2,0,0,1,279.15,529.81Zm-7.33-1.45,6.64-.59a4.66,4.66,0,0,0-1.24-2.7,3.11,3.11,0,0,0-2.43-.73,2.84,2.84,0,0,0-2.14,1.14A5.07,5.07,0,0,0,271.82,528.36Z" transform="translate(-215.32 -185.91)" style="fill: #2e8742;stroke: #fff;stroke-miterlimit: 10;stroke-width: 1.899999976158142px"/>
        <path d="M285.62,533.58l-1.38-15.85a2.46,2.46,0,0,1,.35-1.69,1.79,1.79,0,0,1,2.52-.33l.11.09a2.33,2.33,0,0,1,.65,1.62l1.42,15.85a2.26,2.26,0,0,1-.38,1.69,1.55,1.55,0,0,1-1.28.66,1.62,1.62,0,0,1-1.35-.45A2.47,2.47,0,0,1,285.62,533.58Z" transform="translate(-215.32 -185.91)" style="fill: #2e8742;stroke: #fff;stroke-miterlimit: 10;stroke-width: 1.899999976158142px"/>
        <path d="M293.06,532.92l-1.42-15.81a2.68,2.68,0,0,1,.35-1.73,1.69,1.69,0,0,1,1.28-.66,1.86,1.86,0,0,1,1.38.42,2.41,2.41,0,0,1,.66,1.63l1.38,15.84a2.42,2.42,0,0,1-.34,1.7,1.62,1.62,0,0,1-1.28.65,1.69,1.69,0,0,1-1.39-.45A2.43,2.43,0,0,1,293.06,532.92Z" transform="translate(-215.32 -185.91)" style="fill: #2e8742;stroke: #fff;stroke-miterlimit: 10;stroke-width: 1.899999976158142px"/>
        <path d="M302.44,516l.52,5.57a10.14,10.14,0,0,1,1.93-1.83,6.46,6.46,0,0,1,2.6-.8,5.75,5.75,0,0,1,3.46.59,5.52,5.52,0,0,1,2.32,2.32,8.65,8.65,0,0,1,1.1,3.81,9.94,9.94,0,0,1,0,3.08,6.79,6.79,0,0,1-1,2.52,5.51,5.51,0,0,1-1.8,1.73,5.14,5.14,0,0,1-2.46.76,6.35,6.35,0,0,1-1.63,0,4.64,4.64,0,0,1-1.31-.41,6.6,6.6,0,0,1-.93-.63l-1.08-.93v.35a2.22,2.22,0,0,1-.34,1.62,1.74,1.74,0,0,1-1.21.63,1.55,1.55,0,0,1-1.28-.42,2.34,2.34,0,0,1-.63-1.52l-1.42-16a2.86,2.86,0,0,1,.32-1.7,1.58,1.58,0,0,1,1.21-.69,1.8,1.8,0,0,1,1.35.42A2.55,2.55,0,0,1,302.44,516Zm1.14,10.83a5.12,5.12,0,0,0,1.28,3.26,3.23,3.23,0,0,0,2.73.93,2.89,2.89,0,0,0,2.25-1.38,5.08,5.08,0,0,0,.69-3.46,6.76,6.76,0,0,0-.62-2.46,3.7,3.7,0,0,0-1.31-1.49,3.18,3.18,0,0,0-3.46.31,3.49,3.49,0,0,0-1.15,1.77,6,6,0,0,0-.24,2.59Z" transform="translate(-215.32 -185.91)" style="fill: #94ba4f;stroke: #fff;stroke-miterlimit: 10;stroke-width: 1.899999976158142px"/>
        <path d="M330.81,524.34a8.26,8.26,0,0,1-.24,3,6.65,6.65,0,0,1-1.25,2.49,6.93,6.93,0,0,1-2.18,1.73,8.83,8.83,0,0,1-3,.83,8.06,8.06,0,0,1-3-.28,6.5,6.5,0,0,1-2.42-1.35A6.31,6.31,0,0,1,317,528.6a9.36,9.36,0,0,1-.56-6.06,6.71,6.71,0,0,1,1.25-2.45,6.79,6.79,0,0,1,2.18-1.73,8.63,8.63,0,0,1,2.94-.8,8.44,8.44,0,0,1,3.08.28,6.94,6.94,0,0,1,2.42,1.31,7.08,7.08,0,0,1,1.7,2.25A8.81,8.81,0,0,1,330.81,524.34Zm-3.67.31a5.69,5.69,0,0,0-1.28-3.46,3.47,3.47,0,0,0-2.77-1,3.42,3.42,0,0,0-1.83.73,3.46,3.46,0,0,0-1.11,1.76,7.43,7.43,0,0,0,.45,5,3.52,3.52,0,0,0,1.39,1.52,3.18,3.18,0,0,0,1.93.42,3.46,3.46,0,0,0,2.56-1.49,5.72,5.72,0,0,0,.66-3.46Z" transform="translate(-215.32 -185.91)" style="fill: #94ba4f;stroke: #fff;stroke-miterlimit: 10;stroke-width: 1.899999976158142px"/>
        <path d="M337.38,531.71l.28-.86-5.5-10.9a4.11,4.11,0,0,1-.52-1.39,2,2,0,0,1,0-.9,1.72,1.72,0,0,1,.62-.69,1.58,1.58,0,0,1,.87-.31,1.43,1.43,0,0,1,1.21.38,3.93,3.93,0,0,1,.83,1.39l3.91,8.71,2.18-8.61a6.12,6.12,0,0,1,.48-1.66,2,2,0,0,1,.55-.83,1.9,1.9,0,0,1,.87-.28,1.51,1.51,0,0,1,.79,0,1.36,1.36,0,0,1,.66.52,1.62,1.62,0,0,1,.24.8,2.89,2.89,0,0,1,0,.72c-.05.33-.12.65-.2,1L341,531.68a16,16,0,0,1-1,2.66,3.88,3.88,0,0,1-1.42,1.56,5.89,5.89,0,0,1-2.59.76,6.56,6.56,0,0,1-2.42,0,1.42,1.42,0,0,1-.85-1.82,1.56,1.56,0,0,1,.22-.4,2,2,0,0,1,1.11-.45h1.18a1.81,1.81,0,0,0,1-.27,1.41,1.41,0,0,0,.59-.69A7.09,7.09,0,0,0,337.38,531.71Z" transform="translate(-215.32 -185.91)" style="fill: #94ba4f;stroke: #fff;stroke-miterlimit: 10;stroke-width: 1.899999976158142px"/>
      </g>
      <g>
        <path d="M254.21,520.26l.48,5.57a9.62,9.62,0,0,1,1.94-1.83,6.26,6.26,0,0,1,2.6-.8,5.63,5.63,0,0,1,5.64,2.91,9.33,9.33,0,0,1,1.07,3.8,10.6,10.6,0,0,1,0,3.08,7.42,7.42,0,0,1-1,2.53,5.41,5.41,0,0,1-1.83,1.73,5.62,5.62,0,0,1-2.46.79,8.45,8.45,0,0,1-1.59,0,4.08,4.08,0,0,1-1.31-.41,6.2,6.2,0,0,1-1-.63,8.59,8.59,0,0,1-1.07-.93v.35a2.27,2.27,0,0,1-.35,1.62,1.74,1.74,0,0,1-1.21.63,1.45,1.45,0,0,1-1.28-.42,2.28,2.28,0,0,1-.62-1.52l-1.39-16a2.64,2.64,0,0,1,.28-1.7,1.6,1.6,0,0,1,1.21-.69,1.77,1.77,0,0,1,1.25.24A2.56,2.56,0,0,1,254.21,520.26Zm1.11,10.83a4.91,4.91,0,0,0,1.31,3.25,3.1,3.1,0,0,0,2.7.93,3,3,0,0,0,2.28-1.38,5.51,5.51,0,0,0,.7-3.46,7.08,7.08,0,0,0-.66-2.46,3.16,3.16,0,0,0-1.32-1.48,2.8,2.8,0,0,0-1.83-.42,3.16,3.16,0,0,0-1.8.73,3.82,3.82,0,0,0-1.14,1.76A6.37,6.37,0,0,0,255.32,531.09Z" transform="translate(-215.32 -185.91)" style="fill: #f6901e"/>
        <path d="M279.15,529.81l-7.12.62a4.7,4.7,0,0,0,.69,2.15,3.45,3.45,0,0,0,1.42,1.31,3.72,3.72,0,0,0,1.83.35,4.83,4.83,0,0,0,1.18-.28,3.61,3.61,0,0,0,1-.59,5,5,0,0,0,.87-.79,12,12,0,0,0,1-1.11,1.47,1.47,0,0,1,.8-.31,1.29,1.29,0,0,1,.93.24,1.18,1.18,0,0,1,.42.83,3,3,0,0,1-.28,1.21,4.53,4.53,0,0,1-1.07,1.35A6.6,6.6,0,0,1,279,536a8.63,8.63,0,0,1-2.7.62,7.22,7.22,0,0,1-5.64-1.52,7.47,7.47,0,0,1-2.42-5.26,9.13,9.13,0,0,1,.21-3,7,7,0,0,1,1.21-2.53,5.52,5.52,0,0,1,2.14-1.69,7.76,7.76,0,0,1,3-.8,6.93,6.93,0,0,1,3.73.56,5.75,5.75,0,0,1,2.49,2.14,6,6,0,0,1,1,2.87,1.8,1.8,0,0,1-.62,1.84A5.2,5.2,0,0,1,279.15,529.81Zm-7.33-1.45,6.64-.59a4.66,4.66,0,0,0-1.24-2.7,3.11,3.11,0,0,0-2.43-.73,2.84,2.84,0,0,0-2.14,1.14A5.07,5.07,0,0,0,271.82,528.36Z" transform="translate(-215.32 -185.91)" style="fill: #f6901e"/>
        <path d="M285.62,533.58l-1.38-15.85a2.46,2.46,0,0,1,.35-1.69,1.79,1.79,0,0,1,2.52-.33l.11.09a2.33,2.33,0,0,1,.65,1.62l1.42,15.85a2.26,2.26,0,0,1-.38,1.69,1.55,1.55,0,0,1-1.28.66,1.62,1.62,0,0,1-1.35-.45A2.47,2.47,0,0,1,285.62,533.58Z" transform="translate(-215.32 -185.91)" style="fill: #f6901e"/>
        <path d="M293.06,532.92l-1.42-15.81a2.68,2.68,0,0,1,.35-1.73,1.69,1.69,0,0,1,1.28-.66,1.86,1.86,0,0,1,1.38.42,2.41,2.41,0,0,1,.66,1.63l1.38,15.84a2.42,2.42,0,0,1-.34,1.7,1.62,1.62,0,0,1-1.28.65,1.69,1.69,0,0,1-1.39-.45A2.43,2.43,0,0,1,293.06,532.92Z" transform="translate(-215.32 -185.91)" style="fill: #f6901e"/>
        <path d="M302.44,516l.52,5.57a10.14,10.14,0,0,1,1.93-1.83,6.46,6.46,0,0,1,2.6-.8,5.75,5.75,0,0,1,3.46.59,5.52,5.52,0,0,1,2.32,2.32,8.65,8.65,0,0,1,1.1,3.81,9.94,9.94,0,0,1,0,3.08,6.79,6.79,0,0,1-1,2.52,5.51,5.51,0,0,1-1.8,1.73,5.14,5.14,0,0,1-2.46.76,6.35,6.35,0,0,1-1.63,0,4.64,4.64,0,0,1-1.31-.41,6.6,6.6,0,0,1-.93-.63l-1.08-.93v.35a2.22,2.22,0,0,1-.34,1.62,1.74,1.74,0,0,1-1.21.63,1.55,1.55,0,0,1-1.28-.42,2.34,2.34,0,0,1-.63-1.52l-1.42-16a2.86,2.86,0,0,1,.32-1.7,1.58,1.58,0,0,1,1.21-.69,1.8,1.8,0,0,1,1.35.42A2.55,2.55,0,0,1,302.44,516Zm1.14,10.83a5.12,5.12,0,0,0,1.28,3.26,3.23,3.23,0,0,0,2.73.93,2.89,2.89,0,0,0,2.25-1.38,5.08,5.08,0,0,0,.69-3.46,6.76,6.76,0,0,0-.62-2.46,3.7,3.7,0,0,0-1.31-1.49,3.18,3.18,0,0,0-3.46.31,3.49,3.49,0,0,0-1.15,1.77,6,6,0,0,0-.24,2.59Z" transform="translate(-215.32 -185.91)" style="fill: #72af44"/>
        <path d="M330.81,524.34a8.26,8.26,0,0,1-.24,3,6.65,6.65,0,0,1-1.25,2.49,6.93,6.93,0,0,1-2.18,1.73,8.83,8.83,0,0,1-3,.83,8.06,8.06,0,0,1-3-.28,6.5,6.5,0,0,1-2.42-1.35A6.31,6.31,0,0,1,317,528.6a9.36,9.36,0,0,1-.56-6.06,6.71,6.71,0,0,1,1.25-2.45,6.79,6.79,0,0,1,2.18-1.73,8.63,8.63,0,0,1,2.94-.8,8.44,8.44,0,0,1,3.08.28,6.94,6.94,0,0,1,2.42,1.31,7.08,7.08,0,0,1,1.7,2.25A8.81,8.81,0,0,1,330.81,524.34Zm-3.67.31a5.69,5.69,0,0,0-1.28-3.46,3.47,3.47,0,0,0-2.77-1,3.42,3.42,0,0,0-1.83.73,3.46,3.46,0,0,0-1.11,1.76,7.43,7.43,0,0,0,.45,5,3.52,3.52,0,0,0,1.39,1.52,3.18,3.18,0,0,0,1.93.42,3.46,3.46,0,0,0,2.56-1.49,5.72,5.72,0,0,0,.66-3.46Z" transform="translate(-215.32 -185.91)" style="fill: #72af44"/>
        <path d="M337.38,531.71l.28-.86-5.5-10.9a4.11,4.11,0,0,1-.52-1.39,2,2,0,0,1,0-.9,1.72,1.72,0,0,1,.62-.69,1.58,1.58,0,0,1,.87-.31,1.43,1.43,0,0,1,1.21.38,3.93,3.93,0,0,1,.83,1.39l3.91,8.71,2.18-8.61a6.12,6.12,0,0,1,.48-1.66,2,2,0,0,1,.55-.83,1.9,1.9,0,0,1,.87-.28,1.51,1.51,0,0,1,.79,0,1.36,1.36,0,0,1,.66.52,1.62,1.62,0,0,1,.24.8,2.89,2.89,0,0,1,0,.72c-.05.33-.12.65-.2,1L341,531.68a16,16,0,0,1-1,2.66,3.88,3.88,0,0,1-1.42,1.56,5.89,5.89,0,0,1-2.59.76,6.56,6.56,0,0,1-2.42,0,1.42,1.42,0,0,1-.85-1.82,1.56,1.56,0,0,1,.22-.4,2,2,0,0,1,1.11-.45h1.18a1.81,1.81,0,0,0,1-.27,1.41,1.41,0,0,0,.59-.69A7.09,7.09,0,0,0,337.38,531.71Z" transform="translate(-215.32 -185.91)" style="fill: #72af44"/>
      </g>
    </g>
    <text transform="translate(32.8 368.41)" style="font-size: 8.726222038269043px;fill: #fff;font-family: CenturyGothic, Century Gothic">Your personal assistant</text>
  </g>
</svg>
