<svg xmlns="http://www.w3.org/2000/svg" xmlns:xlink="http://www.w3.org/1999/xlink" width="686.97" height="266.96" viewBox="0 0 686.97 266.96">
  <defs>
    <clipPath id="a" transform="translate(-160.03 -420.84)">
      <path d="M608.24,487.33c3.08,2.35,6.62,8.89.26,9.44S478,496,472.18,496.11s-7.66-3.39-8.82-7.48-9.44-41.22-9.87-44.44-.54-6.22,4.77-6.36,46.5.22,69.82,7.23A275,275,0,0,1,608.24,487.33Z" style="fill: none"/>
    </clipPath>
    <clipPath id="b" transform="translate(-160.03 -420.84)">
      <path d="M605.57,490.65c3,2.35,6.36,8.72,0,9.08s-130.39-4.41-136.25-4.41a8.21,8.21,0,0,1-8.6-7.23c-1-3.94-8.24-39.78-8.61-42.92s-.32-6,5-6,46.5,1.56,69.61,8.9A278.12,278.12,0,0,1,605.57,490.65Z" style="fill: none"/>
    </clipPath>
  </defs>
  <title>Car</title>
  <ellipse cx="529.69" cy="603.95" rx="161.52" ry="13.49" transform="translate(-175.35 -407.05) rotate(-1.47)" style="fill: #e9e8e8;opacity: 0.5099999904632568;isolation: isolate"/>
  <ellipse cx="503.52" cy="659.94" rx="27.7" ry="343.5" transform="translate(-320.74 736.96) rotate(-89.51)" style="fill: #e2e2e2;opacity: 0.5099999904632568;isolation: isolate"/>
  <ellipse cx="425.29" cy="659.94" rx="13.96" ry="173.16" transform="translate(-398.3 658.73) rotate(-89.51)" style="fill: #e2e2e2;opacity: 0.5099999904632568;isolation: isolate"/>
  <g>
    <path d="M511.12,466.14a15.08,15.08,0,0,1-4.7,3c.69,1.67,1.09,2.86,1.09,2.86,17.43-5.57,18.84-15,18.91-15.69C521.86,456.41,517.7,460,511.12,466.14Z" transform="translate(-160.03 -420.84)" style="fill: #f26f21"/>
    <path d="M499.19,502.55Z" transform="translate(-160.03 -420.84)" style="fill: #e8a78f;stroke: #0098d5;stroke-miterlimit: 10;stroke-width: 0.2800000011920929px"/>
    <path d="M497,503.17l.4,3,.25,1.85v.61h.9c2.5.22,2.39-1.12,2.39-2.28v-4A6.22,6.22,0,0,1,497,503.17Z" transform="translate(-160.03 -420.84)" style="fill: #e8a863"/>
    <path d="M506.13,490.62a15.37,15.37,0,0,0,7.92,5.78,14.77,14.77,0,0,0,.8-1.59A18.35,18.35,0,0,1,506.13,490.62Z" transform="translate(-160.03 -420.84)" style="fill: #c86129"/>
    <path d="M489.93,492.57a15.58,15.58,0,0,0,1.67,3.15c2,.25,1.44-1.16.65-2.57a2,2,0,0,1-.22-.76h-.65A5.06,5.06,0,0,1,489.93,492.57Z" transform="translate(-160.03 -420.84)" style="fill: #17191a"/>
    <path d="M494.42,471.17v-1.63H492a46.5,46.5,0,0,0-9.29,8.31s3.14,5.5,3.61,6.48a3.93,3.93,0,0,1,4.81,1.55,17.52,17.52,0,0,1,2.06,3.62,1.86,1.86,0,0,0,.55-.8,1.34,1.34,0,0,0,0-.4c0-.65-.91-2.78-1.49-5.82a6,6,0,0,1,.26-4.63A52.6,52.6,0,0,0,494.42,471.17Z" transform="translate(-160.03 -420.84)" style="fill: #17191a"/>
    <path d="M493.33,489.9a1.85,1.85,0,0,0,0-.47,14.42,14.42,0,0,0-2.06-3.62,3.87,3.87,0,0,0-4.81-1.56c-.21,0-2,1.05-1.7,4.16a4.06,4.06,0,0,0,1.56,2.9,7.29,7.29,0,0,0,2.53,1,6.83,6.83,0,0,0,4.48-.32,1,1,0,0,0,.55-1A3.3,3.3,0,0,0,493.33,489.9Z" transform="translate(-160.03 -420.84)" style="fill: #dfa663"/>
    <path d="M492.61,490.26c-.69-1.74-1.95-3.62-4-3.91a2.13,2.13,0,0,0-.94,0,2.32,2.32,0,0,0-1.16,2.53,3.2,3.2,0,0,0,2.31,2.46l1.09.36a4,4,0,0,0,1.88,0,1,1,0,0,0,.83-1.59Z" transform="translate(-160.03 -420.84)" style="fill: #c86129;opacity: 0.25;isolation: isolate"/>
    <path d="M488.13,488.85s1.62-.33,2.06.21,0,.69-.22.76-.43.36.29.8,1.84.54,1.84,0-.54-.47-.76-.87a1.17,1.17,0,0,1-.21-.83c0-.25-.91-.94-1.48-1S488.13,488.85,488.13,488.85Z" transform="translate(-160.03 -420.84)" style="fill: #c86129;opacity: 0.5;isolation: isolate"/>
    <line x1="346.75" y1="49.64" x2="346.64" y2="49.57" style="fill: none"/>
    <path d="M502.26,502.73v-.5l-5.78-1.49.32,1.27v1.16a6.19,6.19,0,0,0,5.32,1.26v-1.7Z" transform="translate(-160.03 -420.84)" style="fill: #c86129"/>
    <path d="M520.2,482.81a3,3,0,0,0-3.62-2.06,58.59,58.59,0,0,0-3.87-15.12l.22-.25h-.43l-1.05-3.18a56.56,56.56,0,0,1-6,3.83h-1.81v1L500.06,469a53.65,53.65,0,0,1-5.64.36V471a29.69,29.69,0,0,1-.72,3,11.19,11.19,0,0,0-1,3.62.41.41,0,0,0,0,.22,5.89,5.89,0,0,0-.25,4.62c.57,3,1.59,5.18,1.48,5.83a2.84,2.84,0,0,1-.69,1.23h0a1.55,1.55,0,0,1,0,.43c.83,2,0,2.13-1.3,2.49a1.46,1.46,0,0,0,.22.76c.79,1.41,1.37,2.82-.65,2.57a27.43,27.43,0,0,0,2.6,3.29h0a17.82,17.82,0,0,0,4.08,3.62h0a15.39,15.39,0,0,0,2.21,1.05,9.09,9.09,0,0,0,3.62.5,7.21,7.21,0,0,0,1.3-.22h.21a8.81,8.81,0,0,0,2.54-1.19A5.2,5.2,0,0,0,509,502a19.2,19.2,0,0,0,4.78-5.6,15.11,15.11,0,0,1-7.92-5.79,18.82,18.82,0,0,0,8.71,4.24,28,28,0,0,0,2.42-8S521,485.48,520.2,482.81Z" transform="translate(-160.03 -420.84)" style="fill: #e8a863"/>
    <path d="M512.5,460.68a62.45,62.45,0,0,1,7.55-3.29,103.62,103.62,0,0,0-12,4.48h0l-.32-.61a22.32,22.32,0,0,0-4.63,2.06A17.69,17.69,0,0,0,512.5,460.68Z" transform="translate(-160.03 -420.84)" style="fill: #94ba4f"/>
    <path d="M512.5,460.68a62.45,62.45,0,0,1,7.55-3.29,103.62,103.62,0,0,0-12,4.48h0l-.32-.61a22.32,22.32,0,0,0-4.63,2.06A17.69,17.69,0,0,0,512.5,460.68Z" transform="translate(-160.03 -420.84)" style="fill: #f26f21"/>
    <path d="M526.31,456.23a12.59,12.59,0,0,0-4.63.69l-1.52.47a62.45,62.45,0,0,0-7.55,3.29,17.68,17.68,0,0,1-9.51,2.68,23.06,23.06,0,0,1,4.62-2.07c-2.67-4.33-10.12-6.21-16.27-4.88a12.75,12.75,0,0,0-5.2,2.72,21.49,21.49,0,0,0-2.14,2,24.36,24.36,0,0,0-4.62,7.23,3.7,3.7,0,0,0,0,.94,8.89,8.89,0,0,0,.21,1.45,24.84,24.84,0,0,0,1.95,5c.66,1.37,1.31,2.49,1.6,3h0a30.48,30.48,0,0,1,7-7.23l2.57-2a43,43,0,0,0,17.83-2.64c3.94-1.73,10.84-10.84,15.91-10.84Z" transform="translate(-160.03 -420.84)" style="fill: #f68f1e"/>
    <g>
      <path d="M512,476.16c.19,1.37-.36,2.6-1.22,2.71s-1.67-.94-1.85-2.35.4-2.61,1.23-2.71S511.81,474.75,512,476.16Z" transform="translate(-160.03 -420.84)" style="fill: #343c41"/>
      <path d="M511.77,476.73c0,.65,0,1.23-.57,1.31s-.8-.47-.87-1.13,0-1.22.58-1.3S511.7,476.08,511.77,476.73Z" transform="translate(-160.03 -420.84)" style="fill: #fff"/>
    </g>
    <g>
      <path d="M499,464h-.36a1.17,1.17,0,0,1-.43-.4l-2.6-4.08a.73.73,0,0,1,0-.58.51.51,0,0,1,.32-.4h.22a.73.73,0,0,1,.36,0,1.11,1.11,0,0,1,.43.4l.73,1.19a2.67,2.67,0,0,1,.25-.43,1.73,1.73,0,0,1,.69-.47h1.12a2.66,2.66,0,0,1,1.91,1.41,2.37,2.37,0,0,1,.4.83,2.31,2.31,0,0,1,0,.83,1.39,1.39,0,0,1-.36.44,1.68,1.68,0,0,1-.65.43h-1.38a.57.57,0,0,1-.36.69h0Zm0-3.61h-.21a.76.76,0,0,0-.36.25.64.64,0,0,0,0,.47,1.27,1.27,0,0,0,.25.65,1.55,1.55,0,0,0,.76.69.85.85,0,0,0,.5,0h.29a.6.6,0,0,0,.36-.47,1.24,1.24,0,0,0-.25-.87,2.79,2.79,0,0,0-.5-.58,2.41,2.41,0,0,0-.51-.25Z" transform="translate(-160.03 -420.84)" style="fill: #c5d299"/>
      <path d="M496.66,459.16l.9,1.45a1.36,1.36,0,0,1,.94-1.09,2.2,2.2,0,0,1,1,0,2.93,2.93,0,0,1,1,.44,2.75,2.75,0,0,1,.83.9,3,3,0,0,1,.36.8,1.63,1.63,0,0,1,0,.76,1.53,1.53,0,0,1-.07.36,1.64,1.64,0,0,1-.61.39h-1.27l-.43-.18h0a.66.66,0,0,1,0,.44.42.42,0,0,1-.26.29,1,1,0,0,1-.43,0,1,1,0,0,1-.4-.36l-2.57-4.05a.64.64,0,0,1,0-.47.29.29,0,0,1,.26-.29.47.47,0,0,1,.43,0A1.09,1.09,0,0,1,496.66,459.16Zm1.77,2.75a2.1,2.1,0,0,0,.83.76,1,1,0,0,0,.91,0,.66.66,0,0,0,.47-.54,1.33,1.33,0,0,0-.29-1,2,2,0,0,0-.51-.61,1.58,1.58,0,0,0-.58-.29,1,1,0,0,0-.58,0,.91.91,0,0,0-.43.32,1.14,1.14,0,0,0,0,.58,2.15,2.15,0,0,0,.18.61Z" transform="translate(-160.03 -420.84)" style="fill: #c5d299"/>
      <path d="M503.6,462.2a.73.73,0,0,1-.36,0,.88.88,0,0,1-.43-.4l-2.61-4.08a1,1,0,0,1,0-.58.45.45,0,0,1,.33-.4h.22a.73.73,0,0,1,.36,0,.92.92,0,0,1,.43.4l.72,1.15a1.48,1.48,0,0,1,.26-.39,1.45,1.45,0,0,1,.68-.47,1.42,1.42,0,0,1,.58,0,1.1,1.1,0,0,1,.51,0,1.94,1.94,0,0,1,1.08.43,3.53,3.53,0,0,1,.87.94,2.3,2.3,0,0,1,.4.87,2.1,2.1,0,0,1,0,.79,2,2,0,0,1-.33.69,1.52,1.52,0,0,1-.68.47,2.17,2.17,0,0,1-.51,0h0a.94.94,0,0,1-.47,0h-.36a.91.91,0,0,1,0,.33.47.47,0,0,1-.36.36Zm0-3.62h-.21a1.06,1.06,0,0,0-.37.29,1.24,1.24,0,0,0,0,.47,2.06,2.06,0,0,0,1.05,1.34,1.1,1.1,0,0,0,.51,0h.29a.61.61,0,0,0,.36-.47,1.35,1.35,0,0,0-.25-.87,1.88,1.88,0,0,0-.51-.54,1.22,1.22,0,0,0-.51-.25Z" transform="translate(-160.03 -420.84)" style="fill: #c5d299"/>
      <path d="M501.25,457.21l.91,1.41a2.62,2.62,0,0,1,.32-.65,2.2,2.2,0,0,1,.65-.44,2.69,2.69,0,0,1,2,.4,3,3,0,0,1,.87.91,3.21,3.21,0,0,1,.36.83,1.75,1.75,0,0,1,0,.72,1.1,1.1,0,0,1-.25.62,1.51,1.51,0,0,1-.62.43,1.24,1.24,0,0,1-.47,0,.79.79,0,0,1-.43,0h-.8a.64.64,0,0,1,0,.47.39.39,0,0,1-.25.25.47.47,0,0,1-.43,0,.8.8,0,0,1-.4-.32l-2.57-4.09a.55.55,0,0,1,0-.47.29.29,0,0,1,.25-.29.62.62,0,0,1,.8.36h0Zm1.81,2.75a2,2,0,0,0,.83.72,1.11,1.11,0,0,0,.91,0,.79.79,0,0,0,.47-.58,1.4,1.4,0,0,0-.29-1,2.36,2.36,0,0,0-.51-.58,1.44,1.44,0,0,0-.58-.29,1.06,1.06,0,0,0-.61,0,.71.71,0,0,0-.4.36.72.72,0,0,0,0,.54,2.53,2.53,0,0,0,.29.72Z" transform="translate(-160.03 -420.84)" style="fill: #c5d299"/>
    </g>
    <g>
      <path d="M497.06,458.94l.83,1.31a2.91,2.91,0,0,1,.29-.62,1.57,1.57,0,0,1,.58-.47,2.52,2.52,0,0,1,1.84.36,3.3,3.3,0,0,1,1.12,1.59,1.34,1.34,0,0,1,0,.69,1.08,1.08,0,0,1-.25.54,1.18,1.18,0,0,1-.54.4h-1.56a.54.54,0,0,1,0,.43.47.47,0,0,1-.22.26.86.86,0,0,1-.39,0,1,1,0,0,1-.36-.33l-2.35-3.61a.56.56,0,0,1,0-.44.35.35,0,0,1,.25-.25.41.41,0,0,1,.4,0A.7.7,0,0,1,497.06,458.94Zm1.66,2.5a1.75,1.75,0,0,0,.76.69,1.08,1.08,0,0,0,.83,0,.77.77,0,0,0,.44-.51,1.37,1.37,0,0,0-.29-.9,1.79,1.79,0,0,0-.47-.55,1.38,1.38,0,0,0-.55-.25.85.85,0,0,0-.5,0,.72.72,0,0,0-.4.33.85.85,0,0,0,0,.5,1.47,1.47,0,0,0,.25.65Z" transform="translate(-160.03 -420.84)" style="fill: #fff"/>
      <path d="M501.29,457.25l.83,1.3a1.76,1.76,0,0,1,.29-.58,1.32,1.32,0,0,1,.58-.4,2.13,2.13,0,0,1,.94,0,2,2,0,0,1,.9.36,2.33,2.33,0,0,1,.76.83,2.41,2.41,0,0,1,.36.76,1.35,1.35,0,0,1,0,.69,1.08,1.08,0,0,1-.25.54,1.52,1.52,0,0,1-.54.4H503.6a.41.41,0,0,1,0,.4.32.32,0,0,1-.21.25.41.41,0,0,1-.4,0,.93.93,0,0,1-.36-.29l-2.35-3.61a.56.56,0,0,1,0-.44.35.35,0,0,1,.25-.25.41.41,0,0,1,.4,0A.89.89,0,0,1,501.29,457.25Zm1.66,2.53a1.67,1.67,0,0,0,.76.68,1.08,1.08,0,0,0,.83,0,.64.64,0,0,0,.4-.5,1.15,1.15,0,0,0-.25-.91,1.87,1.87,0,0,0-.47-.54.93.93,0,0,0-.55-.25.72.72,0,0,0-.5,0,.71.71,0,0,0-.4.32.89.89,0,0,0,0,.51,1.72,1.72,0,0,0,.25.65Z" transform="translate(-160.03 -420.84)" style="fill: #fff"/>
    </g>
  </g>
  <path d="M497.64,508.7,494,511.37a29.58,29.58,0,0,0-7.92,21.7l1.09,4.59,2.24,30.48v17.61h25.31s-8.39-46.68-6.55-63.24a11.73,11.73,0,0,0-.79-5.68,18.64,18.64,0,0,0-5.21-7.48S499.23,511.45,497.64,508.7Z" transform="translate(-160.03 -420.84)" style="fill: #f68f1e"/>
  <path d="M499.19,517.38s7.67,3.14,14,21.47l-15.77,5.32S481.62,515.86,499.19,517.38Z" transform="translate(-160.03 -420.84)" style="fill: #f68f1e"/>
  <path d="M513.15,538.71A15,15,0,0,0,497.38,544S508.37,545.72,513.15,538.71Z" transform="translate(-160.03 -420.84)" style="fill: #f26f21"/>
  <path d="M572.05,585.71c-2.42-3.61-12.84-.5-12.84-.5L518.86,568.1l-9-29.65a12.88,12.88,0,0,0-10,3.87l13.34,32.22c11.17,8.61,44.8,13.92,44.8,13.92a18.86,18.86,0,0,0,5.17.87c1-2.64,3.07-1.41,3.07-1.41,2.53.58,1.92,3.61,1.92,3.61-.22,1.45.61.76.61.76a5,5,0,0,0,.25-3.36,5.75,5.75,0,0,1,0,3,.52.52,0,0,0,.57.44h.05a.48.48,0,0,0,.29,0,1.41,1.41,0,0,0,0-.29c.58,1.05,1.23,0,1.23,0,.94-3,.58-3.94.4-4.19.76.83-.29,3.9-.29,3.9a1.2,1.2,0,0,0,1.12-.76A4.23,4.23,0,0,0,572.05,585.71Zm-2.17,6.58a6.79,6.79,0,0,0,.61-3.61A5.79,5.79,0,0,1,569.88,592.29Z" transform="translate(-160.03 -420.84)" style="fill: #e8a863"/>
  <path d="M827.54,607.19c0,6.18-6.87,20.68-17.9,20.68h-82c-10.85,0-22.06-7.59-37.57-7.59H236.29c-9.84,0-33.23-6.22-43.39-13.09s-11.35-8.61-11.35-13.09V566.87c0-4.12,12.36-8.6,12.36-15.83V511.26c0-10.34,93-76.47,122.65-83.7s159.31-8.17,194.09-5,109.52,39.95,156.71,74.74c50.62,0,105.07,12.73,128.83,27s31.35,38.79,31.35,49.1Z" transform="translate(-160.03 -420.84)" style="fill: #f6901e"/>
  <path d="M821.43,551.65a52.87,52.87,0,0,1,6.11,21.7v33.77c0,6.18-6.87,20.68-17.9,20.68h-82c-10.85,0-22.06-7.59-37.57-7.59H236.29c-9.84,0-33.23-6.19-43.39-13.09s-11.35-8.61-11.35-13.09V566.8c0-4.12,12.36-8.6,12.36-15.83V515.39Z" transform="translate(-160.03 -420.84)" style="fill: #f6901e"/>
  <g>
    <path d="M458.26,522a664.42,664.42,0,0,0-13-87.18h1.05a666.06,666.06,0,0,1,12.94,87.07c4.92,52.07.8,83.16,0,87.83h-1C459,605.78,463.25,574.58,458.26,522Z" transform="translate(-160.03 -420.84)" style="fill: #eb8023"/>
    <path d="M641.76,514.66a9.68,9.68,0,0,1-1.7-8.86A14.5,14.5,0,0,1,647,495.5l.36.94a13.67,13.67,0,0,0-6.29,9.73,8.68,8.68,0,0,0,1.45,7.95c3.07,3.18,24.88,6.51,64.76,9.87,9,.76,14.75.91,20.79,1.09,6.94,0,14.1.32,27.12,1.44a260.44,260.44,0,0,1,47.69,9l3.79,1a20,20,0,0,0,4.92.83,10.63,10.63,0,0,1,.87,1h-.54a23.28,23.28,0,0,1-5.5-.87l-3.83-1a255.08,255.08,0,0,0-47.51-9c-13-1.09-20.11-1.27-27.05-1.45-6,0-11.75-.29-20.82-1C666.49,521.42,645.09,518.1,641.76,514.66Z" transform="translate(-160.03 -420.84)" style="fill: #eb8023"/>
    <path d="M328.09,541.38l.44.73c6.33,10.37,16.74,24.29,25.09,35.5,6.36,8.46,11.82,15.77,14,19.49,5,8.57,12.33,13.71,19.56,13.71H621c9.69,0,9.87-10.27,10-19.35v-2.6c.25-9.69,0-69.42-2.07-81.75-1.7-10-16.12-23-42.88-38.48a324.52,324.52,0,0,0-52.43-25.31c-24-8.42-54.7-9.47-78.75-9.47h-7.23c-5.06,0-12.91,0-22-.29-12,0-25.6-.4-37.14-.4a224.29,224.29,0,0,0-22.6.69c-11.71,1.52-53.51,57.38-55.21,67.33C309.15,510.29,317.25,523.34,328.09,541.38Zm-16.38-40c1.49-8.75,43-65.09,54.24-66.5a219.23,219.23,0,0,1,22.49-.68c11.53,0,25.31.21,37.1.43l19.7.25a2.54,2.54,0,0,1,0-.39l1-.26v.65h8.46c24,0,54.56,1.05,78.5,9.37a326.8,326.8,0,0,1,52.24,25.31c26.47,15.37,40.72,28.06,42.38,37.78,2.1,12.26,2.31,71.88,2.06,81.54v2.64c0,9-.29,18.29-9,18.29H459.42v.62h-1V610H387.18c-6.84,0-13.85-4.91-18.7-13.16-2.2-3.79-7.7-11.13-14.06-19.63-8.36-11.14-18.77-25.06-25.06-35.4l-.43-.72C318.08,523,310.23,510.07,311.71,501.36Z" transform="translate(-160.03 -420.84)" style="fill: #eb8023"/>
  </g>
  <g>
    <path d="M290.53,545.69a62.93,62.93,0,0,1,62,74.59H236.29a51.83,51.83,0,0,1-7.85-.8,63,63,0,0,1,51.26-72.85h0a63.77,63.77,0,0,1,10.85-.94Z" transform="translate(-160.03 -420.84)" style="fill: #76bb43"/>
    <path d="M690.1,620.28H635.87a63,63,0,1,1,122,7.59H727.81C716.64,627.87,705.61,620.28,690.1,620.28Z" transform="translate(-160.03 -420.84)" style="fill: #76bb43"/>
  </g>
  <circle cx="537.66" cy="187.91" r="54.24" style="fill: #212636"/>
  <circle cx="537.66" cy="187.91" r="38.4" style="fill: #fff"/>
  <circle cx="130.49" cy="187.91" r="54.24" style="fill: #212636"/>
  <circle cx="130.49" cy="187.91" r="38.4" style="fill: #fff"/>
  <path d="M809,539.5a58.29,58.29,0,0,1,7.23,11.21c1.23,3.62,0,7.74-5,7.74H781.94c-4.63,0-13.23-7.05-18.08-12.76s-12-15-10-16.17S783,531.77,809,539.5Z" transform="translate(-160.03 -420.84)" style="fill: #fff"/>
  <path d="M794.53,597.36a11.75,11.75,0,0,1,9.32-6.19h23.76v16a18.43,18.43,0,0,1-1.52,6.54H792.5c-3.43,0-4.81-2.78-3.07-6.21Z" transform="translate(-160.03 -420.84)" style="fill: #323232"/>
  <path d="M667.36,497.31H648.77A30.41,30.41,0,0,1,632.94,493c-5.86-3.61-32-23.24-48.53-32.93S558.49,445.6,557,444.81c-2.64-1.16-3.62-4.52-.36-4.52h10.84A485.14,485.14,0,0,1,667.36,497.31Z" transform="translate(-160.03 -420.84)" style="fill: #7e7e7e"/>
  <path d="M608.46,490.58c3,2.35,6.4,8.79,0,9.15s-130.35-4.41-136.21-4.41a8.21,8.21,0,0,1-8.6-7.49c-1-3.94-8.28-40.13-8.64-43.2s-.33-6,5-6,46.5,1.55,69.57,9A277.09,277.09,0,0,1,608.46,490.58Z" transform="translate(-160.03 -420.84)" style="fill: #5a5b5b"/>
  <path d="M439.68,444.7s1.55,41,1.55,43.06a5,5,0,0,1-4.53,5.48l-.46,0c-3.94,0-129.33-2.93-134.51-3.08s-7.59-1.91-6.72-5.53,28.93-37.71,52-43.75,83.16-2.57,86.09-2.57a6,6,0,0,1,6.53,5.35A5.79,5.79,0,0,1,439.68,444.7Z" transform="translate(-160.03 -420.84)" style="fill: #686969"/>
  <path d="M436.75,446.58s1.41,37.53,1.41,39.41a4.62,4.62,0,0,1-4.18,5,2.88,2.88,0,0,1-.41,0c-3.62,0-119.32-2.67-124.13-2.82s-7-1.77-6.19-5.06,26.69-34.57,48-40.06,76.77-2.39,79.55-2.39a5.5,5.5,0,0,1,6,5A6.32,6.32,0,0,1,436.75,446.58Z" transform="translate(-160.03 -420.84)" style="fill: #aeaeae;opacity: 0.4699999988079071;isolation: isolate"/>
  <path d="M279.86,444.88l10.85,4.56c2.09.86,1.73,4.3-3.94,7.55A316.85,316.85,0,0,0,255.6,482.3c-7.23,6.69-12.08,8.75-17.21,8.75H213.08A609.49,609.49,0,0,1,279.86,444.88Z" transform="translate(-160.03 -420.84)" style="fill: #686969"/>
  <path d="M193.73,551V514.19h29.51c4.3,0,6.54,1.63,4.3,7.78a108.26,108.26,0,0,1-16.34,25.09,15.51,15.51,0,0,1-9.84,4.34h-7.59Z" transform="translate(-160.03 -420.84)" style="fill: #e52026"/>
  <path d="M181.37,583v-8.68h9.51a4.34,4.34,0,0,1,0,8.68Z" transform="translate(-160.03 -420.84)" style="fill: #fff"/>
  <g style="clip-path: url(#a)">
    <g>
      <path d="M502.34,458a16.14,16.14,0,0,1-4.52,3.62c.79,1.7,1.3,2.93,1.3,2.93,17.28-7.23,18.08-17.32,18.08-18.08C512.5,446.9,508.56,451,502.34,458Z" transform="translate(-160.03 -420.84)" style="fill: #f26f21"/>
      <path d="M493,497.34Z" transform="translate(-160.03 -420.84)" style="fill: #e8a78f;stroke: #0098d5;stroke-miterlimit: 10;stroke-width: 0.28999999165534973px"/>
      <path d="M490.8,498l.65,3.15.4,2v.61h0v.36h2.57c2.6,0,2.35-1.41,2.28-2.6v-4.2A6.09,6.09,0,0,1,490.8,498Z" transform="translate(-160.03 -420.84)" style="fill: #e8a863"/>
      <path d="M499.12,484.11a15.64,15.64,0,0,0,8.5,5.46c.25-.58.5-1.12.72-1.7A18.54,18.54,0,0,1,499.12,484.11Z" transform="translate(-160.03 -420.84)" style="fill: #c86129"/>
      <path d="M482.81,487.44a15.83,15.83,0,0,0,1.92,3.18c2.06,0,1.37-1.34.47-2.75a2,2,0,0,1-.29-.79h-.65A5.14,5.14,0,0,1,482.81,487.44Z" transform="translate(-160.03 -420.84)" style="fill: #17191a"/>
      <path d="M485.67,464.59a5.32,5.32,0,0,0-.22-1.74H483a46.69,46.69,0,0,0-8.83,9.47s3.62,5.53,4.31,6.51a4,4,0,0,1,5,1.27,18.38,18.38,0,0,1,2.39,3.61,2.53,2.53,0,0,0,.47-.87.94.94,0,0,0,0-.47c0-.68-1.12-2.85-1.95-6a6.84,6.84,0,0,1,0-4.88A59.9,59.9,0,0,0,485.67,464.59Z" transform="translate(-160.03 -420.84)" style="fill: #17191a"/>
      <path d="M486.07,484.47l-.22-.47a15,15,0,0,0-2.39-3.61,3.82,3.82,0,0,0-5-1.31A4.19,4.19,0,0,0,477,483.6a4.36,4.36,0,0,0,1.8,2.93,7.35,7.35,0,0,0,2.68.91,6.82,6.82,0,0,0,4.52-.69,1.06,1.06,0,0,0,.47-1.09A4.24,4.24,0,0,0,486.07,484.47Z" transform="translate(-160.03 -420.84)" style="fill: #dfa663"/>
      <path d="M485.34,484.8c-.83-1.77-2.28-3.62-4.37-3.62a2.31,2.31,0,0,0-1,0,2.58,2.58,0,0,0-.94,2.79,3.19,3.19,0,0,0,2.53,2.38l1.12.29a3.9,3.9,0,0,0,1.92,0,1.2,1.2,0,0,0,.79-.54A1.31,1.31,0,0,0,485.34,484.8Z" transform="translate(-160.03 -420.84)" style="fill: #c86129;opacity: 0.25;isolation: isolate"/>
      <path d="M480.68,483.64s1.63-.43,2.1,0,0,.72,0,.8-.4.39.36.83,1.95.43,1.91,0-.58-.44-.86-.87a1.3,1.3,0,0,1-.26-.83c0-.29-1-.94-1.59-.91A4.35,4.35,0,0,0,480.68,483.64Z" transform="translate(-160.03 -420.84)" style="fill: #c86129;opacity: 0.5;isolation: isolate"/>
      <line x1="338.22" y1="42.01" x2="338.11" y2="41.98" style="fill: none"/>
      <path d="M496.12,497.16v-.54l-6-1.08.43,1.3.22,1.19a6.17,6.17,0,0,0,5.53.94v-1.81Z" transform="translate(-160.03 -420.84)" style="fill: #c86129"/>
      <path d="M512.82,474.78a3.07,3.07,0,0,0-3.87-1.84,62,62,0,0,0-5.06-15.59,1.71,1.71,0,0,0,0-.32h-.29l-1.34-3.26a62.82,62.82,0,0,1-5.78,4.52l-1.81.33v1L491.06,462a50.12,50.12,0,0,1-5.72.8l.22,1.73a30.28,30.28,0,0,1-.47,3.15,10.64,10.64,0,0,0-.76,3.61v.26a6.84,6.84,0,0,0,0,4.88c.83,3.14,2,5.31,1.95,6a2.42,2.42,0,0,1-.58,1.34h0l.22.47c1,2,0,2.24-1.16,2.71a2.34,2.34,0,0,0,.29.8c.91,1.41,1.59,2.85-.47,2.74a39.42,39.42,0,0,0,2.9,3.29h0a16.68,16.68,0,0,0,4.41,3.37h0a13.64,13.64,0,0,0,2.31.94,8.9,8.9,0,0,0,3.91.21,4,4,0,0,0,1.33-.32h.22a9.07,9.07,0,0,0,2.5-1.45,8.82,8.82,0,0,0,.83-.79,19.49,19.49,0,0,0,4.41-6.26,15.84,15.84,0,0,1-8.28-5.35,18.77,18.77,0,0,0,9.22,3.62,31.55,31.55,0,0,0,1.84-8.57S513.83,477.57,512.82,474.78Z" transform="translate(-160.03 -420.84)" style="fill: #e8a863"/>
      <path d="M503.42,452.15a56.16,56.16,0,0,1,7.45-4.09,104.76,104.76,0,0,0-11.93,5.64h0l-.4-.58a21.79,21.79,0,0,0-4.52,2.53C493.62,456.34,499.37,454.93,503.42,452.15Z" transform="translate(-160.03 -420.84)" style="fill: #94ba4f"/>
      <path d="M503.42,452.15a56.16,56.16,0,0,1,7.45-4.09,104.76,104.76,0,0,0-11.93,5.64h0l-.4-.58a21.79,21.79,0,0,0-4.52,2.53C493.62,456.34,499.37,454.93,503.42,452.15Z" transform="translate(-160.03 -420.84)" style="fill: #f26f21"/>
      <path d="M517.05,446.36a13.17,13.17,0,0,0-4.7,1.09l-1.48.61a56.16,56.16,0,0,0-7.45,4.09c-4.05,2.78-9.8,4.19-9.44,3.61a21.79,21.79,0,0,1,4.52-2.53c-3.07-4.37-10.84-5.75-16.92-3.87a13,13,0,0,0-5.1,3.22,24.13,24.13,0,0,0-2,2.31,26,26,0,0,0-4.16,7.89,2.86,2.86,0,0,0,0,1,5,5,0,0,0,.32,1.48,25.33,25.33,0,0,0,2.35,5.1c.8,1.37,1.52,2.53,1.85,3h0a31.31,31.31,0,0,1,6.58-8c.72-.72,1.55-1.48,2.46-2.31a42.7,42.7,0,0,0,17.75-4c3.94-2.13,10.05-12.08,15.4-12.69Z" transform="translate(-160.03 -420.84)" style="fill: #f68f1e"/>
      <g>
        <path d="M504,468.45c.26,1.45-.21,2.75-1,2.93s-1.78-.87-2.07-2.31,0-2.79,1-2.93S503.67,467,504,468.45Z" transform="translate(-160.03 -420.84)" style="fill: #343c41"/>
        <path d="M503.82,469.07c0,.69,0,1.34-.51,1.41s-.83-.4-1-1.09,0-1.33.5-1.41S503.67,468.38,503.82,469.07Z" transform="translate(-160.03 -420.84)" style="fill: #fff"/>
      </g>
      <g>
        <path d="M489.83,456.74h-.37a1.09,1.09,0,0,1-.5-.4l-2.93-4a1,1,0,0,1-.22-.61.51.51,0,0,1,.33-.44h.18a.55.55,0,0,1,.4,0,1,1,0,0,1,.47.36l.83,1.2.22-.47a1.56,1.56,0,0,1,.68-.54,1.23,1.23,0,0,1,.54,0,1.28,1.28,0,0,1,.55,0,2,2,0,0,1,1.12.36,4.36,4.36,0,0,1,1,.9,6.42,6.42,0,0,1,.47.9,3,3,0,0,1,0,.84,1.46,1.46,0,0,1-.29.76,1.36,1.36,0,0,1-.61.5,1.46,1.46,0,0,1-.51,0h0a1.06,1.06,0,0,1-.5,0h-.47a.91.91,0,0,1,0,.33.56.56,0,0,1-.33.43Zm-.33-4h-.22a.71.71,0,0,0-.32.32.89.89,0,0,0,0,.51,1.24,1.24,0,0,0,.29.65,1.85,1.85,0,0,0,.83.68,1.23,1.23,0,0,0,.54,0h.29a.57.57,0,0,0,.33-.5,1.45,1.45,0,0,0-.33-.91,2.51,2.51,0,0,0-.54-.54l-.54-.21Z" transform="translate(-160.03 -420.84)" style="fill: #c5d299"/>
        <path d="M487.19,451.64l1,1.41a2.49,2.49,0,0,1,.25-.69,1.86,1.86,0,0,1,.54-.43,1.65,1.65,0,0,1,1-.22,2.8,2.8,0,0,1,1.05.33,3.09,3.09,0,0,1,.9.9,3,3,0,0,1,.47.83,2.68,2.68,0,0,1,0,.8,1.52,1.52,0,0,1-.25.65,1.67,1.67,0,0,1-.58.51H490a.47.47,0,0,1,0,.43.49.49,0,0,1-.25.33.66.66,0,0,1-.44,0,1.13,1.13,0,0,1-.39-.33L486,452.07a.68.68,0,0,1-.22-.5.41.41,0,0,1,.25-.29.49.49,0,0,1,.44,0A.82.82,0,0,1,487.19,451.64Zm2,2.75a2,2,0,0,0,.91.72,1.09,1.09,0,0,0,.9,0,.69.69,0,0,0,.43-.61,1.42,1.42,0,0,0-.36-1,1.67,1.67,0,0,0-.58-.57,1.24,1.24,0,0,0-.61-.26,1.14,1.14,0,0,0-.58,0,.9.9,0,0,0-.4.44.83.83,0,0,0,0,.58,2,2,0,0,0,.33.72Z" transform="translate(-160.03 -420.84)" style="fill: #c5d299"/>
        <path d="M494.42,454.42a.55.55,0,0,1-.36,0,1,1,0,0,1-.47-.39l-3-4.09a.87.87,0,0,1-.22-.58.58.58,0,0,1,.33-.43H491a.55.55,0,0,1,.36,0,1,1,0,0,1,.47.4l.83,1.15.22-.43a1.34,1.34,0,0,1,.68-.54l.55-.22h.36a2.52,2.52,0,0,1,1.12.4,3,3,0,0,1,1,.9,4.89,4.89,0,0,1,.47.91,2.31,2.31,0,0,1,0,.83,1.74,1.74,0,0,1-.26.72,1.48,1.48,0,0,1-.65.54H494.6a.38.38,0,0,1,0,.33.65.65,0,0,1-.33.43Zm-.33-4h-.21a.68.68,0,0,0-.33.32.89.89,0,0,0,0,.51,2.1,2.1,0,0,0,.33.65,1.53,1.53,0,0,0,.79.65,1.14,1.14,0,0,0,.58,0h.25a.58.58,0,0,0,.33-.51,1.35,1.35,0,0,0-.33-.9,1.85,1.85,0,0,0-.54-.54,1.5,1.5,0,0,0-.54-.22Z" transform="translate(-160.03 -420.84)" style="fill: #c5d299"/>
        <path d="M491.63,449.36l1,1.41a1.53,1.53,0,0,1,.29-.68,1.13,1.13,0,0,1,.61-.51,1.64,1.64,0,0,1,1-.22,2.2,2.2,0,0,1,1.05.33,3.67,3.67,0,0,1,1.38,1.73,3.57,3.57,0,0,1,0,.8,1.42,1.42,0,0,1-.26.65,1.22,1.22,0,0,1-.58.47h-1.73a.64.64,0,0,1,0,.47.43.43,0,0,1-.25.33.66.66,0,0,1-.44,0,1.26,1.26,0,0,1-.4-.33l-2.53-3.94a.86.86,0,0,1-.21-.51.37.37,0,0,1,.25-.29.42.42,0,0,1,.43,0A.79.79,0,0,1,491.63,449.36Zm2,2.75a1.92,1.92,0,0,0,.9.72,1.18,1.18,0,0,0,.94,0,.7.7,0,0,0,.4-.61,1.25,1.25,0,0,0-.36-1,1.59,1.59,0,0,0-.54-.58,1.17,1.17,0,0,0-.62-.25,1.06,1.06,0,0,0-.61,0,.8.8,0,0,0-.4.39,1.3,1.3,0,0,0,0,.62,2.47,2.47,0,0,0,.33.72Z" transform="translate(-160.03 -420.84)" style="fill: #c5d299"/>
      </g>
      <g>
        <path d="M487.48,451.5l.94,1.3a3,3,0,0,1,.25-.65,1.39,1.39,0,0,1,.58-.47,1.69,1.69,0,0,1,.94-.18,2.15,2.15,0,0,1,.94.32,2.88,2.88,0,0,1,.83.8,3.55,3.55,0,0,1,.43.76,1.46,1.46,0,0,1,0,.72,1,1,0,0,1-.21.61,1.28,1.28,0,0,1-.51.44h-1.59a.54.54,0,0,1,0,.43.3.3,0,0,1-.22.25.47.47,0,0,1-.4,0,.59.59,0,0,1-.36-.28l-2.71-3.62a.76.76,0,0,1,0-.47.32.32,0,0,1,.22-.29.55.55,0,0,1,.4,0A.79.79,0,0,1,487.48,451.5Zm1.88,2.49a1.46,1.46,0,0,0,.83.65.93.93,0,0,0,.83,0,.75.75,0,0,0,.4-.58,1.35,1.35,0,0,0-.33-.9,1.85,1.85,0,0,0-.54-.54,1,1,0,0,0-.54-.22.86.86,0,0,0-.55,0,.7.7,0,0,0-.36.36,1,1,0,0,0,0,.54,1.9,1.9,0,0,0,.33.65Z" transform="translate(-160.03 -420.84)" style="fill: #fff"/>
        <path d="M491.67,449.4l.94,1.3a1.72,1.72,0,0,1,.25-.65,1.29,1.29,0,0,1,.55-.43,1.69,1.69,0,0,1,1-.22,2.11,2.11,0,0,1,.94.32,3.61,3.61,0,0,1,1.26,1.6,1.94,1.94,0,0,1,0,.68,1.69,1.69,0,0,1-.21.62,1.29,1.29,0,0,1-.55.43h-1.59a.54.54,0,0,1,0,.43.56.56,0,0,1-.21.29.68.68,0,0,1-.4,0,.89.89,0,0,1-.4-.32l-2.67-3.62a.63.63,0,0,1-.19-.43.34.34,0,0,1,.22-.29.55.55,0,0,1,.4,0A.65.65,0,0,1,491.67,449.4Zm1.88,2.53a1.76,1.76,0,0,0,.8.65,1,1,0,0,0,.86,0,.67.67,0,0,0,.37-.58,1.41,1.41,0,0,0-.33-.9,2.18,2.18,0,0,0-.51-.54,1.47,1.47,0,0,0-.57-.22,1,1,0,0,0-.55,0,.89.89,0,0,0-.36.36,1,1,0,0,0,0,.54,1.28,1.28,0,0,0,.33.69Z" transform="translate(-160.03 -420.84)" style="fill: #fff"/>
      </g>
    </g>
  </g>
  <path d="M460.39,474.24l152.15,24s.84,2-11.31,1.34-128.94-4.08-128.94-4.08-6.4,0-8.57-9.51-3.29-14.47-3.29-14.47Z" transform="translate(-160.03 -420.84)" style="fill: #aeaeae;opacity: 0.3499999940395355;isolation: isolate"/>
  <path d="M459.82,469.47s5.85-3.62,7.55,2.49,6.91,23.36,6.91,23.36a9.55,9.55,0,0,1-10.78-8.13c0-.25-.05-.49-.07-.73Z" transform="translate(-160.03 -420.84)" style="fill: #474748"/>
  <circle cx="130.49" cy="187.91" r="25.74" style="fill: none;stroke: #e9e8e8;stroke-miterlimit: 10;stroke-width: 1.2000000476837158px"/>
  <circle cx="537.66" cy="187.91" r="25.74" style="fill: none;stroke: #e9e8e8;stroke-miterlimit: 10;stroke-width: 1.2000000476837158px"/>
  <path d="M396,524.24h31.28a6.43,6.43,0,0,0-6.44-6.43H402.4a6.43,6.43,0,0,0-6.44,6.43Z" transform="translate(-160.03 -420.84)" style="fill: #fff;opacity: 0.4399999976158142;isolation: isolate"/>
  <path d="M488.92,524.64H520.2a6.4,6.4,0,0,0-6.37-6.43H495.36A6.43,6.43,0,0,0,488.92,524.64Z" transform="translate(-160.03 -420.84)" style="fill: #fff;opacity: 0.4399999976158142;isolation: isolate"/>
  <path d="M449.4,603H379.8a3.4,3.4,0,0,1-3.37-3.43,1.21,1.21,0,0,1,0-.19h0a3.62,3.62,0,0,1,3.36-3.62h69.6a3.62,3.62,0,0,1,3.36,3.62h0a3.4,3.4,0,0,1-3.17,3.61Z" transform="translate(-160.03 -420.84)" style="fill: #ec8622"/>
  <path d="M604.63,603H486.21c-6.11,0-11.06-1.52-11.06-3.62h0c0-1.92,5-3.62,11.06-3.62H604.63c6.11,0,11.06,1.56,11.06,3.62h0C615.69,601.48,610.74,603,604.63,603Z" transform="translate(-160.03 -420.84)" style="fill: #ec8622"/>
  <g style="clip-path: url(#b)">
    <path d="M578.48,523c-7.88,0-14.1-9.94-14.1-22.6s6.22-22.6,14.1-22.6,14.11,10,14.11,22.6S586.4,523,578.48,523Zm0-40.57c-4.55,0-9.43,7.23-9.43,18.08s4.88,18.08,9.43,18.08,9.48-7.23,9.48-18.08S583,482.41,578.48,482.41Z" transform="translate(-160.03 -420.84)" style="fill: #0c1336"/>
  </g>
  <g>
    <g>
      <path d="M493.66,551.25l.58,6.59a10,10,0,0,1,2.31-2.14,6.72,6.72,0,0,1,3.07-1,7.17,7.17,0,0,1,3.87.68,6.84,6.84,0,0,1,2.79,2.75,11.22,11.22,0,0,1,1.3,4.52,12.2,12.2,0,0,1,0,3.62,8.57,8.57,0,0,1-1.19,3,6.61,6.61,0,0,1-2.14,2.1,7.21,7.21,0,0,1-2.93.9,6.79,6.79,0,0,1-1.91,0,5.73,5.73,0,0,1-1.56-.47,13.3,13.3,0,0,1-1.12-.72,16.79,16.79,0,0,1-1.26-1.12v.4a2.5,2.5,0,0,1-.44,1.91,2,2,0,0,1-1.44.76,1.84,1.84,0,0,1-1.52-.5,2.71,2.71,0,0,1-.69-1.81l-1.7-18.88a3.3,3.3,0,0,1,.36-2,2,2,0,0,1,3-.33A2.81,2.81,0,0,1,493.66,551.25Zm1.34,12.8a6.14,6.14,0,0,0,1.52,3.91,3.89,3.89,0,0,0,3.21,1.08,3.61,3.61,0,0,0,2.72-1.66,6.35,6.35,0,0,0,.79-4.16,8,8,0,0,0-.72-2.89,4.35,4.35,0,0,0-1.59-1.81,3.84,3.84,0,0,0-4.31.4,4.41,4.41,0,0,0-1.33,2.06,7.28,7.28,0,0,0-.29,3Z" transform="translate(-160.03 -420.84)" style="fill: #2e8742;stroke: #fff;stroke-miterlimit: 10;stroke-width: 2.1500000953674316px"/>
      <path d="M523.34,562.57l-8.46.73a6.13,6.13,0,0,0,.83,2.56,4.32,4.32,0,0,0,1.67,1.56,4.16,4.16,0,0,0,2.17.36,6.2,6.2,0,0,0,1.41-.29,4.57,4.57,0,0,0,1.19-.69l1.05-.94a15.18,15.18,0,0,0,1.19-1.34,1.71,1.71,0,0,1,.94-.36,1.63,1.63,0,0,1,1.09.29,1.29,1.29,0,0,1,.54,1,3.17,3.17,0,0,1-.36,1.41,5.17,5.17,0,0,1-1.27,1.63,7.39,7.39,0,0,1-2.2,1.41,9.72,9.72,0,0,1-3.18.75,8.57,8.57,0,0,1-6.69-1.8,9.13,9.13,0,0,1-2.9-6.22,10.28,10.28,0,0,1,.29-3.62,7.58,7.58,0,0,1,1.41-3,6.74,6.74,0,0,1,2.53-2,9.94,9.94,0,0,1,3.62-1,8.5,8.5,0,0,1,4.45.68,7.06,7.06,0,0,1,3,2.53,7.18,7.18,0,0,1,1.23,3.4,2.17,2.17,0,0,1-.76,2.17A5.52,5.52,0,0,1,523.34,562.57Zm-8.67-1.73,7.84-.69a5.43,5.43,0,0,0-1.48-3.22,3.62,3.62,0,0,0-2.86-.83,3.39,3.39,0,0,0-2.53,1.34A5.48,5.48,0,0,0,514.67,560.84Z" transform="translate(-160.03 -420.84)" style="fill: #2e8742;stroke: #fff;stroke-miterlimit: 10;stroke-width: 2.1500000953674316px"/>
      <path d="M530.9,567l-1.66-18.77a2.9,2.9,0,0,1,.4-2,2.16,2.16,0,0,1,3-.37l.1.09a2.68,2.68,0,0,1,.8,1.91l1.66,18.77a2.88,2.88,0,0,1-.43,2,2.22,2.22,0,0,1-1.52.8,2.11,2.11,0,0,1-1.63-.54A2.92,2.92,0,0,1,530.9,567Z" transform="translate(-160.03 -420.84)" style="fill: #2e8742;stroke: #fff;stroke-miterlimit: 10;stroke-width: 2.1500000953674316px"/>
      <path d="M539.69,566.26,538,547.49a2.89,2.89,0,0,1,.44-2,2,2,0,0,1,1.48-.8,2.13,2.13,0,0,1,1.66.51,2.92,2.92,0,0,1,.76,1.92L544,565.86a2.85,2.85,0,0,1-.44,2,2.06,2.06,0,0,1-1.52.79,2,2,0,0,1-1.62-.54A2.92,2.92,0,0,1,539.69,566.26Z" transform="translate(-160.03 -420.84)" style="fill: #2e8742;stroke: #fff;stroke-miterlimit: 10;stroke-width: 2.1500000953674316px"/>
      <path d="M550.82,546.19l.58,6.62a10.88,10.88,0,0,1,2.32-2.17,7.09,7.09,0,0,1,3.11-.94,6.62,6.62,0,0,1,6.65,3.43,10.71,10.71,0,0,1,1.26,4.52,12.2,12.2,0,0,1,0,3.62,8.23,8.23,0,0,1-1.22,3,6.68,6.68,0,0,1-2.14,2.06,7.16,7.16,0,0,1-2.93.94,8.71,8.71,0,0,1-1.91,0,5.78,5.78,0,0,1-2.68-1.23c-.29-.22-.72-.62-1.26-1.12v.43a2.81,2.81,0,0,1-.4,1.92,2.1,2.1,0,0,1-1.45.76,2.16,2.16,0,0,1-1.52-.51,2.7,2.7,0,0,1-.72-1.81l-1.66-18.87a3.08,3.08,0,0,1,.36-2.06,1.83,1.83,0,0,1,1.41-.8,2,2,0,0,1,1.59.51A2.65,2.65,0,0,1,550.82,546.19ZM552.16,559a6,6,0,0,0,1.52,3.87A4,4,0,0,0,556.9,564a3.62,3.62,0,0,0,2.71-1.67,6,6,0,0,0,.8-4.15,7.41,7.41,0,0,0-.73-2.93,4.39,4.39,0,0,0-1.59-1.77,3.59,3.59,0,0,0-2.17-.51,3.9,3.9,0,0,0-2.13.87,4.55,4.55,0,0,0-1.34,2.1A7.26,7.26,0,0,0,552.16,559Z" transform="translate(-160.03 -420.84)" style="fill: #94ba4f;stroke: #fff;stroke-miterlimit: 10;stroke-width: 2.1500000953674316px"/>
      <path d="M584.45,556.1a11.34,11.34,0,0,1-.29,3.62,7.66,7.66,0,0,1-1.52,3,7.44,7.44,0,0,1-2.56,2,9.12,9.12,0,0,1-3.62.94,9.42,9.42,0,0,1-3.62-.29,8.27,8.27,0,0,1-2.89-1.59,8.15,8.15,0,0,1-2-2.64,10.88,10.88,0,0,1-.61-7.24,7.56,7.56,0,0,1,4-4.95A9.08,9.08,0,0,1,575,548a8.53,8.53,0,0,1,3.62.33,7.47,7.47,0,0,1,2.93,1.55,7.83,7.83,0,0,1,2,2.64A10.6,10.6,0,0,1,584.45,556.1Zm-4.34.36a6.62,6.62,0,0,0-1.55-4,3.62,3.62,0,0,0-3.26-1.2,4,4,0,0,0-2.17.87,4.41,4.41,0,0,0-1.33,2.06,8.9,8.9,0,0,0,.54,6A4.42,4.42,0,0,0,574,562a3.69,3.69,0,0,0,2.32.47,3.63,3.63,0,0,0,3-1.77A6.56,6.56,0,0,0,580.11,556.46Z" transform="translate(-160.03 -420.84)" style="fill: #94ba4f;stroke: #fff;stroke-miterlimit: 10;stroke-width: 2.1500000953674316px"/>
      <path d="M592.22,564.81l.33-1L586,550.86a6.38,6.38,0,0,1-.65-1.63,2.14,2.14,0,0,1,.22-1.05,2,2,0,0,1,.72-.83,1.7,1.7,0,0,1,1-.36,1.55,1.55,0,0,1,1.45.47,4.83,4.83,0,0,1,1,1.63l4.62,10.3,2.57-10.2a17,17,0,0,1,.62-2,2,2,0,0,1,.61-1,1.9,1.9,0,0,1,1.08-.32,1.71,1.71,0,0,1,1,0,1.78,1.78,0,0,1,.75.61,2.3,2.3,0,0,1,.33.94v.87a2,2,0,0,1-.25,1.16l-4.34,15.26a17.3,17.3,0,0,1-1.16,3.18,4.38,4.38,0,0,1-1.7,1.84,6.81,6.81,0,0,1-3,.91,7.83,7.83,0,0,1-2.89-.18,1.56,1.56,0,0,1-1.08-1.41,1.43,1.43,0,0,1,.36-1.2,2.12,2.12,0,0,1,1.23-.29h.68a1.5,1.5,0,0,0,.73,0,2.42,2.42,0,0,0,1.15-.29,2.06,2.06,0,0,0,.69-.83A12.44,12.44,0,0,0,592.22,564.81Z" transform="translate(-160.03 -420.84)" style="fill: #94ba4f;stroke: #fff;stroke-miterlimit: 10;stroke-width: 2.1500000953674316px"/>
    </g>
    <g>
      <path d="M493.66,551.25l.58,6.59a10,10,0,0,1,2.31-2.14,6.72,6.72,0,0,1,3.07-1,7.17,7.17,0,0,1,3.87.68,6.84,6.84,0,0,1,2.79,2.75,11.22,11.22,0,0,1,1.3,4.52,12.2,12.2,0,0,1,0,3.62,8.57,8.57,0,0,1-1.19,3,6.61,6.61,0,0,1-2.14,2.1,7.21,7.21,0,0,1-2.93.9,6.79,6.79,0,0,1-1.91,0,5.73,5.73,0,0,1-1.56-.47,13.3,13.3,0,0,1-1.12-.72,16.79,16.79,0,0,1-1.26-1.12v.4a2.5,2.5,0,0,1-.44,1.91,2,2,0,0,1-1.44.76,1.84,1.84,0,0,1-1.52-.5,2.71,2.71,0,0,1-.69-1.81l-1.7-18.88a3.3,3.3,0,0,1,.36-2,2,2,0,0,1,3-.33A2.81,2.81,0,0,1,493.66,551.25Zm1.34,12.8a6.14,6.14,0,0,0,1.52,3.91,3.89,3.89,0,0,0,3.21,1.08,3.61,3.61,0,0,0,2.72-1.66,6.35,6.35,0,0,0,.79-4.16,8,8,0,0,0-.72-2.89,4.35,4.35,0,0,0-1.59-1.81,3.84,3.84,0,0,0-4.31.4,4.41,4.41,0,0,0-1.33,2.06,7.28,7.28,0,0,0-.29,3Z" transform="translate(-160.03 -420.84)" style="fill: #f6901e"/>
      <path d="M523.34,562.57l-8.46.73a6.13,6.13,0,0,0,.83,2.56,4.32,4.32,0,0,0,1.67,1.56,4.16,4.16,0,0,0,2.17.36,6.2,6.2,0,0,0,1.41-.29,4.57,4.57,0,0,0,1.19-.69l1.05-.94a15.18,15.18,0,0,0,1.19-1.34,1.71,1.71,0,0,1,.94-.36,1.63,1.63,0,0,1,1.09.29,1.29,1.29,0,0,1,.54,1,3.17,3.17,0,0,1-.36,1.41,5.17,5.17,0,0,1-1.27,1.63,7.39,7.39,0,0,1-2.2,1.41,9.72,9.72,0,0,1-3.18.75,8.57,8.57,0,0,1-6.69-1.8,9.13,9.13,0,0,1-2.9-6.22,10.28,10.28,0,0,1,.29-3.62,7.58,7.58,0,0,1,1.41-3,6.74,6.74,0,0,1,2.53-2,9.94,9.94,0,0,1,3.62-1,8.5,8.5,0,0,1,4.45.68,7.06,7.06,0,0,1,3,2.53,7.18,7.18,0,0,1,1.23,3.4,2.17,2.17,0,0,1-.76,2.17A5.52,5.52,0,0,1,523.34,562.57Zm-8.67-1.73,7.84-.69a5.43,5.43,0,0,0-1.48-3.22,3.62,3.62,0,0,0-2.86-.83,3.39,3.39,0,0,0-2.53,1.34A5.48,5.48,0,0,0,514.67,560.84Z" transform="translate(-160.03 -420.84)" style="fill: #f6901e"/>
      <path d="M530.9,567l-1.66-18.77a2.9,2.9,0,0,1,.4-2,2.16,2.16,0,0,1,3-.37l.1.09a2.68,2.68,0,0,1,.8,1.91l1.66,18.77a2.88,2.88,0,0,1-.43,2,2.22,2.22,0,0,1-1.52.8,2.11,2.11,0,0,1-1.63-.54A2.92,2.92,0,0,1,530.9,567Z" transform="translate(-160.03 -420.84)" style="fill: #f6901e"/>
      <path d="M539.69,566.26,538,547.49a2.89,2.89,0,0,1,.44-2,2,2,0,0,1,1.48-.8,2.13,2.13,0,0,1,1.66.51,2.92,2.92,0,0,1,.76,1.92L544,565.86a2.85,2.85,0,0,1-.44,2,2.06,2.06,0,0,1-1.52.79,2,2,0,0,1-1.62-.54A2.92,2.92,0,0,1,539.69,566.26Z" transform="translate(-160.03 -420.84)" style="fill: #f6901e"/>
      <path d="M550.82,546.19l.58,6.62a10.88,10.88,0,0,1,2.32-2.17,7.09,7.09,0,0,1,3.11-.94,6.62,6.62,0,0,1,6.65,3.43,10.71,10.71,0,0,1,1.26,4.52,12.2,12.2,0,0,1,0,3.62,8.23,8.23,0,0,1-1.22,3,6.68,6.68,0,0,1-2.14,2.06,7.16,7.16,0,0,1-2.93.94,8.71,8.71,0,0,1-1.91,0,5.78,5.78,0,0,1-2.68-1.23c-.29-.22-.72-.62-1.26-1.12v.43a2.81,2.81,0,0,1-.4,1.92,2.1,2.1,0,0,1-1.45.76,2.16,2.16,0,0,1-1.52-.51,2.7,2.7,0,0,1-.72-1.81l-1.66-18.87a3.08,3.08,0,0,1,.36-2.06,1.83,1.83,0,0,1,1.41-.8,2,2,0,0,1,1.59.51A2.65,2.65,0,0,1,550.82,546.19ZM552.16,559a6,6,0,0,0,1.52,3.87A4,4,0,0,0,556.9,564a3.62,3.62,0,0,0,2.71-1.67,6,6,0,0,0,.8-4.15,7.41,7.41,0,0,0-.73-2.93,4.39,4.39,0,0,0-1.59-1.77,3.59,3.59,0,0,0-2.17-.51,3.9,3.9,0,0,0-2.13.87,4.55,4.55,0,0,0-1.34,2.1A7.26,7.26,0,0,0,552.16,559Z" transform="translate(-160.03 -420.84)" style="fill: #72af44"/>
      <path d="M584.45,556.1a11.34,11.34,0,0,1-.29,3.62,7.66,7.66,0,0,1-1.52,3,7.44,7.44,0,0,1-2.56,2,9.12,9.12,0,0,1-3.62.94,9.42,9.42,0,0,1-3.62-.29,8.27,8.27,0,0,1-2.89-1.59,8.15,8.15,0,0,1-2-2.64,10.88,10.88,0,0,1-.61-7.24,7.56,7.56,0,0,1,4-4.95A9.08,9.08,0,0,1,575,548a8.53,8.53,0,0,1,3.62.33,7.47,7.47,0,0,1,2.93,1.55,7.83,7.83,0,0,1,2,2.64A10.6,10.6,0,0,1,584.45,556.1Zm-4.34.36a6.62,6.62,0,0,0-1.55-4,3.62,3.62,0,0,0-3.26-1.2,4,4,0,0,0-2.17.87,4.41,4.41,0,0,0-1.33,2.06,8.9,8.9,0,0,0,.54,6A4.42,4.42,0,0,0,574,562a3.69,3.69,0,0,0,2.32.47,3.63,3.63,0,0,0,3-1.77A6.56,6.56,0,0,0,580.11,556.46Z" transform="translate(-160.03 -420.84)" style="fill: #72af44"/>
      <path d="M592.22,564.81l.33-1L586,550.86a6.38,6.38,0,0,1-.65-1.63,2.14,2.14,0,0,1,.22-1.05,2,2,0,0,1,.72-.83,1.7,1.7,0,0,1,1-.36,1.55,1.55,0,0,1,1.45.47,4.83,4.83,0,0,1,1,1.63l4.62,10.3,2.57-10.2a17,17,0,0,1,.62-2,2,2,0,0,1,.61-1,1.9,1.9,0,0,1,1.08-.32,1.71,1.71,0,0,1,1,0,1.78,1.78,0,0,1,.75.61,2.3,2.3,0,0,1,.33.94v.87a2,2,0,0,1-.25,1.16l-4.34,15.26a17.3,17.3,0,0,1-1.16,3.18,4.38,4.38,0,0,1-1.7,1.84,6.81,6.81,0,0,1-3,.91,7.83,7.83,0,0,1-2.89-.18,1.56,1.56,0,0,1-1.08-1.41,1.43,1.43,0,0,1,.36-1.2,2.12,2.12,0,0,1,1.23-.29h.68a1.5,1.5,0,0,0,.73,0,2.42,2.42,0,0,0,1.15-.29,2.06,2.06,0,0,0,.69-.83A12.44,12.44,0,0,0,592.22,564.81Z" transform="translate(-160.03 -420.84)" style="fill: #72af44"/>
    </g>
  </g>
  <text transform="translate(332.09 167.49)" style="font-size: 10px;fill: #fff;font-family: CenturyGothic, Century Gothic">Your personal assistant</text>
</svg>
