<svg xmlns="http://www.w3.org/2000/svg" width="629.74" height="640.49" viewBox="0 0 629.74 640.49">
  <title>Cycle</title>
  <ellipse cx="453.5" cy="756.02" rx="158.82" ry="17.42" transform="matrix(1, -0.03, 0.03, 1, -234.04, -133.66)" style="fill: #e2e2e2;opacity: 0.5099999904632568;isolation: isolate"/>
  <ellipse cx="525.13" cy="752.94" rx="315.03" ry="34.58" transform="translate(-233.91 -131.38) rotate(-1.82)" style="fill: #e2e2e2;opacity: 0.5099999904632568;isolation: isolate"/>
  <path d="M456.38,629.09,481.09,638a4.07,4.07,0,0,1,2.46,5.21h0a4.12,4.12,0,0,1-5.21,2.46l-24.75-8.91a4.07,4.07,0,0,1-2.27-5.21h0A4,4,0,0,1,456.38,629.09Z" transform="translate(-210.26 -148.44)" style="fill: #212636"/>
  <path d="M338.12,661.62l-67-148.51,10.27-2.53,65.12,146.67Z" transform="translate(-210.26 -148.44)" style="fill: #609b42"/>
  <path d="M446,611.71a49.06,49.06,0,0,0,11.3,10.41c6.2,3.93,9.28,11,20.13,23.51a43.6,43.6,0,0,0,20.21,13.82,20.45,20.45,0,0,0-.44-3.66,15.27,15.27,0,0,0-1.25-3.3,52,52,0,0,1-16.06-14l-1.4-1.8-2.2,1.47-1.24-2.13,1.9-1.21-4.07-5.17-2,1.06-1-1.28,2-1.18a44,44,0,0,1-3.37-4.95l-2.17.74-.91-2,2.16-.91a2.07,2.07,0,0,1,.29-2,2.79,2.79,0,0,1,2.39-.59,17.3,17.3,0,0,1-.74-2.42l-5.75.51a3.22,3.22,0,0,1-.41-2.53h5.72c-.22-1.46-.36-2.93-.44-4.4l-6.3-.84v-2.57l5.9.7c-.06-1.22-.06-2.45,0-3.67a37,37,0,0,1-11.59-7.33C455.5,598.18,449.34,606.43,446,611.71Z" transform="translate(-210.26 -148.44)" style="fill: #f6901e"/>
  <path d="M477.46,645.63c-11-12.61-13.93-19.58-20.13-23.51A49.06,49.06,0,0,1,446,611.71l-1.1,1.8C441.74,619,450.11,625,455.06,628s9.53,9.5,13.23,14.38a81.69,81.69,0,0,0,20.17,17.86c7.34,4.62,9.24,3.08,9.21-.74A43.6,43.6,0,0,1,477.46,645.63Z" transform="translate(-210.26 -148.44)" style="fill: #d6d7bc"/>
  <path d="M476.32,638.19l5.47-3.67-1.91-2.13-4.8,3.67Z" transform="translate(-210.26 -148.44)" style="fill: #d9d5ba;opacity: 0.8999999761581421;isolation: isolate"/>
  <path d="M470.82,630.59l5.25-2.75a15.25,15.25,0,0,1-1.21-1.57l-5.06,3Z" transform="translate(-210.26 -148.44)" style="fill: #d9d5ba;opacity: 0.8999999761581421;isolation: isolate"/>
  <path d="M466.24,623.85l5.68-2c-.44-.74-.84-1.47-1.21-2.2l-5.39,2.2Z" transform="translate(-210.26 -148.44)" style="fill: #d9d5ba;opacity: 0.8999999761581421;isolation: isolate"/>
  <path d="M463.67,616.51l5.76-.47a19.15,19.15,0,0,1-.44-2.13h-5.72A3.17,3.17,0,0,0,463.67,616.51Z" transform="translate(-210.26 -148.44)" style="fill: #d9d5ba;opacity: 0.8999999761581421;isolation: isolate"/>
  <path d="M462.32,609l6.08.59v-2.46l-5.9-.73Z" transform="translate(-210.26 -148.44)" style="fill: #d9d5ba;opacity: 0.8999999761581421;isolation: isolate"/>
  <path d="M469.65,629.31l1,1.28,2-1.06-1.1-1.39Z" transform="translate(-210.26 -148.44)" style="fill: none"/>
  <path d="M465.32,621.94l.92,2,2.16-.77a10.5,10.5,0,0,1-.91-2.09Z" transform="translate(-210.26 -148.44)" style="fill: none"/>
  <path d="M475.08,636.06l1.24,2.13,2.2-1.47L477,634.85Z" transform="translate(-210.26 -148.44)" style="fill: none"/>
  <path d="M476.07,627.84l-3.23,1.69c1.17,1.54,2.57,3.27,4.07,5.17l3-2.27A44.41,44.41,0,0,1,476.07,627.84Z" transform="translate(-210.26 -148.44)" style="fill: #f6901e"/>
  <path d="M467.78,619.08a2,2,0,0,0-.29,2l3.22-1.32-.44-1v-.3A2.56,2.56,0,0,0,467.78,619.08Z" transform="translate(-210.26 -148.44)" style="fill: #f6901e"/>
  <path d="M471.92,621.94l-3.66,1.21a45.44,45.44,0,0,0,3.37,5l3.08-1.87Q473.21,624.17,471.92,621.94Z" transform="translate(-210.26 -148.44)" style="fill: #f6901e"/>
  <path d="M481.79,634.59l-3.27,2.13,1.4,1.8a51.89,51.89,0,0,0,16.06,14,89.53,89.53,0,0,0-13.35-17Z" transform="translate(-210.26 -148.44)" style="fill: #f6901e"/>
  <path d="M429.83,475.89h.95c24.83-.92,35.64,12.06,41.11,15.54s8.36,1.91,11.25,2.13a4.18,4.18,0,0,1,3.67,3.12,5,5,0,0,0-1.58,4.77,8,8,0,0,0,3.67,5.09,317.21,317.21,0,0,0-10,32.49,157.58,157.58,0,0,1-5.61,15.51c-2.64,7-20.17,36.23-20.87,38.14s2.13,3.67,2.13,3.67l2.57,2a32.65,32.65,0,0,0,11.55,6.27,3.41,3.41,0,0,0,2.05-2c1.39-2.64,15.22-29.33,16.5-34.87s7.34-11.66,11.33-17.09,5.87-20.5,15.66-41-1.17-29.34-10.45-36c-6.93-4.87-37.88-25.45-53.06-35.57h0l-7.92-5C438.19,451,429.83,475.89,429.83,475.89Z" transform="translate(-210.26 -148.44)" style="fill: #72af44"/>
  <path d="M603.31,484.5l-11.88-12.28,1.06-2.13-1.87,1.29h0L456.27,562.13l-29.93-93.61-10.12,3.22,30.88,96.63L329.43,647.94l141.83,12.32.92-10.6-111.95-9.75,91.09-58.31,25,78.11,10.12-3.23-2.86-8.94,6.78,4.4ZM460.63,575.66l108-69.15-86.1,137.84Z" transform="translate(-210.26 -148.44)" style="fill: #f68f1e"/>
  <path d="M355.09,648.75v-1.87l81.56-13.68-.44-2.53-81.52,13.68a19,19,0,0,0-6.6-10.45l49.5-70.7-2.12-1.47-47.6,67.8,25.67-76.78-2.46-.85L344.5,631.62a18.75,18.75,0,0,0-7.34-1.91V544.57H334.6v85.14a18.84,18.84,0,0,0-4.29.77l-26.44-73.63-2.42.88,25.19,70.08-50.49-58.23-1.95,1.72L326.9,632a19.63,19.63,0,0,0-6.82,6.27l-3-.51L243.4,600.34l-1.17,2.31,66.07,33.59-73.81-12.72-.44,2.56,82.1,14.12,2.13,1.07a19.4,19.4,0,0,0-1.5,7.33v1.5L235.3,662.2l.36,2.57,81.48-12.1c.19.77.37,1.5.63,2.27L243.4,686.88l1,2.39,74.36-31.94h0l-58.16,59.11,1.84,1.83,58-58.45a19.37,19.37,0,0,0,4.26,4.36l-42.83,67.37,2.16,1.39L326.9,665.5l1.13.59c-10.7,28.2-30.29,79.83-30.76,81.26l2.45.81c.41-1.25,17.68-46.76,30.73-81.15a19.16,19.16,0,0,0,5.58.8h1l-6.67,81.78,2.56.22,6.82-82.33a18.27,18.27,0,0,0,2.42-.62c13.46,33,31.14,76.68,31.61,78.07l2.46-.81c-.48-1.46-20.57-50.86-31.68-78.21l.73-.37,45.36,72,2.16-1.39-45.47-72a18.5,18.5,0,0,0,4.62-4.84l67.51,46.76,1.47-2.13-67.66-46.9A19,19,0,0,0,355.09,648.75Z" transform="translate(-210.26 -148.44)" style="fill: gray"/>
  <path d="M336,760.7a112,112,0,1,1,56.61-15.37A112,112,0,0,1,336,760.7Zm0-208.39a96.48,96.48,0,1,0,96.4,96.55v-.08h0A96.51,96.51,0,0,0,336,552.34Z" transform="translate(-210.26 -148.44)" style="fill: #212636"/>
  <path d="M422,533.86a5.76,5.76,0,0,1-5-.51h0C364.67,501.7,292.35,513.62,271.19,518h0a1.92,1.92,0,0,1-2.2-1.47v-4.47a6.38,6.38,0,0,1,5.4-6.23A466.93,466.93,0,0,1,327,500.49h1.21c33,0,61.79,5.91,85.3,17.64a19.68,19.68,0,0,0,15.43,1l6.49-2.27a7.11,7.11,0,0,1,8.8,4.36h0a4.61,4.61,0,0,1-2.82,5.83Z" transform="translate(-210.26 -148.44)" style="fill: #f68f1e"/>
  <path d="M398.36,461.7s-1.83-6.72,2.39-7.34,20,1.83,24.09,1.17,25.67-5.39,29.56-1.9,2.56,6.78-5,7.88S431.77,464.41,429,467,405.81,477.72,398.36,461.7Z" transform="translate(-210.26 -148.44)" style="fill: #212636"/>
  <path d="M693.77,656,573.5,447.83l12.87-5.64L703.71,647.83Z" transform="translate(-210.26 -148.44)" style="fill: #72af44"/>
  <g>
    <path d="M715.34,648.75c0-.63,0-1.25,0-1.87l81.51-13.68-.4-2.57-81.52,13.72a18.91,18.91,0,0,0-6.6-10.45l49.47-70.7-2.13-1.47L708,629.53l25.67-76.78-2.46-.85-26.58,79.72a18.4,18.4,0,0,0-7.12-1.91V544.57h-2.6v85.14a19,19,0,0,0-4.29.77l-26.4-73.63-2.46.88,25.16,70.08-50.5-58.23-1.94,1.72L687.17,632a19.35,19.35,0,0,0-6.82,6.27l-3-.51-73.67-37.37-1.18,2.31,66,33.59-73.82-12.72-.44,2.56,82.11,14.12,2.16,1.07A18.85,18.85,0,0,0,677,648.6v1.5L595.5,662.2l.4,2.57,81.45-12.1a7.5,7.5,0,0,0,.66,2.27L603.6,686.88l1,2.39,74.4-32h0l-58.41,58.89,1.87,1.83,57.94-58.45a18.61,18.61,0,0,0,4.25,4.29L642,731.55l2.16,1.39L687,665.5l1.17.59c-10.7,28.2-30.32,79.83-30.8,81.26l2.46.81c.44-1.29,17.71-46.76,30.76-81.15a18.94,18.94,0,0,0,5.54.8h1l-6.78,81.78,2.6.22,6.79-82.33a15.62,15.62,0,0,0,2.42-.62c13.46,33,31.17,76.68,31.61,78.07l2.45-.81c-.47-1.46-20.53-50.89-31.68-78.21l.73-.37,45.58,72,2.21-1.39-45.51-72a18.81,18.81,0,0,0,4.66-4.84l67.47,46.79,1.46-2.12-67.65-46.94A19.64,19.64,0,0,0,715.34,648.75Z" transform="translate(-210.26 -148.44)" style="fill: gray"/>
    <path d="M696.27,760.7a111.9,111.9,0,1,1,56.65-15.37A111.88,111.88,0,0,1,696.27,760.7Zm0-208.39a96.48,96.48,0,1,0,96.44,96.51v0h0a96.56,96.56,0,0,0-96.44-96.44Z" transform="translate(-210.26 -148.44)" style="fill: #212636"/>
  </g>
  <path d="M583.8,439.22a7.82,7.82,0,0,0-11.92-6.68h0l-4.25,2.68h0A7.81,7.81,0,0,0,573,449.89h0a7.29,7.29,0,0,0,3.67-2.09l2-1.14a9.41,9.41,0,0,0,2.24-1.28h0A7.87,7.87,0,0,0,583.8,439.22Z" transform="translate(-210.26 -148.44)" style="fill: #1a1717"/>
  <g>
    <path d="M481.31,174.21a34.14,34.14,0,0,1-10.78,5.28c1.06,3.66,1.65,6.34,1.65,6.34,38.65-7.81,44-27.79,44.26-29.15C506.65,156,496.86,162.55,481.31,174.21Z" transform="translate(-210.26 -148.44)" style="fill: #f26f21"/>
    <path d="M447,249.82Z" transform="translate(-210.26 -148.44)" style="fill: #e8a78f;stroke: #0098d5;stroke-miterlimit: 10;stroke-width: 1.4199999570846558px"/>
    <path d="M442.07,250.19v12h0a1.82,1.82,0,0,0,0,.33h0a.81.81,0,0,0,0,.22h0a.41.41,0,0,1,0,.22h0v.25h0v.26h0v.26h0V264h0l.3.37h0v.18h2.27c5.36,1.06,5.43-1.91,5.72-4.29l.48-4.14.55-4.44A13.24,13.24,0,0,1,442.07,250.19Z" transform="translate(-210.26 -148.44)" style="fill: #e8a863"/>
    <path d="M464.77,225.51a33.45,33.45,0,0,0,15.59,14.26c.77-1.06,1.46-2.13,2.12-3.19C480.17,235.81,469.25,231.85,464.77,225.51Z" transform="translate(-210.26 -148.44)" style="fill: #c86129"/>
    <path d="M429.61,225.8a30.65,30.65,0,0,0,2.78,7.15c4.26,1.06,3.34-2.13,2-5.32a4,4,0,0,1-.29-1.72c-.44,0-.88-.4-1.36-.4A11.5,11.5,0,0,1,429.61,225.8Z" transform="translate(-210.26 -148.44)" style="fill: #17191a"/>
    <path d="M444.16,181a24.38,24.38,0,0,1,.22-3.67A14.73,14.73,0,0,1,442,177c-1.79-.22-2.82-.4-2.82-.4-17.78,10.63-22,15.62-22,15.62s5.46,12.5,6.53,14.67a8.51,8.51,0,0,1,9.9,4.54,32.57,32.57,0,0,1,3.66,8.25,5.26,5.26,0,0,0,1.36-1.61,5.38,5.38,0,0,0,.4-.84c.41-1.36-1.28-6.2-1.79-12.87a13.1,13.1,0,0,1,1.61-9.57A132.52,132.52,0,0,0,444.16,181Z" transform="translate(-210.26 -148.44)" style="fill: #17191a"/>
    <path d="M437.53,220.92a1.33,1.33,0,0,0-.3-1,28.93,28.93,0,0,0-3.66-8.25,8.2,8.2,0,0,0-9.9-4.51c-.48,0-4.51,1.76-4.66,8.5a8.85,8.85,0,0,0,2.64,6.57,15.78,15.78,0,0,0,5.21,2.89,14.63,14.63,0,0,0,9.64.37,2.09,2.09,0,0,0,1.43-2A9,9,0,0,0,437.53,220.92Z" transform="translate(-210.26 -148.44)" style="fill: #dfa663"/>
    <path d="M435.88,221.51c-1.1-3.89-3.34-8.47-7.7-9.28a5.1,5.1,0,0,0-2.06,0,5.18,5.18,0,0,0-3,5.21,6.9,6.9,0,0,0,4.36,5.83,23.45,23.45,0,0,0,2.24,1,8.94,8.94,0,0,0,4,.55,2.72,2.72,0,0,0,1.84-.73A2.54,2.54,0,0,0,435.88,221.51Z" transform="translate(-210.26 -148.44)" style="fill: #c86129;opacity: 0.25;isolation: isolate"/>
    <path d="M426.6,217.4s3.67-.29,4.33,1,0,1.51-.63,1.58-1,.62.41,1.72,3.88,1.65,4,.77-1.06-1.1-1.46-2a2.57,2.57,0,0,1-.26-1.8c0-.59-1.72-2.27-3-2.46A6.94,6.94,0,0,0,426.6,217.4Z" transform="translate(-210.26 -148.44)" style="fill: #c86129;opacity: 0.5;isolation: isolate"/>
    <line x1="260.67" y1="34.02" x2="260.49" y2="33.87" style="fill: none"/>
    <path d="M453.59,250.55v-1.1l-12.07-4.51.37,2.79v2.49a13.23,13.23,0,0,0,11,4l.44-3.66Z" transform="translate(-210.26 -148.44)" style="fill: #c86129"/>
    <path d="M496.79,212.09a6.6,6.6,0,0,0-7.34-5.28,121.78,121.78,0,0,0-4.73-33.3l.55-.51h-.66l-1.54-7a135.82,135.82,0,0,1-13.71,6.85h-3.93l-.62,2c-2.49,1-5.24,2.16-8.25,3.34a112.62,112.62,0,0,1-12.18-.59,18.79,18.79,0,0,1-.22,3.67,46.55,46.55,0,0,1-2.2,6.16,22.37,22.37,0,0,0-2.93,7.11l-.22.48a13.1,13.1,0,0,0-1.65,9.83c.51,6.67,2.24,11.47,1.8,12.87a5.46,5.46,0,0,1-1.73,2.45h0a1.33,1.33,0,0,0,.3,1c1.24,4.44-.48,4.62-3.45,5a4.38,4.38,0,0,0,.33,1.68c1.32,3.19,2.24,6.38-2,5.36a70.32,70.32,0,0,0,4.81,7.7h0a37.13,37.13,0,0,0,7.88,8.43h0a27.49,27.49,0,0,0,4.48,2.83,20.31,20.31,0,0,0,8.06,2,15.18,15.18,0,0,0,2.86,0H461a18.15,18.15,0,0,0,5.76-2,14.64,14.64,0,0,0,2-1.25,39.84,39.84,0,0,0,11.55-11,33,33,0,0,1-15.59-14.27c4.48,6.38,15.4,10.31,17.71,11a59.88,59.88,0,0,0,7-16.57S497.78,218,496.79,212.09Z" transform="translate(-210.26 -148.44)" style="fill: #e8a863"/>
    <path d="M485.78,162.91a123.16,123.16,0,0,1,16.87-5.31,226.21,226.21,0,0,0-26.91,6.74h0a3.42,3.42,0,0,0-.59-1.35,47,47,0,0,0-10.41,3.33C463.78,167.5,476.32,166.91,485.78,162.91Z" transform="translate(-210.26 -148.44)" style="fill: #94ba4f"/>
    <path d="M485.78,162.91a123.16,123.16,0,0,1,16.87-5.31,226.21,226.21,0,0,0-26.91,6.74h0a3.42,3.42,0,0,0-.59-1.35,47,47,0,0,0-10.41,3.33C463.78,167.5,476.32,166.91,485.78,162.91Z" transform="translate(-210.26 -148.44)" style="fill: #f26f21"/>
    <path d="M516.22,156.57a26.93,26.93,0,0,0-10.12.4c-1.1.19-2.2.37-3.34.63a123.24,123.24,0,0,0-17,5.31c-9.46,4-22,4.59-21,3.45A47.52,47.52,0,0,1,475.15,163c-4.73-10-20.17-15.88-33.7-14.34a27.57,27.57,0,0,0-11.81,4.55,37.71,37.71,0,0,0-5.06,3.85,52.65,52.65,0,0,0-11.66,14.67,6.61,6.61,0,0,0-.47,2,15.08,15.08,0,0,0,0,3.15,55,55,0,0,0,3,11c1.1,3,2.2,5.65,2.71,6.78h0s3.3-4.76,16.65-13.42l6-3.66s21.09,4,38.8-1.47c8.95-2.75,25.45-20.35,36.67-19.47Z" transform="translate(-210.26 -148.44)" style="fill: #f68f1e"/>
    <g>
      <path d="M480.65,195.88c0,3-1.43,5.5-3.26,5.5S474,199,474,195.92s1.46-5.51,3.3-5.51S480.65,192.83,480.65,195.88Z" transform="translate(-210.26 -148.44)" style="fill: #343c41"/>
      <path d="M480.21,197.09c0,1.43-.7,2.6-1.58,2.64s-1.65-1.25-1.65-2.6.7-2.61,1.58-2.65S480.17,195.66,480.21,197.09Z" transform="translate(-210.26 -148.44)" style="fill: #fff"/>
    </g>
    <g>
      <path d="M455.75,166.84a1.72,1.72,0,0,1-.73-.19,2.07,2.07,0,0,1-.88-1l-4.58-9.31a1.91,1.91,0,0,1-.22-1.28,1,1,0,0,1,.84-.77h.44a1.26,1.26,0,0,1,.7.18,2,2,0,0,1,.88,1l1.32,2.68a2.87,2.87,0,0,1,.58-.81,3.4,3.4,0,0,1,1.62-.88,4.9,4.9,0,0,1,1.21,0,7.62,7.62,0,0,1,1.17,0,5.32,5.32,0,0,1,2.16,1.18,7.52,7.52,0,0,1,1.65,2.27,6.65,6.65,0,0,1,.66,1.94,4.58,4.58,0,0,1,0,1.73,2.86,2.86,0,0,1-.84,1.39,3.75,3.75,0,0,1-1.54.81,6.82,6.82,0,0,1-1.1.18h0a4.44,4.44,0,0,1-1,0l-.84-.44h0a1.06,1.06,0,0,1,0,.66,1.21,1.21,0,0,1-.84.73Zm.81-8.14h-.48a1.3,1.3,0,0,0-.8.51,1.51,1.51,0,0,0-.26,1,3.27,3.27,0,0,0,.4,1.43,3.7,3.7,0,0,0,1.43,1.65,2.19,2.19,0,0,0,1.14.33h0a1.47,1.47,0,0,0,.59,0,1.23,1.23,0,0,0,.91-.88,2.8,2.8,0,0,0-.36-1.94,4,4,0,0,0-.92-1.29,2.61,2.61,0,0,0-1.06-.66,1.47,1.47,0,0,0-.59,0Z" transform="translate(-210.26 -148.44)" style="fill: #c5d299"/>
      <path d="M451.94,155.54l1.61,3.27a3.52,3.52,0,0,1,.81-1.32,2.76,2.76,0,0,1,1.47-.77,3.92,3.92,0,0,1,2.2,0,4.33,4.33,0,0,1,2.05,1.1,6.47,6.47,0,0,1,1.58,2.12,7,7,0,0,1,.66,1.87,4.41,4.41,0,0,1,0,1.62,2.91,2.91,0,0,1-2.17,2,3.49,3.49,0,0,1-1,0,4.71,4.71,0,0,1-.92,0l-.77-.26-.88-.44v.22a1.31,1.31,0,0,1,0,1,1,1,0,0,1-.62.51,1.22,1.22,0,0,1-.92,0,1.54,1.54,0,0,1-.73-.84l-4.44-9.39a1.37,1.37,0,0,1-.22-1.06.88.88,0,0,1,.62-.55,1.44,1.44,0,0,1,1,0A1.66,1.66,0,0,1,451.94,155.54Zm3.23,6.27a4.09,4.09,0,0,0,1.57,1.8,2.6,2.6,0,0,0,1.95.26,1.64,1.64,0,0,0,1.13-1.1,3,3,0,0,0-.4-2.17,4.64,4.64,0,0,0-.77-1.35,3,3,0,0,0-1.17-.74,2.18,2.18,0,0,0-1.29,0,1.76,1.76,0,0,0-1,.63,2,2,0,0,0-.29,1.21,4,4,0,0,0,.44,1.54Z" transform="translate(-210.26 -148.44)" style="fill: #c5d299"/>
      <path d="M466,164a1.58,1.58,0,0,1-.73-.18,2,2,0,0,1-.88-1l-4.58-9.31a1.93,1.93,0,0,1-.22-1.29,1.13,1.13,0,0,1,.84-.77h.44a1.05,1.05,0,0,1,.73.19,2,2,0,0,1,.88,1l1.32,2.68a4,4,0,0,1,.59-.81,3.59,3.59,0,0,1,1.61-.88,4.36,4.36,0,0,1,1.25,0,5.43,5.43,0,0,1,1.14,0,5,5,0,0,1,2.16,1.21,7.16,7.16,0,0,1,1.65,2.24,5.79,5.79,0,0,1,.66,1.94,3.84,3.84,0,0,1,0,1.72,2.89,2.89,0,0,1-.84,1.4,3.06,3.06,0,0,1-1.54.8,3.38,3.38,0,0,1-1.1,0h0a4.44,4.44,0,0,1-1,0,3,3,0,0,1-.77-.29h0a1.06,1.06,0,0,1,0,.66,1.15,1.15,0,0,1-.81.73Zm.81-8.14h-.48a1.36,1.36,0,0,0-1.06,1.51,3.83,3.83,0,0,0,.4,1.43,3.64,3.64,0,0,0,1.47,1.68,2.51,2.51,0,0,0,1.14.3h0a1.69,1.69,0,0,0,.55,0,1.17,1.17,0,0,0,.91-.88,2.82,2.82,0,0,0-.36-1.95,4.71,4.71,0,0,0-.88-1.28,3,3,0,0,0-1.07-.66h-.58Z" transform="translate(-210.26 -148.44)" style="fill: #c5d299"/>
      <path d="M462.32,152.72l1.61,3.26a3.68,3.68,0,0,1,.81-1.32,2.92,2.92,0,0,1,1.46-.77,4.11,4.11,0,0,1,2.2,0,4.91,4.91,0,0,1,2.06,1.1,6.48,6.48,0,0,1,1.57,2.13,6.88,6.88,0,0,1,.63,1.87,4,4,0,0,1,0,1.61,3.06,3.06,0,0,1-.74,1.25,3,3,0,0,1-1.43.73,2.91,2.91,0,0,1-1,0,2.37,2.37,0,0,1-.92,0l-.73-.25-1-.52V162a1.31,1.31,0,0,1,0,1,1,1,0,0,1-.62.52,1.32,1.32,0,0,1-.92,0,1.64,1.64,0,0,1-.73-.85l-4.33-9.31a1.49,1.49,0,0,1,0-1.06.69.69,0,0,1,.59-.52,1.21,1.21,0,0,1,1,0A1.88,1.88,0,0,1,462.32,152.72Zm3.22,6.31a3.67,3.67,0,0,0,1.58,1.79,2.58,2.58,0,0,0,1.94.26,1.66,1.66,0,0,0,1.14-1.1,3.25,3.25,0,0,0-.37-2.2,5,5,0,0,0-1-1.36,3.18,3.18,0,0,0-1.17-.77,2.52,2.52,0,0,0-1.28,0,2,2,0,0,0-1,.66,1.89,1.89,0,0,0-.3,1.18,4.1,4.1,0,0,0,.44,1.57Z" transform="translate(-210.26 -148.44)" style="fill: #c5d299"/>
    </g>
    <g>
      <path d="M452.86,155.4l1.46,3a4.52,4.52,0,0,1,.77-1.21,2.64,2.64,0,0,1,1.36-.69,3.65,3.65,0,0,1,2,0,4.63,4.63,0,0,1,1.87,1,6.73,6.73,0,0,1,1.43,2,5.49,5.49,0,0,1,.58,1.68,4,4,0,0,1,0,1.47,2.29,2.29,0,0,1-.69,1.14,3.05,3.05,0,0,1-1.29.69h-1.79a2.14,2.14,0,0,1-.66-.22,5.08,5.08,0,0,1-.81-.4V164a1.22,1.22,0,0,1,0,.92.87.87,0,0,1-.59.48,1.21,1.21,0,0,1-.84,0,1.64,1.64,0,0,1-.66-.74l-4.18-8.54a1.21,1.21,0,0,1,0-.95.76.76,0,0,1,.48-.7,1.21,1.21,0,0,1,.88,0A1.55,1.55,0,0,1,452.86,155.4Zm3,5.79a3.6,3.6,0,0,0,1.43,1.61,2.17,2.17,0,0,0,1.79.22,1.47,1.47,0,0,0,1-1,2.66,2.66,0,0,0-.37-2,4.3,4.3,0,0,0-.88-1.28,2.41,2.41,0,0,0-1.06-.66,1.8,1.8,0,0,0-1.17,0,1.46,1.46,0,0,0-.88.59,1.59,1.59,0,0,0-.3,1.06,4,4,0,0,0,.41,1.47Z" transform="translate(-210.26 -148.44)" style="fill: #fff"/>
      <path d="M462.32,152.83l1.43,3a3.21,3.21,0,0,1,.77-1.21,3.09,3.09,0,0,1,1.35-.74,3.65,3.65,0,0,1,2,0,4.31,4.31,0,0,1,1.83,1,6.1,6.1,0,0,1,1.47,2,5.32,5.32,0,0,1,.55,1.69,3.32,3.32,0,0,1,0,1.47,2.57,2.57,0,0,1-.7,1.13,3.26,3.26,0,0,1-1.39.66,3.78,3.78,0,0,1-.95,0,2,2,0,0,1-.85,0h-.55l-.84-.4h0a1,1,0,0,1,0,.92.81.81,0,0,1-.55.47,1.11,1.11,0,0,1-.84,0,1.6,1.6,0,0,1-.66-.77l-4.18-8.5a1.23,1.23,0,0,1,0-1,.77.77,0,0,1,.55-.51,1.21,1.21,0,0,1,.88,0A1.71,1.71,0,0,1,462.32,152.83Zm2.93,5.76a3.75,3.75,0,0,0,1.43,1.65,2.36,2.36,0,0,0,1.8.22,1.45,1.45,0,0,0,1-1,2.8,2.8,0,0,0-.36-2,5.22,5.22,0,0,0-.88-1.25,3,3,0,0,0-1.07-.69,2.32,2.32,0,0,0-1.17,0,1.67,1.67,0,0,0-.88.62,1.55,1.55,0,0,0-.29,1.06,3.27,3.27,0,0,0,.4,1.43Z" transform="translate(-210.26 -148.44)" style="fill: #fff"/>
    </g>
  </g>
  <path d="M443.5,261.22l-9.05,5.39a69.36,69.36,0,0,0-24.35,48.92l.95,11-6.82,72.35L401.88,440l61.83,7.34s-7.63-112,1-150.35a27.6,27.6,0,0,0-.37-13.6A44.94,44.94,0,0,0,454,264.49S446.59,268.15,443.5,261.22Z" transform="translate(-210.26 -148.44)" style="fill: #f68f1e"/>
  <path d="M443.72,273.07s15.7,8.58,24.83,49.39l-35,7.63S406.47,265.62,443.72,273.07Z" transform="translate(-210.26 -148.44)" style="fill: #f68f1e"/>
  <path d="M468.55,322.46c-12.21-5.17-23.84-1.76-35,7.63C433.53,330.09,456.67,336,468.55,322.46Z" transform="translate(-210.26 -148.44)" style="fill: #f26f21"/>
  <path d="M579.44,432.32c2.46,4,7.33,12,9.94,16.28h0C601,432.8,583.33,432.07,579.44,432.32Zm12.28,6.9a1.78,1.78,0,0,1-.22,1.35.84.84,0,0,1-.69.37c-.37,0-.37-.62-.48-1a9.49,9.49,0,0,0-.33-1,5.75,5.75,0,0,0-2.79-3.11l-1.1-.48c-.33,0-.77,0-.91-.51s.25-.48.47-.59a2.46,2.46,0,0,1,1.47,0,4.38,4.38,0,0,1,1.17.4,6.65,6.65,0,0,1,1.91,1.36,6.32,6.32,0,0,1,1.25,2A4.78,4.78,0,0,1,591.72,439.22Z" transform="translate(-210.26 -148.44)" style="fill: #4d4c4d"/>
  <path d="M583.73,436.5c-4.29-8.28-27.39-4.14-27.39-4.14l-82.4-46.2-12.39-65.79a27.83,27.83,0,0,0-22.37,6.24l20.9,72.16c22,21.16,92.77,40.56,92.77,40.56a43.74,43.74,0,0,0,11,3.3,4.47,4.47,0,0,1,5.57-3h0a4.78,4.78,0,0,1,1.39.7C576.1,442.15,574,449,574,449c-.81,3,1.14,1.72,1.14,1.72a11.28,11.28,0,0,0,1.32-7.33,12.09,12.09,0,0,1-.92,6.34,1.16,1.16,0,0,0,1.17,1.1,1.36,1.36,0,0,0,.7-.29c0-.22.22-.4.33-.59,1,2.35,2.61.3,2.61.3,2.71-6.2,2.2-8.29,1.83-8.91,1.43,2-1.58,8.32-1.58,8.32a2.48,2.48,0,0,0,2.64-1.32A9.23,9.23,0,0,0,583.73,436.5Zm-6.16,13.61a15.37,15.37,0,0,0,2.13-7.59A13,13,0,0,1,577.57,450.11Z" transform="translate(-210.26 -148.44)" style="fill: #e8a863"/>
  <path d="M513,671.81a27.37,27.37,0,1,0-3.67,8C510.61,677.17,511.86,674.52,513,671.81Z" transform="translate(-210.26 -148.44)" style="fill: #6d6d6d"/>
  <path d="M484.9,656.52l26.22,1.76a4.11,4.11,0,0,1,3.67,4.36h0a4.11,4.11,0,0,1-4.36,3.67l-26.11-1.69a4.07,4.07,0,0,1-3.67-4.32h0A4,4,0,0,1,484.9,656.52Z" transform="translate(-210.26 -148.44)" style="fill: #212636"/>
  <g>
    <path d="M529.64,653.81a36.6,36.6,0,0,1-10.74,2.64c-14.67,2-24-3.67-29.52-3.08a112.08,112.08,0,0,1-16.39,0c0,7.33,4.18,6.16,8,5.53s7.77-1.1,24.5,1.51,24.38-3.67,24.38-3.67A2.23,2.23,0,0,0,529.64,653.81Z" transform="translate(-210.26 -148.44)" style="fill: #d4d3bc"/>
    <path d="M504.19,652.63l1.8.59,2-5.43-2.24-.25Z" transform="translate(-210.26 -148.44)" style="fill: #d9d5ba"/>
    <path d="M497.52,651.57l1.28.22,2.31-4.88-1.57-.25Z" transform="translate(-210.26 -148.44)" style="fill: #d9d5ba"/>
    <path d="M493.82,645l-2.72,4.66,1.54.66,3-4.58A10.38,10.38,0,0,1,493.82,645Z" transform="translate(-210.26 -148.44)" style="fill: #d9d5ba"/>
    <path d="M486,646.18a2.18,2.18,0,0,0,1.46,1.25l3.89-3.67-1.36-.84Z" transform="translate(-210.26 -148.44)" style="fill: #d9d5ba"/>
    <path d="M483,643.61l4-2.89c-.48-.41-.92-.85-1.36-1.29L482,642Z" transform="translate(-210.26 -148.44)" style="fill: #d9d5ba"/>
    <path d="M492.35,647.57l-1.28,2.17,1.54.62,1.35-2.09A12.06,12.06,0,0,1,492.35,647.57Z" transform="translate(-210.26 -148.44)" style="fill: none"/>
    <path d="M497.52,651.57l1.28.22.88-1.91-1.35-.33Z" transform="translate(-210.26 -148.44)" style="fill: none"/>
    <path d="M504.19,652.63l1.8.59.73-2-2-.33Z" transform="translate(-210.26 -148.44)" style="fill: none"/>
    <path d="M525.09,650.69c-3.11,1.83-10.7,1.72-18.33.55l-.73,2-1.8-.59.55-1.76q-2.56-.43-5.06-1l-.88,1.87-1.28-.18.8-2-1.54-.4c-.94-.26-1.87-.57-2.78-.92l-1.36,2.09-1.54-.62,1.25-2.17c-3.2-1.68-1.91-3.11-1-3.66h0l-3.89,3.66a2.05,2.05,0,0,1-1.43-1.24l4-3.27a34,34,0,0,1-2.93-2.16l-4,2.86L482,642.18l3.66-2.56a6.84,6.84,0,0,1-2-3.23,18.08,18.08,0,0,1-7.66.77,4.2,4.2,0,0,1-3.08-.48,31,31,0,0,1,.33,13.24,28.12,28.12,0,0,0-.33,3.67,106.24,106.24,0,0,0,16.35,0c5.58-.74,14.67,5.13,29.34,3.08A36.77,36.77,0,0,0,529.42,654,11.54,11.54,0,0,0,525.09,650.69Z" transform="translate(-210.26 -148.44)" style="fill: #f6901e"/>
    <path d="M501.11,646.91l-1.43,3c1.65.41,3.34.74,5.06,1l1-3.37Z" transform="translate(-210.26 -148.44)" style="fill: #f6901e"/>
    <path d="M496.31,645.85l-.7-.22L494,648.12a26.58,26.58,0,0,0,2.79.88l1.57.41,1.18-2.9A9.13,9.13,0,0,1,496.31,645.85Z" transform="translate(-210.26 -148.44)" style="fill: #f6901e"/>
    <path d="M492.35,647.57l1.47-2.53a26.24,26.24,0,0,1-2.42-1.24C490.44,644.46,489.16,645.85,492.35,647.57Z" transform="translate(-210.26 -148.44)" style="fill: #f6901e"/>
    <path d="M508,647.83l-1.29,3.41c7.67,1.17,15.26,1.28,18.34-.55l-.7-.26A114.49,114.49,0,0,0,508,647.83Z" transform="translate(-210.26 -148.44)" style="fill: #f6901e"/>
    <path d="M476.07,637c2.05-5.46-3.34-33.84-4.22-39.64C472.69,603,477.61,630.26,476.07,637Z" transform="translate(-210.26 -148.44)" style="fill: #758085"/>
    <path d="M483.77,635.62c1-2.82-.81-47.86-1.29-57a232.57,232.57,0,0,1,1.29-36.08,40.44,40.44,0,0,0,.36-15.58c-.66-1.54-11.73-29.34-12.28-33s-7.33-12-9.94-17.67-1.76-10.49-3.88-12.21-4.22-3.26-4.22-3.26c.77-1.47,7.33-15.81,7.33-15.81l-2.75-1.54-.8-.51-1.84-1.07-.95-.58-1.65-.81-1.06-.66-1.36-.88-1.1-.73-1.21-.77-1.14-.77-1.06-.74-1.14-.77-1.1-.77-1.17-.8-.7-.44-1.17-.85-.74-.58-1.17-.88-.66-.52-1.14-.91-.58-.66a83,83,0,0,1-6.57-5.72l-.55-.48h0l-.47-.48a71.3,71.3,0,0,1-10.75-12.94h0a6.73,6.73,0,0,1-.4-.63h0c0-.22-.26-.44-.4-.62a51.72,51.72,0,0,1-8.77,13.39A15.73,15.73,0,0,0,402.69,436a62.52,62.52,0,0,0,7.12,15.22h0s14.66,19.11,24.56,29.74l.41-.22,3.3,4.11a13.61,13.61,0,0,1,2.45,3.15c23.44,30.51,20.14,39.2,19.11,40.89a3.67,3.67,0,0,0,.77,5.13l.11.07.26.19c2.12,1.57,3.88,4,2.56,5.94s-3.66,3.67,0,8.14.77,9.28-1.54,18.85,0,29.33,2.61,32.67,6.45,20.9,6.67,28.42,2.27,8.51,2.27,8.51h0a5.93,5.93,0,0,0,3.08.47c1.51-6.74-3.37-34-4.25-39.64.92,5.8,6.31,34.18,4.25,39.64a18.29,18.29,0,0,0,7.67-.77A1.36,1.36,0,0,1,483.77,635.62Z" transform="translate(-210.26 -148.44)" style="fill: #72af44"/>
  </g>
  <path d="M402.73,425.5l10.49-16.24,48.84,8.14,1.65,29.92h-3.45L401.88,440Z" transform="translate(-210.26 -148.44)" style="fill: #f68f1e"/>
  <rect x="55.29" y="218.1" width="129.11" height="138.1" style="fill: #f6901e"/>
  <rect x="50.63" y="346.51" width="133.77" height="9.68" style="fill: #72af44"/>
  <rect x="48.61" y="215.05" width="135.79" height="7.37" style="fill: #72af44"/>
  <path d="M265.55,375.74,393,370.83H265.55" transform="translate(-210.26 -148.44)" style="fill: #76bb43"/>
  <rect x="52.39" y="253.3" width="5.57" height="21.41" rx="2.35" style="fill: #72af44"/>
  <rect x="47.84" y="256.86" width="5.57" height="14.26" rx="2.35" style="fill: #76bb43"/>
  <g>
    <g>
      <path d="M285,425.61l.47,5.65a9,9,0,0,1,2-1.76,6.52,6.52,0,0,1,5.94-.22,6.14,6.14,0,0,1,2.39,2.35,9.73,9.73,0,0,1,1.1,3.88,11.64,11.64,0,0,1,0,3.12,7.27,7.27,0,0,1-1,2.53,6,6,0,0,1-1.83,1.76,5.54,5.54,0,0,1-2.5.77,6.51,6.51,0,0,1-1.65,0,4.77,4.77,0,0,1-1.32-.44,5.19,5.19,0,0,1-.95-.59l-1.1-1V442a2.2,2.2,0,0,1-.37,1.65,1.83,1.83,0,0,1-2.53.22,2.47,2.47,0,0,1-.58-1.54l-1.43-16.13a2.89,2.89,0,0,1,.29-1.76,1.64,1.64,0,0,1,1.21-.7,1.62,1.62,0,0,1,1.36.44A2.53,2.53,0,0,1,285,425.61Zm1.13,11a5,5,0,0,0,1.29,3.3,3.38,3.38,0,0,0,2.78,1,3.18,3.18,0,0,0,2.28-1.43,5.25,5.25,0,0,0,.69-3.67,6.35,6.35,0,0,0-.62-2.49,3.89,3.89,0,0,0-1.36-1.54,2.87,2.87,0,0,0-1.83-.41,3.26,3.26,0,0,0-1.83.74,4,4,0,0,0-1.18,1.79,6.58,6.58,0,0,0-.22,2.72Z" transform="translate(-210.26 -148.44)" style="fill: #2e8742;stroke: #fff;stroke-miterlimit: 10;stroke-width: 1.809999942779541px"/>
      <path d="M310.21,435.29l-7.33.63a4.51,4.51,0,0,0,.69,2.16,3.43,3.43,0,0,0,3.3,1.65,4,4,0,0,0,1.18-.26,3.55,3.55,0,0,0,1-.58,5.64,5.64,0,0,0,.88-.81,15,15,0,0,0,1-1.1,1.16,1.16,0,0,1,1-.15,1.49,1.49,0,0,1,.95.22,1.29,1.29,0,0,1,.44.85,2.7,2.7,0,0,1-.29,1.21,4,4,0,0,1-1.1,1.39,7,7,0,0,1-1.91,1.21,9,9,0,0,1-2.71.66,7.33,7.33,0,0,1-5.76-1.87,7.62,7.62,0,0,1-2.45-5.35,8.63,8.63,0,0,1,.22-3.08,6.25,6.25,0,0,1,3.37-4.26,8.36,8.36,0,0,1,3-.84,7.59,7.59,0,0,1,3.67.59,6.3,6.3,0,0,1,2.53,2.16,6.4,6.4,0,0,1,1,2.9,1.79,1.79,0,0,1-.62,1.87A4.9,4.9,0,0,1,310.21,435.29Zm-7.33-1.46,6.6-.66a4.38,4.38,0,0,0-1.25-2.75,3.18,3.18,0,0,0-2.42-.74,2.94,2.94,0,0,0-2.16,1.18,4.44,4.44,0,0,0-.85,2.93Z" transform="translate(-210.26 -148.44)" style="fill: #2e8742;stroke: #fff;stroke-miterlimit: 10;stroke-width: 1.809999942779541px"/>
      <path d="M316.74,439.11l-1.39-16.06a2.55,2.55,0,0,1,.33-1.73,1.74,1.74,0,0,1,1.28-.69,1.87,1.87,0,0,1,1.43.47,2.5,2.5,0,0,1,.66,1.62l1.39,16.06a2.43,2.43,0,0,1-.36,1.72,1.63,1.63,0,0,1-1.29.66,1.69,1.69,0,0,1-1.39-.44A2.63,2.63,0,0,1,316.74,439.11Z" transform="translate(-210.26 -148.44)" style="fill: #2e8742;stroke: #fff;stroke-miterlimit: 10;stroke-width: 1.809999942779541px"/>
      <path d="M324.26,438.45,323,422.39a2.61,2.61,0,0,1,.33-1.73,1.63,1.63,0,0,1,1.29-.66,1.76,1.76,0,0,1,1.43.44,2.72,2.72,0,0,1,.62,1.73l1.39,16a2.43,2.43,0,0,1-.36,1.76,1.63,1.63,0,0,1-1.29.66,1.7,1.7,0,0,1-1.39-.44A2.6,2.6,0,0,1,324.26,438.45Z" transform="translate(-210.26 -148.44)" style="fill: #2e8742;stroke: #fff;stroke-miterlimit: 10;stroke-width: 1.809999942779541px"/>
      <path d="M334,421.29l.52,5.64a9.11,9.11,0,0,1,1.94-1.83,6.52,6.52,0,0,1,5.94-.22,5.41,5.41,0,0,1,2.38,2.35,8.69,8.69,0,0,1,1.1,3.85,9.55,9.55,0,0,1,0,3.11,6.92,6.92,0,0,1-1,2.53,4.86,4.86,0,0,1-1.84,1.76,5.39,5.39,0,0,1-2.49.81,6.2,6.2,0,0,1-1.61,0,5,5,0,0,1-1.32-.4,5.36,5.36,0,0,1-1-.63l-1.07-.95v.37a2.34,2.34,0,0,1-.36,1.61,1.73,1.73,0,0,1-2.42.32l-.11-.1A2.52,2.52,0,0,1,332,438l-1.68-16.21a2.79,2.79,0,0,1,.33-1.72,1.35,1.35,0,0,1,1.21-.7,1.57,1.57,0,0,1,1.35.44A2.51,2.51,0,0,1,334,421.29Zm1.14,11a5.12,5.12,0,0,0,1.32,3.3,3.2,3.2,0,0,0,2.75,1,3,3,0,0,0,2.27-1.43,5,5,0,0,0,.7-3.67,6.33,6.33,0,0,0-.62-2.45,3.63,3.63,0,0,0-1.36-1.54,2.87,2.87,0,0,0-1.83-.41,3.12,3.12,0,0,0-1.84.74,3.66,3.66,0,0,0-1.17,1.76,6.36,6.36,0,0,0-.22,2.64Z" transform="translate(-210.26 -148.44)" style="fill: #94ba4f;stroke: #fff;stroke-miterlimit: 10;stroke-width: 1.809999942779541px"/>
      <path d="M362.5,429.76a8.9,8.9,0,0,1-.25,3.08,6.6,6.6,0,0,1-3.45,4.25,7.92,7.92,0,0,1-3,.84,7.84,7.84,0,0,1-3.08-.29,6.22,6.22,0,0,1-2.46-1.36,6.7,6.7,0,0,1-1.68-2.23,9.24,9.24,0,0,1-.55-6.13,6.35,6.35,0,0,1,1.24-2.49,7.5,7.5,0,0,1,2.2-1.76,8.52,8.52,0,0,1,3-.77,7.82,7.82,0,0,1,3.08.26,6.68,6.68,0,0,1,2.46,1.32,6.52,6.52,0,0,1,1.72,2.27A8.52,8.52,0,0,1,362.5,429.76Zm-3.67.33a5.54,5.54,0,0,0-1.32-3.45,3.49,3.49,0,0,0-4.65-.29,3.62,3.62,0,0,0-1.1,1.76,7.56,7.56,0,0,0,.55,5.06,3.69,3.69,0,0,0,1.39,1.54,3.19,3.19,0,0,0,2,.44,3.23,3.23,0,0,0,2.57-1.54,5.54,5.54,0,0,0,.7-3.67Z" transform="translate(-210.26 -148.44)" style="fill: #94ba4f;stroke: #fff;stroke-miterlimit: 10;stroke-width: 1.809999942779541px"/>
      <path d="M369.18,437.2l.25-.88-5.57-11a3.89,3.89,0,0,1-.51-1.39,1.45,1.45,0,0,1,0-.92,2.18,2.18,0,0,1,.62-.7,1.86,1.86,0,0,1,.84-.33,1.39,1.39,0,0,1,1.25.41,4,4,0,0,1,.84,1.39l4,8.84,2.2-8.73a12.67,12.67,0,0,1,.52-1.69,1.39,1.39,0,0,1,1.43-1.1,1.55,1.55,0,0,1,.8,0,1.26,1.26,0,0,1,.63.55,1.65,1.65,0,0,1,.29.77v.77a1.68,1.68,0,0,1-.22,1l-3.67,13a15.43,15.43,0,0,1-1,2.71,4.14,4.14,0,0,1-1.46,1.62,5.94,5.94,0,0,1-2.61.73,6.31,6.31,0,0,1-2.45,0,1.2,1.2,0,0,1-.92-1.21,1.12,1.12,0,0,1,.29-1,1.59,1.59,0,0,1,1.1-.48H367a2.17,2.17,0,0,0,1-.25,1.69,1.69,0,0,0,.58-.74A9.69,9.69,0,0,0,369.18,437.2Z" transform="translate(-210.26 -148.44)" style="fill: #94ba4f;stroke: #fff;stroke-miterlimit: 10;stroke-width: 1.809999942779541px"/>
    </g>
    <g>
      <path d="M285,425.61l.47,5.65a9,9,0,0,1,2-1.76,6.52,6.52,0,0,1,5.94-.22,6.14,6.14,0,0,1,2.39,2.35,9.73,9.73,0,0,1,1.1,3.88,11.64,11.64,0,0,1,0,3.12,7.27,7.27,0,0,1-1,2.53,6,6,0,0,1-1.83,1.76,5.54,5.54,0,0,1-2.5.77,6.51,6.51,0,0,1-1.65,0,4.77,4.77,0,0,1-1.32-.44,5.19,5.19,0,0,1-.95-.59l-1.1-1V442a2.2,2.2,0,0,1-.37,1.65,1.83,1.83,0,0,1-2.53.22,2.47,2.47,0,0,1-.58-1.54l-1.43-16.13a2.89,2.89,0,0,1,.29-1.76,1.64,1.64,0,0,1,1.21-.7,1.62,1.62,0,0,1,1.36.44A2.53,2.53,0,0,1,285,425.61Zm1.13,11a5,5,0,0,0,1.29,3.3,3.38,3.38,0,0,0,2.78,1,3.18,3.18,0,0,0,2.28-1.43,5.25,5.25,0,0,0,.69-3.67,6.35,6.35,0,0,0-.62-2.49,3.89,3.89,0,0,0-1.36-1.54,2.87,2.87,0,0,0-1.83-.41,3.26,3.26,0,0,0-1.83.74,4,4,0,0,0-1.18,1.79,6.58,6.58,0,0,0-.22,2.72Z" transform="translate(-210.26 -148.44)" style="fill: #f6901e"/>
      <path d="M310.21,435.29l-7.33.63a4.51,4.51,0,0,0,.69,2.16,3.43,3.43,0,0,0,3.3,1.65,4,4,0,0,0,1.18-.26,3.55,3.55,0,0,0,1-.58,5.64,5.64,0,0,0,.88-.81,15,15,0,0,0,1-1.1,1.16,1.16,0,0,1,1-.15,1.49,1.49,0,0,1,.95.22,1.29,1.29,0,0,1,.44.85,2.7,2.7,0,0,1-.29,1.21,4,4,0,0,1-1.1,1.39,7,7,0,0,1-1.91,1.21,9,9,0,0,1-2.71.66,7.33,7.33,0,0,1-5.76-1.87,7.62,7.62,0,0,1-2.45-5.35,8.63,8.63,0,0,1,.22-3.08,6.25,6.25,0,0,1,3.37-4.26,8.36,8.36,0,0,1,3-.84,7.59,7.59,0,0,1,3.67.59,6.3,6.3,0,0,1,2.53,2.16,6.4,6.4,0,0,1,1,2.9,1.79,1.79,0,0,1-.62,1.87A4.9,4.9,0,0,1,310.21,435.29Zm-7.33-1.46,6.6-.66a4.38,4.38,0,0,0-1.25-2.75,3.18,3.18,0,0,0-2.42-.74,2.94,2.94,0,0,0-2.16,1.18,4.44,4.44,0,0,0-.85,2.93Z" transform="translate(-210.26 -148.44)" style="fill: #f6901e"/>
      <path d="M316.74,439.11l-1.39-16.06a2.55,2.55,0,0,1,.33-1.73,1.74,1.74,0,0,1,1.28-.69,1.87,1.87,0,0,1,1.43.47,2.5,2.5,0,0,1,.66,1.62l1.39,16.06a2.43,2.43,0,0,1-.36,1.72,1.63,1.63,0,0,1-1.29.66,1.69,1.69,0,0,1-1.39-.44A2.63,2.63,0,0,1,316.74,439.11Z" transform="translate(-210.26 -148.44)" style="fill: #f6901e"/>
      <path d="M324.26,438.45,323,422.39a2.61,2.61,0,0,1,.33-1.73,1.63,1.63,0,0,1,1.29-.66,1.76,1.76,0,0,1,1.43.44,2.72,2.72,0,0,1,.62,1.73l1.39,16a2.43,2.43,0,0,1-.36,1.76,1.63,1.63,0,0,1-1.29.66,1.7,1.7,0,0,1-1.39-.44A2.6,2.6,0,0,1,324.26,438.45Z" transform="translate(-210.26 -148.44)" style="fill: #f6901e"/>
      <path d="M334,421.29l.52,5.64a9.11,9.11,0,0,1,1.94-1.83,6.52,6.52,0,0,1,5.94-.22,5.41,5.41,0,0,1,2.38,2.35,8.69,8.69,0,0,1,1.1,3.85,9.55,9.55,0,0,1,0,3.11,6.92,6.92,0,0,1-1,2.53,4.86,4.86,0,0,1-1.84,1.76,5.39,5.39,0,0,1-2.49.81,6.2,6.2,0,0,1-1.61,0,5,5,0,0,1-1.32-.4,5.36,5.36,0,0,1-1-.63l-1.07-.95v.37a2.34,2.34,0,0,1-.36,1.61,1.73,1.73,0,0,1-2.42.32l-.11-.1A2.52,2.52,0,0,1,332,438l-1.68-16.21a2.79,2.79,0,0,1,.33-1.72,1.35,1.35,0,0,1,1.21-.7,1.57,1.57,0,0,1,1.35.44A2.51,2.51,0,0,1,334,421.29Zm1.14,11a5.12,5.12,0,0,0,1.32,3.3,3.2,3.2,0,0,0,2.75,1,3,3,0,0,0,2.27-1.43,5,5,0,0,0,.7-3.67,6.33,6.33,0,0,0-.62-2.45,3.63,3.63,0,0,0-1.36-1.54,2.87,2.87,0,0,0-1.83-.41,3.12,3.12,0,0,0-1.84.74,3.66,3.66,0,0,0-1.17,1.76,6.36,6.36,0,0,0-.22,2.64Z" transform="translate(-210.26 -148.44)" style="fill: #72af44"/>
      <path d="M362.5,429.76a8.9,8.9,0,0,1-.25,3.08,6.6,6.6,0,0,1-3.45,4.25,7.92,7.92,0,0,1-3,.84,7.84,7.84,0,0,1-3.08-.29,6.22,6.22,0,0,1-2.46-1.36,6.7,6.7,0,0,1-1.68-2.23,9.24,9.24,0,0,1-.55-6.13,6.35,6.35,0,0,1,1.24-2.49,7.5,7.5,0,0,1,2.2-1.76,8.52,8.52,0,0,1,3-.77,7.82,7.82,0,0,1,3.08.26,6.68,6.68,0,0,1,2.46,1.32,6.52,6.52,0,0,1,1.72,2.27A8.52,8.52,0,0,1,362.5,429.76Zm-3.67.33a5.54,5.54,0,0,0-1.32-3.45,3.49,3.49,0,0,0-4.65-.29,3.62,3.62,0,0,0-1.1,1.76,7.56,7.56,0,0,0,.55,5.06,3.69,3.69,0,0,0,1.39,1.54,3.19,3.19,0,0,0,2,.44,3.23,3.23,0,0,0,2.57-1.54,5.54,5.54,0,0,0,.7-3.67Z" transform="translate(-210.26 -148.44)" style="fill: #72af44"/>
      <path d="M369.18,437.2l.25-.88-5.57-11a3.89,3.89,0,0,1-.51-1.39,1.45,1.45,0,0,1,0-.92,2.18,2.18,0,0,1,.62-.7,1.86,1.86,0,0,1,.84-.33,1.39,1.39,0,0,1,1.25.41,4,4,0,0,1,.84,1.39l4,8.84,2.2-8.73a12.67,12.67,0,0,1,.52-1.69,1.39,1.39,0,0,1,1.43-1.1,1.55,1.55,0,0,1,.8,0,1.26,1.26,0,0,1,.63.55,1.65,1.65,0,0,1,.29.77v.77a1.68,1.68,0,0,1-.22,1l-3.67,13a15.43,15.43,0,0,1-1,2.71,4.14,4.14,0,0,1-1.46,1.62,5.94,5.94,0,0,1-2.61.73,6.31,6.31,0,0,1-2.45,0,1.2,1.2,0,0,1-.92-1.21,1.12,1.12,0,0,1,.29-1,1.59,1.59,0,0,1,1.1-.48H367a2.17,2.17,0,0,0,1-.25,1.69,1.69,0,0,0,.58-.74A9.69,9.69,0,0,0,369.18,437.2Z" transform="translate(-210.26 -148.44)" style="fill: #72af44"/>
    </g>
  </g>
  <text transform="translate(70.87 310.88)" style="font-size: 8.726222038269043px;fill: #fff;font-family: CenturyGothic, Century Gothic">Your personal assistant</text>
</svg>
