<?xml version="1.0" encoding="utf-8"?>
<!-- Generator: Adobe Illustrator 22.0.0, SVG Export Plug-In . SVG Version: 6.00 Build 0)  -->
<svg version="1.1" id="Layer_1" xmlns="http://www.w3.org/2000/svg" xmlns:xlink="http://www.w3.org/1999/xlink" x="0px" y="0px"
	 viewBox="0 0 653.7 366.9" style="enable-background:new 0 0 653.7 366.9;" xml:space="preserve">
<style type="text/css">
	.st0{fill:#FFFFFF;}
	.st1{fill:#F7A11F;}
	.st2{opacity:0.5;fill:#98A1A6;}
	.st3{fill:#DEE2BB;}
	.st4{fill:#007ACC;}
	.st5{fill:#75B943;}
	.st6{opacity:0.5;fill:#72A3AF;}
	.st7{fill:#FFB08E;}
	.st8{fill:#E8B576;}
	.st9{opacity:0.5;fill:#FFB08E;}
	.st10{opacity:0.8;fill:#98A1A6;}
	.st11{fill:#F28221;}
	.st12{fill:#612B1C;}
	.st13{fill:#B64E3C;}
	.st14{fill:#2A2E32;}
	.st15{fill:url(#SVGID_1_);}
	.st16{fill:#43180E;}
	.st17{fill:#F4AE1A;}
	.st18{opacity:0.5;fill:#DE9C85;}
	.st19{fill:none;}
	.st20{fill:#DA9C80;}
	.st21{fill:#E4AD74;}
	.st22{fill:#D09271;}
	.st23{fill:#CB8870;}
	.st24{fill:url(#SVGID_2_);}
	.st25{fill:url(#SVGID_3_);}
	.st26{fill:url(#SVGID_4_);}
	.st27{fill:url(#SVGID_5_);}
	.st28{fill:url(#SVGID_6_);}
	.st29{fill:#B8D332;}
	.st30{fill:#F9A41E;}
	.st31{fill:#74BB44;}
	.st32{fill:#505050;}
	.st33{font-family:'Quicksand-Regular';}
	.st34{font-size:49.615px;}
	.st35{letter-spacing:-3;}
	.st36{fill:#4C4C4C;}
	.st37{opacity:0.5;fill:#4C4C4C;}
	.st38{opacity:0.8;fill:#4C4C4C;}
	.st39{fill:#E5BB98;}
	.st40{fill:#2C4E68;}
	.st41{fill:#FFB551;}
	.st42{fill:#F7D2AF;}
	.st43{fill:#E23656;}
	.st44{fill:#F9A035;}
	.st45{fill:#E0E0E0;}
	.st46{fill:#C7CBCD;}
	.st47{fill:#DDDDDD;}
	.st48{fill:#5B8CB2;}
	.st49{opacity:0.44;}
	.st50{fill:#B0284B;}
	.st51{fill:#322B80;}
	.st52{fill:#00D1D3;}
	.st53{fill-rule:evenodd;clip-rule:evenodd;fill:#2C4E68;}
	.st54{fill:#FCBB03;}
	.st55{fill:#FA3C65;}
	.st56{opacity:0.17;}
	.st57{fill:#C20E1A;}
	.st58{fill:#9C9B9B;}
	.st59{opacity:0.28;}
	.st60{fill:#FBDDCB;}
	.st61{fill:#3A1813;}
	.st62{fill:#FFB06E;}
	.st63{fill:#D13A4D;}
	.st64{fill:#FFF1D9;}
	.st65{fill:#E56F05;}
	.st66{fill:#2B1614;}
	.st67{opacity:0.15;}
	.st68{fill:#174D6A;}
	.st69{fill:#952D4B;}
	.st70{fill:#FAFAFA;}
	.st71{fill:#6189B5;}
	.st72{fill:none;stroke:#3D3F3F;stroke-width:0.3852;stroke-miterlimit:10;}
	.st73{fill-rule:evenodd;clip-rule:evenodd;fill:#174D6A;}
	.st74{fill:#F6901E;}
	.st75{fill:#D6D7BC;}
	.st76{opacity:0.9;fill:#D9D5BA;enable-background:new    ;}
	.st77{fill:#72AF44;}
	.st78{opacity:0.4;fill:#547D8A;}
	.st79{fill:url(#SVGID_7_);}
	.st80{fill:none;stroke:#212636;stroke-miterlimit:10;}
	.st81{fill:url(#SVGID_8_);}
	.st82{fill:url(#SVGID_9_);}
	.st83{fill:#F68F1E;}
	.st84{fill:url(#SVGID_10_);}
	.st85{fill:url(#SVGID_11_);}
	.st86{fill:url(#SVGID_12_);}
	.st87{fill:#212636;}
	.st88{fill:url(#SVGID_13_);}
	.st89{fill:url(#SVGID_14_);}
	.st90{fill:url(#SVGID_15_);}
	.st91{fill:url(#SVGID_16_);}
	.st92{fill:url(#SVGID_17_);}
	.st93{fill:url(#SVGID_18_);}
	.st94{fill:url(#SVGID_19_);}
	.st95{fill:url(#SVGID_20_);}
	.st96{fill:url(#SVGID_21_);}
	.st97{fill:url(#SVGID_22_);}
	.st98{fill:url(#SVGID_23_);}
	.st99{fill:#808080;}
	.st100{fill:url(#SVGID_24_);}
	.st101{fill:url(#SVGID_25_);}
	.st102{fill:url(#SVGID_26_);}
	.st103{fill:url(#SVGID_27_);}
	.st104{fill:url(#SVGID_28_);}
	.st105{fill:url(#SVGID_29_);}
	.st106{fill:url(#SVGID_30_);}
	.st107{fill:url(#SVGID_31_);}
	.st108{fill:url(#SVGID_32_);}
	.st109{fill:url(#SVGID_33_);}
	.st110{fill:url(#SVGID_34_);}
	.st111{fill:url(#SVGID_35_);}
	.st112{fill:url(#SVGID_36_);}
	.st113{fill:url(#SVGID_37_);}
	.st114{fill:url(#SVGID_38_);}
	.st115{fill:url(#SVGID_39_);}
	.st116{fill:url(#SVGID_40_);}
	.st117{fill:url(#SVGID_41_);}
	.st118{fill:url(#SVGID_42_);}
	.st119{fill:url(#SVGID_43_);}
	.st120{fill:url(#SVGID_44_);}
	.st121{enable-background:new    ;}
	.st122{fill:#E8A863;}
	.st123{fill:url(#SVGID_45_);}
	.st124{fill:#F26F21;}
	.st125{fill:#D9D5BA;}
	.st126{fill:#D4D3BC;}
	.st127{fill:#758085;}
	.st128{fill:#231F20;}
	.st129{fill:#4F585F;}
	.st130{fill:#24282B;}
	.st131{fill:url(#SVGID_46_);}
	.st132{fill:url(#SVGID_47_);}
	.st133{fill:url(#SVGID_48_);}
	.st134{fill:url(#SVGID_49_);}
	.st135{fill:url(#SVGID_50_);}
	.st136{fill:#575E67;}
	.st137{fill:url(#SVGID_51_);}
	.st138{fill:url(#SVGID_52_);}
	.st139{fill:url(#SVGID_53_);}
	.st140{fill:url(#SVGID_54_);}
	.st141{fill:#EB5524;}
	.st142{fill:url(#SVGID_55_);}
	.st143{fill:url(#SVGID_56_);}
	.st144{fill:url(#SVGID_57_);}
	.st145{fill:url(#SVGID_58_);}
	.st146{fill:url(#SVGID_59_);}
	.st147{fill:url(#SVGID_60_);}
	.st148{fill:url(#SVGID_61_);}
	.st149{fill:url(#SVGID_62_);}
	.st150{fill:url(#SVGID_63_);}
	.st151{fill:#242731;}
	.st152{fill:url(#SVGID_64_);}
	.st153{fill:url(#SVGID_65_);}
	.st154{fill:url(#SVGID_66_);}
	.st155{fill:url(#SVGID_67_);}
	.st156{fill:url(#SVGID_68_);}
	.st157{fill:url(#SVGID_69_);}
	.st158{fill:url(#SVGID_70_);}
	.st159{fill:url(#SVGID_71_);}
	.st160{fill:#76301B;}
	.st161{fill:url(#SVGID_72_);}
	.st162{fill:url(#SVGID_73_);}
	.st163{fill:url(#SVGID_74_);}
	.st164{fill:url(#SVGID_75_);}
	.st165{fill:url(#SVGID_76_);}
	.st166{fill:url(#SVGID_77_);}
	.st167{fill:url(#SVGID_78_);}
	.st168{fill:url(#SVGID_79_);}
	.st169{fill:url(#SVGID_80_);}
	.st170{fill:url(#SVGID_81_);}
	.st171{fill:url(#SVGID_82_);}
	.st172{fill:url(#SVGID_83_);}
	.st173{fill:url(#SVGID_84_);}
	.st174{fill:url(#SVGID_85_);}
	.st175{fill:url(#SVGID_86_);}
	.st176{fill:url(#SVGID_87_);}
	.st177{fill:url(#SVGID_88_);}
	.st178{fill:url(#SVGID_89_);}
	.st179{fill:url(#SVGID_90_);}
	.st180{fill:url(#SVGID_91_);}
	.st181{fill:url(#SVGID_92_);}
	.st182{fill:url(#SVGID_93_);}
	.st183{fill:url(#SVGID_94_);}
	.st184{fill:url(#SVGID_95_);}
	.st185{fill:url(#SVGID_96_);}
	.st186{fill:url(#SVGID_97_);}
	.st187{fill:url(#SVGID_98_);}
	.st188{fill:url(#SVGID_99_);}
	.st189{fill:url(#SVGID_100_);}
	.st190{fill:url(#SVGID_101_);}
	.st191{fill:url(#SVGID_102_);}
	.st192{fill:none;stroke:#577234;stroke-width:0.19;stroke-linejoin:round;}
	.st193{fill:#639B42;}
	.st194{fill:#76BB43;}
	.st195{fill:url(#SVGID_103_);}
	.st196{fill:url(#SVGID_104_);}
	.st197{fill:none;stroke:#639B42;stroke-miterlimit:10;}
	.st198{fill:#B5AD92;}
	.st199{fill:#867F63;}
	.st200{opacity:0.5;fill:#547D8A;}
	.st201{opacity:0.5;fill:#FFFFFF;}
	.st202{fill:#ABC6C5;}
	.st203{fill:url(#SVGID_105_);}
	.st204{fill:url(#SVGID_106_);}
	.st205{fill:#FFD0BA;}
	.st206{fill:#416B69;}
	.st207{fill:#F1E8D9;}
	.st208{fill:#FFB70F;}
	.st209{fill:#8E5E43;}
	.st210{fill:#EBAA6B;}
	.st211{fill:#AD713C;}
	.st212{fill:#DCB380;}
	.st213{fill:#F0D0A4;}
	.st214{fill:#E7CBA0;}
	.st215{fill:#F19B05;}
	.st216{fill:#957E7D;}
	.st217{opacity:0.3;}
	.st218{fill:url(#SVGID_107_);}
	.st219{opacity:0.4;fill:#FFFFFF;}
	.st220{fill:#E5DACC;}
	.st221{fill:#6A8785;}
	.st222{fill:#1B9449;}
	.st223{fill:#96C265;}
	.st224{fill:url(#SVGID_108_);}
	.st225{fill:url(#SVGID_109_);}
	.st226{fill:url(#SVGID_110_);}
	.st227{fill:url(#SVGID_111_);}
	.st228{fill:url(#SVGID_112_);}
	.st229{fill:#1B9449;stroke:#FFFFFF;stroke-width:1.39;stroke-miterlimit:10;}
	.st230{fill:#96C265;stroke:#FFFFFF;stroke-width:1.39;stroke-miterlimit:10;}
	.st231{fill:#E8B676;}
	.st232{opacity:7.000000e-02;fill:#E8B576;}
	.st233{fill:url(#SVGID_113_);}
	.st234{fill:url(#SVGID_114_);}
	.st235{opacity:7.000000e-02;fill:#FFB08E;}
	.st236{fill:#EAB877;}
	.st237{opacity:7.000000e-02;fill:#EAB877;}
	.st238{fill:url(#SVGID_115_);}
	.st239{fill:url(#SVGID_116_);}
	.st240{fill:#F38321;}
	.st241{opacity:0.5;fill:#BFFCFF;}
	.st242{fill:url(#SVGID_117_);}
	.st243{fill:url(#SVGID_118_);}
</style>
<g>
	<path class="st1" d="M282.4,181.9c-0.7-0.7-4.2-5-5.2-5c-1,0-2.1,1.9-3.9,3.6c-1.8,1.7-3.7,2.3-5.9,4.7c-2.4,2.7-3.8,4.9-3.4,5.3
		c0.4,0.3,2.1,0.8,3.9-0.7c1.8-1.5,5.9-4.7,7.8-5.3c1-0.3,2.9-0.3,4.3,0.4C281.5,185.4,283,182.5,282.4,181.9z"/>
	<path class="st2" d="M275.4,183.5c-0.8,0.3-8.2,4.9-8.8,6.8c0,0.1,0,0.2-0.1,0.2c0.5-0.2,1-0.4,1.5-0.8c1.8-1.5,5.9-4.7,7.8-5.3
		C276.3,183.9,276.2,183.3,275.4,183.5z"/>
	<path class="st3" d="M264.1,190.4c0.1,0.1,0.4,0.2,0.7,0.3c0.4-1.4,1.5-3,3.4-4.8c1.7-1.6,5-3.4,5.9-4c0.9-0.7,3.5-3.7,4.5-4.1
		c-0.6-0.5-1.1-0.9-1.3-0.9c-1,0-2.1,1.9-3.9,3.6c-1.8,1.7-3.4,2-6,4.6C264.8,187.7,263.7,190.1,264.1,190.4z"/>
	<path class="st3" d="M279.1,182.6c0-0.2-0.5-0.2-0.5,0c-0.1,0.7-0.2,1.4-0.5,1.6c0,0.2,0.4,0.3,0.6,0.1
		C279,183.9,279.1,182.9,279.1,182.6z"/>
	<path class="st3" d="M277.1,182.6c0.1,0.2,0,1.4-0.2,1.6c-0.2,0.2-0.6,0.1-0.6,0.1c0.1,0,0.2-0.1,0.2-0.3c0.1-0.4,0.1-1,0.1-1.4
		C276.7,182.4,277.1,182.4,277.1,182.6z"/>
	<path class="st3" d="M275.2,183c0.3,0.5,0.3,1.5,0.1,1.7c-0.2,0.2-0.4,0.2-0.4,0.2c-0.1,0-0.1-0.1-0.1-0.1s0.1-0.1,0.2-0.4
		c0-0.3,0.1-0.7-0.2-1.3C274.7,183,275.1,182.8,275.2,183z"/>
	<path class="st3" d="M273.3,184c0.2,0.3,0.5,1.4,0.4,1.7c-0.1,0.2-0.3,0.3-0.4,0.3c-0.1,0-0.1,0-0.1-0.1c0.1-0.1,0.2-0.2-0.2-1.7
		C272.9,184.1,273.2,183.8,273.3,184z"/>
	<path class="st3" d="M271.3,185.3c0.2,0.3,0.7,1.4,0.5,1.6c-0.1,0.2-0.3,0.3-0.4,0.3c-0.1,0-0.1,0-0.1-0.1c0.1-0.1,0.1-0.5-0.5-1.6
		C270.9,185.4,271.2,185.1,271.3,185.3z"/>
	<path class="st4" d="M313.8,178.5c-0.7,0.8-0.8,3.8-1.5,5.7c-0.7,2-4.8,7.3-5.1,8.4c-0.4,1.1,0.3,1.9-0.7,2.4c-1,0.4-0.5-0.2-1-0.3
		c-0.4-0.1-1.8,0-1.9,0.5c-0.1,0.5-1-0.4-1.5-0.7c-0.6-0.3-5.1-2.4-8.5-4.4c-3.4-2-8.5-7.3-10.5-8.9c-0.6-0.5-4,3.6-3.4,4.5
		c0.5,1,9.5,7.1,10.6,8.8c1.1,1.7,5,4.4,6.6,5.3c1.6,0.8,4.9,2.5,5.7,3.3c0.8,0.8,3.5,2,4.6,1.2c1.2-0.9,2.3-0.9,4.5-3.8
		s12.4-15.6,12.7-16.8C324.6,182.4,315.8,176.3,313.8,178.5z"/>
	<path class="st5" d="M313.8,178.5c-0.7,0.8-0.8,3.8-1.5,5.7c-0.7,2-4.8,7.3-5.1,8.4c-0.4,1.1,0.3,1.9-0.7,2.4c-1,0.4-0.5-0.2-1-0.3
		c-0.4-0.1-1.8,0-1.9,0.5c-0.1,0.5-1-0.4-1.5-0.7c-0.6-0.3-5.1-2.4-8.5-4.4c-3.4-2-8.5-7.3-10.5-8.9c-0.6-0.5-4,3.6-3.4,4.5
		c0.5,1,9.5,7.1,10.6,8.8c1.1,1.7,5,4.4,6.6,5.3c1.6,0.8,4.9,2.5,5.7,3.3c0.8,0.8,3.5,2,4.6,1.2c1.2-0.9,2.3-0.9,4.5-3.8
		s12.4-15.6,12.7-16.8C324.6,182.4,315.8,176.3,313.8,178.5z"/>
	<path class="st6" d="M313.8,178.5c-0.7,0.8-0.8,3.8-1.5,5.7c-0.7,2-4.8,7.3-5.1,8.4c-0.4,1.1,0.3,1.9-0.7,2.4c-1,0.4-0.5-0.2-1-0.3
		c-0.4-0.1-1.8,0-1.9,0.5c-0.1,0.5-1-0.4-1.5-0.7c-0.6-0.3-5.1-2.4-8.5-4.4c-3.4-2-8.5-7.3-10.5-8.9c-0.2-0.2-0.9,0.3-1.6,1
		c6.7,8.1,20.5,14.3,21.1,15c0.6,0.7,2.8,3.2,3.5,3.2c0.7,0-0.5-2.6,0-3c0.5-0.4,1.5,2.9,2,1.5s0.8-3.5,0.8-4.8
		c0.1-1.3,3.8-7.1,6.1-6.8c2.2,0.4,6.9,0,6.9,0c1.4-1.8,2.4-3.2,2.4-3.6C324.6,182.4,315.8,176.3,313.8,178.5z"/>
	<path class="st1" d="M355.3,229.4c0.4,0.9,2.2,6.2,3.1,6.5c0.9,0.3,2.6-1.1,4.9-2c2.3-0.9,4.2-0.8,7.1-2.3c3.2-1.7,5.3-3.3,5.1-3.7
		c-0.3-0.5-1.7-1.4-3.9-0.7s-7.2,2.3-9.2,2.3c-1,0-2.9-0.8-3.9-1.9C357.4,226.5,355,228.6,355.3,229.4z"/>
	<path class="st2" d="M362.5,230.3c0.9,0,9.4-1.7,10.6-3.3c0.1-0.1,0.1-0.1,0.1-0.2c-0.5,0-1,0.1-1.7,0.3c-2.2,0.8-7.2,2.3-9.2,2.3
		C361.8,229.7,361.6,230.3,362.5,230.3z"/>
	<path class="st3" d="M375.5,227.8c-0.1-0.1-0.3-0.3-0.5-0.5c-0.8,1.1-2.5,2.3-4.9,3.3c-2.2,0.9-5.9,1.4-7,1.7
		c-1.1,0.3-4.6,2.3-5.7,2.3c0.4,0.7,0.7,1.2,1,1.3c0.9,0.3,2.6-1.1,4.9-2c2.3-0.9,3.9-0.7,7.3-2.2
		C373.9,230.2,375.7,228.3,375.5,227.8z"/>
	<path class="st3" d="M358.7,229.9c-0.1,0.2,0.3,0.4,0.5,0.1c0.3-0.6,0.7-1.3,1-1.3c0.1-0.2-0.3-0.4-0.5-0.3
		C359.3,228.7,358.8,229.6,358.7,229.9z"/>
	<path class="st3" d="M360.5,230.6c0-0.2,0.4-1.3,0.7-1.4c0.3-0.2,0.6,0.1,0.6,0.2c-0.1,0-0.2,0.1-0.3,0.2c-0.3,0.3-0.5,0.9-0.6,1.3
		C360.9,231,360.5,230.8,360.5,230.6z"/>
	<path class="st3" d="M362.5,230.9c-0.1-0.6,0.3-1.5,0.5-1.7c0.2-0.1,0.4-0.1,0.5,0c0.1,0.1,0.1,0.1,0.1,0.1s-0.2,0-0.3,0.3
		c-0.1,0.2-0.3,0.6-0.3,1.3C362.9,231.1,362.5,231.1,362.5,230.9z"/>
	<path class="st3" d="M364.6,230.6c-0.1-0.4,0-1.5,0.2-1.7c0.2-0.1,0.4-0.1,0.5-0.1c0.1,0,0.1,0.1,0.1,0.1c-0.2,0-0.3,0.1-0.4,1.6
		C365,230.7,364.7,230.8,364.6,230.6z"/>
	<path class="st3" d="M366.9,230.1c-0.1-0.4-0.1-1.5,0-1.7c0.2-0.1,0.4-0.2,0.4-0.1c0.1,0,0.1,0.1,0.1,0.1c-0.1,0-0.2,0.5-0.1,1.6
		C367.4,230.2,367,230.3,366.9,230.1z"/>
	<path class="st5" d="M309.1,164.1c-0.4,2.4-0.4,3.1-0.8,4.3c-0.4,1.3-1.5,4.3-0.9,5.4c1.6,2.7,5.7,6.8,14,10.2
		c5.1,2.1,14.8,9.3,15.6,11.2c0.8,1.9,0.1,1.6,0.5,2.6c0.6,1.3,2,0.4,2.4,1.4c0.3,0.7-0.7,1.7,0.3,2.6c1,0.9,1.6,0.9,1.7,2.7
		c0.4,3.9,2.1,8.9,3.3,10.9c1.1,2,8.1,9.7,8.8,13.1c1.3,2,5-0.3,4.5-1.5c-0.5-1.1-5.7-12.9-6.6-15c-0.9-2.2-4.2-9.8-4.8-12.9
		c-0.6-3.1-1.3-5.2-3.2-7c-1.9-1.8-7.1-8.3-10.1-10.5c-3-2.2-4.6-5.2-5.4-5.2c-0.8,0-1.5-0.1-1.6-0.4c-0.1-0.4,0.5-3.3,0.5-6.2
		C327.4,167.4,309.3,162.6,309.1,164.1z"/>
	<path class="st6" d="M347.3,212.7c-1.3-2.3-2.3-8.5-2.9-12c-0.1-0.9-0.4-1.7-0.8-2.6c-4.5-10.2-27.7-22.3-29.3-24.1
		c-1.2-1.4-0.1-5.5,0.9-9.4c-3.3-0.8-6.1-1.1-6.2-0.6c-0.4,2.4-0.4,3.1-0.8,4.3c-0.4,1.3-1.5,4.3-0.9,5.4c1.6,2.7,5.7,6.8,14,10.2
		c5.1,2.1,14.8,9.3,15.6,11.2c0.8,1.9,0.1,1.6,0.5,2.6c0.6,1.3,2,0.4,2.4,1.4c0.3,0.7-0.7,1.7,0.3,2.6c1,0.9,1.6,0.9,1.7,2.7
		c0.4,3.9,2.1,8.9,3.3,10.9c1.1,2,8.1,9.7,8.8,13.1c0.5,0.7,1.3,0.9,2.1,0.7C355.3,224.9,348.5,214.9,347.3,212.7z"/>
	<path class="st2" d="M326.2,174.5c0.1,0.2,0.1,1.5,0.8,1.7c0,0,0,0,0,0c-0.1-0.1-0.2-0.1-0.2-0.2c-0.1-0.4,0.5-3.3,0.5-6.2
		c0-0.4-0.5-0.9-1.5-1.4c-0.2,2.2-0.5,5.7-0.5,5.7S326.2,174.3,326.2,174.5z"/>
	<path class="st7" d="M372.3,143.6c0,0.1-0.1,0.1-0.1,0.2c-0.5,0.5-11.1,3.4-12.5,3.9c-1.4,0.5-4,2.1-4,2.1l-1.4-1.5
		c-0.8-0.9-6.9,4-5.8,4c1.2,0,5.2,3.7,5.6,3.9c0.4,0.2,1.1-0.5,2.1-1c1-0.5,3.3-0.6,6-2.4c2.7-1.8,11.2-7.1,11.2-7.1s0.1,0,0.3,0
		C373.2,145.1,372.7,144.3,372.3,143.6z"/>
	<path class="st8" d="M372.2,143.7C372.2,143.7,372.2,143.7,372.2,143.7c-0.5,0.5-11.1,3.4-12.5,3.9c-1.4,0.5-4,2.1-4,2.1l-1.4-1.5
		c-0.8-0.9-6.9,4-5.8,4c1.2,0,5.2,3.7,5.6,3.9c0.4,0.2,1.1-0.5,2.1-1c1-0.5,3.3-0.6,6-2.4c2.5-1.7,10.1-6.4,11.1-7
		C372.9,145.1,372.5,144.5,372.2,143.7z"/>
	<path class="st9" d="M373.1,145c-2.1,0.7-11.1,5.9-12.5,6.9c-1.5,1-4.8,1.7-5.5,1.7c-0.7,0.1-2.6-1-1.6-1.4c1-0.4,1.6-3.1,1.6-3.1
		l-0.8-0.9c-0.8-0.9-6.9,4-5.8,4c1.2,0,5.2,3.7,5.6,3.9c0.4,0.2,1.1-0.5,2.1-1c1-0.5,3.3-0.6,6-2.4c2.7-1.8,11.2-7.1,11.2-7.1
		s0,0,0,0c0-0.1,0-0.2-0.1-0.3C373.3,145.3,373.2,145.2,373.1,145z"/>
	<path class="st1" d="M355.6,146.6c-2.2-0.8-4.2-3-4.8-4.7c-0.7-1.7-4.4-11.7-6.1-11.7c-1.7-0.1-6.8,8.6-5.9,10.8
		c0.9,2.2,6.2,11.6,8.7,13C349.9,155.4,358.1,147.4,355.6,146.6z"/>
	<path class="st2" d="M351.5,152.7c-6.6-4.3-7.6-11.6-7.9-14.6c-0.2-2.5-0.6-4.6-0.9-6.4c-2.1,2.6-4.7,7.7-4,9.3
		c0.9,2.2,6.2,11.6,8.7,13C348.3,154.5,349.9,153.8,351.5,152.7L351.5,152.7z"/>
	<path class="st1" d="M328.9,170c0.2,1.4-17.4-3.1-19.8-5.9c-0.8-2.1,3.6-22,14.4-31c8.4-7,18.1-8.8,21-7c2.9,1.9,1,13.5-8,21.4
		C330.4,152.9,327.8,162.1,328.9,170z"/>
	<path class="st2" d="M323.5,133.1c-10.8,9-15.2,28.9-14.4,31c0.8,0.9,3.1,2,5.9,3c0,0-0.8-8.1,3.9-20.5c1.8-4.7,4.3-8.9,12.2-10.4
		c4.1-0.8,3.7-6.2,6.6-7.7c2.9-1.5,5.3-2.4,6.2-2.6C340.5,124.5,331.4,126.5,323.5,133.1z"/>
	<g>
		<path class="st8" d="M346.8,117.7c-1.7,3.8-3.7,6.8-4.7,8.2c-0.9,1.2,1.8,3.6,2.7,2.6c1.3-1.6,4.2-5.3,5.1-6.3
			C350.7,121.2,346.8,117.7,346.8,117.7z"/>
		<path class="st9" d="M343.7,123.6c1,2.2,2.3,2.5,3,2.6c1.3-1.6,2.7-3.3,3.2-4c0.8-1-3-4.5-3-4.5C345.8,120,344.6,122,343.7,123.6
			L343.7,123.6z"/>
		<path class="st9" d="M346.2,119c-0.3,0.6-0.6,1.3-1,1.9c-0.1,1.3,0.4,3.3,2.4,4.1c1-1.2,1.8-2.3,2.2-2.8c0.6-0.7-1-2.5-2.1-3.6
			C347.2,118.6,346.6,118.8,346.2,119z"/>
	</g>
	<path class="st10" d="M316.1,142.2c6.7-5.5,13.1-5.7,14.3-6.1l1.1-4.4c0,0-4.6,0.8-8,1.3c0,0,0,0,0,0c-1.5,1.3-2.9,2.8-4.2,4.4
		C318.1,139,317.1,140.6,316.1,142.2z"/>
	<path class="st1" d="M315.2,126.1c-1,1.6-0.2,9.8,3.3,12.5c2.6-0.3,7.6-3.1,11.5-2.5c3.9,0.6,9.1-5.1,7.9-8.6
		C336.6,124.1,319.4,124.7,315.2,126.1z"/>
	<path class="st2" d="M319.4,136.4c-0.7,0.1-1.5,0.4-2.3,0.8c0.4,0.5,0.8,1,1.3,1.4c2.6-0.3,7.6-3.1,11.5-2.5c0.7,0.1,1.4,0,2.1-0.2
		C327.2,134.3,321.6,135.9,319.4,136.4z"/>
	<path class="st11" d="M315.2,126.1c-1,1.6-0.2,9.8,3.3,12.5C321.4,137.3,316.8,125.5,315.2,126.1z"/>
	<path class="st11" d="M385,81c1,0.2-0.9,5.8-10.5,10.6c-9.6,4.8-14.6,3.4-15.5,3.3c-0.9-0.1-0.5-5.3-0.5-5.3s17.3-6.4,19.4-7.1
		C380.1,81.6,384.2,80.8,385,81z"/>
	<path class="st8" d="M361.2,86.9c0.7,1.7,2.1,5.5,3.1,10.5c1.9,2.5,5.6,6.8,5.7,9.7c0.1,2.5-3.9,4.6-5.8,6
		c-0.7,6.2-3,11.1-6.6,12.2c-8.6,2.6-15.4-7.4-16.3-17.4c-0.9-10-3.1-16.3-3-17.9c0.1-1.5,17-9.4,19.8-6.8
		C359.5,84.6,361.2,86.9,361.2,86.9z"/>
	<path class="st12" d="M354.9,96.5c0.6-0.8,1.1-1.2,2.2-1.7c1.7-0.7,3,0.6,3.3,0.3c0.4-0.3,0.2-2.4-0.8-2.9
		c-1.1-0.5-3.5-0.2-4.7,1.6C354.1,95.1,354.6,97,354.9,96.5z"/>
	<path class="st13" d="M356.1,110.9c0.8,4.6,4,6.6,7.2,6.8c0.1-0.4,0.2-0.9,0.3-1.3C360.6,116,357.4,114.2,356.1,110.9z"/>
	<g>
		<path class="st13" d="M358.3,99.3c-0.8,0.1-0.9,1.4-0.7,2.9c0.2,1.5,0.7,2.4,1.4,2.3c0.9-0.1,0.3-1.2,0.2-2.6
			C359.1,101.2,359.7,99.1,358.3,99.3z"/>
		<path class="st14" d="M359.2,101.3c0-0.6-0.9-0.8-1.1,0.1c-0.3,0.9-0.2,2.3,0.3,2.9c0.2,0.2,0.4,0.3,0.7,0.3
			c0.9-0.1,0.3-1.2,0.2-2.6C359.2,101.8,359.2,101.3,359.2,101.3z"/>
		<linearGradient id="SVGID_1_" gradientUnits="userSpaceOnUse" x1="358.7972" y1="100.3132" x2="358.7574" y2="102.3137">
			<stop  offset="0" style="stop-color:#FFFFFF"/>
			<stop  offset="1" style="stop-color:#023339"/>
		</linearGradient>
		<path class="st15" d="M358.8,100.3c0.3,0,0.2,0.5,0.1,0.8c0,0.2,0.1,0.7-0.1,0.7C358.5,101.8,358.5,100.3,358.8,100.3z"/>
	</g>
	<path class="st12" d="M344.3,113.7c0,0,0.1,0.8,0.6,1.9c0.5,1.1-1,1.5-1.3,0.9c-0.3-0.6-0.3-0.2-1.3-3.2
		C341.2,110.3,344.1,112.4,344.3,113.7z"/>
	<path class="st8" d="M343.5,106.3c-0.7-0.8-5.6-1.7-5.6,2.8c0,5,7.3,5,7.8,4.3C346.6,112.2,344.3,107.2,343.5,106.3z"/>
	<path class="st9" d="M344,109.2c-0.6-0.8-2-1.8-3.4-1.2c-1.4,0.6-1,2.7-0.3,3.5c0.7,0.8,3,1.8,4.6,1.6
		C346.5,112.9,344.4,109.7,344,109.2z"/>
	<path class="st9" d="M341.1,110.2c0.2-0.2,0.8-0.9,1.6-0.6c0.8,0.3,1.2,0.9,1.2,0.9s-0.6,0.9,0.4,1.3c0.4,0.1,0.2,0.9-0.3,0.7
		c-0.1,0-1.8-0.5-1.6-1.1c0.1-0.3,0.7-0.1,0.7-0.5C343.1,110.6,342.4,109.6,341.1,110.2z"/>
	<path class="st12" d="M347.4,86.2c0.5,2.4,1.5,6,1.5,7.7c0,1.6-3.4,7.8-3.3,9.4c0.1,1.5,1,5.7,0.9,6.6c-0.1,0.5-0.7,1.5-0.8,1.3
		c0-0.2-1.9-4.7-3.1-5.1c-1-0.4-1.7-0.3-2.7-0.2c-0.3-0.8-4.9-12-5-13.7C334.8,90.4,346.9,83.8,347.4,86.2z"/>
	<path class="st9" d="M357.5,125.3c0.6-0.2,1.2-0.5,1.8-0.9c-0.1,0-0.2,0-0.3,0c-11.9,0.6-11.2-22.6-10.1-26.5c5.5,0.5,12-2,14-5.8
		c1-1.9-8.7-5.9-7.9-7.2c-3.4,1.6-20.2,6.3-20.2,7.2c0,1.7,4.6,12.9,5,13.7c0.2,0,0.5,0,0.7-0.1c-1.4,0.2-2.6,1.1-2.6,3.4
		c0,2.8,2.4,4.1,4.5,4.5C344.8,121.3,350.6,127.4,357.5,125.3z"/>
	<path class="st16" d="M345.9,109.5c-0.1-0.7-3.8-9.7-3.1-12.6c0.3-1.3,4.3-3.4,5.8-4.8c1.5-1.4-7.6-2.5-7.6-4.5
		c-3.1,1.6-6.2,3.7-6.2,4.5c0,1.7,4.6,12.9,5,13.7c1-0.1,1.7-0.2,2.7,0.2c1.2,0.5,3.1,4.9,3.1,5.1
		C345.7,111.1,346.1,110.9,345.9,109.5z"/>
	<path class="st1" d="M337.3,99.3c-0.2,0.1-0.7-1-1.3-2.4c0.6-1,1.5-1.9,2.6-2.6c-0.5-1.3-2.4-2.9-3.7-2.1c0,0.1,0.1,0.4,0.1,0.5
		c-0.1,0-0.3,0-0.4-0.3c-0.4-2.3,1.7-6.9,7.9-10.6c6.4-3.8,16.9-0.9,18.6,5c-2.3,0.2-6.7,1.4-13.2,5C340,96.3,337.9,99,337.3,99.3z"
		/>
	<path class="st1" d="M346.8,92.5c1.9,0.6,11.6,2.4,19.2-1.7s11.9-9.3,19-9.8c-5.9-1.2-18.9,5.4-23.9,6
		C356.4,87.4,350.7,90.2,346.8,92.5z"/>
	<path class="st2" d="M342.5,81.9c-6.2,3.7-8.3,8.3-7.9,10.6c0.1,0.3,0.4,0.3,0.4,0.3c0-0.2-0.1-0.4-0.1-0.5
		c1.3-0.8,3.2,0.8,3.7,2.1c-1.1,0.7-2,1.6-2.6,2.6c0.5,1.4,1.1,2.5,1.3,2.4c0.5-0.2,2-2.1,6.8-5.1C339.3,87.1,341.3,83.3,342.5,81.9
		z"/>
	<path class="st2" d="M382.5,81.4c0,0-1.8-0.3-11.8,4.3c-10,4.6-14.9,4.7-18.5,4.1c0,0-0.1,0-0.1,0c-1.9,0.9-3.7,1.9-5.2,2.8
		c1.9,0.6,11.6,2.4,19.2-1.7C372.7,87.1,376.8,82.7,382.5,81.4L382.5,81.4z"/>
	<path class="st17" d="M359.4,85.3c1,2.2-10.8,0.7-11.7-2.3C346.8,79.9,357.2,80.2,359.4,85.3z"/>
	<path class="st11" d="M384.7,80.9c-6-0.9-18.7,5.5-23.5,6c-1.5,0.2-3.1,0.5-4.7,1.1c0,0,0,0,0.1,0
		C363.6,89.4,376.9,80.5,384.7,80.9z"/>
	<path class="st8" d="M318.2,163.9c-1.1-0.7-2.8-3.7-2.9-4.5c-0.2-0.7-2.1-1.7-2.5-1.7c-0.4,0-0.4-8.4,0.4-10.6
		c0.9-2.3,1.2-9.3,0.9-11.9c1.8,0,3.8,0.7,5.3,0.6c-0.1-1.9-0.8-4.3-1.7-6.3c-1.3-0.7-3.6,0.4-8,1.1c-0.7,0.1-0.2,2.9-1,5.3
		c-0.8,2.4-0.7,3.5-0.2,6c0.5,2.5,1.4,12.1,1.4,13.2c-0.1,1.1,0.3,1.9,0.6,3.9c0.3,2-0.3,3.9,0.3,4.6c0.7,0.7,0.8,0.6,1.3,0.9
		c0.7,1.2,2.2,2.3,2.7,2.2c0.4,0.6,0.5,1.7,1.3,1.7c1.1,0,2.2-0.4,2.4-0.8c0.1-0.4,0.6-1.3,0.6-1.3s1.4-0.5,1.5-1.1
		C320.6,164.7,319.3,164.7,318.2,163.9z"/>
	<path class="st9" d="M314.3,164.8c-1.1-0.4-2.6-6-3.4-8.1c-0.8-2.1-0.3-14.5-0.6-17.3c-0.3-2.8,0.9-5.6,1.1-6.7
		c0.3-1.1,4.4-1.4,5.1-1.4c0.6,0,1.9,2.9,2.8,3.7c-0.2-1.8-0.9-3.9-1.6-5.6c-1.3-0.7-3.6,0.4-8,1.1c-0.7,0.1-0.2,2.9-1,5.3
		c-0.8,2.4-0.7,3.5-0.2,6c0.5,2.5,1.4,12.1,1.4,13.2c-0.1,1.1,0.3,1.9,0.6,3.9c0.3,2-0.3,3.9,0.3,4.6c0.7,0.7,0.8,0.6,1.3,0.9
		c0.7,1.2,2.2,2.3,2.7,2.2c0.4,0.6,0.5,1.7,1.3,1.7c0.9,0,1.7-0.2,2.1-0.5C315.4,169.1,315.4,165.3,314.3,164.8z"/>
	<path class="st9" d="M320.4,165.5L320.4,165.5c-1.9,0.8-3.1-0.2-3.6-1c-0.5-0.8-1.2-1.8-2-2c1,1,1.1,2.1,1.5,3
		c0.4,0.9,0.9,1.6,2.8,0.9C319,166.4,320.1,166,320.4,165.5z"/>
	<path class="st9" d="M316.1,168.4c0.2,0,0.3,0,0.5,0c-0.4,0-0.8-0.5-1.2-1.1c-0.4-0.7-0.1-1.4-1.9-2c0.2,0.2,0.9,0.8,1.1,1.2
		c0,0.1,0.1,0.1,0.1,0.2C315.2,167.3,315.3,168.4,316.1,168.4z"/>
	<path class="st9" d="M319,166.4c-0.7,0.1-1.2-0.1-1.9-0.6c-0.8-0.6-1-2.6-2.4-3.3c1,1,1.1,2.1,1.5,3
		C316.6,166.4,317.1,167.1,319,166.4z"/>
	<path class="st18" d="M317.1,165.8c-0.5-0.3-0.7-1.3-1.2-2.1l0,0c0.1,0.2,0.6,1.9,1,2.4c0.4,0.5,1.4,0.5,2.1,0.3
		C318.3,166.5,317.8,166.3,317.1,165.8z"/>
	<path class="st19" d="M378.6,145.1c0.1,0.1,0.1,0.1,0.2,0.2C378.8,145.3,378.7,145.2,378.6,145.1z"/>
	<path class="st8" d="M377.9,144.8c0,0,0.1,0.3,0,0.4l0.9,0.1c-0.1-0.1-0.1-0.1-0.2-0.2c-0.1-0.2-0.2-0.5,0.3-0.7
		c-0.5-0.4-1.2-0.8-1.4-0.8C377.6,144,377.7,144.4,377.9,144.8z"/>
	<path class="st20" d="M378.6,145.1c-0.1-0.2-0.2-0.5,0.3-0.7C378.5,144.6,378.5,144.9,378.6,145.1z"/>
	<path class="st8" d="M380,145.3c0.1-0.2-0.2-0.4-0.8-0.8c-0.5,0.2-0.4,0.5-0.3,0.7c0.1,0.1,0.1,0.1,0.2,0.2l-0.9-0.1l-0.5,0.5
		c0,0-0.2,0.2-0.2,0.4c0,0.1,0,0.2,0,0.2c-0.3-0.2-0.6-0.1-0.7,0.1c-0.1,0.2,0,0.5,0,0.5c-0.3-0.2-0.7-0.2-0.9,0
		c-0.2,0.1-0.2,0.4-0.2,0.4c0.1,0,0.2,0.1,0.3,0.1c0.1,0,0.1,0,0.2,0c0.4,0,0.5,0,0.6-0.1c0.1-0.1,0-0.2,0.1-0.3c0,0,0.1,0,0.1,0
		c0,0,0.4,0,0.6-0.2c0,0,0.1-0.1,0.2-0.3c0.2-0.4,0.3-0.2,0.8-0.4s0.4-0.5,0.4-0.7S379.8,145.7,380,145.3z"/>
	<path class="st21" d="M376.5,146.9c-0.1-0.1-0.2-0.3-0.1-0.5l0,0c0.2-0.2,0.8-0.1,0.8-0.1c-0.1-0.2-0.1-0.5,0.1-0.6l0.5-0.5h-0.1
		c-0.3,0.1-1-0.5-1.1-0.7v0.1c0,0.1,0.1,0.1,0.1,0.2c0.2,0.2,0.5,0.4,0.7,0.6l0,0c-0.2-0.1-1.3-0.7-1.5-0.4
		c-0.2,0.2-0.2,0.4-0.1,0.6c-0.6-0.2-0.6,0.4-0.6,0.4c-0.9,0-0.5,0.8-0.5,0.8l-0.8-0.9c-0.1,0.3-0.1,0.5-0.2,0.8
		c0.5,0.3,1,0.6,1.5,0.8c0-0.2,0.1-0.4,0.2-0.5C375.9,146.6,376.5,146.9,376.5,146.9z"/>
	<path class="st22" d="M375.8,143.4c-0.1-0.1-0.2-0.1-0.4-0.1c0,0.2,0,0.4,0,0.6c0.2,0.1,0.3,0.1,0.5,0.2l0.9,0.4
		C376.4,144.1,376.1,143.5,375.8,143.4z"/>
	<path class="st8" d="M377.6,145.3L377.6,145.3c-0.2-0.2-0.5-0.4-0.7-0.6c-0.1-0.1-0.1-0.1-0.1-0.2v-0.1l0,0
		c-0.1-0.3-0.1-0.6-0.1-0.9l-1.1-0.1c0,0,0.4,1.5-2.1,1.4c0,0,0.6,0.6,0.5,0.9l0.8,0.9c0,0-0.4-0.8,0.5-0.8c0,0-0.1-0.6,0.6-0.4
		c-0.1-0.2-0.1-0.5,0.1-0.6C376.2,144.6,377.4,145.2,377.6,145.3z"/>
	<path class="st8" d="M377.6,143.6L377.6,143.6c0.1-0.2,0.1-0.6-1.6-1s-3.2,0.7-3.8,1.2c-0.1,0.4-0.2,0.7-0.2,1
		c0.1,0.1,0.2,0.1,0.4,0.1c0.3,0.2,0.5,0.8,0.8,1.3l0.6,0.4c0.1-0.2,0.2-0.5,0.2-0.8c0.1-0.4-0.5-0.9-0.5-0.9
		c2.5,0.2,2.1-1.4,2.1-1.4l1.1,0.1l0,0H377.6L377.6,143.6z"/>
	<g>
		<g>
			<g>
				<g>
					
						<linearGradient id="SVGID_2_" gradientUnits="userSpaceOnUse" x1="267.3666" y1="917.7211" x2="276.2433" y2="917.7211" gradientTransform="matrix(0.9589 -0.2836 0.2836 0.9589 -143.5239 -655.5021)">
						<stop  offset="0" style="stop-color:#926A19"/>
						<stop  offset="1" style="stop-color:#5A3F0C"/>
					</linearGradient>
					<path class="st24" d="M382.1,146.9l-1-1.4c-0.2-0.3-0.7-0.5-1.1-0.4l-6.6,2c-0.2,0.1-0.4,0.3-0.3,0.5l6.4-1.9
						c0.4-0.1,0.8,0.1,1.1,0.4l1,1.4c0.1,0.1,0.1,0.2,0.1,0.3l0.2-0.1C382.2,147.6,382.3,147.2,382.1,146.9z"/>
				</g>
				
					<linearGradient id="SVGID_3_" gradientUnits="userSpaceOnUse" x1="255.5682" y1="933.2043" x2="262.8612" y2="929.0724" gradientTransform="matrix(0.9589 -0.2836 0.2836 0.9589 -143.5239 -655.5021)">
					<stop  offset="0" style="stop-color:#856015"/>
					<stop  offset="1" style="stop-color:#5A3F0C"/>
				</linearGradient>
				<path class="st25" d="M365.9,146.7c0,0-0.9,0.7-0.8,1.4c0.2,0.7,2,11.2,2.8,15.8c0.8,4.6,2.1,10.9,2.7,11.2
					c0.6,0.3,6.6,0.8,6.8,0.8C377.5,175.9,367.9,147.2,365.9,146.7z"/>
				
					<linearGradient id="SVGID_4_" gradientUnits="userSpaceOnUse" x1="261.2135" y1="932.983" x2="263.3018" y2="932.983" gradientTransform="matrix(0.9589 -0.2836 0.2836 0.9589 -143.5239 -655.5021)">
					<stop  offset="0" style="stop-color:#926A19"/>
					<stop  offset="1" style="stop-color:#5A3F0C"/>
				</linearGradient>
				<path class="st26" d="M377.3,175.9c0,0-2.3-3.5-2.4-3.6c-0.1-0.1-6.2-19-6.2-19S373.9,159.9,377.3,175.9z"/>
				
					<linearGradient id="SVGID_5_" gradientUnits="userSpaceOnUse" x1="260.3144" y1="944.0216" x2="262.776" y2="940.3074" gradientTransform="matrix(0.9589 -0.2836 0.2836 0.9589 -143.5239 -655.5021)">
					<stop  offset="0" style="stop-color:#926A19"/>
					<stop  offset="1" style="stop-color:#5A3F0C"/>
				</linearGradient>
				<polygon class="st27" points="375,172.3 370.5,175.2 377.3,175.9 				"/>
				
					<linearGradient id="SVGID_6_" gradientUnits="userSpaceOnUse" x1="377.7462" y1="363.5636" x2="374.1275" y2="331.0773" gradientTransform="matrix(0.9972 -7.495043e-02 7.495043e-02 0.9972 -20.0416 -158.5376)">
					<stop  offset="0" style="stop-color:#76561E"/>
					<stop  offset="7.755100e-02" style="stop-color:#AF8641"/>
					<stop  offset="0.7189" style="stop-color:#D9AC63"/>
					<stop  offset="1" style="stop-color:#E8C284"/>
				</linearGradient>
				<path class="st28" d="M391.5,157.8c-2.9-7.4-8-16.4-8-16.4s-17,4.9-17.6,5.1c-0.5,0.2,1.2,3.2,4.1,9.6s6.2,16.9,6.4,17.5
					c0.2,0.6,0.7,2.5,1,2.4s17.7-7.6,17.7-7.6C395.1,167.4,394.3,165.2,391.5,157.8z M381.9,147.7l-6.6,2c-0.4,0.1-0.8-0.1-1.1-0.4
					l-1-1.4c-0.2-0.3-0.1-0.7,0.2-0.8l6.6-2c0.4-0.1,0.8,0.1,1.1,0.4l1,1.4C382.3,147.2,382.2,147.6,381.9,147.7z"/>
			</g>
		</g>
		<path class="st1" d="M391.4,157.7c-2.9-7.3-8-16.3-8-16.3s-17,4.9-17.6,5.1c-0.1,0-0.1,0.1-0.1,0.3c-0.2,0.1-0.9,0.8-0.7,1.4
			c0.2,0.7,1.9,11.2,2.8,15.8c0.7,3.9,1.7,9.1,2.3,10.7c-0.2,0.3-0.1,0.6,1.2,0.8c2.3,0.4,5.7,0.8,6.4,0.6s17.5-7.2,17.3-7.7
			C395.1,167.3,394.3,165.1,391.4,157.7z M373.1,147.2c0,0,0,0.1-0.1,0.1C373,147.3,373,147.3,373.1,147.2z M373.3,147
			C373.3,147,373.3,147.1,373.3,147C373.3,147.1,373.3,147,373.3,147z M373.2,147.1C373.2,147.1,373.2,147.1,373.2,147.1
			C373.2,147.1,373.2,147.1,373.2,147.1z M373.2,147.1C373.1,147.1,373.1,147.1,373.2,147.1C373.1,147.1,373.1,147.1,373.2,147.1z
			 M373.1,147.2C373.1,147.2,373.1,147.2,373.1,147.2C373.1,147.2,373.1,147.2,373.1,147.2z M373,147.4
			C373,147.5,373,147.5,373,147.4l6.4-1.8c0.4-0.1,0.8,0.1,1.1,0.4l1,1.4c0.1,0.1,0.1,0.2,0.1,0.3l-6.4,1.9
			c-0.4,0.1-0.8-0.1-1.1-0.4l-1-1.4C373,147.7,373,147.6,373,147.4z M373,147.4C373,147.4,373,147.4,373,147.4
			C373,147.4,373,147.4,373,147.4z"/>
	</g>
	<g>
		<path class="st0" d="M375.4,161l0.3,0.8c0.1-0.1,0.1-0.3,0.2-0.3c0.1-0.1,0.2-0.2,0.4-0.2c0.2-0.1,0.4-0.1,0.5,0
			c0.2,0,0.3,0.1,0.4,0.3c0.1,0.1,0.2,0.3,0.3,0.5c0.1,0.2,0.1,0.3,0.1,0.5c0,0.2,0,0.3-0.1,0.4c0,0.1-0.1,0.2-0.2,0.3
			c-0.1,0.1-0.2,0.2-0.3,0.2c-0.1,0-0.2,0-0.2,0c-0.1,0-0.2,0-0.2,0c-0.1,0-0.1,0-0.2-0.1c0,0-0.1-0.1-0.2-0.1l0,0.1
			c0,0.1,0,0.2,0,0.3c0,0.1-0.1,0.1-0.2,0.1c-0.1,0-0.1,0-0.2,0c-0.1,0-0.1-0.1-0.1-0.2l-0.8-2.4c0-0.1,0-0.2,0-0.3
			c0-0.1,0.1-0.1,0.2-0.1c0.1,0,0.2,0,0.2,0C375.3,160.8,375.3,160.9,375.4,161z M375.9,162.6c0.1,0.2,0.2,0.4,0.3,0.4
			c0.1,0.1,0.3,0.1,0.4,0c0.1,0,0.2-0.1,0.3-0.3c0.1-0.2,0.1-0.3,0-0.6c0-0.1-0.1-0.3-0.2-0.3c-0.1-0.1-0.2-0.2-0.3-0.2
			c-0.1,0-0.2,0-0.3,0c-0.1,0-0.2,0.1-0.2,0.2c-0.1,0.1-0.1,0.2-0.1,0.3C375.9,162.3,375.9,162.5,375.9,162.6z"/>
		<path class="st0" d="M379.5,161.6l-1.1,0.4c0,0.1,0.1,0.2,0.2,0.3c0.1,0.1,0.2,0.1,0.3,0.1c0.1,0,0.2,0,0.3,0c0.1,0,0.1,0,0.2-0.1
			c0,0,0.1-0.1,0.1-0.1c0,0,0.1-0.1,0.1-0.2c0-0.1,0.1-0.1,0.1-0.2c0,0,0.1-0.1,0.1-0.1c0.1,0,0.1,0,0.2,0c0,0,0.1,0.1,0.1,0.1
			c0,0,0,0.1,0,0.2c0,0.1-0.1,0.2-0.1,0.2c-0.1,0.1-0.1,0.2-0.2,0.2c-0.1,0.1-0.2,0.1-0.4,0.2c-0.3,0.1-0.7,0.1-0.9,0
			c-0.3-0.1-0.4-0.4-0.6-0.7c-0.1-0.2-0.1-0.3-0.1-0.5c0-0.2,0-0.3,0.1-0.4c0.1-0.1,0.1-0.2,0.3-0.3c0.1-0.1,0.3-0.2,0.4-0.2
			c0.2-0.1,0.4-0.1,0.6,0c0.2,0,0.3,0.1,0.5,0.2c0.1,0.1,0.2,0.2,0.3,0.4c0,0.1,0,0.2,0,0.3C379.7,161.5,379.6,161.5,379.5,161.6z
			 M378.3,161.6l1-0.3c-0.1-0.2-0.2-0.3-0.3-0.4c-0.1-0.1-0.2-0.1-0.4,0c-0.1,0-0.2,0.1-0.3,0.3
			C378.3,161.3,378.3,161.4,378.3,161.6z"/>
		<path class="st0" d="M380.6,161.9l-0.8-2.4c0-0.1,0-0.2,0-0.3c0-0.1,0.1-0.1,0.2-0.1c0.1,0,0.2,0,0.2,0c0.1,0,0.1,0.1,0.2,0.2
			l0.8,2.4c0,0.1,0,0.2,0,0.3c0,0.1-0.1,0.1-0.2,0.1c-0.1,0-0.2,0-0.2,0C380.7,162.1,380.7,162,380.6,161.9z"/>
		<path class="st0" d="M381.7,161.5l-0.8-2.4c0-0.1,0-0.2,0-0.3c0-0.1,0.1-0.1,0.2-0.1s0.2,0,0.2,0c0.1,0,0.1,0.1,0.2,0.2l0.8,2.4
			c0,0.1,0,0.2,0,0.3c0,0.1-0.1,0.1-0.2,0.1c-0.1,0-0.2,0-0.2,0C381.8,161.7,381.8,161.6,381.7,161.5z"/>
		<g>
			<path class="st0" d="M382.5,158.5l0.3,0.8c0.1-0.1,0.1-0.3,0.2-0.3c0.1-0.1,0.2-0.2,0.4-0.2c0.2-0.1,0.4-0.1,0.5,0
				c0.2,0,0.3,0.1,0.4,0.3c0.1,0.1,0.2,0.3,0.3,0.5c0.1,0.2,0.1,0.3,0.1,0.5c0,0.2,0,0.3-0.1,0.4c0,0.1-0.1,0.2-0.2,0.3
				c-0.1,0.1-0.2,0.2-0.3,0.2c-0.1,0-0.2,0-0.2,0c-0.1,0-0.2,0-0.2,0c-0.1,0-0.1,0-0.2-0.1c0,0-0.1-0.1-0.2-0.1l0,0.1
				c0,0.1,0,0.2,0,0.3c0,0.1-0.1,0.1-0.2,0.1c-0.1,0-0.1,0-0.2,0c-0.1,0-0.1-0.1-0.1-0.2l-0.8-2.4c0-0.1,0-0.2,0-0.3
				c0-0.1,0.1-0.1,0.2-0.1c0.1,0,0.2,0,0.2,0C382.4,158.4,382.5,158.4,382.5,158.5z M383.1,160.1c0.1,0.2,0.2,0.4,0.3,0.4
				c0.1,0.1,0.3,0.1,0.4,0c0.1,0,0.2-0.1,0.3-0.3c0.1-0.2,0.1-0.3,0-0.6c0-0.1-0.1-0.3-0.2-0.3c-0.1-0.1-0.2-0.2-0.3-0.2
				c-0.1,0-0.2,0-0.3,0c-0.1,0-0.2,0.1-0.2,0.2c-0.1,0.1-0.1,0.2-0.1,0.3C383,159.9,383,160,383.1,160.1z"/>
			<path class="st0" d="M387.1,158.8c0.1,0.2,0.1,0.3,0.1,0.5c0,0.2,0,0.3-0.1,0.4c-0.1,0.1-0.2,0.2-0.3,0.3
				c-0.1,0.1-0.3,0.2-0.4,0.2c-0.2,0.1-0.3,0.1-0.5,0.1c-0.1,0-0.3,0-0.4-0.1c-0.1-0.1-0.2-0.2-0.3-0.3c-0.1-0.1-0.2-0.3-0.2-0.4
				c-0.1-0.2-0.1-0.3-0.1-0.5c0-0.2,0-0.3,0.1-0.4c0.1-0.1,0.2-0.2,0.3-0.3c0.1-0.1,0.3-0.2,0.4-0.2c0.2-0.1,0.3-0.1,0.5-0.1
				c0.2,0,0.3,0,0.4,0.1c0.1,0.1,0.2,0.2,0.3,0.3C387,158.5,387.1,158.6,387.1,158.8z M386.6,159c-0.1-0.2-0.2-0.4-0.3-0.5
				c-0.1-0.1-0.3-0.1-0.5-0.1c-0.1,0-0.2,0.1-0.3,0.2c-0.1,0.1-0.1,0.2-0.1,0.3c0,0.1,0,0.3,0.1,0.4c0,0.1,0.1,0.3,0.2,0.4
				c0.1,0.1,0.2,0.2,0.3,0.2c0.1,0,0.2,0,0.3,0c0.2-0.1,0.3-0.2,0.3-0.3C386.7,159.4,386.7,159.2,386.6,159z"/>
			<path class="st0" d="M388.4,159.7l0-0.1l-1.2-1.5c-0.1-0.1-0.1-0.1-0.1-0.2c0,0,0-0.1,0-0.1c0,0,0-0.1,0.1-0.1
				c0,0,0.1-0.1,0.1-0.1c0.1,0,0.1,0,0.2,0c0.1,0,0.1,0.1,0.2,0.2l0.9,1.2l0-1.4c0-0.1,0-0.2,0-0.3c0-0.1,0-0.1,0.1-0.1
				c0,0,0.1-0.1,0.1-0.1c0,0,0.1,0,0.1,0c0,0,0.1,0,0.1,0.1c0,0,0.1,0.1,0.1,0.1c0,0,0,0.1,0,0.1c0,0.1,0,0.1,0,0.2l-0.1,2.1
				c0,0.2,0,0.3-0.1,0.4c0,0.1-0.1,0.2-0.2,0.3c-0.1,0.1-0.2,0.1-0.4,0.2c-0.2,0.1-0.3,0.1-0.4,0.1c-0.1,0-0.2-0.1-0.2-0.1
				c0-0.1,0-0.1,0-0.2c0,0,0.1-0.1,0.2-0.1c0,0,0.1,0,0.1,0c0,0,0.1,0,0.1,0c0.1,0,0.1,0,0.1-0.1c0,0,0.1-0.1,0.1-0.1
				C388.4,159.9,388.4,159.8,388.4,159.7z"/>
		</g>
	</g>
	<path class="st19" d="M379.1,146.1c-0.3-0.4-0.7-0.5-1.1-0.5l-2.5-0.1c-0.5-0.1-0.9,0.1-1.2,0.5c-0.2,0.1-0.3,0.3-0.3,0.5
		c0,0.5,0.6,0.9,1.4,0.9l2.7,0.1c0.8,0,1.4-0.4,1.4-0.8C379.4,146.4,379.3,146.2,379.1,146.1z"/>
	<path class="st29" d="M368.8,146.5l0.2-0.1l0,0L368.8,146.5z"/>
	<path class="st8" d="M377.3,142.9H376c-0.1,0.4-0.1,0.8,0.1,1.1l0,0c0.1,0.2,0.9,1.1,1.6,0.9h0.1c0.2-0.1,0-0.5,0-0.5
		C377.4,144,377.2,143.5,377.3,142.9z"/>
	<path class="st8" d="M376.8,146.9c-1-0.4-1.6-1-1.5-1.6c0-0.1,0-0.2,0.2-0.3c0.5-0.4,2.2,1,2.4,1.1"/>
	<path class="st8" d="M375.6,147.4c-0.5-0.2-0.8-0.6-0.8-1c0,0,0-0.3,0.2-0.4c0.5-0.3,1.9,1,2,1.1"/>
	<path class="st8" d="M377.5,146.3c-1-0.5-1.7-1.2-1.6-1.7c0,0,0-0.2,0.2-0.3c0.6-0.4,2.5,1.1,2.9,1.5"/>
	<path class="st30" d="M67.8,125.3v25.8c3.2-3.3,6.4-5.8,9.7-7.6c3.3-1.8,7.4-2.6,12.3-2.6c5.6,0,10.5,1.3,14.8,4
		c4.2,2.7,7.5,6.5,9.8,11.6c2.3,5.1,3.5,11,3.5,18c0,5.1-0.6,9.8-1.9,14.1c-1.3,4.3-3.2,8-5.7,11.1c-2.5,3.1-5.5,5.6-9,7.3
		c-3.5,1.7-7.4,2.6-11.7,2.6c-2.6,0-5-0.3-7.3-0.9c-2.3-0.6-4.2-1.4-5.8-2.4c-1.6-1-3-2.1-4.1-3.1c-1.1-1.1-2.6-2.7-4.5-4.8v1.7
		c0,3.2-0.8,5.6-2.3,7.2c-1.5,1.6-3.5,2.4-5.8,2.4c-2.4,0-4.3-0.8-5.7-2.4c-1.4-1.6-2.1-4-2.1-7.2V126c0-3.4,0.7-6,2.1-7.8
		c1.4-1.8,3.3-2.6,5.8-2.6c2.6,0,4.6,0.8,6,2.5C67.1,119.8,67.8,122.2,67.8,125.3z M68.6,175.5c0,6.7,1.5,11.9,4.6,15.5
		c3.1,3.6,7.1,5.4,12.1,5.4c4.2,0,7.9-1.8,11-5.5c3.1-3.7,4.6-9,4.6-15.9c0-4.5-0.6-8.3-1.9-11.5c-1.3-3.2-3.1-5.7-5.4-7.5
		c-2.4-1.8-5.1-2.6-8.2-2.6c-3.2,0-6.1,0.9-8.6,2.6c-2.5,1.8-4.5,4.3-5.9,7.6C69.3,166.9,68.6,170.9,68.6,175.5z"/>
	<path class="st30" d="M178.5,179.2h-33c0,3.8,0.8,7.2,2.3,10.1c1.5,2.9,3.5,5.1,6,6.6c2.5,1.5,5.2,2.2,8.3,2.2c2,0,3.9-0.2,5.5-0.7
		c1.7-0.5,3.3-1.2,4.9-2.2c1.6-1,3-2.1,4.3-3.2c1.3-1.2,3-2.7,5.1-4.7c0.9-0.7,2.1-1.1,3.7-1.1c1.7,0,3.1,0.5,4.2,1.4
		c1.1,0.9,1.6,2.3,1.6,4c0,1.5-0.6,3.3-1.8,5.4c-1.2,2-3,4-5.4,5.9c-2.4,1.9-5.4,3.4-9.1,4.7c-3.6,1.2-7.8,1.9-12.6,1.9
		c-10.8,0-19.3-3.1-25.3-9.3c-6-6.2-9-14.6-9-25.2c0-5,0.7-9.6,2.2-13.9c1.5-4.3,3.7-7.9,6.5-11c2.8-3.1,6.4-5.4,10.5-7
		c4.2-1.6,8.8-2.4,13.9-2.4c6.6,0,12.3,1.4,17,4.2c4.7,2.8,8.3,6.4,10.6,10.8c2.4,4.4,3.5,8.9,3.5,13.5c0,4.2-1.2,7-3.6,8.3
		C186.4,178.6,182.9,179.2,178.5,179.2z M145.5,169.6h30.6c-0.4-5.8-2-10.1-4.7-13c-2.7-2.9-6.3-4.3-10.7-4.3
		c-4.2,0-7.7,1.5-10.4,4.4C147.7,159.7,146,164,145.5,169.6z"/>
	<path class="st30" d="M206.7,199.2v-73.3c0-3.4,0.8-5.9,2.3-7.7c1.5-1.7,3.5-2.6,6.1-2.6c2.6,0,4.6,0.9,6.2,2.6
		c1.6,1.7,2.4,4.3,2.4,7.7v73.3c0,3.4-0.8,6-2.4,7.7c-1.6,1.7-3.6,2.6-6.2,2.6c-2.5,0-4.5-0.9-6-2.7
		C207.4,205,206.7,202.5,206.7,199.2z"/>
	<path class="st30" d="M241,199.2v-73.3c0-3.4,0.8-5.9,2.3-7.7c1.5-1.7,3.5-2.6,6.1-2.6c2.6,0,4.6,0.9,6.2,2.6
		c1.6,1.7,2.4,4.3,2.4,7.7v73.3c0,3.4-0.8,6-2.4,7.7c-1.6,1.7-3.6,2.6-6.2,2.6c-2.5,0-4.5-0.9-6-2.7C241.8,205,241,202.5,241,199.2z
		"/>
	<path class="st31" d="M422.2,125.3v25.8c3.2-3.3,6.4-5.8,9.7-7.6c3.3-1.8,7.4-2.6,12.3-2.6c5.6,0,10.5,1.3,14.8,4
		c4.2,2.7,7.5,6.5,9.8,11.6c2.3,5.1,3.5,11,3.5,18c0,5.1-0.7,9.8-1.9,14.1c-1.3,4.3-3.2,8-5.7,11.1c-2.5,3.1-5.5,5.6-9,7.3
		c-3.5,1.7-7.4,2.6-11.7,2.6c-2.6,0-5-0.3-7.3-0.9c-2.3-0.6-4.2-1.4-5.8-2.4c-1.6-1-3-2.1-4.1-3.1c-1.1-1.1-2.6-2.7-4.5-4.8v1.7
		c0,3.2-0.8,5.6-2.3,7.2c-1.5,1.6-3.5,2.4-5.8,2.4c-2.4,0-4.3-0.8-5.7-2.4c-1.4-1.6-2.1-4-2.1-7.2V126c0-3.4,0.7-6,2.1-7.8
		c1.4-1.8,3.3-2.6,5.8-2.6c2.6,0,4.6,0.8,6,2.5C421.5,119.8,422.2,122.2,422.2,125.3z M423,175.5c0,6.7,1.5,11.9,4.6,15.5
		c3.1,3.6,7.1,5.4,12.1,5.4c4.2,0,7.9-1.8,11-5.5c3.1-3.7,4.6-9,4.6-15.9c0-4.5-0.6-8.3-1.9-11.5c-1.3-3.2-3.1-5.7-5.4-7.5
		c-2.4-1.8-5.1-2.6-8.2-2.6c-3.2,0-6.1,0.9-8.6,2.6c-2.5,1.8-4.5,4.3-5.9,7.6C423.8,166.9,423,170.9,423,175.5z"/>
	<path class="st31" d="M549.1,175.1c0,5-0.8,9.7-2.3,13.9c-1.6,4.3-3.8,7.9-6.8,11c-3,3.1-6.5,5.4-10.6,7c-4.1,1.6-8.8,2.4-13.9,2.4
		c-5.1,0-9.7-0.8-13.8-2.5c-4.1-1.6-7.6-4-10.6-7.1c-3-3.1-5.3-6.7-6.8-10.9c-1.5-4.2-2.3-8.8-2.3-13.9c0-5.1,0.8-9.8,2.4-14
		c1.6-4.2,3.8-7.9,6.7-10.9c2.9-3,6.5-5.3,10.6-7c4.2-1.6,8.8-2.4,13.8-2.4c5.1,0,9.8,0.8,13.9,2.5c4.2,1.7,7.7,4,10.7,7.1
		c3,3.1,5.2,6.7,6.8,10.9C548.3,165.4,549.1,170,549.1,175.1z M532.1,175.1c0-6.9-1.5-12.3-4.5-16.1c-3-3.8-7.1-5.8-12.2-5.8
		c-3.3,0-6.2,0.9-8.7,2.6c-2.5,1.7-4.5,4.2-5.8,7.6c-1.4,3.3-2,7.2-2,11.7c0,4.4,0.7,8.3,2,11.6c1.3,3.3,3.3,5.8,5.8,7.6
		c2.5,1.8,5.4,2.6,8.8,2.6c5.1,0,9.2-1.9,12.2-5.8C530.6,187.2,532.1,181.9,532.1,175.1z"/>
	<path class="st31" d="M576.3,211.5l1.5-3.8l-20.8-52.3c-1.3-3-1.9-5.2-1.9-6.6c0-1.4,0.4-2.8,1.1-4c0.7-1.2,1.8-2.2,3.1-3
		c1.3-0.7,2.7-1.1,4.1-1.1c2.4,0,4.3,0.8,5.5,2.3c1.2,1.5,2.3,3.8,3.3,6.7l14.3,41.6l13.6-38.7c1.1-3.1,2-5.6,2.9-7.4
		c0.9-1.8,1.8-3,2.8-3.6c1-0.6,2.3-0.9,4.1-0.9c1.3,0,2.5,0.3,3.7,1c1.2,0.7,2.1,1.6,2.7,2.8c0.6,1.2,1,2.4,1,3.7
		c-0.2,0.8-0.4,1.9-0.8,3.3c-0.4,1.4-0.8,2.9-1.4,4.4l-22,57.7c-1.9,5.1-3.8,9.1-5.6,11.9c-1.8,2.9-4.2,5.1-7.2,6.7
		c-3,1.5-7,2.3-12.1,2.3c-4.9,0-8.7-0.5-11.1-1.6c-2.5-1.1-3.7-3-3.7-5.9c0-1.9,0.6-3.4,1.8-4.5c1.2-1.1,2.9-1.6,5.2-1.6
		c0.9,0,1.8,0.1,2.7,0.4c1.1,0.2,2,0.4,2.8,0.4c1.9,0,3.5-0.3,4.6-0.9c1.1-0.6,2.1-1.6,3-3C574.1,216.4,575.1,214.3,576.3,211.5z"/>
	<g>
		<text transform="matrix(1 0 0 1 89.6208 287.8255)" class="st32 st33 st34 st35">Your personal assistant</text>
	</g>
	<g>
		<path class="st0" d="M332.8,138.1c0.2-0.3,0.4-0.5,0.6-0.8c0.1-0.4,0.1-0.7,0.2-1.1c0-0.1,0-0.2,0-0.2c0-0.1,0-0.1,0.1-0.1
			c0-0.1,0.1-0.1,0.2-0.1c0.1,0,0.1,0,0.2,0c0.1,0,0.1,0,0.1,0.1c0,0,0,0.1,0,0.3c0,0.3-0.1,0.6-0.1,0.9c0.3-0.2,0.6-0.4,0.9-0.7
			c0.1,0,0.1-0.1,0.1-0.1c0,0,0.1-0.1,0.1-0.1c0,0,0.1,0,0.1-0.1c0,0,0.1,0,0.1,0c0.1,0,0.1,0,0.1,0.1c0,0.1,0,0.1,0,0.2
			c0,0-0.1,0.1-0.1,0.1c0,0-0.1,0.1-0.2,0.2c-0.4,0.3-0.8,0.6-1.2,0.8c-0.2,0.3-0.4,0.5-0.6,0.8c-0.1,0.1-0.2,0.2-0.2,0.2
			c-0.1,0-0.2,0-0.2,0c-0.1,0-0.1-0.1-0.1-0.1C332.7,138.2,332.7,138.2,332.8,138.1z"/>
		<path class="st0" d="M336,138.1c-0.1,0.1-0.2,0.3-0.3,0.4c-0.1,0.1-0.2,0.2-0.4,0.3c-0.1,0.1-0.3,0.1-0.4,0.1c-0.1,0-0.3,0-0.4,0
			c-0.1,0-0.2-0.1-0.3-0.2c-0.1-0.1-0.1-0.2-0.1-0.3c0-0.1,0-0.2,0.1-0.3c0-0.1,0.1-0.3,0.2-0.4c0.1-0.1,0.2-0.3,0.3-0.4
			c0.1-0.1,0.2-0.2,0.4-0.3c0.1-0.1,0.2-0.1,0.4-0.1c0.1,0,0.2,0,0.4,0c0.1,0,0.2,0.1,0.3,0.1c0.1,0.1,0.1,0.2,0.1,0.3
			c0,0.1,0,0.2,0,0.3C336.1,137.8,336.1,137.9,336,138.1z M335.6,138c0.1-0.2,0.2-0.4,0.2-0.5c0-0.1-0.1-0.2-0.2-0.2
			c-0.1,0-0.2,0-0.3,0c-0.1,0-0.2,0.1-0.3,0.2c-0.1,0.1-0.2,0.2-0.3,0.3c-0.1,0.1-0.1,0.2-0.2,0.3c0,0.1,0,0.2,0,0.2
			c0,0.1,0.1,0.1,0.2,0.1c0.1,0,0.3,0,0.4-0.1C335.3,138.3,335.4,138.2,335.6,138z"/>
		<path class="st0" d="M336.9,139.1C336.9,139,336.9,139,336.9,139.1c-0.1,0-0.2,0.1-0.2,0.1c-0.1,0-0.2,0.1-0.3,0.1
			c-0.1,0-0.2,0-0.3,0c-0.1,0-0.2-0.1-0.2-0.1c0-0.1-0.1-0.1,0-0.2c0-0.1,0.1-0.3,0.2-0.5c0.2-0.3,0.4-0.7,0.6-1
			c0.1-0.1,0.1-0.2,0.2-0.2c0.1,0,0.1-0.1,0.2-0.1c0.1,0,0.1,0,0.1,0.1c0,0.1,0,0.1-0.1,0.2c-0.2,0.3-0.3,0.5-0.5,0.8
			c-0.1,0.1-0.1,0.2-0.2,0.3c0,0.1,0,0.1,0,0.2c0,0.1,0.1,0.1,0.1,0.1c0.1,0,0.2,0,0.2,0c0.1,0,0.2-0.1,0.3-0.2
			c0.1-0.1,0.2-0.2,0.3-0.5c0.1-0.2,0.2-0.4,0.4-0.6c0.1-0.1,0.1-0.2,0.2-0.2c0.1,0,0.1-0.1,0.2-0.1c0.1,0,0.1,0,0.1,0.1
			c0,0.1,0,0.1-0.1,0.2c-0.3,0.5-0.6,1-0.9,1.5c-0.1,0.1-0.1,0.2-0.2,0.2c-0.1,0-0.1,0.1-0.2,0c-0.1,0-0.1,0-0.1-0.1
			C336.8,139.2,336.8,139.1,336.9,139.1z"/>
		<path class="st0" d="M338.4,138.8c-0.1,0.1-0.2,0.3-0.3,0.4c-0.1,0.1-0.1,0.2-0.2,0.2c-0.1,0-0.1,0.1-0.2,0.1
			c-0.1,0-0.1,0-0.1-0.1c0-0.1,0-0.1,0.1-0.2c0.3-0.5,0.6-0.9,0.8-1.4c0.1-0.2,0.3-0.3,0.4-0.3c0.1,0,0.1,0,0.1,0.1
			c0,0.1,0,0.1-0.1,0.2c0.1-0.1,0.2-0.2,0.3-0.2c0.1-0.1,0.2-0.1,0.3-0.1c0.1,0,0.2,0,0.2,0.1c0.1,0.1,0.1,0.1,0,0.2
			c0,0.1-0.1,0.1-0.1,0.2c-0.1,0-0.1,0.1-0.1,0.1c0,0,0,0-0.1,0c0,0-0.1,0-0.1-0.1c-0.1,0-0.1,0-0.2,0c-0.1,0-0.1,0.1-0.2,0.2
			c-0.1,0.1-0.1,0.2-0.2,0.3C338.6,138.5,338.5,138.6,338.4,138.8z"/>
		<path class="st0" d="M328.8,139.2c-0.1,0-0.2-0.1-0.3-0.1c-0.2,0.2-0.4,0.3-0.6,0.5c-0.1,0.1-0.2,0.1-0.2,0.1c-0.1,0-0.1,0-0.2,0
			c-0.1,0-0.1-0.1-0.1-0.1c0-0.1,0.1-0.1,0.1-0.2c0.5-0.5,1-0.9,1.5-1.4c0.1-0.1,0.2-0.1,0.2-0.2c0.1,0,0.1,0,0.2,0
			c0.1,0.1,0.3,0.1,0.4,0.2c0.1,0.1,0.2,0.1,0.3,0.2c0.1,0,0.1,0.1,0.1,0.2c0,0.1,0,0.1-0.1,0.2c0,0.1-0.1,0.2-0.2,0.3
			c-0.2,0.2-0.4,0.3-0.6,0.4C329.2,139.3,329,139.3,328.8,139.2z M329.6,138.3c-0.1,0-0.2-0.1-0.2-0.1c-0.2,0.2-0.4,0.4-0.6,0.6
			c0.1,0,0.2,0.1,0.2,0.1c0.1,0,0.2,0.1,0.2,0.1c0.1,0,0.1,0,0.2,0c0.1,0,0.1-0.1,0.2-0.2c0.1-0.1,0.1-0.2,0.1-0.2
			C329.8,138.4,329.7,138.4,329.6,138.3z"/>
		<path class="st0" d="M330.4,140c-0.2-0.1-0.4-0.2-0.7-0.2c-0.1,0.1-0.1,0.2-0.2,0.2c0,0.1,0,0.1,0,0.2c0,0.1,0.1,0.1,0.1,0.1
			c0,0,0.1,0,0.1,0c0,0,0.1,0,0.1,0c0.1,0,0.1,0,0.2,0c0.1,0,0.1,0,0.2-0.1c0,0,0.1,0,0.1,0c0,0,0.1,0,0.1,0.1c0,0,0,0.1,0,0.1
			c0,0-0.1,0.1-0.1,0.1c-0.1,0-0.1,0.1-0.2,0.1c-0.1,0-0.2,0-0.3,0c-0.1,0-0.2,0-0.3-0.1c-0.2-0.1-0.3-0.2-0.3-0.4
			c0-0.2,0.1-0.4,0.4-0.6c0.1-0.1,0.2-0.2,0.3-0.3c0.1-0.1,0.2-0.1,0.4-0.2c0.1,0,0.2-0.1,0.3-0.1c0.1,0,0.2,0,0.3,0
			c0.1,0,0.2,0.1,0.3,0.2c0,0.1,0,0.2,0,0.3c0,0.1-0.1,0.2-0.2,0.3c-0.1,0.1-0.2,0.1-0.2,0.2C330.6,140.1,330.5,140.1,330.4,140z
			 M330,139.6c0.2,0.1,0.4,0.2,0.6,0.2c0.1-0.1,0.2-0.2,0.2-0.3c0-0.1,0-0.1-0.1-0.2c-0.1,0-0.2,0-0.3,0
			C330.2,139.4,330.1,139.5,330,139.6z"/>
		<path class="st0" d="M331.2,140.5c-0.1,0.1-0.2,0.2-0.3,0.3c-0.1,0.1-0.1,0.1-0.2,0.2c-0.1,0-0.1,0-0.2,0c-0.1,0-0.1-0.1-0.1-0.1
			c0,0,0-0.1,0.1-0.2c0.3-0.3,0.6-0.7,1-1c0.1-0.2,0.3-0.2,0.4-0.2c0.1,0,0.1,0.1,0.1,0.1c0,0,0,0.1-0.1,0.2
			c0.1-0.1,0.2-0.1,0.3-0.1c0.1,0,0.2,0,0.2,0c0.1,0,0.1,0.1,0.2,0.1c0,0.1,0,0.1,0,0.2c0,0-0.1,0.1-0.1,0.1c-0.1,0-0.1,0-0.1,0
			c0,0,0,0-0.1-0.1c0,0-0.1-0.1-0.1-0.1c-0.1,0-0.1,0-0.2,0c-0.1,0-0.1,0.1-0.2,0.1c-0.1,0.1-0.1,0.1-0.2,0.2
			C331.4,140.3,331.3,140.4,331.2,140.5z"/>
		<path class="st0" d="M333.1,141.1c-0.1,0.1-0.2,0.2-0.3,0.3c-0.1,0.1-0.2,0.1-0.4,0.1c-0.1,0-0.3,0-0.4,0c-0.1,0-0.2-0.1-0.3-0.2
			c-0.1-0.1-0.1-0.1-0.1-0.2c0-0.1,0-0.1,0.1-0.2c0,0,0.1-0.1,0.1-0.1c0.1,0,0.1,0,0.1,0c0,0,0.1,0,0.1,0.1c0,0,0,0.1,0,0.1
			c0,0.1,0,0.1,0,0.2c0,0,0.1,0.1,0.2,0.1c0.1,0,0.1,0,0.2,0c0.1,0,0.1-0.1,0.2-0.1c0.1-0.1,0.1-0.1,0.1-0.2c0,0-0.1-0.1-0.2-0.2
			c-0.1-0.1-0.2-0.1-0.2-0.2c0-0.1-0.1-0.1-0.1-0.2c0-0.1,0-0.2,0.1-0.2c0.1-0.1,0.1-0.1,0.2-0.2c0.1-0.1,0.2-0.1,0.3-0.1
			c0.1,0,0.2,0,0.3,0c0.1,0,0.2,0.1,0.2,0.1c0.1,0,0.1,0.1,0.1,0.1c0,0,0,0.1,0,0.1c0,0,0,0.1-0.1,0.1c0,0-0.1,0.1-0.1,0.1
			c-0.1,0-0.1,0-0.2,0c0,0-0.1,0-0.1-0.1c0,0,0-0.1,0-0.1c0,0,0-0.1,0-0.1c0,0-0.1-0.1-0.1-0.1c-0.1,0-0.1,0-0.2,0
			c-0.1,0-0.1,0-0.2,0.1c0,0,0,0.1,0,0.1c0,0,0,0.1,0.1,0.1c0,0,0.1,0.1,0.2,0.1c0.1,0.1,0.1,0.1,0.2,0.2c0,0.1,0,0.1,0,0.2
			C333.2,141,333.1,141,333.1,141.1z"/>
		<path class="st0" d="M335,141.2c-0.1,0.1-0.2,0.2-0.3,0.3c-0.1,0.1-0.2,0.2-0.4,0.2c-0.1,0.1-0.2,0.1-0.4,0.1c-0.1,0-0.2,0-0.4,0
			c-0.1,0-0.2-0.1-0.2-0.1c-0.1-0.1-0.1-0.1-0.1-0.2c0-0.1,0-0.2,0.1-0.3c0-0.1,0.1-0.2,0.2-0.3c0.1-0.1,0.2-0.2,0.3-0.3
			c0.1-0.1,0.2-0.2,0.3-0.2c0.1-0.1,0.2-0.1,0.4-0.1c0.1,0,0.2,0,0.3,0c0.1,0,0.2,0.1,0.3,0.1c0.1,0.1,0.1,0.1,0.1,0.2
			c0,0.1,0,0.2-0.1,0.3C335.1,141,335.1,141.1,335,141.2z M334.6,141.1c0.1-0.2,0.2-0.3,0.2-0.4c0-0.1,0-0.2-0.2-0.2
			c-0.1,0-0.1,0-0.2,0c-0.1,0-0.2,0.1-0.3,0.1c-0.1,0.1-0.2,0.2-0.3,0.3c-0.1,0.1-0.1,0.2-0.2,0.3c0,0.1,0,0.2,0,0.2
			c0,0.1,0.1,0.1,0.1,0.1c0.1,0,0.2,0,0.4-0.1C334.3,141.4,334.5,141.3,334.6,141.1z"/>
		<path class="st0" d="M336,140.7C336,140.7,336,140.8,336,140.7c0.1,0,0.2-0.1,0.3-0.1c0.1,0,0.2,0,0.3,0c0.1,0,0.2,0.1,0.2,0.1
			c0,0.1,0.1,0.1,0,0.2c0,0.1,0,0.1-0.1,0.2c0,0.1-0.1,0.1-0.2,0.2c-0.2,0.3-0.4,0.5-0.6,0.8c-0.1,0.1-0.1,0.1-0.2,0.2
			c-0.1,0-0.1,0-0.2,0c-0.1,0-0.1,0-0.1-0.1c0-0.1,0-0.1,0.1-0.2c0.2-0.2,0.3-0.5,0.5-0.7c0.1-0.1,0.2-0.2,0.2-0.3
			c0-0.1,0-0.1-0.1-0.1c-0.1,0-0.1,0-0.2,0c-0.1,0-0.2,0.1-0.3,0.2c-0.1,0.1-0.2,0.2-0.3,0.3c-0.1,0.2-0.3,0.3-0.4,0.5
			c-0.1,0.1-0.1,0.1-0.2,0.2c-0.1,0-0.1,0-0.2,0c-0.1,0-0.1,0-0.1-0.1c0,0,0-0.1,0.1-0.2c0.3-0.4,0.6-0.8,0.9-1.2
			c0.1-0.1,0.1-0.1,0.2-0.2c0.1,0,0.1,0,0.2,0c0,0,0.1,0,0.1,0c0,0,0,0.1,0,0.1C336.1,140.6,336.1,140.7,336,140.7z"/>
		<path class="st0" d="M337.5,142.3c-0.1,0.1-0.3,0.1-0.4,0.1c-0.1,0-0.2,0-0.3,0c-0.1,0-0.2-0.1-0.2-0.1c0-0.1-0.1-0.1,0-0.2
			c0-0.1,0.1-0.2,0.1-0.2c0.1-0.1,0.2-0.2,0.3-0.3c0.1-0.1,0.3-0.1,0.4-0.1c0,0,0.1,0,0.2,0c0.1,0,0.2,0,0.3,0c0.1,0,0.2,0,0.3,0
			c0.1-0.1,0.1-0.2,0.1-0.3c0-0.1-0.1-0.1-0.2-0.1c-0.1,0-0.2,0-0.2,0c-0.1,0-0.1,0.1-0.2,0.1c-0.1,0.1-0.1,0.1-0.2,0.1
			c0,0-0.1,0-0.1,0c0,0-0.1,0-0.1-0.1c0,0,0-0.1,0-0.1c0.1-0.1,0.1-0.1,0.2-0.2c0.1-0.1,0.2-0.1,0.3-0.1c0.1,0,0.3,0,0.4,0
			c0.2,0,0.3,0.1,0.3,0.1c0.1,0.1,0.1,0.1,0.1,0.2c0,0.1-0.1,0.2-0.2,0.4c-0.1,0.1-0.1,0.2-0.2,0.3c0,0.1-0.1,0.1-0.2,0.2
			c-0.1,0.1-0.1,0.2-0.1,0.3c0,0.1-0.1,0.1-0.1,0.2c0,0-0.1,0.1-0.1,0.1c-0.1,0-0.1,0-0.2,0c0,0-0.1,0-0.1-0.1
			C337.4,142.5,337.4,142.4,337.5,142.3z M337.9,141.7c-0.1,0-0.2,0-0.3,0c-0.1,0-0.2,0-0.3,0c0,0-0.1,0-0.2,0.1
			c-0.1,0-0.1,0.1-0.2,0.1c0,0.1-0.1,0.1-0.1,0.2c0,0.1,0.1,0.1,0.1,0.1c0.1,0,0.2,0,0.3,0c0.1,0,0.2-0.1,0.2-0.1
			C337.6,142,337.7,141.9,337.9,141.7C337.8,141.8,337.9,141.7,337.9,141.7z"/>
		<path class="st0" d="M338.2,142.4c0.4-0.6,0.8-1.3,1.2-1.9c0.1-0.1,0.1-0.2,0.2-0.2c0.1,0,0.1-0.1,0.2-0.1c0.1,0,0.1,0,0.1,0.1
			c0,0,0,0.1-0.1,0.2c-0.4,0.6-0.8,1.3-1.2,1.9c-0.1,0.1-0.1,0.2-0.2,0.2c-0.1,0-0.1,0.1-0.2,0c-0.1,0-0.1,0-0.1-0.1
			C338.1,142.6,338.2,142.5,338.2,142.4z"/>
		<path class="st0" d="M325.7,141.7c0.1-0.1,0.1-0.2,0.2-0.3c-0.2-0.1-0.5-0.2-0.7-0.4c-0.1,0.1-0.2,0.1-0.4,0.2
			c-0.1,0.1-0.3,0.1-0.3,0.1c-0.1,0-0.1,0-0.2,0c0,0-0.1-0.1-0.1-0.1c0,0,0-0.1,0.1-0.1c0,0,0.1,0,0.1-0.1c0,0,0.1,0,0.2-0.1
			c0.6-0.3,1.3-0.5,1.9-0.8c0.1,0,0.1-0.1,0.2-0.1c0.1,0,0.1-0.1,0.2-0.1c0.1,0,0.1,0,0.2,0c0.1,0,0.1,0,0.2,0c0,0,0.1,0.1,0.1,0.1
			c0,0,0,0.1,0,0.1c0,0,0,0.1-0.1,0.1c0,0-0.1,0.1-0.1,0.2c-0.3,0.4-0.6,0.9-0.9,1.3c-0.1,0.1-0.1,0.2-0.2,0.2
			c-0.1,0-0.1,0.1-0.2,0.1c-0.1,0-0.1,0-0.2,0c0,0,0,0-0.1-0.1c0,0,0,0,0-0.1c0,0,0-0.1,0.1-0.1
			C325.7,141.7,325.7,141.7,325.7,141.7z M325.6,140.9c0.2,0.1,0.4,0.2,0.5,0.3c0.2-0.3,0.4-0.5,0.6-0.8
			C326.4,140.5,326,140.7,325.6,140.9z"/>
		<path class="st0" d="M327.7,142.3c-0.1,0.1-0.2,0.2-0.4,0.2c-0.1,0-0.3,0.1-0.4,0c-0.1,0-0.3,0-0.4-0.1c-0.1-0.1-0.2-0.1-0.2-0.2
			c0-0.1-0.1-0.2,0-0.2c0-0.1,0.1-0.1,0.1-0.2c0,0,0.1-0.1,0.2-0.1c0.1,0,0.1,0,0.1,0c0,0,0.1,0,0.1,0.1c0,0,0,0.1,0,0.1
			c0,0.1-0.1,0.1,0,0.2c0,0.1,0.1,0.1,0.1,0.1c0.1,0,0.1,0,0.2,0c0.1,0,0.1,0,0.2-0.1c0.1-0.1,0.1-0.1,0.1-0.2c0,0-0.1-0.1-0.1-0.2
			c-0.1-0.1-0.1-0.2-0.2-0.2c0-0.1,0-0.1,0-0.2c0-0.1,0.1-0.1,0.2-0.2c0.1-0.1,0.2-0.1,0.3-0.2c0.1,0,0.2-0.1,0.3-0.1
			c0.1,0,0.2,0,0.3,0.1c0.1,0,0.2,0.1,0.2,0.1c0,0,0.1,0.1,0.1,0.1c0,0,0,0.1,0,0.1c0,0,0,0.1-0.1,0.1c0,0-0.1,0.1-0.1,0.1
			c-0.1,0-0.1,0-0.2,0c0,0-0.1,0-0.1-0.1s0-0.1,0-0.1c0,0,0-0.1,0-0.1c0,0,0-0.1-0.1-0.1c-0.1,0-0.1,0-0.2,0c-0.1,0-0.1,0-0.2,0.1
			c0,0-0.1,0.1-0.1,0.1c0,0,0,0.1,0.1,0.1c0,0,0.1,0.1,0.1,0.1c0.1,0.1,0.1,0.1,0.2,0.2c0,0.1,0,0.1,0,0.2
			C327.8,142.2,327.8,142.3,327.7,142.3z"/>
		<path class="st0" d="M329.1,142.9c-0.1,0.1-0.2,0.2-0.4,0.2c-0.1,0-0.3,0.1-0.4,0.1c-0.1,0-0.3,0-0.4-0.1
			c-0.1-0.1-0.2-0.1-0.3-0.2c0-0.1-0.1-0.1,0-0.2c0-0.1,0.1-0.1,0.1-0.2c0,0,0.1-0.1,0.2-0.1c0.1,0,0.1,0,0.1,0c0,0,0.1,0,0.1,0.1
			c0,0,0,0.1,0,0.1c0,0.1,0,0.1,0,0.2c0,0.1,0.1,0.1,0.2,0.1c0.1,0,0.1,0,0.2,0c0.1,0,0.1,0,0.2-0.1c0.1-0.1,0.1-0.1,0.1-0.2
			c0,0-0.1-0.1-0.1-0.2c-0.1-0.1-0.2-0.1-0.2-0.2c0-0.1,0-0.1,0-0.2c0-0.1,0.1-0.1,0.2-0.2c0.1-0.1,0.2-0.1,0.3-0.2
			c0.1,0,0.2-0.1,0.3-0.1c0.1,0,0.2,0,0.4,0.1c0.1,0,0.2,0.1,0.2,0.1c0.1,0,0.1,0.1,0.1,0.1c0,0,0,0.1,0,0.1c0,0,0,0.1-0.1,0.1
			c0,0-0.1,0.1-0.1,0.1c-0.1,0-0.1,0-0.2,0c0,0-0.1,0-0.1-0.1c0,0,0-0.1,0-0.1c0,0,0-0.1,0-0.1c0,0-0.1-0.1-0.1-0.1
			c-0.1,0-0.1,0-0.2,0c-0.1,0-0.1,0-0.2,0.1c0,0-0.1,0.1-0.1,0.1c0,0,0,0.1,0.1,0.1c0,0,0.1,0.1,0.2,0.1c0.1,0.1,0.1,0.1,0.2,0.2
			c0,0.1,0,0.1,0,0.2C329.3,142.8,329.2,142.8,329.1,142.9z"/>
		<path class="st0" d="M330.6,142.4c-0.4,0.3-0.7,0.7-1.1,1c-0.1,0.1-0.2,0.1-0.2,0.1c-0.1,0-0.1,0-0.2,0c-0.1,0-0.1-0.1-0.1-0.1
			c0,0,0.1-0.1,0.1-0.2c0.4-0.3,0.7-0.7,1.1-1c0.1-0.1,0.1-0.1,0.2-0.1c0.1,0,0.1,0,0.2,0c0.1,0,0.1,0.1,0.1,0.1
			C330.7,142.3,330.7,142.3,330.6,142.4z M330.8,142C330.8,141.9,330.8,141.9,330.8,142c-0.1-0.1-0.1-0.2,0-0.2
			c0.1-0.1,0.1-0.1,0.2-0.1c0.1,0,0.1,0,0.2,0c0,0,0.1,0,0.1,0.1c0,0,0,0.1-0.1,0.1c-0.1,0.1-0.1,0.1-0.2,0.1
			C330.9,142,330.9,142,330.8,142z"/>
		<path class="st0" d="M331.4,143.7c-0.1,0.1-0.2,0.2-0.3,0.2c-0.1,0.1-0.3,0.1-0.4,0.1c-0.1,0-0.3,0-0.4-0.1
			c-0.1,0-0.2-0.1-0.3-0.2c-0.1-0.1-0.1-0.1,0-0.2c0-0.1,0.1-0.1,0.1-0.2c0,0,0.1-0.1,0.2-0.1c0.1,0,0.1,0,0.2,0c0,0,0.1,0,0.1,0.1
			c0,0,0,0.1,0,0.1c0,0.1,0,0.1,0,0.2c0,0,0.1,0.1,0.2,0.1c0.1,0,0.2,0,0.2,0c0.1,0,0.1,0,0.2-0.1c0.1-0.1,0.1-0.1,0.1-0.2
			c0,0-0.1-0.1-0.2-0.2c-0.1-0.1-0.2-0.1-0.2-0.2c0-0.1-0.1-0.1,0-0.2c0-0.1,0.1-0.1,0.1-0.2c0.1-0.1,0.2-0.1,0.3-0.2
			c0.1,0,0.2-0.1,0.3-0.1c0.1,0,0.2,0,0.4,0c0.1,0,0.2,0.1,0.2,0.1c0.1,0,0.1,0.1,0.1,0.1c0,0,0,0.1,0,0.1c0,0,0,0.1-0.1,0.1
			c0,0-0.1,0.1-0.1,0.1c-0.1,0-0.1,0-0.2,0c0,0-0.1,0-0.1-0.1c0,0,0-0.1,0-0.1c0,0,0-0.1,0-0.1c0,0-0.1-0.1-0.1-0.1
			c-0.1,0-0.1,0-0.2,0c-0.1,0-0.1,0-0.2,0.1c0,0-0.1,0.1,0,0.1c0,0,0,0.1,0.1,0.1c0,0,0.1,0.1,0.2,0.1c0.1,0.1,0.1,0.1,0.2,0.2
			c0,0.1,0,0.1,0,0.2C331.5,143.6,331.4,143.6,331.4,143.7z"/>
		<path class="st0" d="M332.7,142.8C332.7,142.8,332.7,142.8,332.7,142.8c0.1-0.1,0.2-0.1,0.3-0.2c0.1-0.1,0.1-0.1,0.1-0.1
			c0,0,0.1-0.1,0.1-0.1c0,0,0.1,0,0.1,0c0,0,0.1,0,0.1,0c0,0,0.1,0,0.1,0.1c0,0,0,0.1,0,0.1c0,0-0.1,0.1-0.1,0.2
			c-0.1,0.1-0.2,0.2-0.2,0.3c0,0,0.1,0,0.1,0c0.1,0,0.1,0,0.1,0.1c0,0,0,0.1-0.1,0.1c0,0.1-0.1,0.1-0.2,0.1c-0.1,0-0.1,0-0.2,0
			c0,0,0,0-0.1,0c-0.2,0.2-0.4,0.5-0.7,0.7c-0.1,0.1-0.1,0.1-0.1,0.1c0,0,0,0.1,0,0.1c0,0,0,0,0.1,0.1c0,0,0.1,0,0.1,0
			c0,0,0.1,0,0.1,0c0,0,0,0,0,0.1c0,0,0,0.1-0.1,0.1c-0.1,0.1-0.1,0.1-0.2,0.1c-0.1,0-0.2,0-0.3,0c-0.1,0-0.2-0.1-0.2-0.1
			c0-0.1,0-0.1,0-0.2c0.1-0.1,0.1-0.2,0.3-0.3c0.2-0.2,0.5-0.5,0.7-0.7c0,0,0,0,0,0c-0.1,0-0.1,0-0.1-0.1c0,0,0-0.1,0.1-0.1
			c0,0,0.1-0.1,0.1-0.1C332.6,142.8,332.6,142.8,332.7,142.8z"/>
		<path class="st0" d="M333.4,144.6c-0.2,0-0.3,0.1-0.4,0.1c-0.1,0-0.2,0-0.3,0c-0.1,0-0.2-0.1-0.2-0.1c0-0.1,0-0.1,0-0.2
			c0-0.1,0.1-0.2,0.2-0.2c0.1-0.1,0.2-0.2,0.4-0.2c0.1-0.1,0.3-0.1,0.4-0.1c0,0,0.1,0,0.2,0c0.1,0,0.2,0,0.3,0c0.1,0,0.2,0,0.3,0
			c0.1-0.1,0.1-0.2,0.1-0.2c0-0.1,0-0.1-0.2-0.1c-0.1,0-0.2,0-0.3,0c-0.1,0-0.2,0-0.2,0.1c-0.1,0-0.1,0.1-0.2,0.1c0,0-0.1,0-0.1,0
			c0,0-0.1,0-0.1-0.1c0,0,0-0.1,0.1-0.1c0.1-0.1,0.1-0.1,0.3-0.2c0.1-0.1,0.2-0.1,0.4-0.1c0.1,0,0.3,0,0.4,0c0.2,0,0.3,0.1,0.3,0.2
			c0.1,0.1,0.1,0.1,0,0.2c0,0.1-0.1,0.2-0.3,0.4c-0.1,0.1-0.2,0.2-0.2,0.2c-0.1,0.1-0.1,0.1-0.2,0.2c-0.1,0.1-0.1,0.2-0.2,0.2
			c-0.1,0.1-0.1,0.1-0.1,0.2c0,0-0.1,0.1-0.2,0.1c-0.1,0-0.1,0-0.2,0c0,0-0.1,0-0.1-0.1C333.3,144.8,333.3,144.7,333.4,144.6z
			 M333.9,144.1c-0.1,0-0.2,0-0.3,0c-0.1,0-0.2,0-0.3,0c-0.1,0-0.1,0-0.2,0c-0.1,0-0.1,0.1-0.2,0.1c-0.1,0.1-0.1,0.1-0.1,0.2
			c0,0.1,0,0.1,0.1,0.1c0.1,0,0.2,0,0.3,0c0.1,0,0.2,0,0.3-0.1C333.6,144.4,333.7,144.3,333.9,144.1
			C333.8,144.1,333.9,144.1,333.9,144.1z"/>
		<path class="st0" d="M335.5,143.7C335.5,143.7,335.5,143.8,335.5,143.7c0.1,0,0.2-0.1,0.4-0.1c0.1,0,0.2,0,0.3,0
			c0.1,0,0.2,0.1,0.2,0.1c0,0.1,0,0.1,0,0.2c0,0.1,0,0.1-0.1,0.2c0,0.1-0.1,0.1-0.2,0.2c-0.2,0.3-0.4,0.5-0.7,0.8
			c-0.1,0.1-0.1,0.1-0.2,0.2c-0.1,0-0.1,0-0.2,0c-0.1,0-0.1,0-0.1-0.1c0,0,0-0.1,0.1-0.2c0.2-0.2,0.4-0.4,0.6-0.7
			c0.1-0.1,0.2-0.2,0.2-0.3c0-0.1,0-0.1-0.1-0.1c-0.1,0-0.1,0-0.2,0c-0.1,0-0.2,0.1-0.3,0.2c-0.1,0.1-0.2,0.2-0.3,0.3
			c-0.1,0.2-0.3,0.3-0.5,0.5c-0.1,0.1-0.1,0.1-0.2,0.2c-0.1,0-0.1,0-0.2,0c-0.1,0-0.1,0-0.1-0.1c0,0,0-0.1,0.1-0.2
			c0.4-0.4,0.7-0.8,1-1.1c0.1-0.1,0.1-0.1,0.2-0.2c0.1,0,0.1,0,0.2,0c0,0,0.1,0,0.1,0c0,0,0,0.1,0,0.1
			C335.6,143.6,335.6,143.7,335.5,143.7z"/>
		<path class="st0" d="M337.1,143.8C337.1,143.8,337.1,143.8,337.1,143.8c0.1-0.1,0.2-0.2,0.2-0.2c0.1-0.1,0.1-0.1,0.1-0.2
			c0,0,0.1-0.1,0.1-0.1c0,0,0.1,0,0.1-0.1c0,0,0.1,0,0.1,0c0,0,0.1,0,0.1,0.1c0,0,0,0.1,0,0.1c0,0-0.1,0.1-0.1,0.2
			c-0.1,0.1-0.1,0.2-0.2,0.3c0,0,0.1,0,0.1,0c0.1,0,0.1,0,0.1,0.1c0,0,0,0.1,0,0.1c0,0.1-0.1,0.1-0.2,0.1c-0.1,0-0.1,0-0.2,0
			c0,0,0,0-0.1,0c-0.2,0.3-0.4,0.5-0.6,0.8c-0.1,0.1-0.1,0.1-0.1,0.1c0,0,0,0.1,0,0.1c0,0,0,0,0.1,0c0,0,0.1,0,0.1,0
			c0,0,0.1,0,0.1,0c0,0,0.1,0,0.1,0.1c0,0,0,0.1,0,0.1c-0.1,0.1-0.1,0.1-0.2,0.1c-0.1,0-0.2,0-0.4,0c-0.1,0-0.2-0.1-0.2-0.1
			c0-0.1,0-0.1,0-0.2c0-0.1,0.1-0.2,0.2-0.3c0.2-0.3,0.4-0.5,0.7-0.8c0,0,0,0-0.1,0c-0.1,0-0.1,0-0.1-0.1c0,0,0-0.1,0-0.1
			c0,0,0.1-0.1,0.1-0.1C337,143.8,337.1,143.8,337.1,143.8z"/>
	</g>
</g>
</svg>
