<svg xmlns="http://www.w3.org/2000/svg" width="380.11" height="169.64" viewBox="0 0 380.11 169.64">
  <title>bellboy logo</title>
  <g>
    <path d="M957.64,253.16c2.86-.35,3.25-2.51,6.55-3.24a5.49,5.49,0,0,1,3.27,0c2.94,1.09,4.3,5.47,3.27,6.48-.38.38-.9.11-3.27,0-1.35-.06-2.48,0-3.27,0h0c-.88,0-2,0-3.28,0a22,22,0,0,0-3.27,0c-2,.72-1.84,3-3.27,3.25s-3.29-1.38-3.27-3.25c0-2.21,2.88-3.12,3.27-3.24C955.79,252.73,956.05,253.36,957.64,253.16Z" transform="translate(-769.48 -215.36)" style="fill: #f9a31e"/>
    <g>
      <g>
        <path d="M780.21,274v17.35a26.43,26.43,0,0,1,6.53-5.1,17.41,17.41,0,0,1,8.24-1.77,18.22,18.22,0,0,1,9.92,2.69,17.6,17.6,0,0,1,6.62,7.78A28.7,28.7,0,0,1,813.87,307a32.55,32.55,0,0,1-1.31,9.47,22.37,22.37,0,0,1-3.81,7.46,17.13,17.13,0,0,1-6,4.89,17.74,17.74,0,0,1-7.84,1.73,19.08,19.08,0,0,1-4.93-.62A14.53,14.53,0,0,1,786,328.3a17.41,17.41,0,0,1-2.77-2.1q-1.14-1.08-3-3.24v1.12a6.84,6.84,0,0,1-1.54,4.85,5.13,5.13,0,0,1-3.91,1.64,4.87,4.87,0,0,1-3.85-1.64,7.22,7.22,0,0,1-1.43-4.85V274.49a8.31,8.31,0,0,1,1.39-5.22,4.68,4.68,0,0,1,3.89-1.77,5,5,0,0,1,4,1.69A7.27,7.27,0,0,1,780.21,274Zm.54,33.74q0,6.78,3.1,10.42a10.17,10.17,0,0,0,8.14,3.64,9.34,9.34,0,0,0,7.38-3.72q3.11-3.72,3.1-10.67a20.9,20.9,0,0,0-1.29-7.74,11.21,11.21,0,0,0-3.66-5,9,9,0,0,0-5.53-1.77,9.87,9.87,0,0,0-5.79,1.77,11.69,11.69,0,0,0-4,5.11A19.93,19.93,0,0,0,780.75,307.73Z" transform="translate(-769.48 -215.36)" style="fill: #f9a31e"/>
        <path d="M854.68,310.27H832.47a14.87,14.87,0,0,0,1.56,6.82,10.43,10.43,0,0,0,9.58,6,13.64,13.64,0,0,0,3.73-.48,12.11,12.11,0,0,0,3.26-1.5,24.37,24.37,0,0,0,2.92-2.18q1.32-1.17,3.45-3.16a3.71,3.71,0,0,1,2.5-.75,4.09,4.09,0,0,1,2.82,1,3.38,3.38,0,0,1,1.09,2.7,7.43,7.43,0,0,1-1.21,3.6,14.42,14.42,0,0,1-3.64,3.95,20.66,20.66,0,0,1-6.12,3.14,26.33,26.33,0,0,1-8.46,1.25q-11,0-17-6.24t-6.07-16.93a28.45,28.45,0,0,1,1.49-9.34,20.77,20.77,0,0,1,4.37-7.39A19,19,0,0,1,833.8,286a25.47,25.47,0,0,1,9.32-1.64,22.05,22.05,0,0,1,11.42,2.81,18.46,18.46,0,0,1,7.13,7.26,19.07,19.07,0,0,1,2.37,9.07q0,4.28-2.45,5.55A15.26,15.26,0,0,1,854.68,310.27Zm-22.21-6.45h20.59q-.42-5.82-3.14-8.72a9.44,9.44,0,0,0-7.18-2.89,9.09,9.09,0,0,0-7,2.94C834,297.1,832.85,300,832.47,303.82Z" transform="translate(-769.48 -215.36)" style="fill: #f9a31e"/>
        <path d="M873.61,323.66V274.41a7.66,7.66,0,0,1,1.52-5.16,5.14,5.14,0,0,1,4.1-1.75,5.39,5.39,0,0,1,4.16,1.73,7.45,7.45,0,0,1,1.58,5.18v49.25a7.4,7.4,0,0,1-1.6,5.18,5.4,5.4,0,0,1-4.14,1.73,5.14,5.14,0,0,1-4.06-1.79A7.55,7.55,0,0,1,873.61,323.66Z" transform="translate(-769.48 -215.36)" style="fill: #f9a31e"/>
        <path d="M896.7,323.66V274.41a7.66,7.66,0,0,1,1.52-5.16,5.14,5.14,0,0,1,4.1-1.75,5.39,5.39,0,0,1,4.16,1.73,7.45,7.45,0,0,1,1.58,5.18v49.25a7.4,7.4,0,0,1-1.6,5.18,5.4,5.4,0,0,1-4.14,1.73,5.14,5.14,0,0,1-4.06-1.79A7.55,7.55,0,0,1,896.7,323.66Z" transform="translate(-769.48 -215.36)" style="fill: #f9a31e"/>
        <path d="M1018.54,274v17.35a26.25,26.25,0,0,1,6.53-5.1,17.41,17.41,0,0,1,8.24-1.77,18.22,18.22,0,0,1,9.92,2.69,17.66,17.66,0,0,1,6.62,7.78A28.7,28.7,0,0,1,1052.2,307a32.55,32.55,0,0,1-1.31,9.47,22.56,22.56,0,0,1-3.81,7.46,17.22,17.22,0,0,1-6,4.89,17.79,17.79,0,0,1-7.85,1.73,19.13,19.13,0,0,1-4.93-.62,14.53,14.53,0,0,1-3.93-1.65,17.77,17.77,0,0,1-2.76-2.1c-.77-.72-1.77-1.8-3-3.24v1.12a6.84,6.84,0,0,1-1.54,4.85,5.15,5.15,0,0,1-3.91,1.64,4.87,4.87,0,0,1-3.85-1.64,7.17,7.17,0,0,1-1.43-4.85V274.49a8.31,8.31,0,0,1,1.39-5.22,4.68,4.68,0,0,1,3.89-1.77,4.94,4.94,0,0,1,4,1.69A7.22,7.22,0,0,1,1018.54,274Zm.54,33.74q0,6.78,3.1,10.42a10.15,10.15,0,0,0,8.13,3.64,9.35,9.35,0,0,0,7.39-3.72q3.09-3.72,3.1-10.67a20.9,20.9,0,0,0-1.29-7.74,11.21,11.21,0,0,0-3.66-5,9,9,0,0,0-5.54-1.77,9.86,9.86,0,0,0-5.78,1.77,11.69,11.69,0,0,0-4,5.11A19.76,19.76,0,0,0,1019.08,307.73Z" transform="translate(-769.48 -215.36)" style="fill: #76bb43"/>
        <path d="M1103.82,307.48a26.69,26.69,0,0,1-1.58,9.36,20.63,20.63,0,0,1-4.57,7.36,20.26,20.26,0,0,1-7.16,4.73,25.38,25.38,0,0,1-9.36,1.64,24.59,24.59,0,0,1-9.28-1.66,20.54,20.54,0,0,1-11.71-12.09,26.76,26.76,0,0,1-1.56-9.34,27.14,27.14,0,0,1,1.58-9.44,20.69,20.69,0,0,1,4.54-7.33,20.11,20.11,0,0,1,7.15-4.68,27.07,27.07,0,0,1,18.64,0,20.18,20.18,0,0,1,7.2,4.74,20.57,20.57,0,0,1,4.56,7.32A27.19,27.19,0,0,1,1103.82,307.48Zm-11.39,0q0-6.94-3.06-10.82a9.94,9.94,0,0,0-8.22-3.87,10.16,10.16,0,0,0-5.86,1.73,10.92,10.92,0,0,0-3.92,5.1,20.83,20.83,0,0,0-1.37,7.86,20.61,20.61,0,0,0,1.35,7.78,11.15,11.15,0,0,0,3.87,5.1,10.05,10.05,0,0,0,5.93,1.76,9.9,9.9,0,0,0,8.22-3.89Q1092.43,314.34,1092.43,307.48Z" transform="translate(-769.48 -215.36)" style="fill: #76bb43"/>
        <path d="M1122.13,332l1-2.54-14-35.2a13.12,13.12,0,0,1-1.29-4.41,5.14,5.14,0,0,1,.75-2.7,5.57,5.57,0,0,1,2.06-2,5.39,5.39,0,0,1,2.72-.75,4.47,4.47,0,0,1,3.71,1.56,14.51,14.51,0,0,1,2.2,4.47l9.61,28,9.11-26a44.61,44.61,0,0,1,2-4.95,5.79,5.79,0,0,1,1.85-2.41,5.12,5.12,0,0,1,2.77-.63,4.83,4.83,0,0,1,2.47.69,4.78,4.78,0,0,1,1.83,1.85,5,5,0,0,1,.65,2.45q-.16.8-.54,2.25c-.25,1-.56,2-.92,2.95l-14.81,38.78a45,45,0,0,1-3.74,8,12.34,12.34,0,0,1-4.85,4.47,17.82,17.82,0,0,1-8.13,1.56,19.79,19.79,0,0,1-7.49-1.08,4,4,0,0,1-2.5-4,3.84,3.84,0,0,1,1.19-3,5.1,5.1,0,0,1,3.51-1.06,6.34,6.34,0,0,1,1.79.25,8.94,8.94,0,0,0,1.87.25,6.72,6.72,0,0,0,3.08-.59,5.37,5.37,0,0,0,2-2A31.56,31.56,0,0,0,1122.13,332Z" transform="translate(-769.48 -215.36)" style="fill: #76bb43"/>
        <g>
          <g>
            <path d="M922.6,287.65a9.88,9.88,0,0,0-2.24,2.12c-.9,1.21-2.28,1.66-4.93,3.61a9.27,9.27,0,0,0-3.12,3.92,3,3,0,0,0,.68,0,2.2,2.2,0,0,0,.65-.16,10.26,10.26,0,0,1,3.05-3l.37-.25-.21-.52.43-.2.2.44,1.08-.72-.15-.46.27-.19.17.47a7.63,7.63,0,0,1,1-.57l-.08-.49.39-.14.11.5a.34.34,0,0,1,.36.12.65.65,0,0,1,.05.54,3,3,0,0,1,.47-.09l.06-1.26a.52.52,0,0,1,.48,0l-.14,1.24a5.77,5.77,0,0,1,.84,0l.27-1.3.48.11-.29,1.25c.41.06.69.13.71.13a7.89,7.89,0,0,1,1.67-2.27C924.9,290.13,923.5,288.54,922.6,287.65Z" transform="translate(-769.48 -215.36)" style="fill: #f9a31e"/>
            <path d="M915.43,293.38c2.65-1.95,4-2.4,4.93-3.61a9.88,9.88,0,0,1,2.24-2.12l-.3-.28c-.93-.87-2.29.75-3,1.72a10.64,10.64,0,0,1-3.05,2.41,16.31,16.31,0,0,0-3.86,3.79c-1.06,1.41-.83,1.9-.12,2A9.27,9.27,0,0,1,915.43,293.38Z" transform="translate(-769.48 -215.36)" style="fill: #dbddc7;opacity: 0.9"/>
            <path d="M916.85,293.36l.52,1.3.45-.35-.54-1.15Z" transform="translate(-769.48 -215.36)" style="fill: #dddcc5;opacity: 0.9"/>
            <path d="M918.41,292.42l.37,1.21.33-.21-.43-1.19Z" transform="translate(-769.48 -215.36)" style="fill: #dddcc5;opacity: 0.9"/>
            <path d="M919.78,291.64l.21,1.29a3.35,3.35,0,0,1,.45-.19l-.27-1.24Z" transform="translate(-769.48 -215.36)" style="fill: #dddcc5;opacity: 0.9"/>
            <path d="M921.22,291.31l-.06,1.26.4,0,.14-1.24A.52.52,0,0,0,921.22,291.31Z" transform="translate(-769.48 -215.36)" style="fill: #dddcc5;opacity: 0.9"/>
            <path d="M922.67,291.29l-.27,1.3.46.06.29-1.25Z" transform="translate(-769.48 -215.36)" style="fill: #dddcc5;opacity: 0.9"/>
            <path d="M918.68,292.23l-.27.19.15.46.29-.18Z" transform="translate(-769.48 -215.36)" style="fill: none;opacity: 0.9"/>
            <path d="M920.17,291.5l-.39.14.08.49a1.5,1.5,0,0,1,.42-.13Z" transform="translate(-769.48 -215.36)" style="fill: none;opacity: 0.9"/>
            <path d="M917.28,293.16l-.43.2.21.52.42-.28Z" transform="translate(-769.48 -215.36)" style="fill: none;opacity: 0.9"/>
            <path d="M918.78,293.63l-.22-.75-1.08.72.34.71C918.13,294.08,918.45,293.85,918.78,293.63Z" transform="translate(-769.48 -215.36)" style="fill: #f9a31e"/>
            <path d="M920.64,292.12a.34.34,0,0,0-.36-.12l.16.74.19-.07h.06A.65.65,0,0,0,920.64,292.12Z" transform="translate(-769.48 -215.36)" style="fill: #f9a31e"/>
            <path d="M920,292.93l-.13-.8a7.63,7.63,0,0,0-1,.57l.26.72A10,10,0,0,1,920,292.93Z" transform="translate(-769.48 -215.36)" style="fill: #f9a31e"/>
            <path d="M917.37,294.66l-.31-.78-.37.25a10.26,10.26,0,0,0-3.05,3,16.75,16.75,0,0,0,3.54-2.35Z" transform="translate(-769.48 -215.36)" style="fill: #f9a31e"/>
          </g>
          <path d="M948.35,288.44a1.49,1.49,0,0,1,0,.21c-.5,5.39-3.21,7.31-4,8.39a3.84,3.84,0,0,0-.7,2.36.82.82,0,0,1-.68.68.92.92,0,0,0-.84-.49,1.47,1.47,0,0,0-1.05.63,55,55,0,0,0-5.78-3.18,29.87,29.87,0,0,1-2.76-1.67c-1.24-.78-6.2-5.49-6.54-5.7s-.77.33-.77.33l-.43.5a7.09,7.09,0,0,0-1.49,2.3.8.8,0,0,0,.31.5,75.89,75.89,0,0,0,6,4.67c1,.45,2,2,2.87,3s3.66,1.92,7.21,4.68,5.52.67,7-1.13c1.09-1.34,5.77-7.37,8.07-10.34h0l1.21-1.56C952.75,291,948.35,288.44,948.35,288.44Z" transform="translate(-769.48 -215.36)" style="fill: #76bb43"/>
          <path d="M947.36,250.08a9.29,9.29,0,0,0,3,9.24,3.08,3.08,0,0,0,1.82-3.17C952,253.68,948.63,250.25,947.36,250.08Z" transform="translate(-769.48 -215.36)" style="fill: #f58421"/>
          <path d="M932.44,273.48a1.53,1.53,0,0,1-.47-1.68c.23-.53.47-1.11.65-1.6,0,0-2.12,1.57-.61,3.12C932.29,273.27,932.29,273.41,932.44,273.48Z" transform="translate(-769.48 -215.36)" style="fill: #e6af73"/>
          <path d="M951.05,254.71l-.1-2.13c-.41-.41-.59-.29-1,0a16.48,16.48,0,0,1-3.58,1.58,5.23,5.23,0,0,0-2.51,1.56,24.41,24.41,0,0,1-2.31,2.2c-.88.8-5.71,4.66-6.22,5-.22.16-.49.38-.78.64a8.79,8.79,0,0,0-1.1,1.18s-2,1.37-2.36,1.64a1.13,1.13,0,0,0-.53.93c0,.41-.37,2.24-.34,2.9a1.94,1.94,0,0,1-.14.71v0l-.09.23h0c-.05.14-.11.27-.15.38l-.09.22a.37.37,0,0,0,0,.09,1.66,1.66,0,0,0,.61,1.21.7.7,0,0,0,.18.11h0l.14.07h0l.14,0,0,0,.09,0H931l.09,0h.07l.09,0h.4l.15,0,.24-.07c-1.48-1.56.61-3.12.61-3.12a3.93,3.93,0,0,0,.27-1,8.7,8.7,0,0,1-.39,2.15,2.28,2.28,0,0,0,.8,2.49.62.62,0,0,0,.43-.05c.38-.24,0-.74-.08-1.21a4.44,4.44,0,0,1,.62-3.2,13.82,13.82,0,0,0,.75-1.32h0a1.73,1.73,0,0,0,.24-1,4.11,4.11,0,0,0-.33-1.3s3.55-2.49,4.8-3.1c.79-.39,2.32-.88,3.71-1.46a11.48,11.48,0,0,0,2.08-1.06c1.5-1.06,5.84-3.51,5.84-3.51Z" transform="translate(-769.48 -215.36)" style="fill: #eab776"/>
          <path d="M932.5,271.38a8.7,8.7,0,0,0,.39-2.15,3.93,3.93,0,0,1-.27,1h0c-.18.49-.42,1.07-.65,1.6a1.53,1.53,0,0,0,.47,1.68,3.8,3.8,0,0,0,.54.29c-.19-.25-.41-.51-.41-.51s.22.26.41.51a2.33,2.33,0,0,0,.32.1A2.28,2.28,0,0,1,932.5,271.38Z" transform="translate(-769.48 -215.36)" style="fill: #e1a369"/>
          <path d="M981.42,222.69a10.78,10.78,0,0,1-3.24,1.83c.39,1.13.63,1.94.63,1.94,11.83-3.15,13.09-9.44,13.16-9.87C988.93,216.54,986,218.77,981.42,222.69Z" transform="translate(-769.48 -215.36)" style="fill: #f58421"/>
          <path d="M972.21,246.7l0,0,0,0Z" transform="translate(-769.48 -215.36)" style="fill: #e9b69f;stroke: #06a5da;stroke-miterlimit: 10;stroke-width: 0.153357138269174px"/>
          <path d="M994,324.3a9.38,9.38,0,0,1-2.22,1.66c-3.19,1.91-5.86,1.43-7.06,2.14a26.38,26.38,0,0,1-3.77,1.55c.65,1.72,1.54,1.05,2.36.54s1.68-1,5.76-2,5.26-3.2,5.26-3.2C994.46,324.7,994.33,324.47,994,324.3Z" transform="translate(-769.48 -215.36)" style="fill: #d9dcc7"/>
          <path d="M988.1,326.48l.47,0-.06-1.47-.54.15Z" transform="translate(-769.48 -215.36)" style="fill: #dddcc5"/>
          <path d="M986.46,326.88l.31-.08.08-1.37-.39.1Z" transform="translate(-769.48 -215.36)" style="fill: #dddcc5"/>
          <path d="M985,325.71l-.18,1.36h.41l.26-1.37Z" transform="translate(-769.48 -215.36)" style="fill: #dddcc5"/>
          <path d="M983.31,326.73a.52.52,0,0,0,.45.15l.54-1.24-.39-.07Z" transform="translate(-769.48 -215.36)" style="fill: #dddcc5"/>
          <path d="M982.39,326.41l.65-1.07-.43-.17-.64,1Z" transform="translate(-769.48 -215.36)" style="fill: #dddcc5"/>
          <path d="M984.89,326.44l-.08.63h.41l.12-.62Z" transform="translate(-769.48 -215.36)" style="fill: none"/>
          <path d="M986.46,326.88l.31-.08,0-.53-.34.06Z" transform="translate(-769.48 -215.36)" style="fill: none"/>
          <path d="M988.1,326.48l.47,0,0-.54-.5.12Z" transform="translate(-769.48 -215.36)" style="fill: none"/>
          <path d="M992.71,324c-.55.73-2.3,1.44-4.16,1.91l0,.54-.47,0-.05-.45-1.25.24,0,.53-.31.08v-.55l-.4.05c-.28,0-.51.06-.72.07l-.12.62h-.41l.08-.63c-.88-.09-.73-.55-.57-.8h0l-.54,1.24a.52.52,0,0,1-.45-.15l.6-1.16a7.37,7.37,0,0,1-.87-.23l-.65,1.07-.42-.26.64-1a1.6,1.6,0,0,1-.76-.57,4.49,4.49,0,0,1-1.69.93c0,.06-.33.2-.75.19a8,8,0,0,1,1.33,3.08,6.88,6.88,0,0,0,.25.85,26.38,26.38,0,0,0,3.77-1.55c1.2-.71,3.87-.23,7.06-2.14A9.38,9.38,0,0,0,994,324.3,2.7,2.7,0,0,0,992.71,324Z" transform="translate(-769.48 -215.36)" style="fill: #f9a31e"/>
          <path d="M986.85,325.43l-.05.84,1.25-.24-.08-.9Z" transform="translate(-769.48 -215.36)" style="fill: #f9a31e"/>
          <path d="M985.66,325.69h-.18l-.14.75c.21,0,.44,0,.72-.07l.4-.05v-.8C986.14,325.6,985.87,325.66,985.66,325.69Z" transform="translate(-769.48 -215.36)" style="fill: #f9a31e"/>
          <path d="M984.89,326.44l.1-.73a5.45,5.45,0,0,1-.67-.07C984.16,325.89,984,326.35,984.89,326.44Z" transform="translate(-769.48 -215.36)" style="fill: #f9a31e"/>
          <path d="M988.51,325l0,.93c1.86-.47,3.61-1.18,4.16-1.91h-.19A29,29,0,0,0,988.51,325Z" transform="translate(-769.48 -215.36)" style="fill: #f9a31e"/>
          <path d="M950.77,256.22l-.3-1Z" transform="translate(-769.48 -215.36)" style="fill: none"/>
          <path d="M950.45,255.22a1.46,1.46,0,0,0-.07-.19A1.46,1.46,0,0,1,950.45,255.22Z" transform="translate(-769.48 -215.36)" style="fill: none"/>
          <path d="M947.91,250.55a1.29,1.29,0,0,1,.17.16A1.29,1.29,0,0,0,947.91,250.55Z" transform="translate(-769.48 -215.36)" style="fill: none"/>
          <path d="M950.84,256.45l-.07-.21Z" transform="translate(-769.48 -215.36)" style="fill: none"/>
          <path d="M950.35,254.93a1.34,1.34,0,0,0-.07-.18A1.34,1.34,0,0,1,950.35,254.93Z" transform="translate(-769.48 -215.36)" style="fill: none"/>
          <path d="M955.08,256.48l.07,0Z" transform="translate(-769.48 -215.36)" style="fill: none"/>
          <path d="M950.13,254.33l-.07-.18Z" transform="translate(-769.48 -215.36)" style="fill: none"/>
          <path d="M950,254l-.07-.19Z" transform="translate(-769.48 -215.36)" style="fill: none"/>
          <path d="M949.89,253.72c0-.06,0-.12-.08-.19S949.86,253.66,949.89,253.72Z" transform="translate(-769.48 -215.36)" style="fill: none"/>
          <path d="M948.43,262.47,948,263Z" transform="translate(-769.48 -215.36)" style="fill: none"/>
          <path d="M950.24,254.63a1.34,1.34,0,0,0-.07-.18A1.34,1.34,0,0,1,950.24,254.63Z" transform="translate(-769.48 -215.36)" style="fill: none"/>
          <path d="M951.12,257.52c0-.11-.12-.5-.28-1l.06.2c0,.16.08.31.12.43S951.11,257.45,951.12,257.52Z" transform="translate(-769.48 -215.36)" style="fill: none"/>
          <path d="M951.34,280.26" transform="translate(-769.48 -215.36)" style="fill: none"/>
          <path d="M954.25,256.63l.13,0Z" transform="translate(-769.48 -215.36)" style="fill: none"/>
          <path d="M945.34,277.45l-.15-.11Z" transform="translate(-769.48 -215.36)" style="fill: none"/>
          <path d="M949.24,279.36l0,0Z" transform="translate(-769.48 -215.36)" style="fill: none"/>
          <path d="M949,279.41l.15.07a18.2,18.2,0,0,1-3.78-2A17.26,17.26,0,0,0,949,279.41Z" transform="translate(-769.48 -215.36)" style="fill: none"/>
          <path d="M954.66,256.55l.11,0Z" transform="translate(-769.48 -215.36)" style="fill: none"/>
          <path d="M959.24,256.28h0Z" transform="translate(-769.48 -215.36)" style="fill: none"/>
          <path d="M948.58,251.29a2.56,2.56,0,0,0-.2-.26A2.56,2.56,0,0,1,948.58,251.29Z" transform="translate(-769.48 -215.36)" style="fill: none"/>
          <path d="M956.61,256.29h0Z" transform="translate(-769.48 -215.36)" style="fill: none"/>
          <path d="M958.51,256.24h0Z" transform="translate(-769.48 -215.36)" style="fill: none"/>
          <path d="M958.81,256.25h0Z" transform="translate(-769.48 -215.36)" style="fill: none"/>
          <path d="M948.8,251.6l-.16-.23Z" transform="translate(-769.48 -215.36)" style="fill: none"/>
          <path d="M959,256.27h0Z" transform="translate(-769.48 -215.36)" style="fill: none"/>
          <path d="M958,256.24h0Z" transform="translate(-769.48 -215.36)" style="fill: none"/>
          <path d="M948.37,251a2.66,2.66,0,0,0-.23-.24A2.66,2.66,0,0,1,948.37,251Z" transform="translate(-769.48 -215.36)" style="fill: none"/>
          <path d="M957.66,256.24h0Z" transform="translate(-769.48 -215.36)" style="fill: none"/>
          <path d="M947.83,250.49l-.16-.12Z" transform="translate(-769.48 -215.36)" style="fill: none"/>
          <path d="M956.26,256.32h0Z" transform="translate(-769.48 -215.36)" style="fill: none"/>
          <path d="M958.23,256.24h0Z" transform="translate(-769.48 -215.36)" style="fill: none"/>
          <path d="M959.74,256.33l.19,0Z" transform="translate(-769.48 -215.36)" style="fill: none"/>
          <path d="M949.52,252.89c-.08-.17-.16-.33-.25-.49C949.36,252.56,949.44,252.72,949.52,252.89Z" transform="translate(-769.48 -215.36)" style="fill: none"/>
          <path d="M960,256.35l.1,0Z" transform="translate(-769.48 -215.36)" style="fill: none"/>
          <path d="M949.63,253.13l-.09-.2Z" transform="translate(-769.48 -215.36)" style="fill: none"/>
          <path d="M949.76,253.42l-.09-.19Z" transform="translate(-769.48 -215.36)" style="fill: none"/>
          <path d="M960.07,256.37l.31.05Z" transform="translate(-769.48 -215.36)" style="fill: none"/>
          <path d="M949,252c0-.09-.11-.18-.17-.27C948.91,251.77,949,251.86,949,252Z" transform="translate(-769.48 -215.36)" style="fill: none"/>
          <path d="M949.25,252.36a4,4,0,0,0-.2-.35A4,4,0,0,1,949.25,252.36Z" transform="translate(-769.48 -215.36)" style="fill: none"/>
          <path d="M959.43,256.3h0Z" transform="translate(-769.48 -215.36)" style="fill: none"/>
          <path d="M955.9,256.36h0Z" transform="translate(-769.48 -215.36)" style="fill: none"/>
          <path d="M959.61,256.31h0Z" transform="translate(-769.48 -215.36)" style="fill: none"/>
          <path d="M967.24,248.33v0Z" transform="translate(-769.48 -215.36)" style="fill: none"/>
          <path d="M967.14,261.69l-.14.19Z" transform="translate(-769.48 -215.36)" style="fill: none"/>
          <path d="M967.2,248.44v0Z" transform="translate(-769.48 -215.36)" style="fill: none"/>
          <path d="M967.33,261.39l-.14.22Z" transform="translate(-769.48 -215.36)" style="fill: none"/>
          <path d="M957,256.27h0Z" transform="translate(-769.48 -215.36)" style="fill: none"/>
          <path d="M951.57,257.39l.14-.05Z" transform="translate(-769.48 -215.36)" style="fill: none"/>
          <path d="M967.17,248.56a.06.06,0,0,1,0,0A.06.06,0,0,0,967.17,248.56Z" transform="translate(-769.48 -215.36)" style="fill: none"/>
          <path d="M966.75,262.19h0l.2-.24C966.88,262,966.82,262.12,966.75,262.19Z" transform="translate(-769.48 -215.36)" style="fill: none"/>
          <path d="M945,277.22l.15.11Z" transform="translate(-769.48 -215.36)" style="fill: none"/>
          <path d="M967.56,249.88l-.08-.09Z" transform="translate(-769.48 -215.36)" style="fill: none"/>
          <path d="M952.9,257l.12,0Z" transform="translate(-769.48 -215.36)" style="fill: none"/>
          <path d="M967.74,250.06l-.14-.14Z" transform="translate(-769.48 -215.36)" style="fill: none"/>
          <path d="M967.14,248.69v0Z" transform="translate(-769.48 -215.36)" style="fill: none"/>
          <path d="M967.28,248.22v0Z" transform="translate(-769.48 -215.36)" style="fill: none"/>
          <path d="M967.44,249.74a.35.35,0,0,1-.05-.08A.35.35,0,0,0,967.44,249.74Z" transform="translate(-769.48 -215.36)" style="fill: none"/>
          <path d="M960.4,256.42h0Z" transform="translate(-769.48 -215.36)" style="fill: none"/>
          <path d="M967.22,249.34l0-.07Z" transform="translate(-769.48 -215.36)" style="fill: none"/>
          <path d="M967.35,249.6a.25.25,0,0,1,0-.07A.25.25,0,0,0,967.35,249.6Z" transform="translate(-769.48 -215.36)" style="fill: none"/>
          <path d="M967.18,249.21s0,0,0-.06S967.17,249.19,967.18,249.21Z" transform="translate(-769.48 -215.36)" style="fill: none"/>
          <path d="M967.27,249.47l0-.07Z" transform="translate(-769.48 -215.36)" style="fill: none"/>
          <path d="M953.85,256.71l.1,0Z" transform="translate(-769.48 -215.36)" style="fill: none"/>
          <path d="M952,257.23l.15-.05Z" transform="translate(-769.48 -215.36)" style="fill: none"/>
          <path d="M952.45,257.09l.15,0Z" transform="translate(-769.48 -215.36)" style="fill: none"/>
          <path d="M997.48,256a1.12,1.12,0,0,0,.3.05A2,2,0,0,1,997.48,256Z" transform="translate(-769.48 -215.36)" style="fill: none"/>
          <path d="M967.13,248.82v0Z" transform="translate(-769.48 -215.36)" style="fill: none"/>
          <path d="M951.13,257.52v0Z" transform="translate(-769.48 -215.36)" style="fill: none"/>
          <path d="M947.35,250.19a1.41,1.41,0,0,1,.24.13A1.41,1.41,0,0,0,947.35,250.19Z" transform="translate(-769.48 -215.36)" style="fill: none"/>
          <path d="M967.13,249v0Z" transform="translate(-769.48 -215.36)" style="fill: none"/>
          <path d="M967.58,247.76a2,2,0,0,0-.24.34h0Z" transform="translate(-769.48 -215.36)" style="fill: #d48b71"/>
          <polygon points="190.58 41.01 190.58 41.01 190.58 41.01 190.58 41.01" style="fill: #009fc4"/>
          <path d="M967.15,248.64s0,0,0-.08S967.16,248.62,967.15,248.64Z" transform="translate(-769.48 -215.36)" style="fill: #009fc4"/>
          <path d="M967.13,248.78a.28.28,0,0,0,0-.09A.28.28,0,0,1,967.13,248.78Z" transform="translate(-769.48 -215.36)" style="fill: #009fc4"/>
          <path d="M967.18,248.52a.24.24,0,0,1,0-.08A.24.24,0,0,0,967.18,248.52Z" transform="translate(-769.48 -215.36)" style="fill: #009fc4"/>
          <path d="M967.13,248.92v0Z" transform="translate(-769.48 -215.36)" style="fill: #009fc4"/>
          <path d="M967.21,248.4l0-.07Z" transform="translate(-769.48 -215.36)" style="fill: #009fc4"/>
          <path d="M967.34,248.1l-.05.1Z" transform="translate(-769.48 -215.36)" style="fill: #009fc4"/>
          <path d="M967.25,248.3l0-.08Z" transform="translate(-769.48 -215.36)" style="fill: #009fc4"/>
          <path d="M967.13,249c0,.05,0,.09,0,.14h0C967.14,249,967.14,249,967.13,249Z" transform="translate(-769.48 -215.36)" style="fill: #009fc4"/>
          <polygon points="190.58 41.01 190.58 41.01 190.58 41.01 190.58 41.01" style="fill: #05809b"/>
          <path d="M966.71,262.25l0-.06h0Z" transform="translate(-769.48 -215.36)" style="fill: #09ace3"/>
          <path d="M955.79,292.79c.45.22.86.41,1.22.55l-1.15-.64Z" transform="translate(-769.48 -215.36)" style="fill: none"/>
          <path d="M957.87,293.85a3,3,0,0,0-.86-.51Z" transform="translate(-769.48 -215.36)" style="fill: #fff"/>
          <path d="M949.23,279.52l.17.06h0Z" transform="translate(-769.48 -215.36)" style="fill: none"/>
          <path d="M951.45,280.29l-.11,0h0Z" transform="translate(-769.48 -215.36)" style="fill: none"/>
          <path d="M951.12,257.52h0Z" transform="translate(-769.48 -215.36)" style="fill: #026d77"/>
          <path d="M951.13,257.54h0Z" transform="translate(-769.48 -215.36)" style="fill: #026d77"/>
          <path d="M949.05,252l0-.06Z" transform="translate(-769.48 -215.36)" style="fill: #026d77"/>
          <path d="M947.67,250.37l-.08-.05Z" transform="translate(-769.48 -215.36)" style="fill: #026d77"/>
          <path d="M948.38,251v0Z" transform="translate(-769.48 -215.36)" style="fill: #026d77"/>
          <path d="M948.64,251.37l-.06-.08Z" transform="translate(-769.48 -215.36)" style="fill: #026d77"/>
          <path d="M948.14,250.77l-.06-.06Z" transform="translate(-769.48 -215.36)" style="fill: #026d77"/>
          <path d="M948.85,251.68a.56.56,0,0,0-.05-.08A.56.56,0,0,1,948.85,251.68Z" transform="translate(-769.48 -215.36)" style="fill: #026d77"/>
          <path d="M947.83,250.49l.08.06Z" transform="translate(-769.48 -215.36)" style="fill: #026d77"/>
          <polygon points="179.77 37 179.77 37.01 179.77 37.01 179.77 37" style="fill: #026d77"/>
          <polygon points="190.58 41.01 190.58 41.01 190.58 41.01 190.58 41.01" style="fill: #048ba5"/>
          <path d="M951.13,257.55l.44-.16Z" transform="translate(-769.48 -215.36)" style="fill: #048ba5"/>
          <path d="M954.77,256.53l.31,0Z" transform="translate(-769.48 -215.36)" style="fill: #048ba5"/>
          <path d="M959.1,256.27h0Z" transform="translate(-769.48 -215.36)" style="fill: #048ba5"/>
          <path d="M959.32,256.29h0Z" transform="translate(-769.48 -215.36)" style="fill: #048ba5"/>
          <path d="M958.82,256.26h0Z" transform="translate(-769.48 -215.36)" style="fill: #048ba5"/>
          <path d="M959.51,256.3h0Z" transform="translate(-769.48 -215.36)" style="fill: #048ba5"/>
          <path d="M958.56,256.25h0Z" transform="translate(-769.48 -215.36)" style="fill: #048ba5"/>
          <path d="M958.3,256.24h0Z" transform="translate(-769.48 -215.36)" style="fill: #048ba5"/>
          <path d="M958,256.24h0Z" transform="translate(-769.48 -215.36)" style="fill: #048ba5"/>
          <polygon points="190.59 41.01 190.58 41.01 190.58 41.01 190.59 41.01" style="fill: #048ba5"/>
          <polygon points="190.58 41.01 190.58 41.01 190.58 41.01 190.58 41.01 190.58 41.01" style="fill: #048ba5"/>
          <path d="M951.71,257.34l.3-.11Z" transform="translate(-769.48 -215.36)" style="fill: #048ba5"/>
          <path d="M960.38,256.42Z" transform="translate(-769.48 -215.36)" style="fill: #048ba5"/>
          <path d="M959.69,256.32h0Z" transform="translate(-769.48 -215.36)" style="fill: #048ba5"/>
          <path d="M959.93,256.35h0Z" transform="translate(-769.48 -215.36)" style="fill: #048ba5"/>
          <polygon points="190.58 41.01 190.57 41.01 190.58 41.01 190.58 41.01" style="fill: #048ba5"/>
          <path d="M952.6,257.05l.3-.09Z" transform="translate(-769.48 -215.36)" style="fill: #048ba5"/>
          <path d="M954.38,256.6l.28-.05Z" transform="translate(-769.48 -215.36)" style="fill: #048ba5"/>
          <path d="M952.16,257.18l.29-.09Z" transform="translate(-769.48 -215.36)" style="fill: #048ba5"/>
          <path d="M957.72,256.24h0Z" transform="translate(-769.48 -215.36)" style="fill: #048ba5"/>
          <path d="M954,256.69l.3-.06Z" transform="translate(-769.48 -215.36)" style="fill: #048ba5"/>
          <path d="M956,256.35l.28,0Z" transform="translate(-769.48 -215.36)" style="fill: #048ba5"/>
          <path d="M956.7,256.29l.28,0Z" transform="translate(-769.48 -215.36)" style="fill: #048ba5"/>
          <path d="M957,256.26l.64,0Z" transform="translate(-769.48 -215.36)" style="fill: #048ba5"/>
          <path d="M953,256.92l.83-.21Z" transform="translate(-769.48 -215.36)" style="fill: #048ba5"/>
          <path d="M956.35,256.31l.26,0Z" transform="translate(-769.48 -215.36)" style="fill: #048ba5"/>
          <path d="M955.15,256.46l.75-.1Z" transform="translate(-769.48 -215.36)" style="fill: #048ba5"/>
          <path d="M960.4,256.42l-.34.06Z" transform="translate(-769.48 -215.36)" style="fill: #048ba5"/>
          <polygon points="190.58 41.01 190.58 41.01 190.58 41.01 190.58 41.01 190.58 41.01" style="fill: #048ba5"/>
          <polygon points="190.58 41.01 190.58 41.01 190.58 41.01 190.58 41.01 190.58 41.01" style="fill: #048ba5"/>
          <path d="M959.28,256.59l.78-.22h0A6.71,6.71,0,0,0,959.28,256.59Z" transform="translate(-769.48 -215.36)" style="fill: #05809b"/>
          <polygon points="190.58 41.01 190.58 41.01 190.58 41.01 190.58 41.01 190.58 41.01" style="fill: #05809b"/>
          <polygon points="190.58 41.01 190.58 41.01 190.58 41.01 190.58 41.01" style="fill: #05809b"/>
          <polygon points="190.58 41.01 190.58 41.01 190.58 41.01 190.58 41.01 190.58 41.01" style="fill: #05809b"/>
          <path d="M967.31,249.53l0-.06Z" transform="translate(-769.48 -215.36)" style="fill: #09ace3"/>
          <path d="M967.15,249.09s0,0,0,.06,0,0,0-.06Z" transform="translate(-769.48 -215.36)" style="fill: #09ace3"/>
          <path d="M967.39,249.66l0-.06Z" transform="translate(-769.48 -215.36)" style="fill: #09ace3"/>
          <path d="M967.24,249.4a.14.14,0,0,1,0-.06A.14.14,0,0,0,967.24,249.4Z" transform="translate(-769.48 -215.36)" style="fill: #09ace3"/>
          <path d="M967.48,249.79l0,0Z" transform="translate(-769.48 -215.36)" style="fill: #09ace3"/>
          <path d="M967.19,249.27s0,0,0-.06S967.19,249.25,967.19,249.27Z" transform="translate(-769.48 -215.36)" style="fill: #09ace3"/>
          <path d="M967.6,249.92s0,0,0,0S967.59,249.91,967.6,249.92Z" transform="translate(-769.48 -215.36)" style="fill: #09ace3"/>
          <path d="M967.19,261.61a.56.56,0,0,0-.05.08A.56.56,0,0,1,967.19,261.61Z" transform="translate(-769.48 -215.36)" style="fill: #09ace3"/>
          <path d="M967,261.88l0,.07Z" transform="translate(-769.48 -215.36)" style="fill: #09ace3"/>
          <path d="M967.37,261.33l0,.06Z" transform="translate(-769.48 -215.36)" style="fill: #09ace3"/>
          <path d="M958.68,256.73l1.25-.23.13,0C959.8,256.52,959.17,256.61,958.68,256.73Z" transform="translate(-769.48 -215.36)" style="fill: #09ace3"/>
          <path d="M959.93,256.5l.47-.08-.34.06Z" transform="translate(-769.48 -215.36)" style="fill: #09ace3"/>
          <path d="M958.68,256.73l-.32,0-.07,0A3.15,3.15,0,0,1,958.68,256.73Z" transform="translate(-769.48 -215.36)" style="fill: #009eca"/>
          <path d="M969.94,249.77c-.29.4-.6.87-1.13.84a1.93,1.93,0,0,1-1.07-.55l-.14-.14s0,0,0,0l-.08-.09,0,0a.35.35,0,0,1-.05-.08l0-.06a.25.25,0,0,1,0-.07l0-.06,0-.07a.14.14,0,0,1,0-.06l0-.07s0,0,0-.06,0,0,0-.06,0,0,0-.06l-2.87,1.41s.5,3.56-3.88,5.92l-.47.08-1.25.23a3.15,3.15,0,0,0-.39.06,9.18,9.18,0,0,0-1.11.27,42.65,42.65,0,0,0-6.84,2.26l-.18.29A15.8,15.8,0,0,0,948,263c-.21.43-.42.88-.61,1.33a70,70,0,0,0-2.64,14.4,15.55,15.55,0,0,0,4.1,1.92,13.69,13.69,0,0,0,2.42.68l.11,0,.17,0,.36.08.2.05.36.07.23,0,.35.07.26,0,.35.06.29.05.34.05.32.05.33,0,.35,0,.33,0,.4,0,.3,0,.45,0,.28,0,.53.05h.23l.78.05,1.18-.08c-1.06-8,3.51-16.14,4.14-16.73s2.28-2.58,2.84-3.25l0-.06c.07-.07.13-.16.2-.24l0-.07.14-.19a.56.56,0,0,1,.05-.08l.14-.22,0-.06c1.87-3,3-8.63,3-8.63C970.31,252.29,969.94,249.77,969.94,249.77Z" transform="translate(-769.48 -215.36)" style="fill: #f9a31e"/>
          <path d="M945.35,277.46h0Z" transform="translate(-769.48 -215.36)" style="fill: #009eca"/>
          <path d="M945.19,277.34h0Z" transform="translate(-769.48 -215.36)" style="fill: #009eca"/>
          <path d="M980.17,325.53c0-1.49-4-7.65-4.72-8.92C976.18,317.84,979.88,323.79,980.17,325.53Z" transform="translate(-769.48 -215.36)" style="fill: #76bb43"/>
          <path d="M950.28,254.75a.56.56,0,0,0,0-.12A.56.56,0,0,1,950.28,254.75Z" transform="translate(-769.48 -215.36)" style="fill: #e2a084"/>
          <path d="M950.38,255l0-.1Z" transform="translate(-769.48 -215.36)" style="fill: #e2a084"/>
          <path d="M950.17,254.45a.56.56,0,0,0,0-.12A.56.56,0,0,1,950.17,254.45Z" transform="translate(-769.48 -215.36)" style="fill: #e2a084"/>
          <path d="M950.47,255.27s0,0,0-.05S950.46,255.26,950.47,255.27Z" transform="translate(-769.48 -215.36)" style="fill: #e2a084"/>
          <path d="M949.25,252.36s0,0,0,0,0,0,0,0Z" transform="translate(-769.48 -215.36)" style="fill: #e2a084"/>
          <path d="M950.77,256.24v0Z" transform="translate(-769.48 -215.36)" style="fill: #e2a084"/>
          <path d="M949.67,253.23a.42.42,0,0,0,0-.1A.42.42,0,0,1,949.67,253.23Z" transform="translate(-769.48 -215.36)" style="fill: #e2a084"/>
          <path d="M949.81,253.53a1.17,1.17,0,0,1,0-.11A1.17,1.17,0,0,0,949.81,253.53Z" transform="translate(-769.48 -215.36)" style="fill: #e2a084"/>
          <path d="M950.06,254.15l0-.12Z" transform="translate(-769.48 -215.36)" style="fill: #e2a084"/>
          <path d="M949.94,253.84l-.05-.12Z" transform="translate(-769.48 -215.36)" style="fill: #e2a084"/>
          <path d="M949.54,252.93l0,0Z" transform="translate(-769.48 -215.36)" style="fill: #e2a084"/>
          <path d="M950.84,256.47v0Z" transform="translate(-769.48 -215.36)" style="fill: #e2a084"/>
          <polygon points="179.93 64.23 179.92 64.22 179.92 64.22 179.93 64.23 179.93 64.23" style="fill: #e2a084"/>
          <polygon points="181.86 64.9 181.86 64.9 181.86 64.9 181.86 64.9" style="fill: #e2a084"/>
          <path d="M949.4,279.58l.23.34-.22-.33Z" transform="translate(-769.48 -215.36)" style="fill: #e2a084"/>
          <path d="M958,219.8a4.68,4.68,0,0,0,.45-.2l-.57,0Z" transform="translate(-769.48 -215.36)" style="fill: #629d43"/>
          <path d="M945.58,251" transform="translate(-769.48 -215.36)" style="fill: #d39471"/>
          <g>
            <path d="M947.35,250.19h0s0-.08,0-.12A.41.41,0,0,1,947.35,250.19Z" transform="translate(-769.48 -215.36)" style="fill: #f9a31e"/>
            <path d="M951.13,257.55l.18-.06-.18.05Z" transform="translate(-769.48 -215.36)" style="fill: #f9a31e"/>
            <path d="M963,249.17a34.53,34.53,0,0,0-12.41.18,26.55,26.55,0,0,0-3.19.79s0,.08,0,.13l.22.13.07,0a1.09,1.09,0,0,1,.17.13l.08.07c.06,0,.11.11.17.17l.06.06.23.27v0a2,2,0,0,1,.2.28l.06.08a2.13,2.13,0,0,1,.16.25l.06.09c0,.1.11.2.17.3l0,.05.2.39h0l0,0,.25.52,0,.05.09.22s0,.07.05.1a1.8,1.8,0,0,1,.08.21.61.61,0,0,1,.05.12,1.8,1.8,0,0,1,.08.21l.05.12c0,.07,0,.14.08.2a.5.5,0,0,0,.05.13,1.18,1.18,0,0,0,.07.2c0,.05,0,.09,0,.13a1.59,1.59,0,0,1,.07.2.56.56,0,0,1,0,.12,1.59,1.59,0,0,1,.07.2l0,.11c0,.07.05.14.07.2l0,.06c.12.36.22.71.31,1v0a1.87,1.87,0,0,1,.07.22h0c.16.6.26,1,.29,1.14h0a2.07,2.07,0,0,1-.74,1.8h0s0,0-.05.12a41.14,41.14,0,0,1,6.83-2.39,8.41,8.41,0,0,1,1.11-.29h.08l.32-.05,1.37-.26.35-.06c4.37-2.53,3.84-6.35,3.84-6.35l2.86-1.51c0-.05,0-.1,0-.15v-.19a.38.38,0,0,1,0-.1v0s0-.06,0-.09,0,0,0,0,0-.06,0-.09v0l0-.08v0l0-.08,0,0a1,1,0,0,1,0-.1C966.31,247.93,963,249.17,963,249.17ZM960.31,257l.11,0Zm-.09,0h0Z" transform="translate(-769.48 -215.36)" style="fill: #f9a31e"/>
          </g>
          <path d="M971.53,247.62l.68-.92a12,12,0,0,1-2.69-2.54l-.36.67A4.08,4.08,0,0,0,971.53,247.62Z" transform="translate(-769.48 -215.36)" style="fill: #d7894e"/>
          <path d="M969.16,244.83l-1,1.81-.6,1.12-.19.35h0l-.05.1v0l0,.08v0l0,.07v0a.24.24,0,0,0,0,.08.06.06,0,0,0,0,0s0,.06,0,.08v.05a.28.28,0,0,1,0,.09V249c0,.05,0,.09,0,.14s0,0,0,.06,0,0,0,.06,0,0,0,.06l0,.07a.14.14,0,0,0,0,.06l0,.07,0,.06a.25.25,0,0,0,0,.07l0,.06a.35.35,0,0,0,.05.08l0,0,.08.09s0,0,0,0l.14.14c1.28,1.11,1.75.32,2.2-.29l.77-1,.82-1.11A4.08,4.08,0,0,1,969.16,244.83Z" transform="translate(-769.48 -215.36)" style="fill: #eab776"/>
          <path d="M977.26,238.88a10.31,10.31,0,0,0,5.1,4.13c.21-.34.42-.68.6-1C982.23,241.79,978.77,240.77,977.26,238.88Z" transform="translate(-769.48 -215.36)" style="fill: #d7894e"/>
          <path d="M966.37,239.64a9.69,9.69,0,0,0,1,2.16c1.33.25,1-.72.52-1.69a1.37,1.37,0,0,1-.13-.52c-.13,0-.27-.11-.42-.1A3.56,3.56,0,0,1,966.37,239.64Z" transform="translate(-769.48 -215.36)" style="fill: #1f2223"/>
          <path d="M970,225.48v-1.1l-.75,0c-.57,0-.9-.08-.9-.08-5.3,3.63-6.49,5.26-6.49,5.26s1.92,3.77,2.29,4.44a2.64,2.64,0,0,1,3.16,1.22,10.85,10.85,0,0,1,1.27,2.49,1.67,1.67,0,0,0,.39-.52,1.33,1.33,0,0,0,.1-.28c.11-.43-.51-1.89-.79-4s-.06-2.14.31-3.08A42.07,42.07,0,0,0,970,225.48Z" transform="translate(-769.48 -215.36)" style="fill: #1f2223"/>
          <path d="M968.73,238c0-.11-.07-.21-.11-.31a9,9,0,0,0-1.27-2.49,2.57,2.57,0,0,0-3.16-1.22c-.14,0-1.35.63-1.28,2.73a2.74,2.74,0,0,0,1,2,4.93,4.93,0,0,0,1.67.79,4.51,4.51,0,0,0,3-.07.64.64,0,0,0,.41-.63A2.7,2.7,0,0,0,968.73,238Z" transform="translate(-769.48 -215.36)" style="fill: #eab776"/>
          <path d="M968.23,238.19c-.41-1.18-1.19-2.56-2.56-2.73a1.34,1.34,0,0,0-.63,0,1.58,1.58,0,0,0-.85,1.67,2.13,2.13,0,0,0,1.46,1.72,6,6,0,0,0,.71.26,2.57,2.57,0,0,0,1.26.1.85.85,0,0,0,.55-.25A.82.82,0,0,0,968.23,238.19Z" transform="translate(-769.48 -215.36)" style="fill: #e1a369"/>
          <path d="M965.28,237.09s1.1-.15,1.36.23,0,.46-.17.5-.3.21.16.53,1.24.43,1.25.16-.35-.32-.49-.6a.84.84,0,0,1-.1-.56c0-.17-.57-.66-1-.7A2.13,2.13,0,0,0,965.28,237.09Z" transform="translate(-769.48 -215.36)" style="fill: #eab776"/>
          <path d="M978.35,225.43" transform="translate(-769.48 -215.36)" style="fill: none"/>
          <line x1="208.88" y1="10.07" x2="208.82" y2="10.03" style="fill: none"/>
          <path d="M986.92,234.12a2,2,0,0,0-2.37-1.49,37.87,37.87,0,0,0-2.09-10.23,1.2,1.2,0,0,0,.16-.17h-.21l-.6-2.15a41.78,41.78,0,0,1-4.13,2.37l-1.21,0-.15.64c-.75.37-1.59.77-2.5,1.19a32.64,32.64,0,0,1-3.78,0v1.1a14.85,14.85,0,0,1-.57,2,7.29,7.29,0,0,0-.78,2.26l-.06.15c-.37.94-.59,1-.31,3.08s.9,3.52.79,4a1.68,1.68,0,0,1-.49.8h0a2.83,2.83,0,0,1,.11.31c.47,1.35-.06,1.43-1,1.61a1.37,1.37,0,0,0,.13.52c.47,1,.81,1.94-.52,1.69a21.46,21.46,0,0,0,1.63,2.31l0,0a11.9,11.9,0,0,0,2.61,2.47h0l0,0a8.48,8.48,0,0,0,1.43.78,6.18,6.18,0,0,0,2.53.46,4,4,0,0,0,.89-.1h0l.16,0a5.85,5.85,0,0,0,1.73-.72,5,5,0,0,0,.6-.43,12.4,12.4,0,0,0,3.37-3.58,10.31,10.31,0,0,1-5.1-4.13c1.51,1.89,5,2.91,5.7,3.11a19,19,0,0,0,1.88-5.26S987.35,235.94,986.92,234.12Z" transform="translate(-769.48 -215.36)" style="fill: #eab776"/>
          <path d="M982.59,219.09c2.11-1.05,1.83-.73,5.16-2a72.28,72.28,0,0,0-8.21,2.59l0,0c-.06-.14-.13-.28-.2-.41a14.38,14.38,0,0,0-3.16,1.23C975.87,220.93,979.73,220.51,982.59,219.09Z" transform="translate(-769.48 -215.36)" style="fill: #98c465"/>
          <path d="M982.59,219.09c2.11-1.05,1.83-.73,5.16-2a72.28,72.28,0,0,0-8.21,2.59l0,0c-.06-.14-.13-.28-.2-.41a14.38,14.38,0,0,0-3.16,1.23C975.87,220.93,979.73,220.51,982.59,219.09Z" transform="translate(-769.48 -215.36)" style="fill: #f58421"/>
          <path d="M991.91,216.55a4.9,4.9,0,0,0-1.28,0,4.79,4.79,0,0,0-1.86.33c-.33.08-.67.16-1,.26-3.33,1.23-3,.91-5.16,2-2.86,1.42-6.72,1.84-6.45,1.47a14.38,14.38,0,0,1,3.16-1.23c-1.65-3-6.57-4.5-10.72-3.8a8.27,8.27,0,0,0-3.57,1.62,13.13,13.13,0,0,0-1.49,1.29,16.19,16.19,0,0,0-3.34,4.76,2,2,0,0,0-.11.63,4.93,4.93,0,0,0,.09,1,17.66,17.66,0,0,0,1.14,3.4c.4.93.79,1.71,1,2.06h0s.94-1.54,4.91-4.48c.53-.4,1.12-.82,1.78-1.27,0,0,6.61.85,12-1.18,2.72-1,7.5-6.79,11-6.74Z" transform="translate(-769.48 -215.36)" style="fill: #f9a31e"/>
          <g>
            <path d="M983.34,230.24c.06.79-.29,1.46-.77,1.5s-.92-.58-1-1.38.3-1.46.78-1.49S983.29,229.45,983.34,230.24Z" transform="translate(-769.48 -215.36)" style="fill: #444c52"/>
            <path d="M979.92,231c.06.94-.35,1.74-.92,1.78s-1.09-.69-1.15-1.63.34-1.73.91-1.77S979.85,230.06,979.92,231Z" transform="translate(-769.48 -215.36)" style="fill: #444c52"/>
            <path d="M982.69,230.54c0,.37-.14.68-.36.7s-.43-.27-.46-.64.14-.68.36-.7S982.66,230.17,982.69,230.54Z" transform="translate(-769.48 -215.36)" style="fill: #fff"/>
            <path d="M979.05,231.21c0,.44-.17.82-.44.84s-.51-.33-.55-.78.17-.82.44-.84S979,230.76,979.05,231.21Z" transform="translate(-769.48 -215.36)" style="fill: #fff"/>
          </g>
          <path d="M978,265.29l-.07.09h0l.06-.09Z" transform="translate(-769.48 -215.36)" style="fill: #049cbf"/>
          <path d="M978,265.39l.06-.09h0l-.07.09Z" transform="translate(-769.48 -215.36)" style="fill: none"/>
          <path d="M990.59,261.58c-.19-.29-.37-.6-.55-.9-2.12.74-8.84,3-10.61,4.6a1.17,1.17,0,0,1-1,.38.82.82,0,0,1-.45-.23l0,.07a19.56,19.56,0,0,1-1.26,1.57,13.58,13.58,0,0,1-1.49,1.52l-.1.09a4.54,4.54,0,0,1,1.22.75,3,3,0,0,1,.28.24c1.23,1.11,1.73.88,2.45.28s4.72-2,10.11-6.47a8.73,8.73,0,0,1,1.82-1.33A5.72,5.72,0,0,1,990.59,261.58Z" transform="translate(-769.48 -215.36)" style="fill: #eab776"/>
          <path d="M993.74,263.93h0Z" transform="translate(-769.48 -215.36)" style="fill: none"/>
          <path d="M994.68,263.84a1.1,1.1,0,0,0,.19.24A1.1,1.1,0,0,1,994.68,263.84Z" transform="translate(-769.48 -215.36)" style="fill: none"/>
          <path d="M993.72,263.46s.18.39,0,.47l1.13.15a1.1,1.1,0,0,1-.19-.24c-.15-.25-.23-.63.35-.91-.65-.41-1.55-.94-1.65-1A3.12,3.12,0,0,0,993.72,263.46Z" transform="translate(-769.48 -215.36)" style="fill: #eab776"/>
          <path d="M994.68,263.84c-.14-.24-.21-.62.35-.91C994.45,263.21,994.53,263.59,994.68,263.84Z" transform="translate(-769.48 -215.36)" style="fill: #dd9e82"/>
          <path d="M995.94,263.86c.07-.25-.29-.53-.91-.93-.56.29-.49.67-.35.91a1.1,1.1,0,0,0,.19.24l-1.13-.15-.67.66a.58.58,0,0,0-.14.76s-.65-.19-.93.1a.41.41,0,0,0,0,.59s-.85-.31-1.17,0a.85.85,0,0,0-.24.6,2.93,2.93,0,0,0,.58.15c1.21.18.6-.54,1.1-.55s.82-.07,1-.58.35-.27.92-.42.47-.63.54-.86S995.8,264.39,995.94,263.86Z" transform="translate(-769.48 -215.36)" style="fill: #eab776"/>
          <path d="M992,266a.41.41,0,0,1,0-.59c.28-.29.93-.1.93-.1a.58.58,0,0,1,.14-.76l.67-.66h0c-.39.13-1.24-.61-1.39-.89a.64.64,0,0,0,0,.07.6.6,0,0,0,.13.21,4.48,4.48,0,0,0,.87.71l0,0c-.22-.11-1.64-.85-1.95-.48a.63.63,0,0,0-.05.78c-.84-.24-.78.47-.78.47-1.14,0-.61,1-.61,1l-1-1.13a6.62,6.62,0,0,1-.25,1,11.34,11.34,0,0,0,1.93,1,.85.85,0,0,1,.24-.6C991.19,265.73,992,266,992,266Z" transform="translate(-769.48 -215.36)" style="fill: #e6af73"/>
          <path d="M991.08,261.62a2.55,2.55,0,0,0-.48-.09c0,.25,0,.5,0,.75a5.14,5.14,0,0,1,.59.2l1.19.52C991.79,262.45,991.51,261.79,991.08,261.62Z" transform="translate(-769.48 -215.36)" style="fill: #d39471"/>
          <path d="M993.31,264l0,0a4.48,4.48,0,0,1-.87-.71.6.6,0,0,1-.13-.21.64.64,0,0,1,0-.07h0a1.74,1.74,0,0,1-.05-1.08l-1.38-.15s.47,1.92-2.6,1.66c0,0,.77.69.66,1.15l1,1.13s-.53-1,.61-1c0,0-.06-.71.78-.47a.63.63,0,0,1,.05-.78C991.67,263.17,993.09,263.91,993.31,264Z" transform="translate(-769.48 -215.36)" style="fill: #eab776"/>
          <polygon points="222.84 47.69 222.84 47.7 222.84 47.7 222.84 47.69" style="fill: #cd8a70"/>
          <path d="M993.38,261.94h0c0-.3.16-.8-2-1.28a5.93,5.93,0,0,0-4.74,1.43c-.1.42-.2.85-.27,1.28a2.34,2.34,0,0,1,.44.17c.4.24.55.94,1.07,1.6l.81.51a6.62,6.62,0,0,0,.25-1c.11-.46-.66-1.15-.66-1.15,3.07.26,2.6-1.66,2.6-1.66l1.38.15h1.11Z" transform="translate(-769.48 -215.36)" style="fill: #eab776"/>
          <path d="M1001.79,266.27c0-.34-1.26-3.78-2-4.15l-16.3.8s1.21,9,2.09,14.62c2.56,3.53,8.49,9.61,17,5.91-.73-1.73-.65-5.07-.59-6.54C1002,275.23,1001.76,266.61,1001.79,266.27Zm-7.66.15-3,.21c-.83.06-1.54-.31-1.58-.83a.76.76,0,0,1,.27-.59,1.5,1.5,0,0,1,1.28-.7l2.77-.19a1.5,1.5,0,0,1,1.33.47.77.77,0,0,1,.41.58C995.62,265.89,995,266.36,994.13,266.42Z" transform="translate(-769.48 -215.36)" style="fill: #f9a31e"/>
          <path d="M985.54,277.54c.32,2.1.61,3.74.76,4.28.58,2-1.07,3.8-1,5.06s1.17-.28,2.9-.82,12.52-1.15,13.89-.81,2,.2.86-1.19a3,3,0,0,1-.35-.61C994,287.15,988.1,281.07,985.54,277.54Z" transform="translate(-769.48 -215.36)" style="fill: #f9a31e"/>
          <path d="M988.39,271.64s.82,3.18,3.78,2.84,5.79-6.14,5.79-6.14-.85,6-4.53,7.54S988,274.15,988.39,271.64Z" transform="translate(-769.48 -215.36)" style="fill: #f9a31e"/>
          <path d="M998.9,276.42a13.18,13.18,0,0,1-2.89,4.75S1000,281.08,998.9,276.42Z" transform="translate(-769.48 -215.36)" style="fill: #f9a31e"/>
          <path d="M995.24,265a1.67,1.67,0,0,0-1.43-.67l-3.09-.09a1.62,1.62,0,0,0-1.49.63.8.8,0,0,0-.36.62c0,.58.72,1.07,1.66,1.1l3.38.1c.93,0,1.7-.42,1.72-1A.85.85,0,0,0,995.24,265Z" transform="translate(-769.48 -215.36)" style="fill: none"/>
          <path d="M1000.15,281.84c.16-1.14,2.06-13.32,2.26-14.45.07-.37-1-4.33-1.8-4.83l-4.62-.24-3.27-.16-10.26-.53s0,1.54.13,3.8v0c.14,3.52.34,8.75.55,12.61,2.46,4.2,8.35,11.6,18.21,8.44C1000.73,284.51,999.92,283.47,1000.15,281.84Zm-6.24-15.14-3.38-.1c-.94,0-1.68-.52-1.66-1.1a.8.8,0,0,1,.36-.62,1.62,1.62,0,0,1,1.49-.63l3.09.09a1.67,1.67,0,0,1,1.43.67.85.85,0,0,1,.39.69C995.61,266.28,994.84,266.73,993.91,266.7Z" transform="translate(-769.48 -215.36)" style="fill: #f9a31e"/>
          <path d="M982.4,265.51l.19-.05v0Z" transform="translate(-769.48 -215.36)" style="fill: #bad532"/>
          <path d="M983.14,278.07c.13,2.37.26,4.22.38,4.84.41,2.27-1.61,4.09-1.73,5.49s1.33-.18,3.31-.59,14,.12,15.49.65,2.14.44,1.08-1.23a3,3,0,0,1-.32-.72C991.49,289.67,985.6,282.27,983.14,278.07Z" transform="translate(-769.48 -215.36)" style="fill: #f5b11a"/>
          <path d="M993.38,262h-1.12a1.87,1.87,0,0,0,.06,1.07h0c0,.26.78,1.06,1.39.89h0c.16-.08,0-.47,0-.47A3.06,3.06,0,0,1,993.38,262Z" transform="translate(-769.48 -215.36)" style="fill: #eab776"/>
          <path d="M992.5,266.07s-2.31-1.13-1.49-2c.35-.4,2.14,1.14,2.14,1.14" transform="translate(-769.48 -215.36)" style="fill: #eab776"/>
          <path d="M991.05,266.17s-.94-.54-.33-1.18c.29-.3,1.95,1,1.95,1" transform="translate(-769.48 -215.36)" style="fill: #eab776"/>
          <path d="M993.27,265.42s-2.38-1.25-1.56-2.16c.35-.4,2.14,1.14,2.14,1.14" transform="translate(-769.48 -215.36)" style="fill: #eab776"/>
          <path d="M1002.28,266.24a13.83,13.83,0,0,0-.8-2.34c-.36-1-.74-1.14-.74-1.14l-7.23-.37,0,.08a3.4,3.4,0,0,0,0,.45l0,0,.13.36a.43.43,0,0,1,0,.05h0c0,.11.07.22.1.33l0,0c.22.2,0,.61-.27.48a.14.14,0,0,0,0,.06.25.25,0,0,1,.24.16,2.76,2.76,0,0,1,1.06.26.29.29,0,0,1-.1.54h-.1l-.06.06c-.24.19-.7.18-1,.33h0a.26.26,0,0,1,0,.15.87.87,0,0,1-.27.27l-.06.1a.38.38,0,0,1-.37.14.89.89,0,0,1-.37,0l-.12,0a2.81,2.81,0,0,1-1,.09l-.09,0a.22.22,0,0,1-.14,0l-.07,0c-.37,0-.89-.05-1-.4a.62.62,0,0,1-.16-.31c-.06-.39.24-.65.6-.78h0a1.81,1.81,0,0,1,.44-.09.54.54,0,0,1,.32-.65.45.45,0,0,1,.46.05.17.17,0,0,1,0-.14V264h0v0a.08.08,0,0,0,0,0v-.07a.23.23,0,0,1,.05-.27c0-.19.24-.21.39-.12a.46.46,0,0,1,.32,0l.15.06,0,0s0,0,0,0a1.22,1.22,0,0,1-.29-.64.33.33,0,0,1,.06-.21,1,1,0,0,1,0-.29l-9.75-.49.22,5.92s4.3-.9,6.72-.19,7.13,1.41,8.56,1a19.57,19.57,0,0,1,3.1-.91l1.32.15S1002.45,267.1,1002.28,266.24Z" transform="translate(-769.48 -215.36)" style="fill: #f5b11a"/>
          <g>
            <path d="M978,265.3h0l-.07.09h0Z" transform="translate(-769.48 -215.36)" style="fill: #f9a31e"/>
            <path d="M978.81,263.67a10.56,10.56,0,0,1-1.5-.64c-2.95-1.55-3.44-3.83-4.23-5.79a22.23,22.23,0,0,0-2.72-4.51,44.28,44.28,0,0,1-1.33,4.89,18.58,18.58,0,0,1-1.66,3.71l0,.06-.14.22a.56.56,0,0,0-.05.08l-.14.19,0,.07-.2.24.13-.15c1.81,3.59,6.27,7.7,6.27,7.7s.64,0,2-1.06l.1-.09a13.58,13.58,0,0,0,1.49-1.52A19.56,19.56,0,0,0,978,265.5l0-.07C979,264.05,978.81,263.67,978.81,263.67Zm-.8,1.63-.06.09h0l.07-.09Z" transform="translate(-769.48 -215.36)" style="fill: #f9a31e"/>
          </g>
          <g>
            <path d="M985.48,273.91v.87a1.44,1.44,0,0,1,.33-.25.86.86,0,0,1,.41-.08.92.92,0,0,1,.5.14.88.88,0,0,1,.33.4,1.58,1.58,0,0,1,.11.61,1.72,1.72,0,0,1-.07.47,1.31,1.31,0,0,1-.2.37.73.73,0,0,1-.31.24.86.86,0,0,1-.39.09l-.25,0a.93.93,0,0,1-.2-.08l-.13-.11a1.47,1.47,0,0,1-.15-.17v.06a.33.33,0,0,1-.09.24.22.22,0,0,1-.19.08.24.24,0,0,1-.19-.08.33.33,0,0,1-.07-.25l0-2.49a.45.45,0,0,1,.07-.26.25.25,0,0,1,.2-.09.23.23,0,0,1,.2.09A.36.36,0,0,1,985.48,273.91Zm0,1.7a.81.81,0,0,0,.15.52.49.49,0,0,0,.41.19.47.47,0,0,0,.37-.18.76.76,0,0,0,.16-.53,1,1,0,0,0-.05-.39.75.75,0,0,0-.18-.26.47.47,0,0,0-.28-.09.55.55,0,0,0-.29.08.61.61,0,0,0-.21.26A1.13,1.13,0,0,0,985.48,275.61Z" transform="translate(-769.48 -215.36)" style="fill: #1a9649;stroke: #fff;stroke-miterlimit: 10;stroke-width: 0.306714276538349px"/>
            <path d="M989.2,275.79l-1.12,0a.71.71,0,0,0,.08.34.48.48,0,0,0,.19.23.57.57,0,0,0,.28.08l.19,0,.17-.07.14-.11.18-.16a.21.21,0,0,1,.12,0,.2.2,0,0,1,.15.05.17.17,0,0,1,0,.13.38.38,0,0,1-.06.18.89.89,0,0,1-.19.2,1.12,1.12,0,0,1-.31.15,1.4,1.4,0,0,1-.43.06,1.07,1.07,0,0,1-1.14-1.18,1.4,1.4,0,0,1,.08-.47,1,1,0,0,1,.23-.37.86.86,0,0,1,.35-.23,1.45,1.45,0,0,1,.47-.08,1.27,1.27,0,0,1,.58.15,1,1,0,0,1,.35.37,1,1,0,0,1,.11.46c0,.14,0,.24-.12.28A.85.85,0,0,1,989.2,275.79Zm-1.12-.34h1A.7.7,0,0,0,989,275a.46.46,0,0,0-.36-.15.48.48,0,0,0-.35.14A.75.75,0,0,0,988.08,275.45Z" transform="translate(-769.48 -215.36)" style="fill: #1a9649;stroke: #fff;stroke-miterlimit: 10;stroke-width: 0.306714276538349px"/>
            <path d="M990.14,276.47l0-2.47a.45.45,0,0,1,.08-.26.29.29,0,0,1,.42,0,.35.35,0,0,1,.07.26l0,2.48a.38.38,0,0,1-.08.26.28.28,0,0,1-.21.08.27.27,0,0,1-.21-.09A.4.4,0,0,1,990.14,276.47Z" transform="translate(-769.48 -215.36)" style="fill: #1a9649;stroke: #fff;stroke-miterlimit: 10;stroke-width: 0.306714276538349px"/>
            <path d="M991.3,276.49l0-2.48a.47.47,0,0,1,.08-.26.3.3,0,0,1,.21-.08.26.26,0,0,1,.21.09.34.34,0,0,1,.07.26l0,2.48a.4.4,0,0,1-.08.26.32.32,0,0,1-.21.08.24.24,0,0,1-.2-.09A.35.35,0,0,1,991.3,276.49Z" transform="translate(-769.48 -215.36)" style="fill: #1a9649;stroke: #fff;stroke-miterlimit: 10;stroke-width: 0.306714276538349px"/>
            <path d="M993,274v.88a1.5,1.5,0,0,1,.33-.26,1,1,0,0,1,.42-.08.87.87,0,0,1,.82.54,1.42,1.42,0,0,1,.11.61,1.72,1.72,0,0,1-.07.47,1,1,0,0,1-.2.37.76.76,0,0,1-.31.25,1,1,0,0,1-.39.08.69.69,0,0,1-.25,0,.93.93,0,0,1-.2-.08.75.75,0,0,1-.13-.11l-.15-.16v0a.33.33,0,0,1-.08.24.23.23,0,0,1-.2.08.24.24,0,0,1-.19-.08.37.37,0,0,1-.07-.25l0-2.49a.47.47,0,0,1,.07-.26.25.25,0,0,1,.2-.09.29.29,0,0,1,.2.09A.36.36,0,0,1,993,274Zm0,1.7a.78.78,0,0,0,.14.53.57.57,0,0,0,.41.19.46.46,0,0,0,.37-.19.82.82,0,0,0,.17-.53,1.14,1.14,0,0,0-.06-.39.55.55,0,0,0-.18-.26.45.45,0,0,0-.28-.09.48.48,0,0,0-.29.09.53.53,0,0,0-.21.25A1,1,0,0,0,993,275.71Z" transform="translate(-769.48 -215.36)" style="fill: #98c465;stroke: #fff;stroke-miterlimit: 10;stroke-width: 0.306714276538349px"/>
            <path d="M997.29,275.76a1.78,1.78,0,0,1-.09.47,1,1,0,0,1-.24.36,1,1,0,0,1-.36.23,1.19,1.19,0,0,1-.47.08,1.11,1.11,0,0,1-.46-.09,1.13,1.13,0,0,1-.36-.24,1.28,1.28,0,0,1-.23-.37,1.45,1.45,0,0,1-.07-.47,1.21,1.21,0,0,1,.09-.48,1,1,0,0,1,.59-.59,1.22,1.22,0,0,1,.47-.08,1.19,1.19,0,0,1,.47.09,1.13,1.13,0,0,1,.36.24,1.07,1.07,0,0,1,.22.37A1.46,1.46,0,0,1,997.29,275.76Zm-.58,0a.84.84,0,0,0-.14-.55.5.5,0,0,0-.41-.2.53.53,0,0,0-.5.34.94.94,0,0,0-.07.39.87.87,0,0,0,.06.4.54.54,0,0,0,.19.25.52.52,0,0,0,.71-.09A.81.81,0,0,0,996.71,275.75Z" transform="translate(-769.48 -215.36)" style="fill: #98c465;stroke: #fff;stroke-miterlimit: 10;stroke-width: 0.306714276538349px"/>
            <path d="M998.19,277l0-.13-.68-1.78a.66.66,0,0,1-.06-.22.28.28,0,0,1,0-.13.27.27,0,0,1,.11-.1.22.22,0,0,1,.13,0,.23.23,0,0,1,.19.08.82.82,0,0,1,.11.23l.46,1.41L999,275a1.61,1.61,0,0,1,.1-.25.31.31,0,0,1,.09-.12.29.29,0,0,1,.14,0,.28.28,0,0,1,.13,0,.2.2,0,0,1,.09.09.28.28,0,0,1,0,.13.53.53,0,0,0,0,.11.88.88,0,0,1-.05.15l-.77,1.94a3.08,3.08,0,0,1-.19.4.75.75,0,0,1-.25.22,1.23,1.23,0,0,1-.79,0,.19.19,0,0,1-.12-.2.2.2,0,0,1,.06-.15.3.3,0,0,1,.18-.05h.09l.09,0a.35.35,0,0,0,.16,0,.24.24,0,0,0,.1-.1A1.9,1.9,0,0,0,998.19,277Z" transform="translate(-769.48 -215.36)" style="fill: #98c465;stroke: #fff;stroke-miterlimit: 10;stroke-width: 0.306714276538349px"/>
          </g>
          <path d="M985.48,273.91v.87a1.44,1.44,0,0,1,.33-.25.86.86,0,0,1,.41-.08.92.92,0,0,1,.5.14.88.88,0,0,1,.33.4,1.58,1.58,0,0,1,.11.61,1.72,1.72,0,0,1-.07.47,1.31,1.31,0,0,1-.2.37.73.73,0,0,1-.31.24.86.86,0,0,1-.39.09l-.25,0a.93.93,0,0,1-.2-.08l-.13-.11a1.47,1.47,0,0,1-.15-.17v.06a.33.33,0,0,1-.09.24.22.22,0,0,1-.19.08.24.24,0,0,1-.19-.08.33.33,0,0,1-.07-.25l0-2.49a.45.45,0,0,1,.07-.26.25.25,0,0,1,.2-.09.23.23,0,0,1,.2.09A.36.36,0,0,1,985.48,273.91Zm0,1.7a.81.81,0,0,0,.15.52.49.49,0,0,0,.41.19.47.47,0,0,0,.37-.18.76.76,0,0,0,.16-.53,1,1,0,0,0-.05-.39.75.75,0,0,0-.18-.26.47.47,0,0,0-.28-.09.55.55,0,0,0-.29.08.61.61,0,0,0-.21.26A1.13,1.13,0,0,0,985.48,275.61Z" transform="translate(-769.48 -215.36)" style="fill: #f9a31e"/>
          <path d="M989.2,275.79l-1.12,0a.71.71,0,0,0,.08.34.48.48,0,0,0,.19.23.57.57,0,0,0,.28.08l.19,0,.17-.07.14-.11.18-.16a.21.21,0,0,1,.12,0,.2.2,0,0,1,.15.05.17.17,0,0,1,0,.13.38.38,0,0,1-.06.18.89.89,0,0,1-.19.2,1.12,1.12,0,0,1-.31.15,1.4,1.4,0,0,1-.43.06,1.07,1.07,0,0,1-1.14-1.18,1.4,1.4,0,0,1,.08-.47,1,1,0,0,1,.23-.37.86.86,0,0,1,.35-.23,1.45,1.45,0,0,1,.47-.08,1.27,1.27,0,0,1,.58.15,1,1,0,0,1,.35.37,1,1,0,0,1,.11.46c0,.14,0,.24-.12.28A.85.85,0,0,1,989.2,275.79Zm-1.12-.34h1A.7.7,0,0,0,989,275a.46.46,0,0,0-.36-.15.48.48,0,0,0-.35.14A.75.75,0,0,0,988.08,275.45Z" transform="translate(-769.48 -215.36)" style="fill: #f9a31e"/>
          <path d="M990.14,276.47l0-2.47a.45.45,0,0,1,.08-.26.29.29,0,0,1,.42,0,.35.35,0,0,1,.07.26l0,2.48a.38.38,0,0,1-.08.26.28.28,0,0,1-.21.08.27.27,0,0,1-.21-.09A.4.4,0,0,1,990.14,276.47Z" transform="translate(-769.48 -215.36)" style="fill: #f9a31e"/>
          <path d="M991.3,276.49l0-2.48a.47.47,0,0,1,.08-.26.3.3,0,0,1,.21-.08.26.26,0,0,1,.21.09.34.34,0,0,1,.07.26l0,2.48a.4.4,0,0,1-.08.26.32.32,0,0,1-.21.08.24.24,0,0,1-.2-.09A.35.35,0,0,1,991.3,276.49Z" transform="translate(-769.48 -215.36)" style="fill: #f9a31e"/>
          <path d="M993,274v.88a1.5,1.5,0,0,1,.33-.26,1,1,0,0,1,.42-.08.87.87,0,0,1,.82.54,1.42,1.42,0,0,1,.11.61,1.72,1.72,0,0,1-.07.47,1,1,0,0,1-.2.37.76.76,0,0,1-.31.25,1,1,0,0,1-.39.08.69.69,0,0,1-.25,0,.93.93,0,0,1-.2-.08.75.75,0,0,1-.13-.11l-.15-.16v0a.33.33,0,0,1-.08.24.23.23,0,0,1-.2.08.24.24,0,0,1-.19-.08.37.37,0,0,1-.07-.25l0-2.49a.47.47,0,0,1,.07-.26.25.25,0,0,1,.2-.09.29.29,0,0,1,.2.09A.36.36,0,0,1,993,274Zm0,1.7a.78.78,0,0,0,.14.53.57.57,0,0,0,.41.19.46.46,0,0,0,.37-.19.82.82,0,0,0,.17-.53,1.14,1.14,0,0,0-.06-.39.55.55,0,0,0-.18-.26.45.45,0,0,0-.28-.09.48.48,0,0,0-.29.09.53.53,0,0,0-.21.25A1,1,0,0,0,993,275.71Z" transform="translate(-769.48 -215.36)" style="fill: #76bb43"/>
          <path d="M997.29,275.76a1.78,1.78,0,0,1-.09.47,1,1,0,0,1-.24.36,1,1,0,0,1-.36.23,1.19,1.19,0,0,1-.47.08,1.11,1.11,0,0,1-.46-.09,1.13,1.13,0,0,1-.36-.24,1.28,1.28,0,0,1-.23-.37,1.45,1.45,0,0,1-.07-.47,1.21,1.21,0,0,1,.09-.48,1,1,0,0,1,.59-.59,1.22,1.22,0,0,1,.47-.08,1.19,1.19,0,0,1,.47.09,1.13,1.13,0,0,1,.36.24,1.07,1.07,0,0,1,.22.37A1.46,1.46,0,0,1,997.29,275.76Zm-.58,0a.84.84,0,0,0-.14-.55.5.5,0,0,0-.41-.2.53.53,0,0,0-.5.34.94.94,0,0,0-.07.39.87.87,0,0,0,.06.4.54.54,0,0,0,.19.25.52.52,0,0,0,.71-.09A.81.81,0,0,0,996.71,275.75Z" transform="translate(-769.48 -215.36)" style="fill: #76bb43"/>
          <path d="M998.19,277l0-.13-.68-1.78a.66.66,0,0,1-.06-.22.28.28,0,0,1,0-.13.27.27,0,0,1,.11-.1.22.22,0,0,1,.13,0,.23.23,0,0,1,.19.08.82.82,0,0,1,.11.23l.46,1.41L999,275a1.61,1.61,0,0,1,.1-.25.31.31,0,0,1,.09-.12.29.29,0,0,1,.14,0,.28.28,0,0,1,.13,0,.2.2,0,0,1,.09.09.28.28,0,0,1,0,.13.53.53,0,0,0,0,.11.88.88,0,0,1-.05.15l-.77,1.94a3.08,3.08,0,0,1-.19.4.75.75,0,0,1-.25.22,1.23,1.23,0,0,1-.79,0,.19.19,0,0,1-.12-.2.2.2,0,0,1,.06-.15.3.3,0,0,1,.18-.05h.09l.09,0a.35.35,0,0,0,.16,0,.24.24,0,0,0,.1-.1A1.9,1.9,0,0,0,998.19,277Z" transform="translate(-769.48 -215.36)" style="fill: #76bb43"/>
          <g>
            <path d="M964,257.54a1.31,1.31,0,0,1-.24.28,1.37,1.37,0,0,1-.28.21,1,1,0,0,1-.29.1.66.66,0,0,1-.28,0,.35.35,0,0,1-.2-.11.3.3,0,0,1-.08-.19.59.59,0,0,1,0-.25,1.28,1.28,0,0,1,.17-.29,1.31,1.31,0,0,1,.24-.28,1.21,1.21,0,0,1,.26-.2,1,1,0,0,1,.27-.1.61.61,0,0,1,.27,0,.38.38,0,0,1,.2.1.31.31,0,0,1,.09.18.6.6,0,0,1,0,.26A1.39,1.39,0,0,1,964,257.54Zm-.3-.06a.66.66,0,0,0,.14-.35.15.15,0,0,0-.13-.17.4.4,0,0,0-.18,0,.61.61,0,0,0-.2.14,1.14,1.14,0,0,0-.2.23,1,1,0,0,0-.14.24.38.38,0,0,0,0,.18.14.14,0,0,0,.12.09.35.35,0,0,0,.3-.07A1,1,0,0,0,963.73,257.48Z" transform="translate(-769.48 -215.36)" style="fill: #fff"/>
            <path d="M964.7,258.25l0-.05-.2.12-.19.06h-.18a.2.2,0,0,1-.16-.09.22.22,0,0,1,0-.18,1,1,0,0,1,.17-.33l.45-.71a.45.45,0,0,1,.13-.16.19.19,0,0,1,.14,0,.07.07,0,0,1,.07.07s0,.09,0,.17l-.36.58-.12.21a.26.26,0,0,0,0,.14s0,.06.09.07a.37.37,0,0,0,.18,0,.64.64,0,0,0,.19-.13,2.09,2.09,0,0,0,.24-.34c.09-.14.18-.29.26-.44a.57.57,0,0,1,.14-.16.19.19,0,0,1,.14,0,.07.07,0,0,1,.07.07s0,.09,0,.17c-.2.36-.41.71-.64,1.06a.41.41,0,0,1-.14.15.16.16,0,0,1-.14,0,.08.08,0,0,1-.07-.07A.35.35,0,0,1,964.7,258.25Z" transform="translate(-769.48 -215.36)" style="fill: #fff"/>
            <path d="M965.8,258.06l-.18.31a.59.59,0,0,1-.15.16.24.24,0,0,1-.15,0,.09.09,0,0,1-.08-.07.32.32,0,0,1,.07-.17c.21-.35.41-.69.6-1,.1-.16.19-.24.29-.23a.06.06,0,0,1,.07.07.3.3,0,0,1,0,.18,1,1,0,0,1,.2-.17.31.31,0,0,1,.19,0,.21.21,0,0,1,.15.07.15.15,0,0,1,0,.17.36.36,0,0,1-.1.11.19.19,0,0,1-.11,0l-.07,0a.13.13,0,0,0-.1,0,.31.31,0,0,0-.13,0l-.14.12-.14.2Z" transform="translate(-769.48 -215.36)" style="fill: #fff"/>
            <path d="M958.83,258.35l-.23-.1-.4.38a.62.62,0,0,1-.17.1.17.17,0,0,1-.14,0,.08.08,0,0,1,0-.08.28.28,0,0,1,.1-.14c.37-.33.72-.67,1.06-1a.53.53,0,0,1,.17-.12.26.26,0,0,1,.15,0l.33.14a.41.41,0,0,1,.19.11.16.16,0,0,1,.06.13.28.28,0,0,1,0,.17.7.7,0,0,1-.14.19.89.89,0,0,1-.42.27A.7.7,0,0,1,958.83,258.35Zm.56-.65-.17-.07-.41.42.17.07a.59.59,0,0,0,.17,0,.45.45,0,0,0,.16,0,.48.48,0,0,0,.15-.11.26.26,0,0,0,.09-.17C959.55,257.8,959.5,257.75,959.39,257.7Z" transform="translate(-769.48 -215.36)" style="fill: #fff"/>
            <path d="M960,259l-.48-.18a.88.88,0,0,0-.12.17.2.2,0,0,0,0,.13.11.11,0,0,0,.08.08l.1,0h.1l.11,0,.15,0s0,0,.07,0a.05.05,0,0,1,0,0s0,0,0,.07a.29.29,0,0,1-.1.07.49.49,0,0,1-.17.06.71.71,0,0,1-.21,0,.54.54,0,0,1-.21-.05c-.16-.06-.23-.15-.22-.28a.68.68,0,0,1,.25-.43,1.5,1.5,0,0,1,.24-.2,1,1,0,0,1,.25-.13.82.82,0,0,1,.25-.06.59.59,0,0,1,.23,0,.27.27,0,0,1,.19.15.28.28,0,0,1,0,.22.65.65,0,0,1-.15.23.31.31,0,0,1-.17.11A.37.37,0,0,1,960,259Zm-.33-.33.44.17a.42.42,0,0,0,.12-.23.12.12,0,0,0-.09-.12.31.31,0,0,0-.21,0A.88.88,0,0,0,959.69,258.63Z" transform="translate(-769.48 -215.36)" style="fill: #fff"/>
            <path d="M960.6,259.28l-.21.22a.51.51,0,0,1-.16.11.2.2,0,0,1-.13,0,.08.08,0,0,1-.05-.07.34.34,0,0,1,.08-.14c.24-.24.47-.49.69-.74s.2-.17.28-.14.06,0,0,.07a.24.24,0,0,1-.08.13,1,1,0,0,1,.2-.09.25.25,0,0,1,.17,0,.2.2,0,0,1,.11.09.11.11,0,0,1,0,.14.26.26,0,0,1-.11.07.1.1,0,0,1-.09,0s0,0-.05,0l-.08,0h-.12a.38.38,0,0,0-.13.08,1.53,1.53,0,0,0-.16.13Z" transform="translate(-769.48 -215.36)" style="fill: #fff"/>
            <path d="M961.92,259.72a.79.79,0,0,1-.22.19.77.77,0,0,1-.27.08.67.67,0,0,1-.28,0,.38.38,0,0,1-.2-.12.19.19,0,0,1,0-.16.34.34,0,0,1,.07-.15l.1-.07h.11a0,0,0,0,1,0,0,.23.23,0,0,1,0,.07.2.2,0,0,0,0,.13.19.19,0,0,0,.12.09h.16a.32.32,0,0,0,.13-.07.14.14,0,0,0,0-.13.37.37,0,0,0-.11-.11.51.51,0,0,1-.15-.14.19.19,0,0,1,0-.14.4.4,0,0,1,.09-.17.86.86,0,0,1,.18-.14.63.63,0,0,1,.23-.08.53.53,0,0,1,.25,0,.59.59,0,0,1,.16.07.25.25,0,0,1,.08.1.17.17,0,0,1,0,.1.19.19,0,0,1-.05.1.16.16,0,0,1-.09.07.14.14,0,0,1-.11,0s0,0-.05,0v-.09a.14.14,0,0,0,0-.09A.13.13,0,0,0,962,259h-.14a.21.21,0,0,0-.11.07.09.09,0,0,0,0,.08.15.15,0,0,0,.05.07l.12.09a.4.4,0,0,1,.13.13.17.17,0,0,1,0,.14A.29.29,0,0,1,961.92,259.72Z" transform="translate(-769.48 -215.36)" style="fill: #fff"/>
            <path d="M963.3,259.81l-.23.23a1,1,0,0,1-.26.16.92.92,0,0,1-.27.08.69.69,0,0,1-.25,0,.32.32,0,0,1-.18-.1A.26.26,0,0,1,962,260a.63.63,0,0,1,.05-.21,2,2,0,0,1,.16-.24,2.5,2.5,0,0,1,.23-.23,1.75,1.75,0,0,1,.25-.16,1.29,1.29,0,0,1,.26-.08.65.65,0,0,1,.24,0,.38.38,0,0,1,.18.09.22.22,0,0,1,.07.16.41.41,0,0,1,0,.21A2.36,2.36,0,0,1,963.3,259.81Zm-.27-.06a.72.72,0,0,0,.15-.29.14.14,0,0,0-.12-.15.31.31,0,0,0-.16,0,.5.5,0,0,0-.2.11,1.13,1.13,0,0,0-.19.19,1,1,0,0,0-.13.2.2.2,0,0,0,0,.15.11.11,0,0,0,.1.08.39.39,0,0,0,.27-.05A1,1,0,0,0,963,259.75Z" transform="translate(-769.48 -215.36)" style="fill: #fff"/>
            <path d="M964.07,259.46s0,0,0,0a.79.79,0,0,1,.26-.13.62.62,0,0,1,.23,0,.2.2,0,0,1,.15.09.18.18,0,0,1,0,.16.69.69,0,0,1-.05.13l-.11.17-.41.56a.58.58,0,0,1-.15.13.2.2,0,0,1-.13,0,.06.06,0,0,1-.06-.06.27.27,0,0,1,.06-.14c.13-.17.26-.33.38-.5a1,1,0,0,0,.13-.24c0-.05,0-.09-.09-.1a.28.28,0,0,0-.17,0,.58.58,0,0,0-.18.11,2.42,2.42,0,0,0-.2.24l-.29.37a.44.44,0,0,1-.15.13.2.2,0,0,1-.13,0s-.06,0-.06-.06a.21.21,0,0,1,.07-.14l.65-.85a.36.36,0,0,1,.13-.12.14.14,0,0,1,.12,0,.09.09,0,0,1,0,0,.06.06,0,0,1,0,.06A.19.19,0,0,1,964.07,259.46Z" transform="translate(-769.48 -215.36)" style="fill: #fff"/>
            <path d="M965.1,260.62a1.53,1.53,0,0,1-.29.11,1,1,0,0,1-.24,0,.34.34,0,0,1-.16-.08.19.19,0,0,1,0-.15.4.4,0,0,1,.09-.17.6.6,0,0,1,.22-.2.51.51,0,0,1,.28-.09l.15,0h.21l.19,0a.35.35,0,0,0,.08-.19s0-.07-.12-.08a.5.5,0,0,0-.18,0,.37.37,0,0,0-.15.08l-.12.08a.1.1,0,0,1-.08,0,0,0,0,0,1-.05,0,.1.1,0,0,1,0-.09.46.46,0,0,1,.16-.15.88.88,0,0,1,.24-.11.76.76,0,0,1,.3,0,.43.43,0,0,1,.25.08.15.15,0,0,1,0,.17,1.45,1.45,0,0,1-.14.29l-.13.18a1.36,1.36,0,0,1-.12.17,1.14,1.14,0,0,0-.1.19c0,.06,0,.11-.06.12a.22.22,0,0,1-.1.09.19.19,0,0,1-.12,0,0,0,0,0,1,0-.05A.38.38,0,0,1,965.1,260.62Zm.3-.45a.69.69,0,0,1-.22,0l-.18,0-.12,0a.23.23,0,0,0-.12.1.16.16,0,0,0,0,.12s0,.06.09.07a.37.37,0,0,0,.18,0,.51.51,0,0,0,.18-.09.89.89,0,0,0,.2-.22Z" transform="translate(-769.48 -215.36)" style="fill: #fff"/>
            <path d="M965.65,260.68c.31-.45.61-.91.89-1.37a.58.58,0,0,1,.12-.14.18.18,0,0,1,.13,0s.07,0,.07.05a.21.21,0,0,1-.05.15c-.27.47-.57.93-.88,1.38a.37.37,0,0,1-.14.14.22.22,0,0,1-.13,0s-.07,0-.07-.07A.3.3,0,0,1,965.65,260.68Z" transform="translate(-769.48 -215.36)" style="fill: #fff"/>
            <path d="M956.61,260.15c0-.07.09-.13.13-.19l-.52-.27-.26.12-.23.08a.19.19,0,0,1-.13,0,.08.08,0,0,1,0-.08.18.18,0,0,1,.07-.09l.08,0,.13-.06c.45-.18.9-.38,1.34-.59l.13-.07.14-.06.12,0,.12,0a.13.13,0,0,1,.06.07.11.11,0,0,1,0,.08l0,.08-.08.12c-.21.32-.43.64-.66.95a.52.52,0,0,1-.13.15.35.35,0,0,1-.14.06.21.21,0,0,1-.14,0s0,0,0,0a0,0,0,0,1,0,0,.27.27,0,0,1,0-.07Zm-.08-.6.39.2.44-.6Z" transform="translate(-769.48 -215.36)" style="fill: #fff"/>
            <path d="M958.05,260.6a.76.76,0,0,1-.26.15.67.67,0,0,1-.28,0,.73.73,0,0,1-.29-.07.35.35,0,0,1-.18-.15.18.18,0,0,1,0-.16.28.28,0,0,1,.11-.13.16.16,0,0,1,.11,0,.2.2,0,0,1,.11,0s0,0,0,0a.25.25,0,0,1,0,.07.17.17,0,0,0,0,.13s0,.07.11.1a.41.41,0,0,0,.16,0,.46.46,0,0,0,.14-.05s.07-.08.06-.12a.31.31,0,0,0-.1-.12.66.66,0,0,1-.12-.16.16.16,0,0,1,0-.15.29.29,0,0,1,.11-.15.53.53,0,0,1,.21-.11.7.7,0,0,1,.25-.05.57.57,0,0,1,.25.06l.15.09a.3.3,0,0,1,.06.11.17.17,0,0,1,0,.1.22.22,0,0,1-.07.09.24.24,0,0,1-.11.06.14.14,0,0,1-.11,0,.07.07,0,0,1,0-.05.51.51,0,0,1,0-.09s0-.06,0-.08,0-.05-.08-.07a.23.23,0,0,0-.14,0,.19.19,0,0,0-.13.05.09.09,0,0,0,0,.07.1.1,0,0,0,0,.08l.1.11a.32.32,0,0,1,.11.14.23.23,0,0,1,0,.14A.31.31,0,0,1,958.05,260.6Z" transform="translate(-769.48 -215.36)" style="fill: #fff"/>
            <path d="M959.08,261a1.28,1.28,0,0,1-.25.15,1,1,0,0,1-.29.05,1,1,0,0,1-.29-.07.49.49,0,0,1-.19-.14.19.19,0,0,1,0-.16.33.33,0,0,1,.1-.14.22.22,0,0,1,.11-.05h.11s0,0,0,0a.19.19,0,0,1,0,.07.2.2,0,0,0,0,.14s0,.07.12.09a.22.22,0,0,0,.16,0,.22.22,0,0,0,.14-.05q.08-.06.06-.12a.36.36,0,0,0-.11-.12l-.13-.15a.21.21,0,0,1,0-.15.32.32,0,0,1,.12-.16.56.56,0,0,1,.2-.12.7.7,0,0,1,.25-.05.53.53,0,0,1,.25.05.48.48,0,0,1,.16.08.23.23,0,0,1,.07.11.17.17,0,0,1,0,.1.21.21,0,0,1-.06.1.24.24,0,0,1-.11.06.14.14,0,0,1-.11,0s-.05,0-.05-.05a.34.34,0,0,1,0-.09.11.11,0,0,0,0-.08.1.1,0,0,0-.08-.06.26.26,0,0,0-.15,0,.22.22,0,0,0-.12.05.1.1,0,0,0,0,.08.2.2,0,0,0,0,.08l.11.1a.47.47,0,0,1,.12.14.17.17,0,0,1,0,.14A.37.37,0,0,1,959.08,261Z" transform="translate(-769.48 -215.36)" style="fill: #fff"/>
            <path d="M960.17,260.66c-.26.25-.53.49-.81.73a.35.35,0,0,1-.16.1.17.17,0,0,1-.14,0s-.06,0,0-.07,0-.08.09-.13c.28-.23.54-.47.8-.72a.59.59,0,0,1,.16-.1.15.15,0,0,1,.13,0s.06,0,0,.07A.19.19,0,0,1,960.17,260.66Zm.15-.31s-.06,0-.06-.07a.17.17,0,0,1,.06-.11.33.33,0,0,1,.13-.07.2.2,0,0,1,.13,0,.06.06,0,0,1,0,.06s0,.07-.06.11a.26.26,0,0,1-.13.08A.17.17,0,0,1,960.32,260.35Z" transform="translate(-769.48 -215.36)" style="fill: #fff"/>
            <path d="M960.69,261.61a1,1,0,0,1-.25.16,1,1,0,0,1-.29.07,1,1,0,0,1-.3,0,.53.53,0,0,1-.2-.13.23.23,0,0,1,0-.16.31.31,0,0,1,.09-.14.24.24,0,0,1,.11-.06.15.15,0,0,1,.11,0s.05,0,.05,0a.31.31,0,0,1,0,.08.22.22,0,0,0,0,.13.19.19,0,0,0,.12.09.33.33,0,0,0,.17,0,.26.26,0,0,0,.14-.06c0-.05.07-.09,0-.12a.36.36,0,0,0-.11-.12.69.69,0,0,1-.15-.14.21.21,0,0,1,0-.15.32.32,0,0,1,.1-.16.86.86,0,0,1,.2-.13.77.77,0,0,1,.26-.07.58.58,0,0,1,.26,0,.48.48,0,0,1,.16.08.19.19,0,0,1,.08.1.14.14,0,0,1,0,.11.2.2,0,0,1-.05.09.41.41,0,0,1-.11.07h-.11s0,0,0-.05V261a.11.11,0,0,0,0-.08s0-.05-.09-.06a.26.26,0,0,0-.15,0,.23.23,0,0,0-.12.06.1.1,0,0,0,0,.08.12.12,0,0,0,0,.07l.12.1a.55.55,0,0,1,.13.14.15.15,0,0,1,0,.13A.3.3,0,0,1,960.69,261.61Z" transform="translate(-769.48 -215.36)" style="fill: #fff"/>
            <path d="M961.65,261h0l.15-.16.1-.11.08-.06.09,0h.08a.09.09,0,0,1,.06.07.13.13,0,0,1,0,.07l-.09.11a1.54,1.54,0,0,0-.17.19l.09,0s.06,0,.06.06,0,.05,0,.08a.27.27,0,0,1-.12.06.34.34,0,0,1-.14,0h0l-.5.49-.09.1,0,.06a0,0,0,0,0,0,0l.07,0h.08s0,0,0,0a.09.09,0,0,1,0,.07.3.3,0,0,1-.17.08.55.55,0,0,1-.25,0,.26.26,0,0,1-.15-.1.16.16,0,0,1,0-.14,1.36,1.36,0,0,1,.18-.21l.52-.51h0s-.06,0-.06-.06a.12.12,0,0,1,0-.08l.1-.06Z" transform="translate(-769.48 -215.36)" style="fill: #fff"/>
            <path d="M962.14,262.28a1.35,1.35,0,0,1-.31.07.69.69,0,0,1-.25,0,.21.21,0,0,1-.14-.09.16.16,0,0,1,0-.15.33.33,0,0,1,.11-.17.78.78,0,0,1,.26-.17.58.58,0,0,1,.29-.05h.58a.41.41,0,0,0,.1-.18s0-.07-.11-.09a.38.38,0,0,0-.18,0,.51.51,0,0,0-.18.07l-.12.06h-.09a0,0,0,0,1-.05-.05.12.12,0,0,1,0-.08.7.7,0,0,1,.19-.13.88.88,0,0,1,.26-.08,1.1,1.1,0,0,1,.31,0,.44.44,0,0,1,.24.12s0,.1,0,.17a.88.88,0,0,1-.19.26,1.36,1.36,0,0,1-.16.17l-.14.16a1.09,1.09,0,0,0-.13.17l-.08.12a.34.34,0,0,1-.12.06.3.3,0,0,1-.12,0,.07.07,0,0,1,0-.07A1.15,1.15,0,0,1,962.14,262.28Zm.37-.4h-.42l-.13,0a.31.31,0,0,0-.13.08.13.13,0,0,0-.05.12s0,.06.08.08H962a.48.48,0,0,0,.2-.07,1.07,1.07,0,0,0,.23-.19Z" transform="translate(-769.48 -215.36)" style="fill: #fff"/>
            <path d="M963.7,261.63l0,0a1.46,1.46,0,0,1,.28-.11.5.5,0,0,1,.24,0,.22.22,0,0,1,.16.08.17.17,0,0,1,0,.17.49.49,0,0,1-.06.13l-.12.16-.48.54a.61.61,0,0,1-.16.13.24.24,0,0,1-.14,0s-.07,0-.07-.07a.24.24,0,0,1,.08-.13c.15-.16.29-.33.43-.49a.49.49,0,0,0,.15-.23c0-.05,0-.09-.09-.1a.27.27,0,0,0-.17,0,.54.54,0,0,0-.2.1l-.24.24c-.11.12-.21.24-.33.36a.36.36,0,0,1-.16.12.24.24,0,0,1-.14,0,.07.07,0,0,1-.06-.07s0-.08.08-.14c.26-.27.51-.54.75-.82a.47.47,0,0,1,.14-.12.21.21,0,0,1,.13,0l0,0a.08.08,0,0,1,0,.07A.27.27,0,0,1,963.7,261.63Z" transform="translate(-769.48 -215.36)" style="fill: #fff"/>
            <path d="M964.86,261.68h0l.14-.18.09-.11.08-.07.08,0s.06,0,.09,0,.06,0,.06.05a.11.11,0,0,1,0,.08l-.09.12-.16.21h.11s.06,0,.06.05,0,0,0,.08a.21.21,0,0,1-.11.08H965c-.15.18-.3.37-.46.55l-.09.11,0,.06s0,0,.05,0h.15s0,0,0,0a.13.13,0,0,1,0,.08.35.35,0,0,1-.18.1h-.25c-.09,0-.15-.05-.17-.09a.15.15,0,0,1,0-.14l.17-.23.48-.57h0s-.06,0-.06,0,0-.05,0-.08a.18.18,0,0,1,.09-.08A.28.28,0,0,1,964.86,261.68Z" transform="translate(-769.48 -215.36)" style="fill: #fff"/>
            <path d="M961.75,257.53l.43-.57c0-.27.09-.53.13-.79a1.39,1.39,0,0,1,0-.17.19.19,0,0,1,0-.09.23.23,0,0,1,.12-.1.13.13,0,0,1,.12,0,.08.08,0,0,1,.07.07s0,.1,0,.19-.07.43-.11.64c.23-.16.45-.33.66-.49l.1-.08.08-.06s.05,0,.08,0h.07a.1.1,0,0,1,.07.07.27.27,0,0,1,0,.12.41.41,0,0,1-.09.1l-.15.12c-.28.21-.57.41-.86.61s-.29.39-.43.58a.6.6,0,0,1-.18.15.17.17,0,0,1-.15,0,.08.08,0,0,1-.07-.08A.3.3,0,0,1,961.75,257.53Z" transform="translate(-769.48 -215.36)" style="fill: #fff"/>
          </g>
          <g>
            <path d="M972.36,217.55l.52.83a1,1,0,0,1,.18-.37.82.82,0,0,1,.37-.26,1.24,1.24,0,0,1,.6-.07,1.29,1.29,0,0,1,.57.24,1.68,1.68,0,0,1,.49.53,2.19,2.19,0,0,1,.22.47,1.12,1.12,0,0,1,0,.44.76.76,0,0,1-.17.35.73.73,0,0,1-.35.24.9.9,0,0,1-.27.07.78.78,0,0,1-.26,0l-.2-.05-.26-.09,0,.05a.34.34,0,0,1,.06.26.22.22,0,0,1-.15.16.36.36,0,0,1-.25,0,.51.51,0,0,1-.22-.2l-1.49-2.37a.43.43,0,0,1-.09-.27.21.21,0,0,1,.15-.17.39.39,0,0,1,.26,0A.58.58,0,0,1,972.36,217.55Zm1,1.6a1,1,0,0,0,.48.43.65.65,0,0,0,.53,0,.39.39,0,0,0,.26-.32.76.76,0,0,0-.16-.57,1.31,1.31,0,0,0-.3-.35.81.81,0,0,0-.34-.16.5.5,0,0,0-.34,0,.44.44,0,0,0-.24.2.49.49,0,0,0,0,.32A1,1,0,0,0,973.4,219.15Z" transform="translate(-769.48 -215.36)" style="fill: #fff"/>
            <path d="M975,216.5l.53.83a1,1,0,0,1,.18-.38.89.89,0,0,1,.37-.25,1.1,1.1,0,0,1,.59-.07,1.17,1.17,0,0,1,.58.23,1.93,1.93,0,0,1,.49.53,1.8,1.8,0,0,1,.21.48.8.8,0,0,1,0,.43.66.66,0,0,1-.16.36,1,1,0,0,1-.35.24,1.28,1.28,0,0,1-.28.07H977l-.2,0-.26-.1,0,.06a.34.34,0,0,1,.06.26.26.26,0,0,1-.15.16.36.36,0,0,1-.25,0,.54.54,0,0,1-.22-.21l-1.49-2.36a.44.44,0,0,1-.09-.28.2.2,0,0,1,.15-.16.3.3,0,0,1,.26,0A.44.44,0,0,1,975,216.5Zm1.05,1.6a1.06,1.06,0,0,0,.47.43.7.7,0,0,0,.53,0,.42.42,0,0,0,.27-.33.81.81,0,0,0-.16-.57,1.26,1.26,0,0,0-.3-.34.84.84,0,0,0-.34-.17.65.65,0,0,0-.34,0,.44.44,0,0,0-.24.2.51.51,0,0,0-.06.33A1.23,1.23,0,0,0,976.09,218.1Z" transform="translate(-769.48 -215.36)" style="fill: #fff"/>
          </g>
          <path d="M981.8,324.46c0-.76-4.71-11.2-5.68-13.3a60.87,60.87,0,0,1-3.11-8.63,10.84,10.84,0,0,0-1.39-3.71c-.29-.29-5.47-5.76-5.93-6.56s-2.82-2.11-4-3.2-1.39-2.29-2-2.5-1.29-.36-1.29-.36c.05-.42.17-4.42.17-4.42l-.78-.11-.23,0-.52-.08-.28-.05-.44-.07-.31-.05-.39-.08-.32-.06-.35-.07-.33-.07-.32-.06L954,281l-.29-.07-.34-.08-.25-.06-.35-.09-.23-.06-.35-.1-.2-.06-.35-.1-.17-.05a21,21,0,0,1-2.05-.72l-.17-.06-.05,0,0,0-.15-.06a17.67,17.67,0,0,1-3.63-2h0l-.15-.11h0l-.15-.11a13.8,13.8,0,0,1-.74,4,4.08,4.08,0,0,0,0,4.06,15.37,15.37,0,0,0,3.07,2.89h0s5.2,3.06,8.44,4.62l.07-.09,1.15.65a3.3,3.3,0,0,1,.86.5c8.26,4.91,8.33,7.28,8.25,7.78a.94.94,0,0,0,.77,1.15c.64.17,1.27.56,1.15,1.16s-.48,1.18.73,1.93,1.05,2.11,1.42,4.59,2.78,6.92,3.68,7.44,3.46,4.3,4.22,6,1.32,1.79,1.32,1.79h0a1.41,1.41,0,0,0,.75-.19c-.29-1.74-4-7.69-4.72-8.93.75,1.28,4.67,7.45,4.72,8.93a4.42,4.42,0,0,0,1.68-.92A.41.41,0,0,1,981.8,324.46Z" transform="translate(-769.48 -215.36)" style="fill: #76bb43"/>
          <path d="M994.9,264.71a.62.62,0,0,1,.12.29c.05.47-.47.91-1.18,1l-2.55.29c-.71.07-1.33-.24-1.38-.71a.57.57,0,0,1,0-.26.72.72,0,0,0-.22.59c.06.52.74.86,1.51.78l2.79-.31c.78-.09,1.35-.57,1.29-1.09A.8.8,0,0,0,994.9,264.71Z" transform="translate(-769.48 -215.36)" style="fill: #fff"/>
          <path d="M992.93,266.1a5.29,5.29,0,0,0,1.45-.25,1.36,1.36,0,0,0,.53-.42.92.92,0,0,0,.12-.3c0-.11,0-.39-.16-.45l-.15-.06a.66.66,0,0,1-.63.6s-.68-.05-.73.31A.93.93,0,0,1,992.93,266.1Z" transform="translate(-769.48 -215.36)" style="fill: #e6af73"/>
        </g>
      </g>
      <text transform="translate(37.48 161.44)" style="font-size: 26.755428314208984px;fill: #bfbebe;font-family: CenturyGothic, Century Gothic">Your personal assistant</text>
    </g>
  </g>
</svg>
