<svg id="Layer_1" data-name="Layer 1" xmlns="http://www.w3.org/2000/svg" xmlns:xlink="http://www.w3.org/1999/xlink" viewBox="0 0 200 200"><defs><style>.cls-1{opacity:0.7;}.cls-2{fill:url(#linear-gradient);}.cls-3,.cls-5,.cls-6{fill:#fff;}.cls-4,.cls-5,.cls-6{isolation:isolate;}.cls-5{font-size:12.31px;font-family:Montserrat-Light, Montserrat;}.cls-6{font-size:21.04px;font-family:Montserrat-SemiBold, Montserrat;font-weight:700;}</style><linearGradient id="linear-gradient" x1="112.08" y1="82.04" x2="112.08" y2="81.04" gradientTransform="matrix(181.33, 0, 0, -55.14, -20222.63, 4599.55)" gradientUnits="userSpaceOnUse"><stop offset="0" stop-color="#050606"/><stop offset="1" stop-color="#575958"/></linearGradient></defs><title>App store</title><g id="Group_3002" data-name="Group 3002" class="cls-1"><rect id="Rectangle_452" data-name="Rectangle 452" class="cls-2" x="9.33" y="75.62" width="181.33" height="55.14" rx="1.95" ry="1.95"/><g id="Group_3000" data-name="Group 3000"><path id="Path_6708" data-name="Path 6708" class="cls-3" d="M20.59,98.15c-2.94,5.1-1.07,12.85,2.18,17.55,1.63,2.34,3.27,4.45,5.52,4.45h.13a6.9,6.9,0,0,0,2.56-.68,7,7,0,0,1,3-.72,6.75,6.75,0,0,1,2.89.69,6,6,0,0,0,2.76.67c2.54,0,4.1-2.32,5.47-4.33a19,19,0,0,0,2.4-4.91v0a.29.29,0,0,0-.15-.35h0A7.25,7.25,0,0,1,43,103.83a7.47,7.47,0,0,1,3.54-6.26l0,0a.28.28,0,0,0,.09-.39h0a8.21,8.21,0,0,0-6.47-3.51,5.25,5.25,0,0,0-.56,0,11.44,11.44,0,0,0-4.07,1,6.6,6.6,0,0,1-1.94.59,6.65,6.65,0,0,1-2-.59,9.74,9.74,0,0,0-3.55-.9h-.09A8.71,8.71,0,0,0,20.59,98.15Z"/><path id="Path_6709" data-name="Path 6709" class="cls-3" d="M40.14,85.36a7.89,7.89,0,0,0-5.24,2.69A7.4,7.4,0,0,0,33,93.57a.29.29,0,0,0,.26.24l.37,0a6.76,6.76,0,0,0,5-2.54,7.84,7.84,0,0,0,1.84-5.68A.28.28,0,0,0,40.14,85.36Z"/></g><g id="Group_3001" data-name="Group 3001"><g id="Download_on_the" data-name="Download on the" class="cls-4"><text class="cls-5" transform="translate(59.33 93.83)">Download on the</text></g><g id="App_Store" data-name="App Store" class="cls-4"><text class="cls-6" transform="translate(58.8 116.28)">App Store</text></g></g></g></svg>