<svg id="Layer_1" data-name="Layer 1" xmlns="http://www.w3.org/2000/svg" viewBox="0 0 200 200"><defs><style>.cls-1{fill:#e2e2e2;opacity:0.51;isolation:isolate;}.cls-2{fill:#72af44;}.cls-3{fill:#639b42;}.cls-4{fill:#7e7e7e;}.cls-5{fill:#f5841f;}.cls-6{fill:#212636;}.cls-7{fill:#fff;}.cls-8{fill:#3d455c;}.cls-9{fill:#3567b0;}.cls-10{fill:#767576;}.cls-11{fill:#4d4c4d;}.cls-12{fill:#f6901e;}.cls-13{fill:#154a96;}.cls-14{fill:#76bb43;}.cls-15,.cls-21{fill:none;}.cls-16{fill:#035c65;}.cls-17{fill:#d5d5bc;}.cls-18{fill:#dad6ba;}.cls-19{fill:#eb5524;}.cls-20{fill:#f68f1e;}.cls-21{stroke:#577234;stroke-linejoin:round;stroke-width:0.19px;}.cls-22{fill:#107abf;}.cls-23{fill:#696969;}.cls-24{fill:#1a1717;}.cls-25{fill:#f26e21;}.cls-26{fill:#e5a68d;stroke:#0595d3;stroke-width:0.32px;}.cls-26,.cls-36,.cls-37{stroke-miterlimit:10;}.cls-27{fill:#d0753b;}.cls-28{fill:#e9a861;}.cls-29{fill:#17181a;}.cls-30{fill:#de9254;}.cls-31,.cls-37{fill:#94ba4f;}.cls-32{fill:#343c41;}.cls-33{fill:#f26f21;}.cls-34{fill:#d4d3bc;}.cls-35{fill:#d9d5ba;}.cls-36{fill:#2e8742;}.cls-36,.cls-37{stroke:#fff;stroke-width:1.9px;}</style></defs><title>Cycle copy</title><ellipse id="Ellipse_120" data-name="Ellipse 120" class="cls-1" cx="92.62" cy="182.78" rx="3.75" ry="38.63" transform="matrix(0, -1, 1, 0, -90.35, 275.03)"/><ellipse id="Ellipse_120-2" data-name="Ellipse 120" class="cls-1" cx="110.06" cy="182.64" rx="7.43" ry="76.62" transform="translate(-72.8 292.33) rotate(-89.88)"/><g id="Group_2859" data-name="Group 2859"><g id="Group_2858" data-name="Group 2858"><path id="Path_4862" data-name="Path 4862" class="cls-2" d="M137.83,158.74a12.59,12.59,0,0,1-3.63.94c-5,.74-8.07-1.24-9.94-1a34.92,34.92,0,0,1-5.51,0c-.08,2.48,1.39,2.11,2.67,1.88,1.46-.26,2.62-.39,8.25.45s8.22-1.29,8.22-1.29A.74.74,0,0,0,137.83,158.74Z"/><path id="Path_4863" data-name="Path 4863" class="cls-2" d="M129.27,158.41l.6.2.69-1.87-.75-.09Z"/><path id="Path_4864" data-name="Path 4864" class="cls-2" d="M127,158.07l.43.06.8-1.68-.53-.08Z"/><path id="Path_4865" data-name="Path 4865" class="cls-2" d="M125.79,155.84l-.94,1.61.52.21,1-1.58A6.44,6.44,0,0,1,125.79,155.84Z"/><path id="Path_4866" data-name="Path 4866" class="cls-2" d="M123.15,156.25a.68.68,0,0,0,.48.42L125,155.4c-.16-.09-.3-.19-.45-.29Z"/><path id="Path_4867" data-name="Path 4867" class="cls-2" d="M122.16,155.37l1.38-1a6.33,6.33,0,0,1-.46-.44l-1.3.9Z"/><path id="Path_4868" data-name="Path 4868" class="cls-2" d="M125.29,156.7l-.43.75.51.21.47-.72A5.38,5.38,0,0,1,125.29,156.7Z"/><path id="Path_4869" data-name="Path 4869" class="cls-2" d="M127,158.07l.43.06.31-.65-.46-.11Z"/><path id="Path_4870" data-name="Path 4870" class="cls-2" d="M129.27,158.41l.6.2.26-.69-.68-.11Z"/><g id="Group_2852" data-name="Group 2852"><path id="Path_4871" data-name="Path 4871" class="cls-2" d="M136.31,157.68c-1.06.64-3.6.61-6.18.24l-.26.69-.6-.2.18-.6c-.58-.09-1.15-.2-1.69-.33l-.31.65-.43-.06.28-.7-.52-.13a9.65,9.65,0,0,1-.94-.3l-.47.72-.51-.21.43-.75c-1.07-.56-.64-1.06-.31-1.29h0l-1.33,1.27a.68.68,0,0,1-.48-.42l1.36-1.14a7.76,7.76,0,0,1-1-.74l-1.38,1-.38-.54,1.3-.9a2.22,2.22,0,0,1-.66-1.1,5.85,5.85,0,0,1-2.59.29c0,.08-.51.08-1-.15a10.9,10.9,0,0,1,.07,4.54,8.13,8.13,0,0,0-.12,1.2,36.16,36.16,0,0,0,5.51,0c1.87-.27,5,1.72,9.93,1a12.69,12.69,0,0,0,3.64-.94A3.77,3.77,0,0,0,136.31,157.68Z"/></g><g id="Group_2853" data-name="Group 2853"><path id="Path_4872" data-name="Path 4872" class="cls-2" d="M128.25,156.45l-.49,1c.55.13,1.11.24,1.69.33l.36-1.16C129.25,156.59,128.72,156.52,128.25,156.45Z"/></g><g id="Group_2854" data-name="Group 2854"><path id="Path_4873" data-name="Path 4873" class="cls-2" d="M126.63,156.16l-.23-.08-.56.86a9.65,9.65,0,0,0,.94.3l.52.13.41-1A10.28,10.28,0,0,1,126.63,156.16Z"/></g><g id="Group_2855" data-name="Group 2855"><path id="Path_4874" data-name="Path 4874" class="cls-2" d="M125.29,156.7l.5-.86a7.82,7.82,0,0,1-.81-.43C124.65,155.64,124.22,156.14,125.29,156.7Z"/></g><g id="Group_2856" data-name="Group 2856"><path id="Path_4875" data-name="Path 4875" class="cls-2" d="M130.56,156.74l-.43,1.18c2.58.37,5.12.4,6.18-.24l-.24-.09A37.2,37.2,0,0,0,130.56,156.74Z"/></g><path id="Path_4876" data-name="Path 4876" class="cls-2" d="M120.77,153.18c.44-2-2.61-11.35-3.17-13.28C118.14,141.76,121,150.81,120.77,153.18Z"/><g id="Group_2857" data-name="Group 2857"><path id="Path_4877" data-name="Path 4877" class="cls-2" d="M118.13,118.36a17,17,0,0,1-.06-6,4.57,4.57,0,0,0-3.35-5.18c-3.43-.91-9.59-1.3-20.54.75l-18.75,3.28c.14,2.33.8,4.48,2.6,5.37l32.41-1s-.39,5.44,3,19.87l5.19,18,4-.51Z"/></g></g></g><g id="Group_2861" data-name="Group 2861"><g id="Group_2860" data-name="Group 2860"><path id="Path_4878" data-name="Path 4878" class="cls-3" d="M137.9,158.74a12.69,12.69,0,0,1-3.64.94c-5,.74-8.06-1.24-9.93-1a35,35,0,0,1-5.52,0c-.07,2.48,1.39,2.11,2.67,1.88,1.46-.26,2.63-.39,8.25.45s8.23-1.29,8.23-1.29A.75.75,0,0,0,137.9,158.74Z"/><path id="Path_4879" data-name="Path 4879" class="cls-3" d="M129.33,158.41l.61.2.69-1.87-.76-.09Z"/><path id="Path_4880" data-name="Path 4880" class="cls-3" d="M127.08,158.07l.44.06.79-1.68-.53-.08Z"/><path id="Path_4881" data-name="Path 4881" class="cls-3" d="M125.85,155.84l-.93,1.61.52.21,1-1.58C126.26,156,126.05,155.93,125.85,155.84Z"/><path id="Path_4882" data-name="Path 4882" class="cls-3" d="M123.22,156.25a.68.68,0,0,0,.48.42L125,155.4l-.45-.29Z"/><path id="Path_4883" data-name="Path 4883" class="cls-3" d="M122.23,155.37l1.37-1a4.67,4.67,0,0,1-.45-.44l-1.3.9Z"/><path id="Path_4884" data-name="Path 4884" class="cls-3" d="M125.35,156.7l-.43.75.52.21.47-.72A5.55,5.55,0,0,1,125.35,156.7Z"/><path id="Path_4885" data-name="Path 4885" class="cls-3" d="M127.08,158.07l.44.06.3-.65-.45-.11Z"/><path id="Path_4886" data-name="Path 4886" class="cls-3" d="M129.33,158.41l.61.2.25-.69-.67-.1Z"/><path id="Path_4887" data-name="Path 4887" class="cls-3" d="M136.38,157.68c-1.06.64-3.61.61-6.19.24l-.25.69-.61-.2.19-.6c-.58-.09-1.15-.2-1.7-.33l-.3.65-.44-.06.29-.7-.53-.13c-.37-.1-.67-.2-.94-.3l-.46.72-.52-.21.43-.75c-1.06-.56-.63-1.06-.31-1.29h0l-1.32,1.27a.68.68,0,0,1-.48-.42l1.35-1.14a9.57,9.57,0,0,1-1-.74l-1.37,1-.38-.54,1.3-.9a2.22,2.22,0,0,1-.66-1.1,5.85,5.85,0,0,1-2.59.29c0,.08-.51.08-1-.15a10.57,10.57,0,0,1,.08,4.54,8.13,8.13,0,0,0-.12,1.2,36.16,36.16,0,0,0,5.51,0c1.87-.27,5,1.72,9.93,1a12.69,12.69,0,0,0,3.64-.94A3.77,3.77,0,0,0,136.38,157.68Z"/><path id="Path_4888" data-name="Path 4888" class="cls-3" d="M128.31,156.45l-.49,1c.55.13,1.12.24,1.7.34l.35-1.17C129.32,156.59,128.79,156.52,128.31,156.45Z"/><path id="Path_4889" data-name="Path 4889" class="cls-3" d="M126.7,156.16l-.23-.08-.56.86a9.37,9.37,0,0,0,.93.3l.53.13.41-1C127.34,156.3,127,156.23,126.7,156.16Z"/><path id="Path_4890" data-name="Path 4890" class="cls-3" d="M125.35,156.7l.5-.86c-.27-.13-.54-.27-.81-.43C124.72,155.64,124.29,156.14,125.35,156.7Z"/><path id="Path_4891" data-name="Path 4891" class="cls-3" d="M130.63,156.74l-.44,1.18c2.58.37,5.13.4,6.19-.24l-.24-.09A37.42,37.42,0,0,0,130.63,156.74Z"/><path id="Path_4892" data-name="Path 4892" class="cls-3" d="M120.83,153.18c.45-2-2.61-11.35-3.16-13.28C118.2,141.76,121,150.81,120.83,153.18Z"/><path id="Path_4893" data-name="Path 4893" class="cls-3" d="M118.2,118.36a16.74,16.74,0,0,1-.07-6,4.56,4.56,0,0,0-3.35-5.18c-3.43-.91-9.59-1.3-20.53.75L75.5,111.18c.13,2.33.8,4.48,2.6,5.37l32.4-1s-.38,5.44,3,19.87l5.19,18,4-.51Z"/></g></g><path id="Path_4894" data-name="Path 4894" class="cls-4" d="M104.23,128.33s-4.25,26.36,2.39,27.58,27-2.24,27.29-2.24,5,5.58-4.17,8.59-29.42,1.91-29.72,2-2.75-2.58-2.75-2.58"/><path id="Path_4895" data-name="Path 4895" class="cls-5" d="M59,133.34c-.21.38-.82,1.87.57,2s8.73-.2,8.86-.47.55-1.54.55-1.54,32.14,1.74,33.79.35,1.56-2.28,1.56-2.28l-38.88.21"/><path id="Path_4896" data-name="Path 4896" class="cls-6" d="M173,166.29a17,17,0,1,1-.66-4.72A17,17,0,0,1,173,166.29Z"/><circle id="Ellipse_113" data-name="Ellipse 113" class="cls-7" cx="155.93" cy="166.29" r="8.52"/><path id="Path_4897" data-name="Path 4897" class="cls-8" d="M170.92,163a12.73,12.73,0,0,0-.46-1.94,15.08,15.08,0,0,0-1.71-3.66,10.18,10.18,0,0,0-1.48-1.73c-.14-.14-.33.06-.21.21.4.52.75,1.06,1.11,1.61a13.39,13.39,0,0,1,2.06,5.38c.06.36.09.72.12,1.08a4.16,4.16,0,0,0,.19,1.1.22.22,0,0,0,.26.13.21.21,0,0,0,.13-.13A4.18,4.18,0,0,0,170.92,163Z"/><path id="Path_4898" data-name="Path 4898" class="cls-8" d="M171,166.56a.19.19,0,0,0-.2-.19.19.19,0,0,0-.19.19,14.18,14.18,0,0,1-.24,1.59c-.05.27-.11.52-.16.78a1.82,1.82,0,0,0-.1.8.19.19,0,0,0,.22.12l.07,0a1.6,1.6,0,0,0,.34-.72,8.33,8.33,0,0,0,.17-.84A7.9,7.9,0,0,0,171,166.56Z"/><path id="Path_4899" data-name="Path 4899" class="cls-8" d="M165.77,154.86a1.91,1.91,0,0,0-.54-1,4.4,4.4,0,0,0-.85-.7.2.2,0,0,0-.28.07.23.23,0,0,0,0,.25,4.6,4.6,0,0,1,.75.71,6.15,6.15,0,0,0,.68.76.12.12,0,0,0,.18,0A.11.11,0,0,0,165.77,154.86Z"/><path id="Path_4900" data-name="Path 4900" class="cls-6" d="M81.94,168.11a17,17,0,1,1-.66-4.72A17,17,0,0,1,81.94,168.11Z"/><circle id="Ellipse_114" data-name="Ellipse 114" class="cls-7" cx="64.89" cy="168.11" r="8.52"/><path id="Path_4901" data-name="Path 4901" class="cls-8" d="M79.88,164.86a12,12,0,0,0-.46-2,14.48,14.48,0,0,0-1.71-3.65,9.75,9.75,0,0,0-1.47-1.73c-.15-.14-.33.06-.21.21.4.51.75,1.06,1.1,1.6a14.17,14.17,0,0,1,1,1.7,13.94,13.94,0,0,1,1.12,3.69c0,.36.09.72.12,1.07a3.68,3.68,0,0,0,.19,1.1.2.2,0,0,0,.25.14.2.2,0,0,0,.14-.14A4.15,4.15,0,0,0,79.88,164.86Z"/><path id="Path_4902" data-name="Path 4902" class="cls-8" d="M80,168.38a.2.2,0,0,0-.4,0,12.18,12.18,0,0,1-.23,1.59c-.05.26-.11.52-.17.78a2,2,0,0,0-.1.8.19.19,0,0,0,.22.12.18.18,0,0,0,.07,0,1.45,1.45,0,0,0,.34-.73,5.84,5.84,0,0,0,.18-.83A9.47,9.47,0,0,0,80,168.38Z"/><path id="Path_4903" data-name="Path 4903" class="cls-8" d="M74.74,156.68a2,2,0,0,0-.54-1,5.19,5.19,0,0,0-.85-.7.21.21,0,0,0-.28.08.21.21,0,0,0,0,.25,5,5,0,0,1,.74.71,7.06,7.06,0,0,0,.69.76.12.12,0,0,0,.18,0A.11.11,0,0,0,74.74,156.68Z"/><path id="Path_4904" data-name="Path 4904" class="cls-9" d="M70.66,165a3.24,3.24,0,0,0-.12-.62,4.44,4.44,0,0,0-.51-1.08,5.24,5.24,0,0,0-.72-.91,4.47,4.47,0,0,0-1-.68.38.38,0,0,0-.46.09.35.35,0,0,0,0,.47,5.68,5.68,0,0,1,.73.74,4.33,4.33,0,0,1,.57.78,4.69,4.69,0,0,1,.38.86c.05.17.1.33.16.5s.11.46.33.58a.39.39,0,0,0,.46-.06A.77.77,0,0,0,70.66,165Z"/><path id="Path_4905" data-name="Path 4905" class="cls-10" d="M172.31,160.62c-5.24.56-20.26,1-23.53,1.47-3,.38-7.54,4.62-9.55,6.66a16.3,16.3,0,0,1-.34-3.41,16.93,16.93,0,0,1,3.72-10.63c.34-.25,3.52-1.57,3.52-1.57l6.2-1.66,7.14-.49h4.61L167,152.4A17,17,0,0,1,172.31,160.62Z"/><path id="Path_4906" data-name="Path 4906" class="cls-11" d="M138.27,99.92c.19.08,5.23,8-.57,11"/><path id="Path_4907" data-name="Path 4907" class="cls-4" d="M129.65,100.81v-.14c0-.43,0-.86,0-1.29,0-.86.1-1.72.17-2.58.14-1.57.35-3.13.62-4.69a3.16,3.16,0,0,0,2-.8A5.11,5.11,0,0,0,134,89.85a3.3,3.3,0,0,0,.31-2.37,6,6,0,0,0-.72-2.33,2.54,2.54,0,0,0-2.09-1.24.34.34,0,0,0-.33.24q-.57,3.39-1.09,6.8a.41.41,0,0,0,0,.19l0,.13c-.16.85-.3,1.71-.43,2.57-.24,1.71-.4,3.43-.47,5.15,0,.49,0,1,0,1.48,0,.19,0,.39,0,.58a7,7,0,0,0-1.39,1,4.84,4.84,0,0,0,0-.53c0-.85-.14-1.7-.24-2.55a17.6,17.6,0,0,0-.73-3.59,4.9,4.9,0,0,0,.62-3,7.79,7.79,0,0,0-.61-2.22c-.16-.36-.33-.71-.52-1a3.21,3.21,0,0,0-.67-1,.27.27,0,0,0-.1-.06.59.59,0,0,0-.34-.15h0a.34.34,0,0,0-.17,0v-.07a.19.19,0,0,0-.2-.19.2.2,0,0,0-.17.09.23.23,0,0,0-.24.16,13,13,0,0,0-.44,2.25c-.12.76-.22,1.53-.32,2.3s-.18,1.52-.26,2.28c0,.4-.08.79-.11,1.18s-.09.73-.1,1.1a.57.57,0,0,0,.37.56.27.27,0,0,0,.32.11.75.75,0,0,0,.18-.07,2.14,2.14,0,0,0,.85-.32c.29-.2.58-.41.85-.63a4.71,4.71,0,0,0,.69-.65c.06.17.11.34.16.51a27.63,27.63,0,0,1,.69,4.8c0,.43.06.87.07,1.31a6,6,0,0,0-1.27,2.44c-1.56,6,9.78,6.79,9.78,6.79l.27-11.74A13.85,13.85,0,0,0,129.65,100.81Z"/><path id="Path_4908" data-name="Path 4908" class="cls-11" d="M135.24,98.57v14.18s2.24.2,2.3,0,1-14.18,1-14.18"/><path id="Path_4909" data-name="Path 4909" class="cls-11" d="M135.24,100.67h3.18l-.09,1.32h-3.09"/><path id="Path_4910" data-name="Path 4910" class="cls-11" d="M132.71,100.91a.23.23,0,0,0-.22-.17,4.8,4.8,0,0,0-.76.11,7,7,0,0,0-.69.15c-.23.06-.45.14-.67.22a1.24,1.24,0,0,0-.59.41.12.12,0,0,0,0,.17h.06a1.92,1.92,0,0,0,.65-.18,4.84,4.84,0,0,1,.65-.19l.67-.13a5.38,5.38,0,0,0,.7-.12.23.23,0,0,0,.17-.22A.13.13,0,0,1,132.71,100.91Z"/><path id="Path_4911" data-name="Path 4911" class="cls-11" d="M133.89,100.8a.3.3,0,0,0-.08-.08.32.32,0,0,0-.14,0h-.12l-.29,0a.13.13,0,0,0-.07.05.11.11,0,0,0,0,.08.08.08,0,0,0,0,.07.1.1,0,0,0,.08.06l.29,0h.12a.23.23,0,0,0,.14,0,.2.2,0,0,0,.08-.08A.12.12,0,0,0,133.89,100.8Z"/><path id="Path_4912" data-name="Path 4912" class="cls-11" d="M139.17,102.42h0a.52.52,0,0,0-.06-.16l0,0s0-.08,0-.12a1,1,0,0,0,0-.1L139,102l0,0,0,0-.07-.05a.15.15,0,0,0-.2,0,.14.14,0,0,0,0,.06.33.33,0,0,0,0,.22l0,.14s0,.07,0,.1a.29.29,0,0,0,0,.09.21.21,0,0,0,.11.15.27.27,0,0,0,.12,0,.24.24,0,0,0,.11-.06A.29.29,0,0,0,139.17,102.42Z"/><path id="Path_4913" data-name="Path 4913" class="cls-7" d="M140.09,105.71a6.89,6.89,0,0,0-.16-1.28,6.32,6.32,0,0,0-.18-.62,1.1,1.1,0,0,0-.31-.53.14.14,0,0,0-.19,0s0,0,0,0a1.54,1.54,0,0,0,.1.56q.09.3.15.6a6.56,6.56,0,0,1,0,2.38l-.12.58a1.36,1.36,0,0,0-.07.6.15.15,0,0,0,.18.1h0a.91.91,0,0,0,.29-.51A3.6,3.6,0,0,0,140,107,7.26,7.26,0,0,0,140.09,105.71Z"/><path id="Path_4914" data-name="Path 4914" class="cls-4" d="M107.83,116.46s-.41,4.53-1.21,8.83a31.29,31.29,0,0,1-1.54,5.78c-1.81,4.28-41.9.72-44.16,0-1.7-.53-1.54-5.07-1.08-8.9.16-1.27.35-2.47.51-3.42C61,115,64.7,117,64.72,117.06Z"/><path id="Path_4915" data-name="Path 4915" class="cls-11" d="M106.62,125.29a31.29,31.29,0,0,1-1.54,5.78c-1.81,4.28-41.9.72-44.16,0-1.7-.53-1.54-5.07-1.08-8.9h0c2.3,2.08,2.11,7,4.09,7.55s37.92,1.62,40.3-1.39C105.29,127,106.06,126,106.62,125.29Z"/><path id="Path_4916" data-name="Path 4916" class="cls-12" d="M128.51,110.15a2,2,0,1,1-2-2h0A2,2,0,0,1,128.51,110.15Z"/><path id="Path_4917" data-name="Path 4917" class="cls-10" d="M47.85,166.62s34.1.52,34.09,0,.45-2.83,0-4.05-33.57-.82-33.57-.82"/><path id="Path_4918" data-name="Path 4918" class="cls-12" d="M50.18,133.14c.36.68,4.12,5.94,4.12,5.94l1.22-1-3.76-5.25"/><path id="Path_4919" data-name="Path 4919" class="cls-13" d="M56.2,137.59a3.29,3.29,0,0,0-2.4,1.95"/><rect id="Rectangle_424" data-name="Rectangle 424" class="cls-12" x="26.11" y="86.29" width="38.78" height="42.04"/><rect id="Rectangle_425" data-name="Rectangle 425" class="cls-14" x="24.69" y="125.37" width="40.72" height="2.95"/><rect id="Rectangle_426" data-name="Rectangle 426" class="cls-2" x="24.08" y="85.37" width="41.33" height="2.24"/><path id="Path_4920" data-name="Path 4920" class="cls-14" d="M26.11,89.09l38.78-1.48H26.11"/><path id="Path_4921" data-name="Path 4921" class="cls-7" d="M136.05,114.31s13.78,24.09,13.3,25.65,1,1.36,1.22,1.09,0-3.06,0-3.06L136.9,114.31"/><rect id="Rectangle_427" data-name="Rectangle 427" class="cls-2" x="25.23" y="97.01" width="1.7" height="6.51" rx="0.32" ry="0.32"/><rect id="Rectangle_428" data-name="Rectangle 428" class="cls-14" x="23.84" y="98.09" width="1.7" height="4.34" rx="0.32" ry="0.32"/><path id="Path_4922" data-name="Path 4922" class="cls-7" d="M155.09,143.8c-.78-.06,14.66-2.4,19.13,10.1,0,0-.67,2-1.25,1.12S168.52,144.82,155.09,143.8Z"/><path id="Path_4937" data-name="Path 4937" class="cls-15" d="M71.5,84l-.24-.1Z"/><path id="Path_4938" data-name="Path 4938" class="cls-15" d="M70.81,83.71l.34.1Z"/><path id="Path_4939" data-name="Path 4939" class="cls-16" d="M71.26,83.85l-.11,0Z"/><path id="Path_4941" data-name="Path 4941" class="cls-17" d="M136.37,159.79a12.35,12.35,0,0,1-3.63.93c-5,.75-8.07-1.24-9.94-1a33.76,33.76,0,0,1-5.51,0c-.08,2.49,1.39,2.11,2.67,1.88,1.46-.25,2.62-.39,8.25.45s8.22-1.28,8.22-1.28A.74.74,0,0,0,136.37,159.79Z"/><path id="Path_4942" data-name="Path 4942" class="cls-18" d="M127.81,159.46l.6.19.7-1.86-.76-.09Z"/><path id="Path_4943" data-name="Path 4943" class="cls-18" d="M125.56,159.11l.43.06.8-1.68-.53-.08Z"/><path id="Path_4944" data-name="Path 4944" class="cls-18" d="M124.33,156.88l-.93,1.61.51.21,1-1.57A6.5,6.5,0,0,1,124.33,156.88Z"/><path id="Path_4945" data-name="Path 4945" class="cls-18" d="M121.69,157.29a.75.75,0,0,0,.49.43l1.32-1.28-.45-.28Z"/><path id="Path_4946" data-name="Path 4946" class="cls-18" d="M120.71,156.42l1.37-1a6.17,6.17,0,0,1-.46-.43l-1.29.9Z"/><path id="Path_4947" data-name="Path 4947" class="cls-15" d="M123.83,157.74l-.43.75.51.21.47-.72A3.82,3.82,0,0,1,123.83,157.74Z"/><path id="Path_4948" data-name="Path 4948" class="cls-15" d="M125.56,159.11l.43.06.31-.65-.45-.1Z"/><path id="Path_4949" data-name="Path 4949" class="cls-15" d="M127.81,159.46l.6.19.26-.69-.68-.1Z"/><path id="Path_4950" data-name="Path 4950" class="cls-19" d="M126.79,157.5l-.49,1c.55.13,1.12.24,1.69.34l.36-1.16Z"/><path id="Path_4951" data-name="Path 4951" class="cls-19" d="M125.17,157.2l-.23-.07-.56.85a9.65,9.65,0,0,0,.94.3l.53.14.41-1C125.82,157.34,125.44,157.27,125.17,157.2Z"/><path id="Path_4952" data-name="Path 4952" class="cls-19" d="M123.83,157.74l.5-.86a7.82,7.82,0,0,1-.81-.43C123.2,156.69,122.76,157.18,123.83,157.74Z"/><path id="Path_4953" data-name="Path 4953" class="cls-19" d="M129.1,157.79l-.43,1.17c2.57.38,5.12.4,6.18-.23a1.33,1.33,0,0,0-.24-.1A37.51,37.51,0,0,0,129.1,157.79Z"/><path id="Path_4954" data-name="Path 4954" class="cls-20" d="M80.84,53.73l-2.46,1.76a18.59,18.59,0,0,0-5.51,14.08.88.88,0,0,0,0,.16l.6,2.86s0,.08,0,.11l1.57,19.85,0,11.5,17.59.26S87,74.12,88.14,63.11a8,8,0,0,0-.64-4.22A12.13,12.13,0,0,0,84,54.28S82,55.53,80.84,53.73Z"/><path id="Path_4955" data-name="Path 4955" class="cls-20" d="M81.7,59.49c1,.51,5.18,3.22,8.83,13.07A.91.91,0,0,1,90,73.71h0L80.29,76.9s-10.44-18.29,1-17.53A.93.93,0,0,1,81.7,59.49Z"/><path id="Path_4956" data-name="Path 4956" class="cls-21" d="M88,110.42c1.07-.78,4.71-1.47,4.71-1.47L87,108.72l5.68.23a8.51,8.51,0,0,0-5.35-1.07"/><path id="Path_4957" data-name="Path 4957" class="cls-22" d="M119.31,154.23c.44-2-2.61-11.36-3.16-13.28C116.68,142.81,119.52,151.85,119.31,154.23Z"/><path id="Path_4958" data-name="Path 4958" class="cls-7" d="M100.63,163.24s.4-.61,1.56,0,17,3,25.31-1.55c0,0,2.65-2,3.33-1.25s-2.85,3.28-5.5,4.36S102.12,168.06,100.63,163.24Z"/><path id="Path_4959" data-name="Path 4959" class="cls-23" d="M65,133.82H24.69a2.75,2.75,0,0,1-2.75-2.74h0a2.75,2.75,0,0,1,2.75-2.75H65a2.76,2.76,0,0,1,2.75,2.75h0A2.76,2.76,0,0,1,65,133.82Z"/><path id="Path_4960" data-name="Path 4960" class="cls-7" d="M47.85,155.91c-.47.29,8.92-9.06,21.38-8.55S84,157.68,83.68,158s-2.41.5-3.67-3S68,143.8,47.85,155.91Z"/><path id="Path_4961" data-name="Path 4961" class="cls-24" d="M129.35,105.81a2.38,2.38,0,0,0-2.39-2.38,2.3,2.3,0,0,0-1.22.35h0l-1.28.81h0a2.38,2.38,0,0,0,1,4.52,2.25,2.25,0,0,0,.58-.08h0l0,0a2.34,2.34,0,0,0,1.09-.62l.61-.36a2.47,2.47,0,0,0,.67-.38l0,0h0A2.38,2.38,0,0,0,129.35,105.81Z"/><path id="Path_4962" data-name="Path 4962" class="cls-25" d="M90.51,19.06a13.3,13.3,0,0,1-3.4,3.08c.76,1.28,1.25,2.21,1.25,2.21,13.33-7,13.23-14.95,13.2-15.49C97.91,9.6,95,13.07,90.51,19.06Z"/><path id="Path_4963" data-name="Path 4963" class="cls-26" d="M85.66,50.78l.07,0-.06,0Z"/><path id="Path_4964" data-name="Path 4964" class="cls-27" d="M85.09,52.07l.57-1.29a14.94,14.94,0,0,1-3.87-2.41l-.26.92A5,5,0,0,0,85.09,52.07Z"/><path id="Path_4965" data-name="Path 4965" class="cls-28" d="M81.53,49.29l-.7,2.46-.43,1.52-.14.49H80.2l0,.12v0s0,.06,0,.09v.05s0,.06,0,.1v.05a.31.31,0,0,0,0,.1v.15a.13.13,0,0,0,0,.06.45.45,0,0,0,0,.11.09.09,0,0,0,0,0,.5.5,0,0,0,0,.12v0l0,.17,0,.06,0,.08a.25.25,0,0,0,0,.07l0,.08,0,.06,0,.08,0,.06.08.08.05.06.09.08.07.06.11.08.06,0,.2.12c1.81,1,2.17-.07,2.56-.92l.65-1.47.7-1.58A5,5,0,0,1,81.53,49.29Z"/><path id="Path_4966" data-name="Path 4966" class="cls-27" d="M89.69,39.91a12.54,12.54,0,0,0,7.15,3.7c.17-.47.33-.94.46-1.4C96.37,42.16,92,41.82,89.69,39.91Z"/><path id="Path_4967" data-name="Path 4967" class="cls-29" d="M76.87,43.69a11.62,11.62,0,0,0,1.75,2.37c1.66-.05,1-1.14.19-2.2a1.58,1.58,0,0,1-.28-.6c-.15.07-.36-.07-.54,0A4.92,4.92,0,0,1,76.87,43.69Z"/><path id="Path_4968" data-name="Path 4968" class="cls-29" d="M77.63,25.45c-.06-.26-.2-.91-.29-1.34l-.9.14c-.69.1-1.09.13-1.09.13-5.41,5.83-6.41,8.12-6.41,8.12s3.26,4.1,3.88,4.83A3.18,3.18,0,0,1,76.9,38a13.36,13.36,0,0,1,2.15,2.71,1.85,1.85,0,0,0,.33-.73,1.59,1.59,0,0,0,.06-.37c0-.55-1.1-2.17-2-4.61s-.62-2.6-.41-3.84S77.7,25.85,77.63,25.45Z"/><path id="Path_4969" data-name="Path 4969" class="cls-28" d="M79.27,41l-.22-.35A11.27,11.27,0,0,0,76.9,38c-1.73-1.66-3.24-1.19-4.08-.65-.16.1-1.46,1.12-.84,3.66a3.43,3.43,0,0,0,1.65,2.18,5.78,5.78,0,0,0,2.2.53,5.49,5.49,0,0,0,3.55-.87.83.83,0,0,0,.33-.88A3.48,3.48,0,0,0,79.27,41Z"/><path id="Path_4970" data-name="Path 4970" class="cls-30" d="M78.72,41.43c-.79-1.33-2.07-2.81-3.75-2.67a1.87,1.87,0,0,0-.76.2,2,2,0,0,0-.59,2.26,2.62,2.62,0,0,0,2.19,1.71c.31.06.61.11.92.14a3.31,3.31,0,0,0,1.53-.21,1.1,1.1,0,0,0,.6-.46A1,1,0,0,0,78.72,41.43Z"/><path id="Path_4971" data-name="Path 4971" class="cls-28" d="M74.92,40.86s1.28-.47,1.67-.08.1.57-.07.65-.3.35.34.61,1.58.21,1.53-.13-.5-.3-.75-.61a1,1,0,0,1-.26-.65,1.68,1.68,0,0,0-1.34-.6C75.55,40.1,74.92,40.86,74.92,40.86Z"/><line id="Line_52" data-name="Line 52" class="cls-15" x1="87.55" y1="23.2" x2="87.47" y2="23.18"/><path id="Path_4973" data-name="Path 4973" class="cls-28" d="M100,31.57a2.47,2.47,0,0,0-3.22-1.19,48.3,48.3,0,0,0-5.11-11.94,2,2,0,0,0,.14-.25l-.25.07-1.27-2.47a50.8,50.8,0,0,1-4.32,4l-1.44.38,0,.82c-.8.65-1.69,1.35-2.68,2.1a38.8,38.8,0,0,1-4.51,1.05c.09.43.23,1.08.29,1.34A21.2,21.2,0,0,1,77.45,28a9.06,9.06,0,0,0-.35,3l0,.2c-.21,1.24-.45,1.4.41,3.84s2,4.06,2,4.61a2.09,2.09,0,0,1-.39,1.1h0c.07.11.15.22.22.35.91,1.52.29,1.76-.74,2.22a1.5,1.5,0,0,0,.28.6c.81,1,1.47,2.15-.19,2.2a25.93,25.93,0,0,0,2.54,2.38v.05a14.22,14.22,0,0,0,3.74,2.33h0l.06,0a10.77,10.77,0,0,0,1.91.58,7.44,7.44,0,0,0,3.15-.1,4.18,4.18,0,0,0,1-.35h0l.18-.08a7.17,7.17,0,0,0,1.89-1.33,5.6,5.6,0,0,0,.6-.69,15.36,15.36,0,0,0,3.11-5.25,12.54,12.54,0,0,1-7.15-3.7c2.29,1.91,6.68,2.25,7.61,2.3a24.11,24.11,0,0,0,.89-6.91S101,33.68,100,31.57Z"/><path id="Path_4974" data-name="Path 4974" class="cls-31" d="M91,14.37c2.25-1.84,2-1.37,5.66-3.75a87.1,87.1,0,0,0-9.14,5.31l0,0c-.11-.15-.23-.3-.35-.44a17.3,17.3,0,0,0-3.46,2.32C83.43,18.38,87.94,16.85,91,14.37Z"/><path id="Path_4975" data-name="Path 4975" class="cls-25" d="M91,14.37c2.25-1.84,2-1.37,5.66-3.75a87.1,87.1,0,0,0-9.14,5.31l0,0c-.11-.15-.23-.3-.35-.44a17.3,17.3,0,0,0-3.46,2.32C83.43,18.38,87.94,16.85,91,14.37Z"/><path id="Path_4976" data-name="Path 4976" class="cls-12" d="M101.47,8.83a5.8,5.8,0,0,0-1.53.32A5.83,5.83,0,0,0,97.8,10l-1.15.58C93,13,93.24,12.53,91,14.37c-3,2.48-7.56,4-7.33,3.47a17.74,17.74,0,0,1,3.46-2.32c-2.74-3.23-9-3.77-13.78-1.84a10.36,10.36,0,0,0-3.86,2.92,17.4,17.4,0,0,0-1.45,2,20.5,20.5,0,0,0-2.77,6.68,2.75,2.75,0,0,0,0,.81,5.9,5.9,0,0,0,.36,1.15,21.51,21.51,0,0,0,2.23,3.86c.71,1,1.38,1.87,1.69,2.25h0s.72-2.12,4.71-6.74c.54-.63,1.14-1.3,1.81-2,0,0,8.11-.69,14-4.58,3-2,7.22-10.25,11.44-11.1Z"/><g id="Group_2866" data-name="Group 2866"><path id="Path_4977" data-name="Path 4977" class="cls-32" d="M92.8,29.93c.27.95,0,1.85-.54,2s-1.24-.47-1.51-1.42,0-1.86.54-2S92.53,29,92.8,29.93Z"/><path id="Path_4978" data-name="Path 4978" class="cls-7" d="M92.1,30.46c.12.45,0,.87-.26.95s-.58-.22-.7-.66,0-.87.25-.95S92,30,92.1,30.46Z"/></g><g id="Group_2868" data-name="Group 2868"><g id="Group_2867" data-name="Group 2867"><path id="Path_4979" data-name="Path 4979" class="cls-7" d="M78.36,15.17l.84.87a1.41,1.41,0,0,1,.12-.5,1.07,1.07,0,0,1,.38-.41,1.43,1.43,0,0,1,.69-.24,1.48,1.48,0,0,1,.75.14,2.3,2.3,0,0,1,.72.51,2.45,2.45,0,0,1,.38.53,1.2,1.2,0,0,1,.15.52,1,1,0,0,1-.11.48,1,1,0,0,1-.36.39,1.48,1.48,0,0,1-.31.15.94.94,0,0,1-.3.07,1,1,0,0,1-.25,0l-.33-.05,0,.06a.44.44,0,0,1,.15.3.3.3,0,0,1-.14.23.4.4,0,0,1-.3.07.56.56,0,0,1-.31-.19l-2.4-2.49a.56.56,0,0,1-.17-.32.28.28,0,0,1,.13-.24.42.42,0,0,1,.31-.07A.63.63,0,0,1,78.36,15.17ZM80,16.84a1.27,1.27,0,0,0,.68.41.81.81,0,0,0,.64-.13.53.53,0,0,0,.23-.47,1,1,0,0,0-.34-.65,1.67,1.67,0,0,0-.45-.34,1,1,0,0,0-.44-.11.7.7,0,0,0-.4.12.53.53,0,0,0-.24.31.64.64,0,0,0,0,.41,1.37,1.37,0,0,0,.3.45Z"/><path id="Path_4980" data-name="Path 4980" class="cls-7" d="M81.31,13.18l.83.87a1.33,1.33,0,0,1,.13-.51,1,1,0,0,1,.38-.4,1.39,1.39,0,0,1,.68-.24,1.48,1.48,0,0,1,.75.14,2.3,2.3,0,0,1,.72.51,2.45,2.45,0,0,1,.38.53,1.2,1.2,0,0,1,.15.52.89.89,0,0,1-.11.48.94.94,0,0,1-.36.38,1.24,1.24,0,0,1-.3.16,1.08,1.08,0,0,1-.31.07H84l-.33,0,0,.06a.38.38,0,0,1,.15.3.3.3,0,0,1-.14.23.4.4,0,0,1-.3.07.63.63,0,0,1-.31-.19l-2.4-2.49a.59.59,0,0,1-.17-.32.28.28,0,0,1,.13-.24A.42.42,0,0,1,81,13,.7.7,0,0,1,81.31,13.18ZM83,14.85a1.27,1.27,0,0,0,.68.41.86.86,0,0,0,.64-.13.49.49,0,0,0,.23-.47,1,1,0,0,0-.34-.65,1.34,1.34,0,0,0-.44-.34,1,1,0,0,0-.45-.11.72.72,0,0,0-.4.12.57.57,0,0,0-.24.31.64.64,0,0,0,0,.41A1.37,1.37,0,0,0,83,14.85Z"/></g></g><path id="Path_4981" data-name="Path 4981" class="cls-33" d="M80.18,76.88s3.14-3.09,5.74-3.63A14.2,14.2,0,0,1,90.56,73s-.32,1.78-4.64,3.12S80.18,76.88,80.18,76.88Z"/><path id="Path_4982" data-name="Path 4982" class="cls-28" d="M128.92,103.9c-1.56-2.35-8.37-.34-8.37-.34L94.21,92.41,88.32,73.12A.14.14,0,0,0,88.2,73a8.41,8.41,0,0,0-6.43,2.62l8.69,21c7.3,5.63,29.27,9.09,29.27,9.09a12.7,12.7,0,0,0,3.37.64,1.36,1.36,0,0,1,2-.93c1.65.38,1.24,2.5,1.24,2.5-.14.93.41.48.41.48a3.46,3.46,0,0,0,.15-2.2,3.6,3.6,0,0,1-.06,1.95.33.33,0,0,0,.39.28.31.31,0,0,0,.2-.11l.08-.18c.36.67.79,0,.79,0,.62-2,.39-2.56.26-2.74.49.55-.2,2.56-.2,2.56a.77.77,0,0,0,.75-.49A2.77,2.77,0,0,0,128.92,103.9Zm-1.39,4.3a4.64,4.64,0,0,0,.38-2.35,3.92,3.92,0,0,1-.38,2.35Z"/><path id="Path_4983" data-name="Path 4983" class="cls-34" d="M134.33,154.48a9.2,9.2,0,0,1-2.64.82c-3.64.72-6-.63-7.34-.36a26.1,26.1,0,0,1-4,.19c0,1.83,1.09,1.5,2,1.29s1.91-.38,6.08,0,6-1.24,6-1.24A.55.55,0,0,0,134.33,154.48Z"/><path id="Path_4984" data-name="Path 4984" class="cls-35" d="M128,154.54l.45.12.44-1.39-.56,0Z"/><path id="Path_4985" data-name="Path 4985" class="cls-35" d="M126.35,154.37l.32,0,.53-1.26-.39,0Z"/><path id="Path_4986" data-name="Path 4986" class="cls-35" d="M125.37,152.77l-.63,1.22.39.14.7-1.2A3.57,3.57,0,0,1,125.37,152.77Z"/><path id="Path_4987" data-name="Path 4987" class="cls-35" d="M123.45,153.17a.5.5,0,0,0,.37.29l.92-1-.33-.19Z"/><path id="Path_4988" data-name="Path 4988" class="cls-35" d="M122.69,152.56l1-.79a2.52,2.52,0,0,1-.35-.3l-.93.7Z"/><path id="Path_4989" data-name="Path 4989" class="cls-15" d="M125,153.42l-.29.57.39.14.32-.55A2.41,2.41,0,0,1,125,153.42Z"/><path id="Path_4990" data-name="Path 4990" class="cls-15" d="M126.35,154.37l.32,0,.21-.49-.34-.06Z"/><path id="Path_4991" data-name="Path 4991" class="cls-15" d="M128,154.54l.45.12.16-.51-.5-.05Z"/><path id="Path_4992" data-name="Path 4992" class="cls-12" d="M133.17,153.76c-.75.5-2.63.57-4.54.39l-.16.51-.45-.12.11-.44c-.42,0-.85-.11-1.25-.19l-.21.49-.32,0,.19-.52-.39-.09c-.28-.06-.51-.12-.7-.18l-.32.54-.39-.14.3-.56c-.81-.37-.51-.75-.28-.94h0l-.93,1a.51.51,0,0,1-.37-.3l1-.88a6.46,6.46,0,0,1-.74-.51l-1,.78-.3-.38.93-.71a1.63,1.63,0,0,1-.53-.78,4.35,4.35,0,0,1-1.89.3c0,.06-.38.08-.77-.07a8,8,0,0,1,.22,3.33,6.73,6.73,0,0,0,0,.89,26.1,26.1,0,0,0,4-.19c1.37-.27,3.7,1.08,7.34.36a9.52,9.52,0,0,0,2.64-.82A2.81,2.81,0,0,0,133.17,153.76Z"/><path id="Path_4993" data-name="Path 4993" class="cls-19" d="M127.2,153.14l-.32.77c.4.07.83.14,1.25.19l.22-.87Z"/><path id="Path_4994" data-name="Path 4994" class="cls-19" d="M126,153l-.17,0-.38.65a5.24,5.24,0,0,0,.7.19l.39.08.27-.75C126.48,153.06,126.2,153,126,153Z"/><path id="Path_4995" data-name="Path 4995" class="cls-19" d="M125,153.42l.34-.65c-.21-.08-.41-.18-.61-.28C124.53,152.67,124.23,153.05,125,153.42Z"/><path id="Path_4996" data-name="Path 4996" class="cls-19" d="M128.91,153.27l-.28.88c1.91.18,3.79.11,4.54-.39l-.18-.06A26.47,26.47,0,0,0,128.91,153.27Z"/><path id="Path_4997" data-name="Path 4997" class="cls-20" d="M134.85,158.73c-1,.63-3.6.61-6.18.23l-.26.69-.6-.19.18-.6c-.57-.1-1.14-.21-1.69-.34l-.31.65-.43-.06.29-.69-.53-.14a9.65,9.65,0,0,1-.94-.3l-.47.72-.51-.21.43-.75c-1.07-.56-.64-1.05-.31-1.29h0l-1.32,1.28a.71.71,0,0,1-.49-.43l1.36-1.13a8.94,8.94,0,0,1-1-.75l-1.37,1-.39-.55,1.3-.89a2.31,2.31,0,0,1-.66-1.1,6.14,6.14,0,0,1-2.59.29c0,.08-.51.08-1-.16a10.9,10.9,0,0,1,.07,4.54,9.75,9.75,0,0,0-.12,1.2,34.92,34.92,0,0,0,5.51,0c1.87-.27,5,1.72,9.94,1a12.35,12.35,0,0,0,3.63-.93A3.68,3.68,0,0,0,134.85,158.73Z"/><path id="Path_4998" data-name="Path 4998" class="cls-14" d="M74.9,104.4c-.49,1.89-2.55,10.92,1.56,13.13a.51.51,0,0,0,.25.06l31.77-1a.46.46,0,0,1,.48.45s0,0,0,0c0,1.61.19,7.39,3,19.38l5.08,17.65a.46.46,0,0,0,.51.33l3.1-.39a.48.48,0,0,0,.41-.52h0l-4.39-34.08s0,0,0,0a16.83,16.83,0,0,1-.12-5.62,5,5,0,0,0-3.66-5.66c-3.44-.83-9.43-1.13-19.74.77a.47.47,0,0,1-.53-.34l-1.05-4a.46.46,0,0,0-.45-.34l-15.77-.12A.46.46,0,0,0,74.9,104.4Z"/><path id="Path_4999" data-name="Path 4999" class="cls-12" d="M129.76,103.9c-.12,0-7.15,3.44-3.38,10.27s9.77,37.26,5.85,43-28.55,8.55-30.89,2.35,3.74-28.41,3.74-28.41-42.85-1.12-44.16,0-16.79,13.65-16.08,30.65l44.32.81a13.56,13.56,0,0,0,11.67,9.87c9.87,1.43,32.27-.1,35.53-6.1s17.2-15.48,15.88-25.65-22-36.75-22-36.75"/><path id="Path_5000" data-name="Path 5000" class="cls-14" d="M86.78,164s-.53-17.47-15.6-17.77-29.29,7.82-30,19.47h45.6"/><path id="Path_5001" data-name="Path 5001" class="cls-14" d="M135.05,169.92s6.78-5.51,12.11-10.39c0,0,29.56.63,30-.72S174.55,142,154.84,141.9C154.84,141.9,131.34,145.16,135.05,169.92Z"/><path id="Path_5002" data-name="Path 5002" class="cls-7" d="M47.85,157c-.47.28,8.92-9.06,21.38-8.55S84,158.77,83.68,159.11s-2.41.51-3.67-3S68,144.9,47.85,157Z"/><path id="Path_5003" data-name="Path 5003" class="cls-7" d="M154.52,143.8c-.77-.06,14.66-2.4,19.14,10.1,0,0-.67,2-1.25,1.12S168,144.82,154.52,143.8Z"/><g id="Group_2918" data-name="Group 2918"><g id="Group_2916" data-name="Group 2916"><g id="Group_2915" data-name="Group 2915"><path id="Path_5217" data-name="Path 5217" class="cls-36" d="M33.18,105.47l.14,1.61a2.82,2.82,0,0,1,.56-.53,1.82,1.82,0,0,1,.75-.23,1.72,1.72,0,0,1,.95.17,1.69,1.69,0,0,1,.68.67,2.67,2.67,0,0,1,.31,1.1,2.94,2.94,0,0,1,0,.89,2.11,2.11,0,0,1-.29.73,1.59,1.59,0,0,1-.53.5,1.61,1.61,0,0,1-.71.23,2.36,2.36,0,0,1-.46,0,1.21,1.21,0,0,1-.38-.12,1.67,1.67,0,0,1-.28-.18,2.61,2.61,0,0,1-.31-.27v.1a.65.65,0,0,1-.1.47.5.5,0,0,1-.35.18.41.41,0,0,1-.37-.12.67.67,0,0,1-.18-.44l-.4-4.61a.76.76,0,0,1,.08-.49.46.46,0,0,1,.35-.2A.51.51,0,0,1,33,105,.72.72,0,0,1,33.18,105.47Zm.32,3.13a1.43,1.43,0,0,0,.38.94.9.9,0,0,0,.78.27.87.87,0,0,0,.66-.4,1.59,1.59,0,0,0,.2-1,2,2,0,0,0-.19-.71.93.93,0,0,0-.38-.43.82.82,0,0,0-.53-.12.92.92,0,0,0-.52.21,1.1,1.1,0,0,0-.33.51A1.9,1.9,0,0,0,33.5,108.6Z"/><path id="Path_5218" data-name="Path 5218" class="cls-36" d="M40.39,108.23l-2.06.18a1.37,1.37,0,0,0,.2.62,1,1,0,0,0,.41.38,1.07,1.07,0,0,0,.53.1,1.3,1.3,0,0,0,.34-.08,1.05,1.05,0,0,0,.29-.17,1.37,1.37,0,0,0,.25-.23,3.37,3.37,0,0,0,.3-.32.43.43,0,0,1,.23-.09.38.38,0,0,1,.27.07.33.33,0,0,1,.12.24.85.85,0,0,1-.08.35,1.3,1.3,0,0,1-.31.39,1.93,1.93,0,0,1-.54.35,2.61,2.61,0,0,1-.78.18,2.09,2.09,0,0,1-1.63-.44,2.15,2.15,0,0,1-.7-1.52,2.58,2.58,0,0,1,.06-.88,2,2,0,0,1,.35-.73,1.58,1.58,0,0,1,.62-.49,2.24,2.24,0,0,1,.85-.23,2,2,0,0,1,1.08.16,1.68,1.68,0,0,1,.72.62,1.77,1.77,0,0,1,.3.83.52.52,0,0,1-.18.53A1.47,1.47,0,0,1,40.39,108.23Zm-2.12-.42,1.92-.17a1.34,1.34,0,0,0-.36-.78.89.89,0,0,0-.7-.21.82.82,0,0,0-.62.33,1.44,1.44,0,0,0-.24.83Z"/><path id="Path_5219" data-name="Path 5219" class="cls-36" d="M42.26,109.32l-.4-4.58a.71.71,0,0,1,.1-.49.52.52,0,0,1,.76-.07.68.68,0,0,1,.19.47l.41,4.58a.66.66,0,0,1-.11.49.45.45,0,0,1-.37.19.47.47,0,0,1-.39-.13A.71.71,0,0,1,42.26,109.32Z"/><path id="Path_5220" data-name="Path 5220" class="cls-36" d="M44.41,109.13,44,104.56a.78.78,0,0,1,.1-.5.48.48,0,0,1,.37-.19.53.53,0,0,1,.4.12.7.7,0,0,1,.19.47l.4,4.58a.7.7,0,0,1-.1.49.47.47,0,0,1-.37.19.49.49,0,0,1-.4-.13A.7.7,0,0,1,44.41,109.13Z"/><path id="Path_5221" data-name="Path 5221" class="cls-37" d="M47.12,104.24l.15,1.61a2.82,2.82,0,0,1,.56-.53,1.82,1.82,0,0,1,.75-.23,1.65,1.65,0,0,1,1,.17,1.6,1.6,0,0,1,.67.67,2.5,2.5,0,0,1,.32,1.1,2.94,2.94,0,0,1,0,.89,2,2,0,0,1-.3.73,1.55,1.55,0,0,1-.52.5,1.51,1.51,0,0,1-.71.22,1.85,1.85,0,0,1-.47,0,1.29,1.29,0,0,1-.38-.12,2.11,2.11,0,0,1-.27-.18l-.31-.27v.1a.65.65,0,0,1-.1.47.5.5,0,0,1-.35.18.44.44,0,0,1-.37-.12.67.67,0,0,1-.18-.44l-.41-4.61a.83.83,0,0,1,.09-.49.46.46,0,0,1,.35-.2.51.51,0,0,1,.39.12A.71.71,0,0,1,47.12,104.24Zm.33,3.13a1.48,1.48,0,0,0,.37.94.93.93,0,0,0,.79.27.83.83,0,0,0,.65-.4,1.47,1.47,0,0,0,.2-1,2,2,0,0,0-.18-.71,1.06,1.06,0,0,0-.38-.43.92.92,0,0,0-1,.09,1,1,0,0,0-.33.51,1.73,1.73,0,0,0-.07.75Z"/><path id="Path_5222" data-name="Path 5222" class="cls-37" d="M55.32,106.65a2.36,2.36,0,0,1-.07.88,1.88,1.88,0,0,1-.36.72,2,2,0,0,1-.63.5,2.57,2.57,0,0,1-.86.24,2.32,2.32,0,0,1-.87-.08,1.86,1.86,0,0,1-.7-.39,1.8,1.8,0,0,1-.49-.64,2.7,2.7,0,0,1-.16-1.75,1.91,1.91,0,0,1,.36-.71,2,2,0,0,1,.63-.5,2.56,2.56,0,0,1,.85-.23,2.43,2.43,0,0,1,.89.08,2,2,0,0,1,.7.38,2,2,0,0,1,.49.65A2.48,2.48,0,0,1,55.32,106.65Zm-1.06.09a1.63,1.63,0,0,0-.37-1,1,1,0,0,0-.8-.29,1,1,0,0,0-.53.21,1,1,0,0,0-.32.51,2.13,2.13,0,0,0,.13,1.45,1,1,0,0,0,.4.44.92.92,0,0,0,.56.12,1,1,0,0,0,.74-.43,1.66,1.66,0,0,0,.19-1Z"/><path id="Path_5223" data-name="Path 5223" class="cls-37" d="M57.22,108.78l.08-.25-1.59-3.15a1.22,1.22,0,0,1-.15-.4.57.57,0,0,1,0-.26.49.49,0,0,1,.18-.2.45.45,0,0,1,.25-.09.41.41,0,0,1,.35.11,1.1,1.1,0,0,1,.24.4l1.13,2.52.63-2.49c0-.16.09-.32.14-.48a.54.54,0,0,1,.16-.24.53.53,0,0,1,.25-.08.46.46,0,0,1,.23,0,.4.4,0,0,1,.19.15.48.48,0,0,1,.07.23,1,1,0,0,1,0,.21,2.8,2.8,0,0,1-.06.28l-1.06,3.73a4.45,4.45,0,0,1-.28.77,1.11,1.11,0,0,1-.41.45,1.67,1.67,0,0,1-.75.22,1.84,1.84,0,0,1-.7,0,.41.41,0,0,1-.18-.64.54.54,0,0,1,.32-.13h.34a.54.54,0,0,0,.28-.08.41.41,0,0,0,.17-.2A2.05,2.05,0,0,0,57.22,108.78Z"/></g></g><g id="Group_2917" data-name="Group 2917"><path id="Path_5224" data-name="Path 5224" class="cls-12" d="M33.18,105.47l.14,1.61a2.82,2.82,0,0,1,.56-.53,1.82,1.82,0,0,1,.75-.23,1.72,1.72,0,0,1,.95.17,1.69,1.69,0,0,1,.68.67,2.67,2.67,0,0,1,.31,1.1,2.94,2.94,0,0,1,0,.89,2.11,2.11,0,0,1-.29.73,1.59,1.59,0,0,1-.53.5,1.61,1.61,0,0,1-.71.23,2.36,2.36,0,0,1-.46,0,1.21,1.21,0,0,1-.38-.12,1.67,1.67,0,0,1-.28-.18,2.61,2.61,0,0,1-.31-.27v.1a.65.65,0,0,1-.1.47.5.5,0,0,1-.35.18.41.41,0,0,1-.37-.12.67.67,0,0,1-.18-.44l-.4-4.61a.76.76,0,0,1,.08-.49.46.46,0,0,1,.35-.2A.51.51,0,0,1,33,105,.72.72,0,0,1,33.18,105.47Zm.32,3.13a1.43,1.43,0,0,0,.38.94.9.9,0,0,0,.78.27.87.87,0,0,0,.66-.4,1.59,1.59,0,0,0,.2-1,2,2,0,0,0-.19-.71.93.93,0,0,0-.38-.43.82.82,0,0,0-.53-.12.92.92,0,0,0-.52.21,1.1,1.1,0,0,0-.33.51A1.9,1.9,0,0,0,33.5,108.6Z"/><path id="Path_5225" data-name="Path 5225" class="cls-12" d="M40.39,108.23l-2.06.18a1.37,1.37,0,0,0,.2.62,1,1,0,0,0,.41.38,1.07,1.07,0,0,0,.53.1,1.3,1.3,0,0,0,.34-.08,1.05,1.05,0,0,0,.29-.17,1.37,1.37,0,0,0,.25-.23,3.37,3.37,0,0,0,.3-.32.43.43,0,0,1,.23-.09.38.38,0,0,1,.27.07.33.33,0,0,1,.12.24.85.85,0,0,1-.08.35,1.3,1.3,0,0,1-.31.39,1.93,1.93,0,0,1-.54.35,2.61,2.61,0,0,1-.78.18,2.09,2.09,0,0,1-1.63-.44,2.15,2.15,0,0,1-.7-1.52,2.58,2.58,0,0,1,.06-.88,2,2,0,0,1,.35-.73,1.58,1.58,0,0,1,.62-.49,2.24,2.24,0,0,1,.85-.23,2,2,0,0,1,1.08.16,1.68,1.68,0,0,1,.72.62,1.77,1.77,0,0,1,.3.83.52.52,0,0,1-.18.53A1.47,1.47,0,0,1,40.39,108.23Zm-2.12-.42,1.92-.17a1.34,1.34,0,0,0-.36-.78.89.89,0,0,0-.7-.21.82.82,0,0,0-.62.33,1.44,1.44,0,0,0-.24.83Z"/><path id="Path_5226" data-name="Path 5226" class="cls-12" d="M42.26,109.32l-.4-4.58a.71.71,0,0,1,.1-.49.52.52,0,0,1,.76-.07.68.68,0,0,1,.19.47l.41,4.58a.66.66,0,0,1-.11.49.45.45,0,0,1-.37.19.47.47,0,0,1-.39-.13A.71.71,0,0,1,42.26,109.32Z"/><path id="Path_5227" data-name="Path 5227" class="cls-12" d="M44.41,109.13,44,104.56a.78.78,0,0,1,.1-.5.48.48,0,0,1,.37-.19.53.53,0,0,1,.4.12.7.7,0,0,1,.19.47l.4,4.58a.7.7,0,0,1-.1.49.47.47,0,0,1-.37.19.49.49,0,0,1-.4-.13A.7.7,0,0,1,44.41,109.13Z"/><path id="Path_5228" data-name="Path 5228" class="cls-2" d="M47.12,104.24l.15,1.61a2.82,2.82,0,0,1,.56-.53,1.82,1.82,0,0,1,.75-.23,1.65,1.65,0,0,1,1,.17,1.6,1.6,0,0,1,.67.67,2.5,2.5,0,0,1,.32,1.1,2.94,2.94,0,0,1,0,.89,2,2,0,0,1-.3.73,1.55,1.55,0,0,1-.52.5,1.51,1.51,0,0,1-.71.22,1.85,1.85,0,0,1-.47,0,1.29,1.29,0,0,1-.38-.12,2.11,2.11,0,0,1-.27-.18l-.31-.27v.1a.65.65,0,0,1-.1.47.5.5,0,0,1-.35.18.44.44,0,0,1-.37-.12.67.67,0,0,1-.18-.44l-.41-4.61a.83.83,0,0,1,.09-.49.46.46,0,0,1,.35-.2.51.51,0,0,1,.39.12A.71.71,0,0,1,47.12,104.24Zm.33,3.13a1.48,1.48,0,0,0,.37.94.93.93,0,0,0,.79.27.83.83,0,0,0,.65-.4,1.47,1.47,0,0,0,.2-1,2,2,0,0,0-.18-.71,1.06,1.06,0,0,0-.38-.43.92.92,0,0,0-1,.09,1,1,0,0,0-.33.51,1.73,1.73,0,0,0-.07.75Z"/><path id="Path_5229" data-name="Path 5229" class="cls-2" d="M55.32,106.65a2.36,2.36,0,0,1-.07.88,1.88,1.88,0,0,1-.36.72,2,2,0,0,1-.63.5,2.57,2.57,0,0,1-.86.24,2.32,2.32,0,0,1-.87-.08,1.86,1.86,0,0,1-.7-.39,1.8,1.8,0,0,1-.49-.64,2.7,2.7,0,0,1-.16-1.75,1.91,1.91,0,0,1,.36-.71,2,2,0,0,1,.63-.5,2.56,2.56,0,0,1,.85-.23,2.43,2.43,0,0,1,.89.08,2,2,0,0,1,.7.38,2,2,0,0,1,.49.65A2.48,2.48,0,0,1,55.32,106.65Zm-1.06.09a1.63,1.63,0,0,0-.37-1,1,1,0,0,0-.8-.29,1,1,0,0,0-.53.21,1,1,0,0,0-.32.51,2.13,2.13,0,0,0,.13,1.45,1,1,0,0,0,.4.44.92.92,0,0,0,.56.12,1,1,0,0,0,.74-.43,1.66,1.66,0,0,0,.19-1Z"/><path id="Path_5230" data-name="Path 5230" class="cls-2" d="M57.22,108.78l.08-.25-1.59-3.15a1.22,1.22,0,0,1-.15-.4.57.57,0,0,1,0-.26.49.49,0,0,1,.18-.2.45.45,0,0,1,.25-.09.41.41,0,0,1,.35.11,1.1,1.1,0,0,1,.24.4l1.13,2.52.63-2.49c0-.16.09-.32.14-.48a.54.54,0,0,1,.16-.24.53.53,0,0,1,.25-.08.46.46,0,0,1,.23,0,.4.4,0,0,1,.19.15.48.48,0,0,1,.07.23,1,1,0,0,1,0,.21,2.8,2.8,0,0,1-.06.28l-1.06,3.73a4.45,4.45,0,0,1-.28.77,1.11,1.11,0,0,1-.41.45,1.67,1.67,0,0,1-.75.22,1.84,1.84,0,0,1-.7,0,.41.41,0,0,1-.18-.64.54.54,0,0,1,.32-.13h.34a.54.54,0,0,0,.28-.08.41.41,0,0,0,.17-.2A2.05,2.05,0,0,0,57.22,108.78Z"/></g></g></svg>