<svg id="Layer_1" data-name="Layer 1" xmlns="http://www.w3.org/2000/svg" xmlns:xlink="http://www.w3.org/1999/xlink" viewBox="0 0 200 200"><defs><style>.cls-1,.cls-31{fill:none;}.cls-2{fill:#e9e8e8;}.cls-2,.cls-3{opacity:0.51;}.cls-10,.cls-11,.cls-2,.cls-25,.cls-29,.cls-3,.cls-32{isolation:isolate;}.cls-3{fill:#e2e2e2;}.cls-4{fill:#f26f21;}.cls-28,.cls-5{fill:#e8a78f;stroke:#0098d5;}.cls-28,.cls-31,.cls-36,.cls-37,.cls-5{stroke-miterlimit:10;}.cls-5{stroke-width:0.28px;}.cls-6{fill:#e8a863;}.cls-10,.cls-11,.cls-7{fill:#c86129;}.cls-8{fill:#17191a;}.cls-9{fill:#dfa663;}.cls-10{opacity:0.25;}.cls-11{opacity:0.5;}.cls-12,.cls-37{fill:#94ba4f;}.cls-13{fill:#f68f1e;}.cls-14{fill:#343c41;}.cls-15,.cls-32{fill:#fff;}.cls-16{fill:#c5d299;}.cls-17{fill:#f6901e;}.cls-18{fill:#eb8023;}.cls-19{fill:#76bb43;}.cls-20{fill:#212636;}.cls-21{fill:#323232;}.cls-22{fill:#7e7e7e;}.cls-23{fill:#5a5b5b;}.cls-24{fill:#686969;}.cls-25,.cls-29{fill:#aeaeae;}.cls-25{opacity:0.47;}.cls-26{fill:#e52026;}.cls-27{clip-path:url(#clip-path);}.cls-28{stroke-width:0.29px;}.cls-29{opacity:0.35;}.cls-30{fill:#474748;}.cls-31{stroke:#e9e8e8;stroke-width:1.2px;}.cls-32{opacity:0.44;}.cls-33{fill:#ec8622;}.cls-34{clip-path:url(#clip-path-2);}.cls-35{fill:#0c1336;}.cls-36{fill:#2e8742;}.cls-36,.cls-37{stroke:#fff;stroke-width:2.15px;}.cls-38{fill:#72af44;}</style><clipPath id="clip-path"><path class="cls-1" d="M128.48,82.79c.85.65,1.83,2.46.07,2.61s-36.08-.2-37.7-.18-2.12-.94-2.44-2.07-2.61-11.4-2.73-12.29S85.53,69.14,87,69.1s12.86.06,19.31,2A76.08,76.08,0,0,1,128.48,82.79Z"/></clipPath><clipPath id="clip-path-2"><path class="cls-1" d="M127.74,83.71c.84.65,1.76,2.41,0,2.51S91.68,85,90.06,85a2.27,2.27,0,0,1-2.38-2c-.28-1.09-2.28-11-2.38-11.87s-.09-1.65,1.38-1.65,12.86.43,19.25,2.46A76.87,76.87,0,0,1,127.74,83.71Z"/></clipPath></defs><title>Cycle copy 2</title><ellipse id="Ellipse_119" data-name="Ellipse 119" class="cls-2" cx="106.75" cy="115.05" rx="44.67" ry="3.73" transform="translate(-2.91 2.77) rotate(-1.47)"/><ellipse id="Ellipse_120" data-name="Ellipse 120" class="cls-3" cx="99.51" cy="130.53" rx="7.66" ry="95" transform="translate(-31.86 228.92) rotate(-89.51)"/><ellipse id="Ellipse_120-2" data-name="Ellipse 120" class="cls-3" cx="77.88" cy="130.53" rx="3.86" ry="47.89" transform="translate(-53.31 207.29) rotate(-89.51)"/><g id="Group_2927" data-name="Group 2927"><path id="Path_5231" data-name="Path 5231" class="cls-4" d="M101.62,76.93a4.21,4.21,0,0,1-1.3.82c.19.46.3.79.3.79,4.82-1.54,5.21-4.16,5.23-4.34C104.59,74.24,103.44,75.22,101.62,76.93Z"/><path id="Path_5232" data-name="Path 5232" class="cls-5" d="M98.32,87h0Z"/><path id="Path_5233" data-name="Path 5233" class="cls-6" d="M97.7,87.17l.11.84.07.51,0,.17h0v0h0v0h0v0a0,0,0,0,1,0,0h0l0,0h0l0,0v0l0,0h0l0,0,0,0,0,0h0l0,0,0,0h0l0,0h.25c.69.06.66-.31.66-.63v-1.1A1.7,1.7,0,0,1,97.7,87.17Z"/><path id="Path_5234" data-name="Path 5234" class="cls-7" d="M100.24,83.7a4.24,4.24,0,0,0,2.19,1.6,4.51,4.51,0,0,0,.22-.44A5.06,5.06,0,0,1,100.24,83.7Z"/><path id="Path_5235" data-name="Path 5235" class="cls-8" d="M95.76,84.24a4.27,4.27,0,0,0,.46.87c.56.07.4-.32.18-.71a.56.56,0,0,1-.06-.21c-.06,0-.12,0-.18,0A1.37,1.37,0,0,1,95.76,84.24Z"/><path id="Path_5236" data-name="Path 5236" class="cls-8" d="M97,78.32c0-.09,0-.31,0-.45h-.68a12.87,12.87,0,0,0-2.57,2.3s.87,1.52,1,1.79a1.09,1.09,0,0,1,1.33.43,5,5,0,0,1,.57,1,.48.48,0,0,0,.15-.22.36.36,0,0,0,0-.11c0-.18-.25-.77-.41-1.61a1.64,1.64,0,0,1,.07-1.28C96.69,79.55,96.86,78.94,97,78.32Z"/><path id="Path_5237" data-name="Path 5237" class="cls-9" d="M96.7,83.5a.69.69,0,0,0,0-.13,4,4,0,0,0-.57-1,1.07,1.07,0,0,0-1.33-.43c-.06,0-.55.29-.47,1.15a1.11,1.11,0,0,0,.43.8,2,2,0,0,0,.7.29,1.89,1.89,0,0,0,1.24-.09.26.26,0,0,0,.15-.27A.92.92,0,0,0,96.7,83.5Z"/><path id="Path_5238" data-name="Path 5238" class="cls-10" d="M96.5,83.6c-.19-.48-.54-1-1.11-1.08a.57.57,0,0,0-.26,0,.64.64,0,0,0-.32.7.89.89,0,0,0,.64.68l.3.1a1.14,1.14,0,0,0,.52,0,.29.29,0,0,0,.23-.44Z"/><path id="Path_5239" data-name="Path 5239" class="cls-11" d="M95.26,83.21s.45-.09.57.06,0,.19-.06.21-.12.1.08.22.51.15.51,0-.15-.13-.21-.24a.32.32,0,0,1-.06-.23c0-.07-.25-.26-.41-.27S95.26,83.21,95.26,83.21Z"/><line id="Line_56" data-name="Line 56" class="cls-1" x1="100.42" y1="78.13" x2="100.39" y2="78.11"/><path id="Path_5241" data-name="Path 5241" class="cls-7" d="M99.17,87.05v-.14l-1.6-.41.09.35,0,.32a1.7,1.7,0,0,0,1.47.35v-.47Z"/><path id="Path_5242" data-name="Path 5242" class="cls-6" d="M104.13,81.54a.84.84,0,0,0-1-.57,16.36,16.36,0,0,0-1.07-4.18l.06-.07H102l-.29-.88a15.94,15.94,0,0,1-1.65,1.06l-.5,0,0,.27-1,.54c-.52.06-1,.09-1.56.1,0,.14,0,.36,0,.45a7.54,7.54,0,0,1-.2.82,3.13,3.13,0,0,0-.27,1,.14.14,0,0,0,0,.06,1.64,1.64,0,0,0-.07,1.28c.16.84.44,1.43.41,1.61a.77.77,0,0,1-.19.34h0a.61.61,0,0,1,0,.12c.23.55,0,.59-.36.69a.42.42,0,0,0,.06.21c.22.39.38.78-.18.71a8,8,0,0,0,.72.91v0a4.92,4.92,0,0,0,1.13,1h0l0,0a3.81,3.81,0,0,0,.61.29,2.48,2.48,0,0,0,1,.14,2.08,2.08,0,0,0,.36-.06h0l.06,0a2.5,2.5,0,0,0,.7-.33,1.55,1.55,0,0,0,.24-.19,5.31,5.31,0,0,0,1.32-1.55,4.2,4.2,0,0,1-2.19-1.6,5.2,5.2,0,0,0,2.41,1.17,7.84,7.84,0,0,0,.67-2.21S104.34,82.28,104.13,81.54Z"/><path id="Path_5243" data-name="Path 5243" class="cls-12" d="M102,75.42a17.08,17.08,0,0,1,2.09-.91,28.34,28.34,0,0,0-3.33,1.24h0l-.09-.17a6.22,6.22,0,0,0-1.28.57A4.89,4.89,0,0,0,102,75.42Z"/><path id="Path_5244" data-name="Path 5244" class="cls-4" d="M102,75.42a17.08,17.08,0,0,1,2.09-.91,28.34,28.34,0,0,0-3.33,1.24h0l-.09-.17a6.22,6.22,0,0,0-1.28.57A4.89,4.89,0,0,0,102,75.42Z"/><path id="Path_5245" data-name="Path 5245" class="cls-13" d="M105.82,74.19a3.49,3.49,0,0,0-1.28.19l-.42.13a17.08,17.08,0,0,0-2.09.91,4.89,4.89,0,0,1-2.63.74,6.22,6.22,0,0,1,1.28-.57c-.74-1.2-2.8-1.72-4.5-1.35a3.5,3.5,0,0,0-1.44.75,6.21,6.21,0,0,0-.59.56,6.71,6.71,0,0,0-1.28,2,1.22,1.22,0,0,0,0,.26,2.57,2.57,0,0,0,.06.4,6.82,6.82,0,0,0,.54,1.38c.18.38.36.69.44.83h0a8.44,8.44,0,0,1,1.93-2l.71-.56a11.9,11.9,0,0,0,4.93-.73c1.09-.48,3-3,4.4-3Z"/><g id="Group_2922" data-name="Group 2922"><path id="Path_5246" data-name="Path 5246" class="cls-14" d="M101.85,79.7c.05.38-.1.72-.34.75s-.46-.26-.51-.65.11-.72.34-.75S101.81,79.31,101.85,79.7Z"/><path id="Path_5247" data-name="Path 5247" class="cls-15" d="M101.8,79.86c0,.18,0,.34-.16.36s-.22-.13-.24-.31,0-.34.16-.36S101.78,79.68,101.8,79.86Z"/></g><g id="Group_2924" data-name="Group 2924"><g id="Group_2923" data-name="Group 2923"><path id="Path_5248" data-name="Path 5248" class="cls-16" d="M98.26,76.35h-.1a.32.32,0,0,1-.12-.11l-.72-1.13a.22.22,0,0,1,0-.16.14.14,0,0,1,.09-.11h.06a.17.17,0,0,1,.1,0,.32.32,0,0,1,.12.11l.2.33a.75.75,0,0,1,.07-.12.5.5,0,0,1,.19-.13l.16,0h.15a.81.81,0,0,1,.29.12.78.78,0,0,1,.24.27.7.7,0,0,1,.11.23.6.6,0,0,1,0,.23A.37.37,0,0,1,99,76a.44.44,0,0,1-.18.12l-.14,0h-.13l-.11,0h0a.16.16,0,0,1-.1.19h0Zm0-1-.06,0a.23.23,0,0,0-.1.07.2.2,0,0,0,0,.13.36.36,0,0,0,.07.18.43.43,0,0,0,.21.19.22.22,0,0,0,.14,0h.08a.17.17,0,0,0,.1-.13.34.34,0,0,0-.07-.24.7.7,0,0,0-.14-.16.61.61,0,0,0-.14-.07Z"/><path id="Path_5249" data-name="Path 5249" class="cls-16" d="M97.62,75l.25.4a.37.37,0,0,1,.08-.18.36.36,0,0,1,.18-.12.55.55,0,0,1,.28,0,.77.77,0,0,1,.28.12.79.79,0,0,1,.23.25.88.88,0,0,1,.1.22.5.5,0,0,1,0,.21A.38.38,0,0,1,99,76a.45.45,0,0,1-.17.11l-.13,0h-.12l-.1,0-.12-.05,0,0a.17.17,0,0,1,0,.12.11.11,0,0,1-.07.08.24.24,0,0,1-.12,0,.27.27,0,0,1-.11-.1l-.71-1.12a.17.17,0,0,1,0-.13.08.08,0,0,1,.07-.08.13.13,0,0,1,.12,0A.31.31,0,0,1,97.62,75Zm.49.76a.58.58,0,0,0,.23.21.28.28,0,0,0,.25,0,.18.18,0,0,0,.13-.15.36.36,0,0,0-.08-.27.58.58,0,0,0-.14-.17.48.48,0,0,0-.16-.08.29.29,0,0,0-.16,0,.27.27,0,0,0-.12.09.3.3,0,0,0,0,.16A.54.54,0,0,0,98.11,75.72Z"/><path id="Path_5250" data-name="Path 5250" class="cls-16" d="M99.54,75.84a.17.17,0,0,1-.1,0,.25.25,0,0,1-.12-.11L98.6,74.6a.24.24,0,0,1,0-.16.12.12,0,0,1,.09-.11l.06,0a.2.2,0,0,1,.1,0,.25.25,0,0,1,.12.11l.2.32a.41.41,0,0,1,.07-.11.41.41,0,0,1,.19-.13.42.42,0,0,1,.16,0,.33.33,0,0,1,.14,0,.56.56,0,0,1,.3.12,1,1,0,0,1,.24.26.66.66,0,0,1,.11.24.55.55,0,0,1,0,.22.56.56,0,0,1-.09.19.43.43,0,0,1-.19.13.58.58,0,0,1-.14,0h0a.28.28,0,0,1-.13,0l-.1,0h0a.27.27,0,0,1,0,.09.13.13,0,0,1-.1.1Zm0-1h-.06a.25.25,0,0,0-.1.08.27.27,0,0,0,0,.13.57.57,0,0,0,.29.37.32.32,0,0,0,.14,0h0l.08,0a.17.17,0,0,0,.1-.13.36.36,0,0,0-.07-.24.5.5,0,0,0-.14-.15.37.37,0,0,0-.14-.07Z"/><path id="Path_5251" data-name="Path 5251" class="cls-16" d="M98.89,74.46l.25.39a.76.76,0,0,1,.09-.18.57.57,0,0,1,.18-.12.53.53,0,0,1,.28,0,.54.54,0,0,1,.27.11.82.82,0,0,1,.24.25.94.94,0,0,1,.1.23.46.46,0,0,1,0,.2.29.29,0,0,1-.07.17.38.38,0,0,1-.17.12.31.31,0,0,1-.13,0,.24.24,0,0,1-.12,0l-.1,0-.12,0,0,0a.19.19,0,0,1,0,.13.12.12,0,0,1-.07.07.13.13,0,0,1-.12,0,.24.24,0,0,1-.11-.09l-.71-1.13a.16.16,0,0,1,0-.13.08.08,0,0,1,.07-.08.17.17,0,0,1,.22.1Zm.5.76a.55.55,0,0,0,.23.2.31.31,0,0,0,.25,0,.21.21,0,0,0,.13-.16.38.38,0,0,0-.08-.27.73.73,0,0,0-.14-.16.4.4,0,0,0-.16-.08.33.33,0,0,0-.17,0,.21.21,0,0,0-.11.1.21.21,0,0,0,0,.15.7.7,0,0,0,.08.2Z"/></g></g><g id="Group_2926" data-name="Group 2926"><g id="Group_2925" data-name="Group 2925"><path id="Path_5252" data-name="Path 5252" class="cls-15" d="M97.73,74.94l.23.36a.89.89,0,0,1,.08-.17A.42.42,0,0,1,98.2,75a.57.57,0,0,1,.26,0,.55.55,0,0,1,.25.1.66.66,0,0,1,.21.23.67.67,0,0,1,.1.21.4.4,0,0,1,0,.19.3.3,0,0,1-.07.15.33.33,0,0,1-.15.11l-.12,0h-.11l-.09,0-.11,0,0,0a.16.16,0,0,1,0,.12.13.13,0,0,1-.06.07.21.21,0,0,1-.11,0,.28.28,0,0,1-.1-.09l-.65-1a.17.17,0,0,1,0-.12.1.1,0,0,1,.07-.07.11.11,0,0,1,.11,0A.2.2,0,0,1,97.73,74.94Zm.46.69a.48.48,0,0,0,.21.19.3.3,0,0,0,.23,0,.21.21,0,0,0,.12-.14.38.38,0,0,0-.08-.25.47.47,0,0,0-.13-.15.35.35,0,0,0-.15-.07.22.22,0,0,0-.14,0,.2.2,0,0,0-.11.09.22.22,0,0,0,0,.14.4.4,0,0,0,.07.18Z"/><path id="Path_5253" data-name="Path 5253" class="cls-15" d="M98.9,74.47l.23.36a.48.48,0,0,1,.08-.16.36.36,0,0,1,.16-.11.57.57,0,0,1,.26,0,.55.55,0,0,1,.25.1.66.66,0,0,1,.21.23.68.68,0,0,1,.1.21.4.4,0,0,1,0,.19.3.3,0,0,1-.07.15.42.42,0,0,1-.15.11l-.12,0h-.11l-.09,0-.11,0v0a.11.11,0,0,1,0,.11.09.09,0,0,1-.06.07.11.11,0,0,1-.11,0,.27.27,0,0,1-.1-.08l-.65-1a.17.17,0,0,1,0-.12.1.1,0,0,1,.07-.07.11.11,0,0,1,.11,0A.24.24,0,0,1,98.9,74.47Zm.46.7a.48.48,0,0,0,.21.19.3.3,0,0,0,.23,0,.18.18,0,0,0,.11-.14.32.32,0,0,0-.07-.25.47.47,0,0,0-.13-.15.26.26,0,0,0-.15-.07.22.22,0,0,0-.14,0,.2.2,0,0,0-.11.09.22.22,0,0,0,0,.14.45.45,0,0,0,.07.18Z"/></g></g></g><path id="Path_5254" data-name="Path 5254" class="cls-13" d="M97.89,88.7l-1,.74a8.17,8.17,0,0,0-2.19,6L95,96.71l.62,8.43,0,4.87,7,0s-2.32-12.91-1.81-17.49a3.25,3.25,0,0,0-.22-1.57,5.17,5.17,0,0,0-1.44-2.07S98.33,89.46,97.89,88.7Z"/><path id="Path_5255" data-name="Path 5255" class="cls-13" d="M98.32,91.1s2.12.87,3.86,5.94l-4.36,1.47S93.46,90.68,98.32,91.1Z"/><path id="Path_5256" data-name="Path 5256" class="cls-4" d="M102.18,97a4.16,4.16,0,0,0-4.36,1.47S100.86,98.94,102.18,97Z"/><path id="Path_5257" data-name="Path 5257" class="cls-6" d="M118.47,110c-.67-1-3.55-.14-3.55-.14l-11.16-4.73-2.5-8.2A3.56,3.56,0,0,0,98.49,98l3.69,8.91c3.09,2.38,12.39,3.85,12.39,3.85A5.29,5.29,0,0,0,116,111c.27-.73.85-.39.85-.39.7.16.53,1,.53,1-.06.4.17.21.17.21a1.41,1.41,0,0,0,.07-.93,1.63,1.63,0,0,1,0,.82.14.14,0,0,0,.17.12.12.12,0,0,0,.08,0,.26.26,0,0,0,0-.08c.16.29.34,0,.34,0,.26-.83.16-1.09.11-1.16.21.23-.08,1.08-.08,1.08a.33.33,0,0,0,.31-.21A1.17,1.17,0,0,0,118.47,110Zm-.6,1.82a1.91,1.91,0,0,0,.17-1,1.61,1.61,0,0,1-.17,1Z"/><path id="Path_5258" data-name="Path 5258" class="cls-17" d="M189.13,115.94c0,1.71-1.9,5.72-4.95,5.72H161.51c-3,0-6.1-2.1-10.39-2.1H25.61c-2.72,0-9.19-1.72-12-3.62s-3.14-2.38-3.14-3.62v-7.53c0-1.14,3.42-2.38,3.42-4.38v-11c0-2.86,25.73-21.15,33.92-23.15S91.87,64,101.49,64.88s30.29,11.05,43.34,20.67c14,0,29.06,3.52,35.63,7.47s8.67,10.73,8.67,13.58Z"/><path id="Path_5259" data-name="Path 5259" class="cls-17" d="M187.44,100.58a14.58,14.58,0,0,1,1.69,6v9.34c0,1.71-1.9,5.72-4.95,5.72H161.51c-3,0-6.1-2.1-10.39-2.1H25.61c-2.72,0-9.19-1.71-12-3.62s-3.14-2.38-3.14-3.62v-7.53c0-1.14,3.42-2.38,3.42-4.38V90.55Z"/><g id="Group_2928" data-name="Group 2928"><path id="Path_5260" data-name="Path 5260" class="cls-18" d="M87,92.39a183.73,183.73,0,0,0-3.59-24.11h.29a184.15,184.15,0,0,1,3.58,24.08c1.36,14.4.22,23,0,24.29H87C87.19,115.55,88.38,106.92,87,92.39Z"/><path id="Path_5261" data-name="Path 5261" class="cls-18" d="M137.75,90.35a2.68,2.68,0,0,1-.47-2.45,4,4,0,0,1,1.92-2.85l.1.26A3.77,3.77,0,0,0,137.56,88a2.4,2.4,0,0,0,.4,2.2c.85.88,6.88,1.8,17.91,2.73,2.5.21,4.08.25,5.75.3,1.92,0,3.9.09,7.5.4a72.05,72.05,0,0,1,13.19,2.48l1.05.28a5.69,5.69,0,0,0,1.36.23,3.22,3.22,0,0,1,.24.28h-.15a6.43,6.43,0,0,1-1.52-.24l-1.06-.28a70.64,70.64,0,0,0-13.14-2.48c-3.58-.3-5.56-.35-7.48-.4-1.67,0-3.25-.08-5.76-.29C144.59,92.22,138.67,91.3,137.75,90.35Z"/><path id="Path_5262" data-name="Path 5262" class="cls-18" d="M51,97.74l.12.2c1.75,2.87,4.63,6.72,6.94,9.82,1.76,2.34,3.27,4.36,3.88,5.39,1.39,2.37,3.41,3.79,5.41,3.79H132c2.68,0,2.73-2.84,2.77-5.35,0-.24,0-.48,0-.72.07-2.68,0-19.2-.57-22.61-.47-2.77-4.46-6.36-11.86-10.64a89.72,89.72,0,0,0-14.5-7C101.19,68.29,92.71,68,86.06,68h-2c-1.4,0-3.57,0-6.08-.08-3.32,0-7.08-.11-10.27-.11a61.27,61.27,0,0,0-6.25.19c-3.24.42-14.8,15.87-15.27,18.62C45.76,89.14,48,92.75,51,97.74ZM46.47,86.67c.41-2.42,11.88-18,15-18.39a60.67,60.67,0,0,1,6.22-.19c3.19,0,7,.06,10.26.12l5.45.07a.62.62,0,0,1,0-.11l.28-.07,0,.18h2.34c6.63,0,15.09.29,21.71,2.59a90.25,90.25,0,0,1,14.45,7c7.32,4.25,11.26,7.76,11.72,10.45.58,3.39.64,19.88.57,22.55,0,.24,0,.48,0,.73,0,2.49-.08,5.06-2.48,5.06H87.32c0,.1,0,.16,0,.17l-.28,0a1.13,1.13,0,0,0,0-.12H67.34c-1.89,0-3.83-1.36-5.17-3.64-.61-1.05-2.13-3.08-3.89-5.43-2.31-3.08-5.19-6.93-6.93-9.79l-.12-.2C48.23,92.65,46.06,89.08,46.47,86.67Z"/></g><g id="Group_2930" data-name="Group 2930"><g id="Group_2929" data-name="Group 2929"><path id="Path_5263" data-name="Path 5263" class="cls-19" d="M40.61,98.93a17.41,17.41,0,0,1,17.14,20.63H25.61a14.38,14.38,0,0,1-2.17-.22A17.42,17.42,0,0,1,37.62,99.19a17.67,17.67,0,0,1,3-.26Z"/><path id="Path_5264" data-name="Path 5264" class="cls-19" d="M151.12,119.56h-15a17.43,17.43,0,1,1,33.75,2.1h-8.32C158.46,121.66,155.41,119.56,151.12,119.56Z"/></g></g><circle id="Ellipse_121" data-name="Ellipse 121" class="cls-20" cx="153.22" cy="116.37" r="15"/><circle id="Ellipse_122" data-name="Ellipse 122" class="cls-15" cx="153.22" cy="116.37" r="10.62"/><circle id="Ellipse_123" data-name="Ellipse 123" class="cls-20" cx="40.61" cy="116.37" r="15"/><circle id="Ellipse_124" data-name="Ellipse 124" class="cls-15" cx="40.61" cy="116.37" r="10.62"/><path id="Path_5265" data-name="Path 5265" class="cls-15" d="M184,97.22a16.1,16.1,0,0,1,2,3.1c.34,1,0,2.14-1.38,2.14h-8.1c-1.28,0-3.66-1.95-5-3.53s-3.33-4.14-2.76-4.47S176.8,95.08,184,97.22Z"/><path id="Path_5266" data-name="Path 5266" class="cls-21" d="M180,113.22a3.25,3.25,0,0,1,2.58-1.71h6.57v4.43a5.14,5.14,0,0,1-.42,1.81h-9.29c-.95,0-1.33-.77-.85-1.72Z"/><path id="Path_5267" data-name="Path 5267" class="cls-22" d="M144.83,85.55h-5.14a8.43,8.43,0,0,1-4.38-1.19c-1.62-1-8.85-6.43-13.42-9.11s-7.17-4-7.58-4.22c-.73-.32-1-1.25-.1-1.25h3A134.25,134.25,0,0,1,144.83,85.55Z"/><path id="Path_5268" data-name="Path 5268" class="cls-23" d="M128.54,83.69c.84.65,1.77,2.43,0,2.53S92.49,85,90.87,85a2.27,2.27,0,0,1-2.38-2.07c-.29-1.09-2.29-11.1-2.39-11.95s-.09-1.67,1.39-1.67,12.86.43,19.24,2.48A76.58,76.58,0,0,1,128.54,83.69Z"/><path id="Path_5269" data-name="Path 5269" class="cls-24" d="M81.86,71s.43,11.34.43,11.91a1.39,1.39,0,0,1-1.38,1.52c-1.09,0-35.77-.81-37.2-.85s-2.1-.53-1.86-1.53,8-10.43,14.39-12.1,23-.71,23.81-.71A1.65,1.65,0,0,1,81.86,71Z"/><path id="Path_5270" data-name="Path 5270" class="cls-25" d="M81.05,71.52s.39,10.38.39,10.9a1.28,1.28,0,0,1-1.27,1.4c-1,0-33-.74-34.33-.78s-1.93-.49-1.71-1.4,7.38-9.56,13.27-11.08,21.23-.66,22-.66A1.52,1.52,0,0,1,81.05,71.52Z"/><path id="Path_5271" data-name="Path 5271" class="cls-24" d="M37.66,71.05l3,1.26c.58.24.48,1.19-1.09,2.09a88.09,88.09,0,0,0-8.62,7c-2,1.85-3.34,2.42-4.76,2.42h-7A168.56,168.56,0,0,1,37.66,71.05Z"/><path id="Path_5272" data-name="Path 5272" class="cls-26" d="M13.84,100.41V90.22H22c1.19,0,1.81.45,1.19,2.15a29.86,29.86,0,0,1-4.52,6.94,4.28,4.28,0,0,1-2.72,1.2h-2.1Z"/><path id="Path_5273" data-name="Path 5273" class="cls-15" d="M10.42,109.25v-2.4h2.63a1.2,1.2,0,1,1,0,2.4H10.42Z"/><g id="Group_2938" data-name="Group 2938"><g class="cls-27"><g id="Group_2937" data-name="Group 2937"><g id="Group_2936" data-name="Group 2936"><path id="Path_5274" data-name="Path 5274" class="cls-4" d="M99.19,74.68a4.49,4.49,0,0,1-1.25,1c.22.47.36.81.36.81,4.78-2,5-4.79,5-5C102,71.61,100.91,72.73,99.19,74.68Z"/><path id="Path_5275" data-name="Path 5275" class="cls-28" d="M96.6,85.56h0Z"/><path id="Path_5276" data-name="Path 5276" class="cls-6" d="M96,85.75l.18.87.11.55,0,.17h0s0,0,0,0v.1h0v0h0l0,0v0l0,0v0l0,0h0l0,0,0,0,0,0h0l0,0h.08l0,0H97c.72,0,.65-.39.63-.72l0-.56,0-.6A1.68,1.68,0,0,1,96,85.75Z"/><path id="Path_5277" data-name="Path 5277" class="cls-7" d="M98.3,81.9a4.34,4.34,0,0,0,2.35,1.51c.07-.16.14-.31.2-.47A5.16,5.16,0,0,1,98.3,81.9Z"/><path id="Path_5278" data-name="Path 5278" class="cls-8" d="M93.79,82.82a4.38,4.38,0,0,0,.53.88c.57,0,.38-.37.13-.76a.58.58,0,0,1-.08-.22c-.05,0-.12,0-.18,0A1.42,1.42,0,0,1,93.79,82.82Z"/><path id="Path_5279" data-name="Path 5279" class="cls-8" d="M94.58,76.5c0-.09,0-.33-.06-.48l-.31,0-.38,0a12.84,12.84,0,0,0-2.44,2.62s1,1.53,1.19,1.8a1.11,1.11,0,0,1,1.39.35,5.16,5.16,0,0,1,.66,1,.7.7,0,0,0,.13-.24.28.28,0,0,0,0-.13c0-.19-.31-.79-.54-1.66a1.9,1.9,0,0,1,0-1.35A16.46,16.46,0,0,0,94.58,76.5Z"/><path id="Path_5280" data-name="Path 5280" class="cls-9" d="M94.69,82l-.06-.13a4.13,4.13,0,0,0-.66-1,1.06,1.06,0,0,0-1.39-.36,1.16,1.16,0,0,0-.39,1.25,1.21,1.21,0,0,0,.5.81,2,2,0,0,0,.74.25,1.88,1.88,0,0,0,1.25-.19.29.29,0,0,0,.13-.3A1.1,1.1,0,0,0,94.69,82Z"/><path id="Path_5281" data-name="Path 5281" class="cls-10" d="M94.49,82.09c-.23-.49-.63-1-1.21-1a.63.63,0,0,0-.27,0,.71.71,0,0,0-.26.77.88.88,0,0,0,.7.66l.31.08a1.06,1.06,0,0,0,.53,0,.34.34,0,0,0,.22-.15A.37.37,0,0,0,94.49,82.09Z"/><path id="Path_5282" data-name="Path 5282" class="cls-11" d="M93.2,81.77s.45-.12.58,0,0,.2,0,.22-.11.11.1.23.54.12.53,0-.16-.12-.24-.24a.37.37,0,0,1-.07-.23c0-.08-.27-.26-.44-.25S93.2,81.77,93.2,81.77Z"/><line id="Line_57" data-name="Line 57" class="cls-1" x1="98.06" y1="76.02" x2="98.03" y2="76.01"/><path id="Path_5284" data-name="Path 5284" class="cls-7" d="M97.47,85.51v-.15l-1.66-.3.12.36.06.33a1.71,1.71,0,0,0,1.53.26l0-.5Z"/><path id="Path_5285" data-name="Path 5285" class="cls-6" d="M102.09,79.32a.85.85,0,0,0-1.07-.51,17.27,17.27,0,0,0-1.4-4.31.41.41,0,0,0,0-.09l-.08,0-.37-.9a17.62,17.62,0,0,1-1.6,1.25l-.5.09,0,.28-1,.65a14,14,0,0,1-1.58.22l.06.48a8.7,8.7,0,0,1-.13.87,3,3,0,0,0-.21,1,.64.64,0,0,1,0,.07,1.9,1.9,0,0,0,0,1.35c.23.87.56,1.47.54,1.66a.69.69,0,0,1-.16.37h0l.06.13c.27.56,0,.62-.32.75a.58.58,0,0,0,.08.22c.25.39.44.79-.13.76a11.57,11.57,0,0,0,.8.91h0a4.64,4.64,0,0,0,1.22.93h0a3.58,3.58,0,0,0,.64.26,2.46,2.46,0,0,0,1.08.06,1.18,1.18,0,0,0,.37-.09h0l.06,0a2.49,2.49,0,0,0,.69-.4,2.39,2.39,0,0,0,.23-.22,5.38,5.38,0,0,0,1.22-1.73A4.39,4.39,0,0,1,98.3,81.9a5.16,5.16,0,0,0,2.55,1,8.73,8.73,0,0,0,.51-2.37S102.37,80.09,102.09,79.32Z"/><path id="Path_5286" data-name="Path 5286" class="cls-12" d="M99.49,73.06a15.25,15.25,0,0,1,2.06-1.13,29.21,29.21,0,0,0-3.3,1.56h0l-.11-.16a5.94,5.94,0,0,0-1.25.7C96.78,74.22,98.37,73.83,99.49,73.06Z"/><path id="Path_5287" data-name="Path 5287" class="cls-4" d="M99.49,73.06a15.25,15.25,0,0,1,2.06-1.13,29.21,29.21,0,0,0-3.3,1.56h0l-.11-.16a5.94,5.94,0,0,0-1.25.7C96.78,74.22,98.37,73.83,99.49,73.06Z"/><path id="Path_5288" data-name="Path 5288" class="cls-13" d="M103.26,71.46a3.63,3.63,0,0,0-1.3.3l-.41.17a15.25,15.25,0,0,0-2.06,1.13c-1.12.77-2.71,1.16-2.61,1a5.94,5.94,0,0,1,1.25-.7c-.85-1.21-3-1.59-4.68-1.07a3.6,3.6,0,0,0-1.41.89,6.64,6.64,0,0,0-.55.64A7.21,7.21,0,0,0,90.34,76a.88.88,0,0,0,0,.28,1.43,1.43,0,0,0,.09.41,7,7,0,0,0,.65,1.41c.22.38.42.7.51.84h0a8.66,8.66,0,0,1,1.82-2.2c.2-.2.43-.41.68-.64A11.8,11.8,0,0,0,99,75c1.09-.59,2.78-3.34,4.26-3.51Z"/><g id="Group_2931" data-name="Group 2931"><path id="Path_5289" data-name="Path 5289" class="cls-14" d="M99.64,77.57c.07.4-.06.76-.29.81s-.49-.24-.57-.64,0-.77.29-.81S99.56,77.17,99.64,77.57Z"/><path id="Path_5290" data-name="Path 5290" class="cls-15" d="M99.6,77.74c0,.19,0,.37-.14.39s-.23-.11-.27-.3,0-.37.14-.39S99.56,77.55,99.6,77.74Z"/></g><g id="Group_2933" data-name="Group 2933"><g id="Group_2932" data-name="Group 2932"><path id="Path_5291" data-name="Path 5291" class="cls-16" d="M95.73,74.33h-.1a.3.3,0,0,1-.14-.11l-.81-1.12a.27.27,0,0,1-.06-.17.14.14,0,0,1,.09-.12l.05,0a.14.14,0,0,1,.11,0,.26.26,0,0,1,.13.1l.23.33.06-.13a.47.47,0,0,1,.19-.15.44.44,0,0,1,.15,0,.38.38,0,0,1,.15,0,.57.57,0,0,1,.31.1,1.27,1.27,0,0,1,.27.25,2,2,0,0,1,.13.25.85.85,0,0,1,0,.23.42.42,0,0,1-.08.21.39.39,0,0,1-.17.14.48.48,0,0,1-.14,0h0a.33.33,0,0,1-.14,0h-.13a.28.28,0,0,1,0,.09.16.16,0,0,1-.09.12Zm-.09-1.11-.06,0a.2.2,0,0,0-.09.09.23.23,0,0,0,0,.14.37.37,0,0,0,.08.18.53.53,0,0,0,.23.19.38.38,0,0,0,.15,0h0l.08,0a.16.16,0,0,0,.09-.14.38.38,0,0,0-.09-.25.71.71,0,0,0-.15-.15l-.15-.06Z"/><path id="Path_5292" data-name="Path 5292" class="cls-16" d="M95,72.92l.28.39a.62.62,0,0,1,.07-.19A.49.49,0,0,1,95.5,73a.45.45,0,0,1,.28-.06.75.75,0,0,1,.29.09.85.85,0,0,1,.25.25.76.76,0,0,1,.13.23.78.78,0,0,1,0,.22.4.4,0,0,1-.07.18.43.43,0,0,1-.16.14l-.13,0H95.9l-.13,0,0,0a.14.14,0,0,1,0,.12.13.13,0,0,1-.07.09.16.16,0,0,1-.12,0,.31.31,0,0,1-.11-.09l-.81-1.13a.2.2,0,0,1-.06-.14.11.11,0,0,1,.07-.08.13.13,0,0,1,.12,0A.22.22,0,0,1,95,72.92Zm.56.76a.55.55,0,0,0,.25.2.31.31,0,0,0,.25,0,.19.19,0,0,0,.12-.17.39.39,0,0,0-.1-.28.49.49,0,0,0-.16-.16.33.33,0,0,0-.17-.07.3.3,0,0,0-.16,0,.25.25,0,0,0-.11.12.22.22,0,0,0,0,.16.52.52,0,0,0,.09.2Z"/><path id="Path_5293" data-name="Path 5293" class="cls-16" d="M97,73.69a.17.17,0,0,1-.1,0,.28.28,0,0,1-.13-.11l-.82-1.13a.23.23,0,0,1-.06-.16.16.16,0,0,1,.09-.12l.06,0a.17.17,0,0,1,.1,0,.28.28,0,0,1,.13.11l.23.32.06-.12a.4.4,0,0,1,.19-.15l.15-.06H97a.68.68,0,0,1,.31.11.81.81,0,0,1,.27.25,1.19,1.19,0,0,1,.13.25.58.58,0,0,1,0,.23.48.48,0,0,1-.07.2.43.43,0,0,1-.18.15l-.14,0h-.27a.1.1,0,0,1,0,.09.18.18,0,0,1-.09.12Zm-.09-1.1-.06,0a.2.2,0,0,0-.09.09.22.22,0,0,0,0,.14.61.61,0,0,0,.09.18.43.43,0,0,0,.22.18.3.3,0,0,0,.16,0h0l.07,0a.16.16,0,0,0,.09-.14.38.38,0,0,0-.09-.25.54.54,0,0,0-.15-.15.39.39,0,0,0-.15-.06Z"/><path id="Path_5294" data-name="Path 5294" class="cls-16" d="M96.23,72.29l.28.39a.46.46,0,0,1,.08-.19.33.33,0,0,1,.17-.14.45.45,0,0,1,.28-.06.62.62,0,0,1,.29.09,1,1,0,0,1,.38.48.78.78,0,0,1,0,.22.4.4,0,0,1-.07.18.34.34,0,0,1-.16.13l-.13,0h-.22l-.13,0,0,0a.17.17,0,0,1,0,.13.11.11,0,0,1-.07.09.16.16,0,0,1-.12,0,.31.31,0,0,1-.11-.09L96,72.43a.25.25,0,0,1-.06-.14.1.1,0,0,1,.07-.08.11.11,0,0,1,.12,0A.22.22,0,0,1,96.23,72.29Zm.56.76a.55.55,0,0,0,.25.2.34.34,0,0,0,.26,0,.2.2,0,0,0,.11-.17.35.35,0,0,0-.1-.28.46.46,0,0,0-.15-.16.36.36,0,0,0-.17-.07.32.32,0,0,0-.17,0,.23.23,0,0,0-.11.11.33.33,0,0,0,0,.17.72.72,0,0,0,.09.2Z"/></g></g><g id="Group_2935" data-name="Group 2935"><g id="Group_2934" data-name="Group 2934"><path id="Path_5295" data-name="Path 5295" class="cls-15" d="M95.08,72.88l.26.36a1,1,0,0,1,.07-.18.4.4,0,0,1,.16-.13.47.47,0,0,1,.26-.05.62.62,0,0,1,.26.09.8.8,0,0,1,.23.22,1.13,1.13,0,0,1,.12.21.44.44,0,0,1,0,.2.27.27,0,0,1-.06.17.33.33,0,0,1-.14.12l-.12,0h-.21l-.11,0,0,0a.16.16,0,0,1,0,.12.09.09,0,0,1-.06.07.14.14,0,0,1-.11,0,.16.16,0,0,1-.1-.08l-.75-1a.2.2,0,0,1,0-.13.09.09,0,0,1,.06-.08.14.14,0,0,1,.11,0A.22.22,0,0,1,95.08,72.88Zm.52.69a.41.41,0,0,0,.23.18.27.27,0,0,0,.23,0,.21.21,0,0,0,.11-.16.38.38,0,0,0-.09-.25.54.54,0,0,0-.15-.15.28.28,0,0,0-.15-.06.25.25,0,0,0-.15,0,.19.19,0,0,0-.1.1.26.26,0,0,0,0,.15.51.51,0,0,0,.09.18Z"/><path id="Path_5296" data-name="Path 5296" class="cls-15" d="M96.24,72.3l.26.36a.45.45,0,0,1,.07-.18.35.35,0,0,1,.15-.12A.48.48,0,0,1,97,72.3a.58.58,0,0,1,.26.09,1,1,0,0,1,.35.44.63.63,0,0,1,0,.19.49.49,0,0,1-.06.17.35.35,0,0,1-.15.12l-.12,0h-.11l-.09,0-.12,0,0,0a.17.17,0,0,1,0,.12.16.16,0,0,1-.06.08.22.22,0,0,1-.11,0,.24.24,0,0,1-.11-.09l-.74-1a.18.18,0,0,1-.05-.12.09.09,0,0,1,.06-.08.14.14,0,0,1,.11,0A.18.18,0,0,1,96.24,72.3Zm.52.7a.49.49,0,0,0,.22.18.29.29,0,0,0,.24,0,.18.18,0,0,0,.1-.16.38.38,0,0,0-.09-.25.67.67,0,0,0-.14-.15.44.44,0,0,0-.16-.06.26.26,0,0,0-.15,0,.24.24,0,0,0-.1.1.26.26,0,0,0,0,.15.37.37,0,0,0,.09.19Z"/></g></g></g></g></g></g><path id="Path_5312" data-name="Path 5312" class="cls-29" d="M87.59,79.17l42.08,6.65s.23.54-3.13.37-35.66-1.13-35.66-1.13-1.77,0-2.37-2.63-.91-4-.91-4Z"/><path id="Path_5313" data-name="Path 5313" class="cls-30" d="M87.43,77.85s1.62-1,2.09.69S91.43,85,91.43,85a2.64,2.64,0,0,1-3-2.45Z"/><circle id="Ellipse_125" data-name="Ellipse 125" class="cls-31" cx="40.61" cy="116.37" r="7.12"/><circle id="Ellipse_126" data-name="Ellipse 126" class="cls-31" cx="153.22" cy="116.37" r="7.12"/><path id="Path_5314" data-name="Path 5314" class="cls-32" d="M69.77,93h8.65a1.78,1.78,0,0,0-1.78-1.78H71.55A1.78,1.78,0,0,0,69.77,93Z"/><path id="Path_5315" data-name="Path 5315" class="cls-32" d="M95.48,93.11h8.65a1.77,1.77,0,0,0-1.78-1.78H97.26a1.78,1.78,0,0,0-1.78,1.78Z"/><path id="Path_5316" data-name="Path 5316" class="cls-33" d="M84.55,114.78H65.3a.94.94,0,0,1-.93-1h0a1,1,0,0,1,.93-1H84.55a1,1,0,0,1,.93,1h0A.94.94,0,0,1,84.55,114.78Z"/><path id="Path_5317" data-name="Path 5317" class="cls-33" d="M127.48,114.78H94.73c-1.69,0-3.06-.42-3.06-1h0c0-.53,1.37-1,3.06-1h32.75c1.69,0,3.06.43,3.06,1h0C130.54,114.36,129.17,114.78,127.48,114.78Z"/><g id="Group_2945" data-name="Group 2945"><g class="cls-34"><g id="Group_2944" data-name="Group 2944"><g id="Group_2943" data-name="Group 2943"><path id="Path_5318" data-name="Path 5318" class="cls-35" d="M120.25,92.65c-2.18,0-3.9-2.75-3.9-6.25s1.72-6.25,3.9-6.25,3.9,2.75,3.9,6.25S122.44,92.65,120.25,92.65Zm0-11.22c-1.26,0-2.61,2-2.61,5s1.35,5,2.61,5,2.62-2,2.62-5S121.51,81.43,120.25,81.43Z"/></g></g></g></g><g id="Group_2918" data-name="Group 2918"><g id="Group_2916" data-name="Group 2916"><g id="Group_2915" data-name="Group 2915"><path id="Path_5217" data-name="Path 5217" class="cls-36" d="M96.79,100.47l.16,1.82a2.76,2.76,0,0,1,.64-.59,1.85,1.85,0,0,1,.85-.27,2,2,0,0,1,1.07.19,1.88,1.88,0,0,1,.77.76,3.1,3.1,0,0,1,.36,1.25,3.41,3.41,0,0,1,0,1,2.36,2.36,0,0,1-.33.82,1.82,1.82,0,0,1-.59.58,2,2,0,0,1-.81.25,1.87,1.87,0,0,1-.53,0,1.64,1.64,0,0,1-.43-.13,3.28,3.28,0,0,1-.31-.2c-.12-.1-.24-.2-.35-.31v.11a.7.7,0,0,1-.12.53.57.57,0,0,1-.4.21.51.51,0,0,1-.42-.14.74.74,0,0,1-.19-.5l-.47-5.22a.91.91,0,0,1,.1-.56.51.51,0,0,1,.4-.23.52.52,0,0,1,.43.14A.78.78,0,0,1,96.79,100.47Zm.37,3.54a1.71,1.71,0,0,0,.42,1.08,1.09,1.09,0,0,0,.89.3,1,1,0,0,0,.75-.46,1.76,1.76,0,0,0,.22-1.15,2.19,2.19,0,0,0-.2-.8,1.19,1.19,0,0,0-.44-.5,1,1,0,0,0-.6-.13,1,1,0,0,0-.59.24,1.21,1.21,0,0,0-.37.57A2.06,2.06,0,0,0,97.16,104Z"/><path id="Path_5218" data-name="Path 5218" class="cls-36" d="M105,103.6l-2.34.2a1.65,1.65,0,0,0,.23.71,1.19,1.19,0,0,0,.46.43,1.14,1.14,0,0,0,.6.1,1.59,1.59,0,0,0,.39-.08,1.35,1.35,0,0,0,.33-.19l.29-.26a4.83,4.83,0,0,0,.33-.37.46.46,0,0,1,.26-.1.44.44,0,0,1,.3.08.36.36,0,0,1,.15.27.87.87,0,0,1-.1.39,1.4,1.4,0,0,1-.35.45,2,2,0,0,1-.61.39,2.7,2.7,0,0,1-.88.21,2.37,2.37,0,0,1-1.85-.5,2.51,2.51,0,0,1-.8-1.72,2.79,2.79,0,0,1,.08-1,2.07,2.07,0,0,1,.39-.82,1.83,1.83,0,0,1,.7-.56,2.7,2.7,0,0,1,1-.27,2.35,2.35,0,0,1,1.23.19,1.93,1.93,0,0,1,.82.7,2,2,0,0,1,.34.94.6.6,0,0,1-.21.6A1.54,1.54,0,0,1,105,103.6Zm-2.4-.48,2.17-.19a1.5,1.5,0,0,0-.41-.89,1,1,0,0,0-.79-.23.94.94,0,0,0-.7.37,1.52,1.52,0,0,0-.27.94Z"/><path id="Path_5219" data-name="Path 5219" class="cls-36" d="M107.09,104.83l-.46-5.19a.81.81,0,0,1,.11-.55.6.6,0,0,1,.87-.08.75.75,0,0,1,.22.53l.46,5.19a.8.8,0,0,1-.12.56.6.6,0,0,1-.42.22.57.57,0,0,1-.45-.15A.8.8,0,0,1,107.09,104.83Z"/><path id="Path_5220" data-name="Path 5220" class="cls-36" d="M109.52,104.62l-.46-5.19a.8.8,0,0,1,.12-.56.55.55,0,0,1,.41-.22.59.59,0,0,1,.46.14.82.82,0,0,1,.21.53l.46,5.19a.78.78,0,0,1-.12.56.58.58,0,0,1-.42.22.54.54,0,0,1-.45-.15A.81.81,0,0,1,109.52,104.62Z"/><path id="Path_5221" data-name="Path 5221" class="cls-37" d="M112.6,99.07l.16,1.83a3,3,0,0,1,.64-.6,2,2,0,0,1,.86-.26,1.83,1.83,0,0,1,1.84.95,3,3,0,0,1,.35,1.25,3.41,3.41,0,0,1,0,1,2.27,2.27,0,0,1-.34.82,1.79,1.79,0,0,1-.59.57,1.93,1.93,0,0,1-.81.26,2.37,2.37,0,0,1-.53,0,1.59,1.59,0,0,1-.74-.34c-.08-.06-.2-.17-.35-.31v.12a.77.77,0,0,1-.11.53.57.57,0,0,1-.4.21.58.58,0,0,1-.42-.14.74.74,0,0,1-.2-.5l-.46-5.22a.86.86,0,0,1,.1-.57.51.51,0,0,1,.39-.22.55.55,0,0,1,.44.14A.74.74,0,0,1,112.6,99.07Zm.37,3.55a1.66,1.66,0,0,0,.42,1.07,1.09,1.09,0,0,0,.89.31,1,1,0,0,0,.75-.46,1.67,1.67,0,0,0,.22-1.15,2.06,2.06,0,0,0-.2-.81,1.22,1.22,0,0,0-.44-.49,1,1,0,0,0-.6-.14,1.09,1.09,0,0,0-.59.24,1.26,1.26,0,0,0-.37.58,2,2,0,0,0-.08.85Z"/><path id="Path_5222" data-name="Path 5222" class="cls-37" d="M121.9,101.81a3.08,3.08,0,0,1-.08,1,2.13,2.13,0,0,1-.42.82,2.06,2.06,0,0,1-.71.56,2.5,2.5,0,0,1-1,.26,2.55,2.55,0,0,1-1-.08,2.24,2.24,0,0,1-.8-.44,2.2,2.2,0,0,1-.55-.73,3,3,0,0,1-.17-2,2.1,2.1,0,0,1,1.12-1.37,2.5,2.5,0,0,1,1-.26,2.41,2.41,0,0,1,1,.09,2.12,2.12,0,0,1,.81.43,2.17,2.17,0,0,1,.54.73A2.9,2.9,0,0,1,121.9,101.81Zm-1.2.1a1.83,1.83,0,0,0-.43-1.11,1,1,0,0,0-.9-.33,1.1,1.1,0,0,0-.6.24,1.21,1.21,0,0,0-.37.57,2.47,2.47,0,0,0,.15,1.65,1.21,1.21,0,0,0,.45.5,1,1,0,0,0,.64.13,1,1,0,0,0,.83-.49,1.81,1.81,0,0,0,.23-1.16Z"/><path id="Path_5223" data-name="Path 5223" class="cls-37" d="M124.05,104.22l.09-.28-1.8-3.58a1.77,1.77,0,0,1-.18-.45.58.58,0,0,1,.06-.29.55.55,0,0,1,.2-.23.48.48,0,0,1,.28-.1.43.43,0,0,1,.4.13,1.29,1.29,0,0,1,.27.45l1.28,2.85.71-2.82a4.84,4.84,0,0,1,.17-.54.55.55,0,0,1,.17-.27A.52.52,0,0,1,126,99a.47.47,0,0,1,.26,0,.51.51,0,0,1,.21.17.62.62,0,0,1,.09.26s0,.13,0,.24,0,.21-.07.32l-1.2,4.22a4.63,4.63,0,0,1-.32.88,1.22,1.22,0,0,1-.47.51,1.87,1.87,0,0,1-.84.25,2.15,2.15,0,0,1-.8-.05.43.43,0,0,1-.3-.39.4.4,0,0,1,.1-.33A.58.58,0,0,1,123,105h.19a.45.45,0,0,0,.2,0,.72.72,0,0,0,.32-.08.6.6,0,0,0,.19-.23A3.8,3.8,0,0,0,124.05,104.22Z"/></g></g><g id="Group_2917" data-name="Group 2917"><path id="Path_5224" data-name="Path 5224" class="cls-17" d="M96.79,100.47l.16,1.82a2.76,2.76,0,0,1,.64-.59,1.85,1.85,0,0,1,.85-.27,2,2,0,0,1,1.07.19,1.88,1.88,0,0,1,.77.76,3.1,3.1,0,0,1,.36,1.25,3.41,3.41,0,0,1,0,1,2.36,2.36,0,0,1-.33.82,1.82,1.82,0,0,1-.59.58,2,2,0,0,1-.81.25,1.87,1.87,0,0,1-.53,0,1.64,1.64,0,0,1-.43-.13,3.28,3.28,0,0,1-.31-.2c-.12-.1-.24-.2-.35-.31v.11a.7.7,0,0,1-.12.53.57.57,0,0,1-.4.21.51.51,0,0,1-.42-.14.74.74,0,0,1-.19-.5l-.47-5.22a.91.91,0,0,1,.1-.56.51.51,0,0,1,.4-.23.52.52,0,0,1,.43.14A.78.78,0,0,1,96.79,100.47Zm.37,3.54a1.71,1.71,0,0,0,.42,1.08,1.09,1.09,0,0,0,.89.3,1,1,0,0,0,.75-.46,1.76,1.76,0,0,0,.22-1.15,2.19,2.19,0,0,0-.2-.8,1.19,1.19,0,0,0-.44-.5,1,1,0,0,0-.6-.13,1,1,0,0,0-.59.24,1.21,1.21,0,0,0-.37.57A2.06,2.06,0,0,0,97.16,104Z"/><path id="Path_5225" data-name="Path 5225" class="cls-17" d="M105,103.6l-2.34.2a1.65,1.65,0,0,0,.23.71,1.19,1.19,0,0,0,.46.43,1.14,1.14,0,0,0,.6.1,1.59,1.59,0,0,0,.39-.08,1.35,1.35,0,0,0,.33-.19l.29-.26a4.83,4.83,0,0,0,.33-.37.46.46,0,0,1,.26-.1.44.44,0,0,1,.3.08.36.36,0,0,1,.15.27.87.87,0,0,1-.1.39,1.4,1.4,0,0,1-.35.45,2,2,0,0,1-.61.39,2.7,2.7,0,0,1-.88.21,2.37,2.37,0,0,1-1.85-.5,2.51,2.51,0,0,1-.8-1.72,2.79,2.79,0,0,1,.08-1,2.07,2.07,0,0,1,.39-.82,1.83,1.83,0,0,1,.7-.56,2.7,2.7,0,0,1,1-.27,2.35,2.35,0,0,1,1.23.19,1.93,1.93,0,0,1,.82.7,2,2,0,0,1,.34.94.6.6,0,0,1-.21.6A1.54,1.54,0,0,1,105,103.6Zm-2.4-.48,2.17-.19a1.5,1.5,0,0,0-.41-.89,1,1,0,0,0-.79-.23.94.94,0,0,0-.7.37,1.52,1.52,0,0,0-.27.94Z"/><path id="Path_5226" data-name="Path 5226" class="cls-17" d="M107.09,104.83l-.46-5.19a.81.81,0,0,1,.11-.55.6.6,0,0,1,.87-.08.75.75,0,0,1,.22.53l.46,5.19a.8.8,0,0,1-.12.56.6.6,0,0,1-.42.22.57.57,0,0,1-.45-.15A.8.8,0,0,1,107.09,104.83Z"/><path id="Path_5227" data-name="Path 5227" class="cls-17" d="M109.52,104.62l-.46-5.19a.8.8,0,0,1,.12-.56.55.55,0,0,1,.41-.22.59.59,0,0,1,.46.14.82.82,0,0,1,.21.53l.46,5.19a.78.78,0,0,1-.12.56.58.58,0,0,1-.42.22.54.54,0,0,1-.45-.15A.81.81,0,0,1,109.52,104.62Z"/><path id="Path_5228" data-name="Path 5228" class="cls-38" d="M112.6,99.07l.16,1.83a3,3,0,0,1,.64-.6,2,2,0,0,1,.86-.26,1.83,1.83,0,0,1,1.84.95,3,3,0,0,1,.35,1.25,3.41,3.41,0,0,1,0,1,2.27,2.27,0,0,1-.34.82,1.79,1.79,0,0,1-.59.57,1.93,1.93,0,0,1-.81.26,2.37,2.37,0,0,1-.53,0,1.59,1.59,0,0,1-.74-.34c-.08-.06-.2-.17-.35-.31v.12a.77.77,0,0,1-.11.53.57.57,0,0,1-.4.21.58.58,0,0,1-.42-.14.74.74,0,0,1-.2-.5l-.46-5.22a.86.86,0,0,1,.1-.57.51.51,0,0,1,.39-.22.55.55,0,0,1,.44.14A.74.74,0,0,1,112.6,99.07Zm.37,3.55a1.66,1.66,0,0,0,.42,1.07,1.09,1.09,0,0,0,.89.31,1,1,0,0,0,.75-.46,1.67,1.67,0,0,0,.22-1.15,2.06,2.06,0,0,0-.2-.81,1.22,1.22,0,0,0-.44-.49,1,1,0,0,0-.6-.14,1.09,1.09,0,0,0-.59.24,1.26,1.26,0,0,0-.37.58,2,2,0,0,0-.08.85Z"/><path id="Path_5229" data-name="Path 5229" class="cls-38" d="M121.9,101.81a3.08,3.08,0,0,1-.08,1,2.13,2.13,0,0,1-.42.82,2.06,2.06,0,0,1-.71.56,2.5,2.5,0,0,1-1,.26,2.55,2.55,0,0,1-1-.08,2.24,2.24,0,0,1-.8-.44,2.2,2.2,0,0,1-.55-.73,3,3,0,0,1-.17-2,2.1,2.1,0,0,1,1.12-1.37,2.5,2.5,0,0,1,1-.26,2.41,2.41,0,0,1,1,.09,2.12,2.12,0,0,1,.81.43,2.17,2.17,0,0,1,.54.73A2.9,2.9,0,0,1,121.9,101.81Zm-1.2.1a1.83,1.83,0,0,0-.43-1.11,1,1,0,0,0-.9-.33,1.1,1.1,0,0,0-.6.24,1.21,1.21,0,0,0-.37.57,2.47,2.47,0,0,0,.15,1.65,1.21,1.21,0,0,0,.45.5,1,1,0,0,0,.64.13,1,1,0,0,0,.83-.49,1.81,1.81,0,0,0,.23-1.16Z"/><path id="Path_5230" data-name="Path 5230" class="cls-38" d="M124.05,104.22l.09-.28-1.8-3.58a1.77,1.77,0,0,1-.18-.45.58.58,0,0,1,.06-.29.55.55,0,0,1,.2-.23.48.48,0,0,1,.28-.1.43.43,0,0,1,.4.13,1.29,1.29,0,0,1,.27.45l1.28,2.85.71-2.82a4.84,4.84,0,0,1,.17-.54.55.55,0,0,1,.17-.27A.52.52,0,0,1,126,99a.47.47,0,0,1,.26,0,.51.51,0,0,1,.21.17.62.62,0,0,1,.09.26s0,.13,0,.24,0,.21-.07.32l-1.2,4.22a4.63,4.63,0,0,1-.32.88,1.22,1.22,0,0,1-.47.51,1.87,1.87,0,0,1-.84.25,2.15,2.15,0,0,1-.8-.05.43.43,0,0,1-.3-.39.4.4,0,0,1,.1-.33A.58.58,0,0,1,123,105h.19a.45.45,0,0,0,.2,0,.72.72,0,0,0,.32-.08.6.6,0,0,0,.19-.23A3.8,3.8,0,0,0,124.05,104.22Z"/></g></g></svg>