<svg id="Layer_1" data-name="Layer 1" xmlns="http://www.w3.org/2000/svg" viewBox="0 0 200 200"><defs><style>.cls-1{fill:#e2e2e2;opacity:0.51;}.cls-1,.cls-18,.cls-19,.cls-5,.cls-6{isolation:isolate;}.cls-2{fill:#212636;}.cls-3{fill:#609b42;}.cls-4{fill:#f6901e;}.cls-5{fill:#d6d7bc;}.cls-27,.cls-6{fill:#d9d5ba;}.cls-6{opacity:0.9;}.cls-7{fill:none;}.cls-8{fill:#72af44;}.cls-9{fill:#f68f1e;}.cls-10{fill:gray;}.cls-11{fill:#1a1717;}.cls-12{fill:#f26f21;}.cls-13{fill:#e8a78f;stroke:#0098d5;stroke-width:1.42px;}.cls-13,.cls-30,.cls-31{stroke-miterlimit:10;}.cls-14{fill:#e8a863;}.cls-15,.cls-18,.cls-19{fill:#c86129;}.cls-16{fill:#17191a;}.cls-17{fill:#dfa663;}.cls-18{opacity:0.25;}.cls-19{opacity:0.5;}.cls-20,.cls-31{fill:#94ba4f;}.cls-21{fill:#343c41;}.cls-22{fill:#fff;}.cls-23{fill:#c5d299;}.cls-24{fill:#4d4c4d;}.cls-25{fill:#6d6d6d;}.cls-26{fill:#d4d3bc;}.cls-28{fill:#758085;}.cls-29{fill:#76bb43;}.cls-30{fill:#2e8742;}.cls-30,.cls-31{stroke:#fff;stroke-width:1.81px;}</style></defs><title>Cycle</title><ellipse id="Ellipse_120" data-name="Ellipse 120" class="cls-1" cx="83.58" cy="180.05" rx="43.31" ry="4.75" transform="translate(-5.66 2.74) rotate(-1.82)"/><ellipse id="Ellipse_120-2" data-name="Ellipse 120" class="cls-1" cx="103.12" cy="179.21" rx="85.91" ry="9.43" transform="translate(-5.63 3.36) rotate(-1.82)"/><path id="Rectangle_438" data-name="Rectangle 438" class="cls-2" d="M84.38,145.43l6.74,2.43a1.11,1.11,0,0,1,.67,1.42h0a1.12,1.12,0,0,1-1.42.67l-6.75-2.43A1.11,1.11,0,0,1,83,146.1h0A1.1,1.1,0,0,1,84.38,145.43Z"/><path id="Path_5145" data-name="Path 5145" class="cls-3" d="M52.13,154.3,33.87,113.8l2.8-.69,17.76,40Z"/><path id="Path_5146" data-name="Path 5146" class="cls-4" d="M81.56,140.69a13.42,13.42,0,0,0,3.08,2.84c1.69,1.07,2.53,3,5.49,6.41a11.91,11.91,0,0,0,5.51,3.77,5.36,5.36,0,0,0-.12-1,4.07,4.07,0,0,0-.34-.9A14.12,14.12,0,0,1,90.8,148l-.38-.49-.6.4-.34-.58L90,147c-.41-.52-.79-1-1.11-1.41l-.55.29-.28-.35.54-.32a12.35,12.35,0,0,1-.92-1.35l-.59.2-.25-.53.59-.25a.56.56,0,0,1,.08-.54.76.76,0,0,1,.65-.16,4.6,4.6,0,0,1-.2-.66l-1.57.14a.88.88,0,0,1-.11-.69l1.56,0q-.09-.6-.12-1.2L86,139.94l0-.7,1.61.19a9.69,9.69,0,0,1,0-1,10.09,10.09,0,0,1-3.16-2C84.14,137,82.46,139.25,81.56,140.69Z"/><path id="Path_5147" data-name="Path 5147" class="cls-5" d="M90.13,149.94c-3-3.44-3.8-5.34-5.49-6.41a13.42,13.42,0,0,1-3.08-2.84l-.3.49c-.87,1.5,1.41,3.14,2.76,3.94s2.6,2.59,3.61,3.92a22.23,22.23,0,0,0,5.5,4.87c2,1.26,2.52.84,2.51-.2A11.91,11.91,0,0,1,90.13,149.94Z"/><path id="Path_5148" data-name="Path 5148" class="cls-6" d="M89.82,147.91l1.49-1-.52-.58-1.31,1Z"/><path id="Path_5149" data-name="Path 5149" class="cls-6" d="M88.32,145.84l1.43-.75a4.46,4.46,0,0,1-.33-.43l-1.38.83Z"/><path id="Path_5150" data-name="Path 5150" class="cls-6" d="M87.07,144l1.55-.54q-.18-.3-.33-.6l-1.47.6Z"/><path id="Path_5151" data-name="Path 5151" class="cls-6" d="M86.37,142l1.57-.13a5.41,5.41,0,0,1-.12-.58l-1.56,0A.86.86,0,0,0,86.37,142Z"/><path id="Path_5152" data-name="Path 5152" class="cls-6" d="M86,139.94l1.66.16c0-.24,0-.46,0-.67l-1.61-.2Z"/><path id="Path_5153" data-name="Path 5153" class="cls-7" d="M88,145.49l.28.35.55-.29-.3-.38Z"/><path id="Path_5154" data-name="Path 5154" class="cls-7" d="M86.82,143.48l.25.54.59-.21a2.9,2.9,0,0,1-.25-.57Z"/><path id="Path_5155" data-name="Path 5155" class="cls-7" d="M89.48,147.33l.34.58.6-.4L90,147Z"/><path id="Path_5156" data-name="Path 5156" class="cls-4" d="M89.75,145.09l-.88.46c.32.42.7.89,1.11,1.41l.81-.62C90.44,146,90.09,145.53,89.75,145.09Z"/><path id="Path_5157" data-name="Path 5157" class="cls-4" d="M87.49,142.7a.55.55,0,0,0-.08.54l.88-.36-.12-.26,0-.08A.7.7,0,0,0,87.49,142.7Z"/><path id="Path_5158" data-name="Path 5158" class="cls-4" d="M88.62,143.48l-1,.33a12.48,12.48,0,0,0,.92,1.36l.84-.51A13.65,13.65,0,0,1,88.62,143.48Z"/><path id="Path_5159" data-name="Path 5159" class="cls-4" d="M91.31,146.93l-.89.58.38.49a14.12,14.12,0,0,0,4.38,3.83,24.41,24.41,0,0,0-3.64-4.65Z"/><path id="Path_5160" data-name="Path 5160" class="cls-8" d="M77.14,103.65l.26,0c6.77-.25,9.72,3.29,11.21,4.24s2.28.52,3.07.58a1.14,1.14,0,0,1,1,.85,1.37,1.37,0,0,0-.43,1.3,2.18,2.18,0,0,0,1,1.39,86.08,86.08,0,0,0-2.72,8.86A42.73,42.73,0,0,1,89,125.1c-.72,1.92-5.5,9.88-5.69,10.4s.58,1,.58,1l.7.54a8.87,8.87,0,0,0,3.15,1.71.92.92,0,0,0,.56-.53c.38-.72,4.15-8,4.5-9.51s2-3.18,3.09-4.66,1.6-5.59,4.27-11.18-.32-8-2.85-9.81c-1.89-1.33-10.33-6.94-14.47-9.7h0L80.68,92C79.42,96.87,77.14,103.65,77.14,103.65Z"/><path id="Path_5161" data-name="Path 5161" class="cls-9" d="M124.45,106l-3.24-3.35.29-.58-.51.35h0v0L84.35,127.17l-8.16-25.53-2.76.88,8.42,26.35-32.09,21.7,38.68,3.36.25-2.89-30.53-2.66L83,132.48l6.81,21.3,2.76-.88-.78-2.44,1.85,1.2ZM85.54,130.86,115,112,91.52,149.59Z"/><path id="Path_5162" data-name="Path 5162" class="cls-10" d="M56.76,150.79c0-.17,0-.34,0-.51L79,146.55l-.12-.69-22.23,3.73a5.18,5.18,0,0,0-1.8-2.85l13.5-19.28-.58-.4L54.79,145.55l7-20.94-.67-.23-7.25,21.74a5.09,5.09,0,0,0-2-.52V122.38h-.7V145.6a5.13,5.13,0,0,0-1.17.21l-7.21-20.08-.66.24L49,145.08,35.23,129.2l-.53.47,14.37,16.54a5.35,5.35,0,0,0-1.86,1.71l-.81-.14L26.3,137.59l-.32.63L44,147.38l-20.13-3.47-.12.7,22.39,3.85.58.29a5.31,5.31,0,0,0-.41,2c0,.14,0,.28,0,.41l-22.22,3.3.1.7,22.22-3.3c.05.21.1.41.17.62l-20.28,8.71.28.65,20.28-8.71,0,0L31,169.25l.5.5,15.81-15.94A5.36,5.36,0,0,0,48.47,155L36.79,173.37l.59.38,11.69-18.39.31.16c-2.92,7.69-8.26,21.77-8.39,22.16l.67.22c.11-.34,4.82-12.75,8.38-22.13a5.18,5.18,0,0,0,1.52.22h.26L50,178.29l.7.06,1.86-22.45a5.33,5.33,0,0,0,.66-.17c3.67,9,8.49,20.91,8.62,21.29l.67-.22c-.13-.4-5.61-13.87-8.64-21.33l.2-.1L66.44,175l.59-.38L54.63,155a5.1,5.1,0,0,0,1.26-1.32L74.3,166.43l.4-.58L56.25,153.06A5.23,5.23,0,0,0,56.76,150.79Z"/><g id="Group_2903" data-name="Group 2903"><path id="Path_5163" data-name="Path 5163" class="cls-2" d="M51.56,181.32A30.53,30.53,0,1,1,67,177.13,30.53,30.53,0,0,1,51.56,181.32Zm0-56.83A26.31,26.31,0,1,0,77.85,150.8h0a26.32,26.32,0,0,0-26.29-26.3Z"/></g><g id="Group_2905" data-name="Group 2905"><g id="Group_2904" data-name="Group 2904"><path id="Path_5164" data-name="Path 5164" class="cls-9" d="M75,119.46a1.57,1.57,0,0,1-1.35-.14h0c-14.28-8.63-34-5.38-39.77-4.18h0a.52.52,0,0,1-.6-.4s0-.06,0-.1v-1.12a1.74,1.74,0,0,1,1.47-1.7,127.78,127.78,0,0,1,14.36-1.46h.33c9,0,16.85,1.61,23.26,4.81a5.37,5.37,0,0,0,4.21.26l1.77-.62A1.94,1.94,0,0,1,81.08,116h0a1.26,1.26,0,0,1-.77,1.59Z"/></g></g><path id="Path_5165" data-name="Path 5165" class="cls-2" d="M68.56,99.78s-.5-1.83.65-2,5.45.5,6.57.32,7-1.47,8.06-.52.7,1.85-1.36,2.15-4.81.79-5.56,1.49S70.59,104.15,68.56,99.78Z"/><path id="Path_5166" data-name="Path 5166" class="cls-8" d="M149.12,152.78,116.32,96l3.51-1.54,32,56.08Z"/><g id="Group_2907" data-name="Group 2907"><path id="Path_5167" data-name="Path 5167" class="cls-10" d="M155,150.79a4.36,4.36,0,0,0,0-.51l22.23-3.73-.11-.7-22.23,3.74a5.18,5.18,0,0,0-1.8-2.85l13.49-19.28-.58-.4L153,145.55l7-20.94-.67-.23-7.25,21.74a5,5,0,0,0-1.94-.52V122.38h-.71V145.6a5.13,5.13,0,0,0-1.17.21l-7.2-20.08-.67.24,6.86,19.11L133.48,129.2l-.53.47,14.37,16.54a5.26,5.26,0,0,0-1.86,1.71l-.82-.14-20.09-10.19-.32.63,18,9.16-20.13-3.47-.12.7,22.39,3.85.59.29a5.14,5.14,0,0,0-.42,2c0,.14,0,.28,0,.41l-22.22,3.3.11.7,22.21-3.3c0,.21.11.41.18.62l-20.29,8.71.28.65,20.29-8.72v0l-15.93,16.06.51.5,15.8-15.94a5.15,5.15,0,0,0,1.16,1.17L135,173.37l.59.38,11.68-18.39.32.16c-2.92,7.69-8.27,21.77-8.4,22.16l.67.22c.12-.35,4.83-12.75,8.39-22.13a5.16,5.16,0,0,0,1.51.22h.26l-1.85,22.3.71.06,1.85-22.45a4.55,4.55,0,0,0,.66-.17c3.67,9,8.5,20.91,8.62,21.29l.67-.22c-.13-.4-5.6-13.88-8.64-21.33l.2-.1L164.67,175l.6-.38L152.86,155a5.14,5.14,0,0,0,1.27-1.32l18.4,12.76.4-.58-18.45-12.8A5.32,5.32,0,0,0,155,150.79Z"/><g id="Group_2906" data-name="Group 2906"><path id="Path_5168" data-name="Path 5168" class="cls-2" d="M149.8,181.32a30.51,30.51,0,1,1,15.45-4.19A30.53,30.53,0,0,1,149.8,181.32Zm0-56.83a26.31,26.31,0,1,0,26.3,26.31h0a26.33,26.33,0,0,0-26.3-26.3Z"/></g></g><path id="Path_5169" data-name="Path 5169" class="cls-11" d="M119.13,93.65a2.13,2.13,0,0,0-3.25-1.82h0l-1.16.73h0a2.13,2.13,0,0,0,1.46,4h0l0,0a2,2,0,0,0,1-.57l.55-.31a2.47,2.47,0,0,0,.61-.35l0,0h0A2.14,2.14,0,0,0,119.13,93.65Z"/><g id="Group_2913" data-name="Group 2913"><path id="Path_5170" data-name="Path 5170" class="cls-12" d="M91.18,21.38a9.25,9.25,0,0,1-2.94,1.44c.29,1,.45,1.73.45,1.73,10.54-2.13,12-7.58,12.07-7.95C98.09,16.4,95.42,18.2,91.18,21.38Z"/><path id="Path_5171" data-name="Path 5171" class="cls-13" d="M81.83,42l0,0,0,0Z"/><path id="Path_5172" data-name="Path 5172" class="cls-14" d="M80.48,42.1l0,1.8,0,1.12v.35l0,0a.28.28,0,0,0,0,.09v0a.13.13,0,0,0,0,.06v0a.13.13,0,0,1,0,.06s0,0,0,0l0,.07s0,0,0,0l0,.07,0,0,0,.07s0,0,0,0l0,.08v0l.08.1,0,0,0,.05,0,0,0,0,0,0,.06,0,.05,0,.06,0,.06,0,.07,0,.06,0,.1,0h0l.16,0c1.46.29,1.48-.52,1.56-1.17l.13-1.13.15-1.21A3.6,3.6,0,0,1,80.48,42.1Z"/><path id="Path_5173" data-name="Path 5173" class="cls-15" d="M86.67,35.37a9.12,9.12,0,0,0,4.25,3.89c.21-.29.4-.58.58-.87C90.87,38.18,87.89,37.1,86.67,35.37Z"/><path id="Path_5174" data-name="Path 5174" class="cls-16" d="M77.08,35.45a8.4,8.4,0,0,0,.76,1.95c1.16.29.91-.58.55-1.45a1.09,1.09,0,0,1-.08-.47c-.12,0-.24-.11-.37-.11A3.1,3.1,0,0,1,77.08,35.45Z"/><path id="Path_5175" data-name="Path 5175" class="cls-16" d="M81.05,23.23c0-.18,0-.65.06-1-.25,0-.47-.05-.66-.08-.49-.06-.77-.11-.77-.11-4.85,2.9-6,4.26-6,4.26s1.49,3.41,1.78,4a2.32,2.32,0,0,1,2.7,1.24,8.83,8.83,0,0,1,1,2.25,1.43,1.43,0,0,0,.37-.44,1.63,1.63,0,0,0,.11-.23c.11-.37-.35-1.69-.49-3.51A3.58,3.58,0,0,1,79.59,27,36.52,36.52,0,0,0,81.05,23.23Z"/><path id="Path_5176" data-name="Path 5176" class="cls-17" d="M79.24,34.12c0-.1,0-.19-.08-.28a7.93,7.93,0,0,0-1-2.25,2.24,2.24,0,0,0-2.7-1.23c-.13,0-1.23.48-1.27,2.32a2.41,2.41,0,0,0,.72,1.79,4.31,4.31,0,0,0,1.42.79,4,4,0,0,0,2.63.1.57.57,0,0,0,.39-.54A2.4,2.4,0,0,0,79.24,34.12Z"/><path id="Path_5177" data-name="Path 5177" class="cls-18" d="M78.79,34.28c-.3-1.06-.91-2.31-2.1-2.53a1.32,1.32,0,0,0-.56,0,1.41,1.41,0,0,0-.83,1.42,1.88,1.88,0,0,0,1.19,1.59,6.65,6.65,0,0,0,.61.27,2.43,2.43,0,0,0,1.1.15.74.74,0,0,0,.5-.2A.69.69,0,0,0,78.79,34.28Z"/><path id="Path_5178" data-name="Path 5178" class="cls-19" d="M76.26,33.16s1-.08,1.18.27,0,.41-.17.43-.28.17.11.47,1.06.45,1.09.21-.29-.3-.4-.55A.7.7,0,0,1,78,33.5c0-.16-.47-.62-.82-.67A1.87,1.87,0,0,0,76.26,33.16Z"/><line id="Line_55" data-name="Line 55" class="cls-7" x1="88.35" y1="23.63" x2="88.3" y2="23.59"/><path id="Path_5180" data-name="Path 5180" class="cls-15" d="M83.62,42.2l0-.3-3.29-1.23.1.76v.68a3.61,3.61,0,0,0,3,1.08l.12-1Z"/><path id="Path_5181" data-name="Path 5181" class="cls-14" d="M95.4,31.71a1.8,1.8,0,0,0-2-1.44,33.26,33.26,0,0,0-1.29-9.08l.15-.14h-.18l-.42-1.92A37.18,37.18,0,0,1,87.92,21l-1.07,0-.17.55c-.68.28-1.43.59-2.25.91a30.62,30.62,0,0,1-3.32-.16c0,.31,0,.78-.06,1a12.94,12.94,0,0,1-.6,1.68,6.12,6.12,0,0,0-.8,1.94l-.06.13a3.57,3.57,0,0,0-.45,2.68c.14,1.82.61,3.13.49,3.51a1.49,1.49,0,0,1-.47.67h0c0,.08,0,.18.08.27.34,1.21-.13,1.26-.94,1.37a1.18,1.18,0,0,0,.09.46c.36.87.61,1.74-.55,1.46a18.91,18.91,0,0,0,1.31,2.1l0,0a10.22,10.22,0,0,0,2.15,2.3h0l0,0a7.37,7.37,0,0,0,1.22.77,5.53,5.53,0,0,0,2.2.54,4.08,4.08,0,0,0,.78,0h0l.13,0a4.88,4.88,0,0,0,1.57-.54,3.77,3.77,0,0,0,.54-.34,10.85,10.85,0,0,0,3.15-3,9,9,0,0,1-4.25-3.89c1.22,1.74,4.2,2.81,4.83,3a16.42,16.42,0,0,0,1.92-4.52S95.67,33.33,95.4,31.71Z"/><path id="Path_5182" data-name="Path 5182" class="cls-20" d="M92.4,18.3A33.63,33.63,0,0,1,97,16.85a62,62,0,0,0-7.34,1.84h0c0-.13-.1-.25-.16-.37a12.88,12.88,0,0,0-2.84.91C86.4,19.55,89.82,19.39,92.4,18.3Z"/><path id="Path_5183" data-name="Path 5183" class="cls-12" d="M92.4,18.3A33.63,33.63,0,0,1,97,16.85a62,62,0,0,0-7.34,1.84h0c0-.13-.1-.25-.16-.37a12.88,12.88,0,0,0-2.84.91C86.4,19.55,89.82,19.39,92.4,18.3Z"/><path id="Path_5184" data-name="Path 5184" class="cls-9" d="M100.7,16.57a7.32,7.32,0,0,0-2.76.11c-.3.05-.6.1-.91.17A33.63,33.63,0,0,0,92.4,18.3c-2.58,1.09-6,1.25-5.74.94a12.88,12.88,0,0,1,2.84-.91C88.21,15.61,84,14,80.31,14.42a7.47,7.47,0,0,0-3.22,1.24,10,10,0,0,0-1.38,1.05,14.29,14.29,0,0,0-3.18,4,1.77,1.77,0,0,0-.13.55,4.13,4.13,0,0,0,0,.86,15.15,15.15,0,0,0,.81,3c.3.83.6,1.54.74,1.85h0s.9-1.3,4.54-3.66l1.63-1s5.75,1.1,10.58-.4c2.44-.75,6.94-5.55,10-5.31Z"/><g id="Group_2908" data-name="Group 2908"><path id="Path_5185" data-name="Path 5185" class="cls-21" d="M91,27.29c0,.82-.39,1.5-.89,1.5s-.92-.66-.93-1.49.4-1.5.9-1.5S91,26.46,91,27.29Z"/><path id="Path_5186" data-name="Path 5186" class="cls-22" d="M90.88,27.62c0,.39-.19.71-.43.72S90,28,90,27.63s.19-.71.43-.72S90.87,27.23,90.88,27.62Z"/></g><g id="Group_2910" data-name="Group 2910"><g id="Group_2909" data-name="Group 2909"><path id="Path_5187" data-name="Path 5187" class="cls-23" d="M84.21,19.37a.46.46,0,0,1-.2-.05.57.57,0,0,1-.24-.27l-1.25-2.54a.54.54,0,0,1-.06-.35.29.29,0,0,1,.23-.21l.12,0A.36.36,0,0,1,83,16a.55.55,0,0,1,.24.26l.36.73a.82.82,0,0,1,.16-.22.91.91,0,0,1,.44-.24,1.24,1.24,0,0,1,.33,0,1.73,1.73,0,0,1,.32,0,1.48,1.48,0,0,1,.59.32,2.1,2.1,0,0,1,.45.62,1.84,1.84,0,0,1,.18.53,1.24,1.24,0,0,1,0,.47.78.78,0,0,1-.23.38,1,1,0,0,1-.42.22,1.57,1.57,0,0,1-.3.05h0a1.27,1.27,0,0,1-.28,0L84.61,19l0,0a.28.28,0,0,1,0,.18.33.33,0,0,1-.23.2Zm.22-2.22-.13,0a.37.37,0,0,0-.22.14.42.42,0,0,0-.07.27.88.88,0,0,0,.11.39,1,1,0,0,0,.39.45.59.59,0,0,0,.31.09h0a.41.41,0,0,0,.16,0,.34.34,0,0,0,.25-.24.76.76,0,0,0-.1-.53,1.07,1.07,0,0,0-.25-.35.68.68,0,0,0-.29-.18.41.41,0,0,0-.16,0Z"/><path id="Path_5188" data-name="Path 5188" class="cls-23" d="M83.17,16.29l.44.89a1,1,0,0,1,.22-.36.78.78,0,0,1,.4-.21,1.11,1.11,0,0,1,.6,0,1.22,1.22,0,0,1,.56.3,1.76,1.76,0,0,1,.43.58A1.8,1.8,0,0,1,86,18a1.1,1.1,0,0,1,0,.44.75.75,0,0,1-.21.34.74.74,0,0,1-.38.2.86.86,0,0,1-.28,0,1.06,1.06,0,0,1-.25,0l-.21-.07-.24-.12,0,.06a.36.36,0,0,1,0,.27.26.26,0,0,1-.17.14.35.35,0,0,1-.25,0,.45.45,0,0,1-.2-.23L82.6,16.47a.38.38,0,0,1-.06-.29.24.24,0,0,1,.17-.15.39.39,0,0,1,.26,0A.45.45,0,0,1,83.17,16.29ZM84.05,18a1.13,1.13,0,0,0,.43.49.7.7,0,0,0,.53.07.45.45,0,0,0,.31-.3.81.81,0,0,0-.11-.59A1.22,1.22,0,0,0,85,17.3a.83.83,0,0,0-.32-.2.6.6,0,0,0-.35,0,.48.48,0,0,0-.27.17.54.54,0,0,0-.08.33,1.06,1.06,0,0,0,.12.42Z"/><path id="Path_5189" data-name="Path 5189" class="cls-23" d="M87,18.6a.46.46,0,0,1-.2-.05.53.53,0,0,1-.24-.27l-1.25-2.54a.53.53,0,0,1-.06-.35.31.31,0,0,1,.23-.21h.12a.29.29,0,0,1,.2.05.55.55,0,0,1,.24.26l.36.73a1.12,1.12,0,0,1,.16-.22,1,1,0,0,1,.44-.24,1.27,1.27,0,0,1,.34,0,1.63,1.63,0,0,1,.31,0,1.38,1.38,0,0,1,.59.33,1.93,1.93,0,0,1,.45.61,1.58,1.58,0,0,1,.18.53,1.07,1.07,0,0,1,0,.47.78.78,0,0,1-.23.38.85.85,0,0,1-.42.22,1,1,0,0,1-.3,0h0a1.33,1.33,0,0,1-.28,0,.9.9,0,0,1-.21-.08l0,0a.28.28,0,0,1,0,.18.32.32,0,0,1-.22.2Zm.22-2.22-.13,0a.37.37,0,0,0-.29.41,1,1,0,0,0,.11.39,1,1,0,0,0,.4.46.65.65,0,0,0,.31.08h0a.4.4,0,0,0,.15,0,.32.32,0,0,0,.25-.24.76.76,0,0,0-.1-.53,1.21,1.21,0,0,0-.24-.35.82.82,0,0,0-.29-.18l-.16,0Z"/><path id="Path_5190" data-name="Path 5190" class="cls-23" d="M86,15.52l.44.89a1,1,0,0,1,.22-.36.78.78,0,0,1,.4-.21,1.11,1.11,0,0,1,.6,0,1.33,1.33,0,0,1,.56.3,1.76,1.76,0,0,1,.43.58,1.8,1.8,0,0,1,.17.51,1.1,1.1,0,0,1,0,.44.83.83,0,0,1-.2.34.81.81,0,0,1-.39.2.86.86,0,0,1-.28,0,.71.71,0,0,1-.25,0l-.2-.07L87.22,18l0,.06a.36.36,0,0,1,0,.27.26.26,0,0,1-.17.14.35.35,0,0,1-.25,0,.45.45,0,0,1-.2-.23L85.42,15.7a.41.41,0,0,1,0-.29.19.19,0,0,1,.16-.14.33.33,0,0,1,.26,0A.5.5,0,0,1,86,15.52Zm.88,1.72a1,1,0,0,0,.43.49.7.7,0,0,0,.53.07.45.45,0,0,0,.31-.3.89.89,0,0,0-.1-.6,1.41,1.41,0,0,0-.27-.37.85.85,0,0,0-.32-.21.69.69,0,0,0-.35,0,.54.54,0,0,0-.27.18.51.51,0,0,0-.08.32,1.06,1.06,0,0,0,.12.43Z"/></g></g><g id="Group_2912" data-name="Group 2912"><g id="Group_2911" data-name="Group 2911"><path id="Path_5191" data-name="Path 5191" class="cls-22" d="M83.42,16.25l.4.82a1.15,1.15,0,0,1,.21-.33.73.73,0,0,1,.37-.19,1,1,0,0,1,.55,0,1.26,1.26,0,0,1,.51.27,1.86,1.86,0,0,1,.39.54,1.48,1.48,0,0,1,.16.46,1.08,1.08,0,0,1,0,.4.63.63,0,0,1-.19.31.8.8,0,0,1-.35.19l-.26,0-.23,0a.64.64,0,0,1-.18-.06,1.48,1.48,0,0,1-.22-.11l0,.05a.32.32,0,0,1,0,.25.23.23,0,0,1-.16.13.31.31,0,0,1-.23,0,.44.44,0,0,1-.18-.2l-1.14-2.33a.34.34,0,0,1,0-.26A.21.21,0,0,1,83,16a.33.33,0,0,1,.24,0A.41.41,0,0,1,83.42,16.25Zm.81,1.58a1,1,0,0,0,.39.44.6.6,0,0,0,.49.06.4.4,0,0,0,.28-.27.73.73,0,0,0-.1-.54,1.21,1.21,0,0,0-.24-.35.68.68,0,0,0-.29-.18.5.5,0,0,0-.32,0,.4.4,0,0,0-.24.16.44.44,0,0,0-.08.29,1.08,1.08,0,0,0,.11.4Z"/><path id="Path_5192" data-name="Path 5192" class="cls-22" d="M86,15.55l.39.82a.93.93,0,0,1,.21-.33.83.83,0,0,1,.37-.2,1,1,0,0,1,.55,0,1.16,1.16,0,0,1,.5.27,1.65,1.65,0,0,1,.4.54,1.46,1.46,0,0,1,.15.46.9.9,0,0,1,0,.4.71.71,0,0,1-.19.31A.92.92,0,0,1,88,18a1.09,1.09,0,0,1-.26,0,.6.6,0,0,1-.23,0L87.36,18l-.23-.11,0,0a.27.27,0,0,1,0,.25.22.22,0,0,1-.15.13.31.31,0,0,1-.23,0,.46.46,0,0,1-.18-.21l-1.14-2.32a.34.34,0,0,1,0-.26.21.21,0,0,1,.15-.14.34.34,0,0,1,.24,0A.44.44,0,0,1,86,15.55Zm.8,1.57a1,1,0,0,0,.39.45.64.64,0,0,0,.49.06.4.4,0,0,0,.28-.27.76.76,0,0,0-.1-.55,1.31,1.31,0,0,0-.24-.34.81.81,0,0,0-.29-.19.69.69,0,0,0-.32,0,.46.46,0,0,0-.24.17.43.43,0,0,0-.08.29.88.88,0,0,0,.11.39Z"/></g></g></g><path id="Path_5193" data-name="Path 5193" class="cls-9" d="M80.87,45.11,78.4,46.58a18.91,18.91,0,0,0-6.64,13.34l.26,3L70.16,82.65l-.64,11.22,16.86,2s-2.08-30.54.28-41a7.52,7.52,0,0,0-.1-3.71A12.26,12.26,0,0,0,83.74,46S81.71,47,80.87,45.11Z"/><path id="Path_5194" data-name="Path 5194" class="cls-9" d="M80.93,48.34s4.28,2.34,6.77,13.47l-9.55,2.08S70.77,46.31,80.93,48.34Z"/><path id="Path_5195" data-name="Path 5195" class="cls-12" d="M87.7,61.81c-3.33-1.41-6.5-.48-9.55,2.08C78.15,63.89,84.46,65.51,87.7,61.81Z"/><path id="Path_5196" data-name="Path 5196" class="cls-24" d="M117.94,91.77c.67,1.09,2,3.28,2.71,4.44h0C123.81,91.9,119,91.7,117.94,91.77Zm3.35,1.88a.49.49,0,0,1-.06.37.23.23,0,0,1-.19.1c-.1,0-.1-.17-.13-.27a2.29,2.29,0,0,0-.09-.28,1.58,1.58,0,0,0-.76-.85l-.3-.13c-.09,0-.21,0-.25-.14s.07-.13.13-.16a.68.68,0,0,1,.4,0,1.21,1.21,0,0,1,.32.11,1.76,1.76,0,0,1,.52.37,1.7,1.7,0,0,1,.34.54A1.3,1.3,0,0,1,121.29,93.65Z"/><path id="Path_5197" data-name="Path 5197" class="cls-14" d="M119.11,92.91c-1.17-2.26-7.47-1.13-7.47-1.13L89.17,79.18,85.79,61.24a7.59,7.59,0,0,0-6.1,1.7l5.7,19.68c6,5.77,25.3,11.06,25.3,11.06a11.71,11.71,0,0,0,3,.9,1.22,1.22,0,0,1,1.52-.82,1.35,1.35,0,0,1,.38.19c1.44.5.87,2.36.87,2.36-.22.82.31.47.31.47a3.08,3.08,0,0,0,.36-2,3.3,3.3,0,0,1-.25,1.73.32.32,0,0,0,.32.3.41.41,0,0,0,.19-.08c0-.06.06-.11.09-.16.26.64.71.08.71.08.74-1.69.6-2.26.5-2.43.39.54-.43,2.27-.43,2.27a.68.68,0,0,0,.72-.36A2.52,2.52,0,0,0,119.11,92.91Zm-1.68,3.71a4.19,4.19,0,0,0,.58-2.07A3.53,3.53,0,0,1,117.43,96.62Z"/><path id="Path_5198" data-name="Path 5198" class="cls-25" d="M99.81,157.08a7.46,7.46,0,1,0-1,2.17C99.17,158.54,99.51,157.82,99.81,157.08Z"/><path id="Rectangle_438-2" data-name="Rectangle 438" class="cls-2" d="M92.16,152.91l7.15.48a1.12,1.12,0,0,1,1,1.19h0a1.12,1.12,0,0,1-1.19,1L92,155.12a1.11,1.11,0,0,1-1-1.18h0A1.1,1.1,0,0,1,92.16,152.91Z"/><g id="Group_2914" data-name="Group 2914"><path id="Path_5199" data-name="Path 5199" class="cls-26" d="M104.36,152.17a10,10,0,0,1-2.93.72c-4,.56-6.54-1-8.05-.84a30.32,30.32,0,0,1-4.47,0c0,2,1.14,1.68,2.18,1.51s2.12-.3,6.68.41,6.65-1,6.65-1A.61.61,0,0,0,104.36,152.17Z"/><path id="Path_5200" data-name="Path 5200" class="cls-27" d="M97.42,151.85l.49.16.55-1.48-.61-.07Z"/><path id="Path_5201" data-name="Path 5201" class="cls-27" d="M95.6,151.56l.35.06.63-1.33-.43-.07Z"/><path id="Path_5202" data-name="Path 5202" class="cls-27" d="M94.59,149.78l-.74,1.27.42.18.81-1.25A3,3,0,0,1,94.59,149.78Z"/><path id="Path_5203" data-name="Path 5203" class="cls-27" d="M92.45,150.09a.59.59,0,0,0,.4.34l1.06-1-.37-.23Z"/><path id="Path_5204" data-name="Path 5204" class="cls-27" d="M91.65,149.39l1.1-.79c-.13-.11-.25-.23-.37-.35l-1,.71Z"/><path id="Path_5205" data-name="Path 5205" class="cls-7" d="M94.19,150.47l-.35.59.42.17.37-.57A3.43,3.43,0,0,1,94.19,150.47Z"/><path id="Path_5206" data-name="Path 5206" class="cls-7" d="M95.6,151.56l.35.06.24-.52-.37-.09Z"/><path id="Path_5207" data-name="Path 5207" class="cls-7" d="M97.42,151.85l.49.16.2-.54-.54-.09Z"/><path id="Path_5208" data-name="Path 5208" class="cls-4" d="M103.12,151.32c-.85.5-2.92.47-5,.15l-.2.55-.49-.16.15-.48q-.7-.12-1.38-.27l-.24.51-.35-.05.22-.55-.42-.11a7.54,7.54,0,0,1-.76-.25l-.37.57-.42-.17.34-.59c-.87-.46-.52-.85-.26-1h0l-1.06,1a.56.56,0,0,1-.39-.34l1.09-.89a9.15,9.15,0,0,1-.8-.59l-1.1.78-.31-.43,1-.7a1.84,1.84,0,0,1-.54-.88,4.93,4.93,0,0,1-2.09.21,1.15,1.15,0,0,1-.84-.13,8.45,8.45,0,0,1,.09,3.61,7.45,7.45,0,0,0-.09,1,28.89,28.89,0,0,0,4.46,0c1.52-.2,4,1.4,8,.84a10,10,0,0,0,2.94-.72A3.16,3.16,0,0,0,103.12,151.32Z"/><path id="Path_5209" data-name="Path 5209" class="cls-4" d="M96.58,150.29l-.39.81c.45.11.91.2,1.38.28l.28-.92Z"/><path id="Path_5210" data-name="Path 5210" class="cls-4" d="M95.27,150l-.19-.06-.44.68a7.77,7.77,0,0,0,.76.24l.43.11.32-.79C95.79,150.16,95.49,150.1,95.27,150Z"/><path id="Path_5211" data-name="Path 5211" class="cls-4" d="M94.19,150.47l.4-.69a6.89,6.89,0,0,1-.66-.34C93.67,149.62,93.32,150,94.19,150.47Z"/><path id="Path_5212" data-name="Path 5212" class="cls-4" d="M98.46,150.54l-.35.93c2.09.32,4.16.35,5-.15l-.19-.07A30.8,30.8,0,0,0,98.46,150.54Z"/><path id="Path_5213" data-name="Path 5213" class="cls-28" d="M89.75,147.59c.56-1.49-.91-9.23-1.15-10.81C88.83,138.31,90.17,145.75,89.75,147.59Z"/><path id="Path_5214" data-name="Path 5214" class="cls-8" d="M91.85,147.21c.26-.77-.22-13.05-.35-15.54a63.37,63.37,0,0,1,.35-9.84,11.05,11.05,0,0,0,.1-4.25c-.18-.42-3.2-8-3.35-9s-2-3.27-2.71-4.82-.48-2.86-1.06-3.33-1.15-.89-1.15-.89c.21-.4,2-4.31,2-4.31l-.75-.42-.22-.14-.5-.29-.26-.16L83.5,94l-.29-.18-.37-.24-.3-.2-.33-.21-.31-.21-.29-.2-.31-.21L81,92.34l-.32-.22L80.49,92l-.32-.23-.2-.16-.32-.24-.18-.14-.31-.25L79,90.8a22,22,0,0,1-1.79-1.56l-.15-.13,0,0s0,0,0,0l-.13-.13A19.38,19.38,0,0,1,74,85.45v0a1.63,1.63,0,0,1-.11-.17v0c0-.06-.07-.12-.11-.17a14,14,0,0,1-2.39,3.65,4.29,4.29,0,0,0-1.65,4,17,17,0,0,0,1.94,4.15h0s4,5.21,6.7,8.11l.11-.06.9,1.12a3.75,3.75,0,0,1,.67.86c6.39,8.32,5.49,10.69,5.21,11.15a1,1,0,0,0,.24,1.42l.07.05c.58.43,1.06,1.08.7,1.62s-1,1,0,2.22.21,2.53-.42,5.14,0,8,.71,8.91,1.76,5.7,1.82,7.75.62,2.32.62,2.32h0a1.6,1.6,0,0,0,.84.13c.41-1.84-.92-9.28-1.16-10.81.25,1.58,1.72,9.32,1.16,10.81a5,5,0,0,0,2.09-.21A.38.38,0,0,1,91.85,147.21Z"/></g><path id="Path_5215" data-name="Path 5215" class="cls-9" d="M69.75,89.91l2.86-4.43L85.93,87.7l.45,8.16-.94,0-15.92-2Z"/><rect id="Rectangle_439" data-name="Rectangle 439" class="cls-4" x="32.34" y="73.83" width="35.21" height="37.66"/><rect id="Rectangle_440" data-name="Rectangle 440" class="cls-8" x="31.07" y="108.85" width="36.48" height="2.64"/><rect id="Rectangle_441" data-name="Rectangle 441" class="cls-8" x="30.52" y="73" width="37.03" height="2.01"/><path id="Path_5216" data-name="Path 5216" class="cls-29" d="M32.34,76.34,67.09,75H32.34"/><rect id="Rectangle_442" data-name="Rectangle 442" class="cls-8" x="31.55" y="83.43" width="1.52" height="5.84" rx="0.64" ry="0.64"/><rect id="Rectangle_443" data-name="Rectangle 443" class="cls-29" x="30.31" y="84.4" width="1.52" height="3.89" rx="0.64" ry="0.64"/><g id="Group_2918" data-name="Group 2918"><g id="Group_2916" data-name="Group 2916"><g id="Group_2915" data-name="Group 2915"><path id="Path_5217" data-name="Path 5217" class="cls-30" d="M37.63,89.94l.13,1.54A2.37,2.37,0,0,1,38.3,91a1.78,1.78,0,0,1,1.62-.06,1.67,1.67,0,0,1,.65.64,2.64,2.64,0,0,1,.3,1.06,3,3,0,0,1,0,.85,2,2,0,0,1-.28.69,1.64,1.64,0,0,1-.5.48,1.5,1.5,0,0,1-.68.21,1.7,1.7,0,0,1-.45,0,1.27,1.27,0,0,1-.36-.12,1.4,1.4,0,0,1-.26-.16l-.3-.27v.1a.6.6,0,0,1-.1.45.5.5,0,0,1-.69.06.67.67,0,0,1-.16-.42l-.39-4.4a.79.79,0,0,1,.08-.48.45.45,0,0,1,.33-.19.44.44,0,0,1,.37.12A.67.67,0,0,1,37.63,89.94Zm.31,3a1.37,1.37,0,0,0,.35.9.93.93,0,0,0,.76.26.86.86,0,0,0,.62-.39,1.44,1.44,0,0,0,.19-1,1.75,1.75,0,0,0-.17-.68,1.07,1.07,0,0,0-.37-.42.8.8,0,0,0-.5-.11.89.89,0,0,0-.5.2,1.08,1.08,0,0,0-.32.49A1.74,1.74,0,0,0,37.94,92.93Z"/><path id="Path_5218" data-name="Path 5218" class="cls-30" d="M44.52,92.58l-2,.17a1.25,1.25,0,0,0,.19.59.93.93,0,0,0,.9.45,1.14,1.14,0,0,0,.32-.07,1,1,0,0,0,.28-.16,1.7,1.7,0,0,0,.24-.22c.08-.07.17-.18.28-.3A.31.31,0,0,1,45,93a.4.4,0,0,1,.26.06.35.35,0,0,1,.12.23.73.73,0,0,1-.08.33A1.1,1.1,0,0,1,45,94a1.91,1.91,0,0,1-.52.33,2.43,2.43,0,0,1-.74.18A2,2,0,0,1,42.17,94a2.08,2.08,0,0,1-.67-1.46,2.37,2.37,0,0,1,.06-.84,1.77,1.77,0,0,1,.33-.69,1.68,1.68,0,0,1,.59-.47,2.28,2.28,0,0,1,.81-.23,2.06,2.06,0,0,1,1,.16,1.72,1.72,0,0,1,.69.59,1.75,1.75,0,0,1,.28.79.49.49,0,0,1-.17.51A1.35,1.35,0,0,1,44.52,92.58Zm-2-.4L44.32,92a1.21,1.21,0,0,0-.34-.75.87.87,0,0,0-.66-.2.8.8,0,0,0-.59.32,1.2,1.2,0,0,0-.23.8Z"/><path id="Path_5219" data-name="Path 5219" class="cls-30" d="M46.3,93.62l-.38-4.38a.7.7,0,0,1,.09-.47.48.48,0,0,1,.35-.19.52.52,0,0,1,.39.13.67.67,0,0,1,.18.44l.38,4.38a.66.66,0,0,1-.1.47.44.44,0,0,1-.35.18.47.47,0,0,1-.38-.12A.72.72,0,0,1,46.3,93.62Z"/><path id="Path_5220" data-name="Path 5220" class="cls-30" d="M48.35,93.44,48,89.06a.7.7,0,0,1,.09-.47.44.44,0,0,1,.35-.18.47.47,0,0,1,.39.12A.72.72,0,0,1,49,89l.38,4.37a.67.67,0,0,1-.1.48.44.44,0,0,1-.35.18.47.47,0,0,1-.38-.12A.72.72,0,0,1,48.35,93.44Z"/><path id="Path_5221" data-name="Path 5221" class="cls-31" d="M51,88.76l.14,1.54a2.52,2.52,0,0,1,.53-.5,1.78,1.78,0,0,1,1.62-.06,1.49,1.49,0,0,1,.65.64,2.4,2.4,0,0,1,.3,1.05,2.7,2.7,0,0,1,0,.85,1.9,1.9,0,0,1-.28.69,1.36,1.36,0,0,1-.5.48,1.48,1.48,0,0,1-.68.22,1.61,1.61,0,0,1-.44,0,1.37,1.37,0,0,1-.36-.11,1.53,1.53,0,0,1-.27-.17l-.29-.26v.1a.63.63,0,0,1-.1.44.47.47,0,0,1-.69.06.69.69,0,0,1-.17-.42L50,88.89a.77.77,0,0,1,.09-.47.37.37,0,0,1,.33-.19.43.43,0,0,1,.37.12A.69.69,0,0,1,51,88.76Zm.31,3a1.38,1.38,0,0,0,.36.9.87.87,0,0,0,.75.26.83.83,0,0,0,.62-.39,1.37,1.37,0,0,0,.19-1,1.75,1.75,0,0,0-.17-.67,1,1,0,0,0-.37-.42.8.8,0,0,0-.5-.11.85.85,0,0,0-.5.2,1,1,0,0,0-.32.48,1.76,1.76,0,0,0-.06.72Z"/><path id="Path_5222" data-name="Path 5222" class="cls-31" d="M58.78,91.07a2.4,2.4,0,0,1-.07.84,1.8,1.8,0,0,1-.94,1.16,2.19,2.19,0,0,1-.82.23,2.17,2.17,0,0,1-.84-.08,1.7,1.7,0,0,1-.67-.37,1.82,1.82,0,0,1-.46-.61,2.52,2.52,0,0,1-.15-1.67,1.74,1.74,0,0,1,.34-.68,2,2,0,0,1,.6-.48,2.31,2.31,0,0,1,.82-.21,2.16,2.16,0,0,1,.84.07,1.81,1.81,0,0,1,.67.36,1.79,1.79,0,0,1,.47.62A2.31,2.31,0,0,1,58.78,91.07Zm-1,.09a1.52,1.52,0,0,0-.36-.94.89.89,0,0,0-.76-.28.9.9,0,0,0-.51.2,1,1,0,0,0-.3.48A2.07,2.07,0,0,0,56,92a1,1,0,0,0,.38.42.86.86,0,0,0,.54.12.88.88,0,0,0,.7-.42,1.5,1.5,0,0,0,.19-1Z"/><path id="Path_5223" data-name="Path 5223" class="cls-31" d="M60.6,93.1l.07-.24-1.52-3a1.09,1.09,0,0,1-.14-.38.43.43,0,0,1,0-.25.61.61,0,0,1,.17-.19.5.5,0,0,1,.23-.09.38.38,0,0,1,.34.11,1.14,1.14,0,0,1,.23.38l1.08,2.41.6-2.38a3.5,3.5,0,0,1,.14-.46.38.38,0,0,1,.39-.3.43.43,0,0,1,.22,0,.35.35,0,0,1,.17.15.42.42,0,0,1,.08.21q0,.08,0,.21c0,.08,0,.18-.06.27l-1,3.55a4.33,4.33,0,0,1-.27.74,1.13,1.13,0,0,1-.4.44,1.58,1.58,0,0,1-.71.2,1.69,1.69,0,0,1-.67,0,.33.33,0,0,1-.25-.33.3.3,0,0,1,.08-.27.43.43,0,0,1,.3-.13H60a.6.6,0,0,0,.27-.07.45.45,0,0,0,.16-.2A2.66,2.66,0,0,0,60.6,93.1Z"/></g></g><g id="Group_2917" data-name="Group 2917"><path id="Path_5224" data-name="Path 5224" class="cls-4" d="M37.63,89.94l.13,1.54A2.37,2.37,0,0,1,38.3,91a1.78,1.78,0,0,1,1.62-.06,1.67,1.67,0,0,1,.65.64,2.64,2.64,0,0,1,.3,1.06,3,3,0,0,1,0,.85,2,2,0,0,1-.28.69,1.64,1.64,0,0,1-.5.48,1.5,1.5,0,0,1-.68.21,1.7,1.7,0,0,1-.45,0,1.27,1.27,0,0,1-.36-.12,1.4,1.4,0,0,1-.26-.16l-.3-.27v.1a.6.6,0,0,1-.1.45.5.5,0,0,1-.69.06.67.67,0,0,1-.16-.42l-.39-4.4a.79.79,0,0,1,.08-.48.45.45,0,0,1,.33-.19.44.44,0,0,1,.37.12A.67.67,0,0,1,37.63,89.94Zm.31,3a1.37,1.37,0,0,0,.35.9.93.93,0,0,0,.76.26.86.86,0,0,0,.62-.39,1.44,1.44,0,0,0,.19-1,1.75,1.75,0,0,0-.17-.68,1.07,1.07,0,0,0-.37-.42.8.8,0,0,0-.5-.11.89.89,0,0,0-.5.2,1.08,1.08,0,0,0-.32.49A1.74,1.74,0,0,0,37.94,92.93Z"/><path id="Path_5225" data-name="Path 5225" class="cls-4" d="M44.52,92.58l-2,.17a1.25,1.25,0,0,0,.19.59.93.93,0,0,0,.9.45,1.14,1.14,0,0,0,.32-.07,1,1,0,0,0,.28-.16,1.7,1.7,0,0,0,.24-.22c.08-.07.17-.18.28-.3A.31.31,0,0,1,45,93a.4.4,0,0,1,.26.06.35.35,0,0,1,.12.23.73.73,0,0,1-.08.33A1.1,1.1,0,0,1,45,94a1.91,1.91,0,0,1-.52.33,2.43,2.43,0,0,1-.74.18A2,2,0,0,1,42.17,94a2.08,2.08,0,0,1-.67-1.46,2.37,2.37,0,0,1,.06-.84,1.77,1.77,0,0,1,.33-.69,1.68,1.68,0,0,1,.59-.47,2.28,2.28,0,0,1,.81-.23,2.06,2.06,0,0,1,1,.16,1.72,1.72,0,0,1,.69.59,1.75,1.75,0,0,1,.28.79.49.49,0,0,1-.17.51A1.35,1.35,0,0,1,44.52,92.58Zm-2-.4L44.32,92a1.21,1.21,0,0,0-.34-.75.87.87,0,0,0-.66-.2.8.8,0,0,0-.59.32,1.2,1.2,0,0,0-.23.8Z"/><path id="Path_5226" data-name="Path 5226" class="cls-4" d="M46.3,93.62l-.38-4.38a.7.7,0,0,1,.09-.47.48.48,0,0,1,.35-.19.52.52,0,0,1,.39.13.67.67,0,0,1,.18.44l.38,4.38a.66.66,0,0,1-.1.47.44.44,0,0,1-.35.18.47.47,0,0,1-.38-.12A.72.72,0,0,1,46.3,93.62Z"/><path id="Path_5227" data-name="Path 5227" class="cls-4" d="M48.35,93.44,48,89.06a.7.7,0,0,1,.09-.47.44.44,0,0,1,.35-.18.47.47,0,0,1,.39.12A.72.72,0,0,1,49,89l.38,4.37a.67.67,0,0,1-.1.48.44.44,0,0,1-.35.18.47.47,0,0,1-.38-.12A.72.72,0,0,1,48.35,93.44Z"/><path id="Path_5228" data-name="Path 5228" class="cls-8" d="M51,88.76l.14,1.54a2.52,2.52,0,0,1,.53-.5,1.78,1.78,0,0,1,1.62-.06,1.49,1.49,0,0,1,.65.64,2.4,2.4,0,0,1,.3,1.05,2.7,2.7,0,0,1,0,.85,1.9,1.9,0,0,1-.28.69,1.36,1.36,0,0,1-.5.48,1.48,1.48,0,0,1-.68.22,1.61,1.61,0,0,1-.44,0,1.37,1.37,0,0,1-.36-.11,1.53,1.53,0,0,1-.27-.17l-.29-.26v.1a.63.63,0,0,1-.1.44.47.47,0,0,1-.69.06.69.69,0,0,1-.17-.42L50,88.89a.77.77,0,0,1,.09-.47.37.37,0,0,1,.33-.19.43.43,0,0,1,.37.12A.69.69,0,0,1,51,88.76Zm.31,3a1.38,1.38,0,0,0,.36.9.87.87,0,0,0,.75.26.83.83,0,0,0,.62-.39,1.37,1.37,0,0,0,.19-1,1.75,1.75,0,0,0-.17-.67,1,1,0,0,0-.37-.42.8.8,0,0,0-.5-.11.85.85,0,0,0-.5.2,1,1,0,0,0-.32.48,1.76,1.76,0,0,0-.06.72Z"/><path id="Path_5229" data-name="Path 5229" class="cls-8" d="M58.78,91.07a2.4,2.4,0,0,1-.07.84,1.8,1.8,0,0,1-.94,1.16,2.19,2.19,0,0,1-.82.23,2.17,2.17,0,0,1-.84-.08,1.7,1.7,0,0,1-.67-.37,1.82,1.82,0,0,1-.46-.61,2.52,2.52,0,0,1-.15-1.67,1.74,1.74,0,0,1,.34-.68,2,2,0,0,1,.6-.48,2.31,2.31,0,0,1,.82-.21,2.16,2.16,0,0,1,.84.07,1.81,1.81,0,0,1,.67.36,1.79,1.79,0,0,1,.47.62A2.31,2.31,0,0,1,58.78,91.07Zm-1,.09a1.52,1.52,0,0,0-.36-.94.89.89,0,0,0-.76-.28.9.9,0,0,0-.51.2,1,1,0,0,0-.3.48A2.07,2.07,0,0,0,56,92a1,1,0,0,0,.38.42.86.86,0,0,0,.54.12.88.88,0,0,0,.7-.42,1.5,1.5,0,0,0,.19-1Z"/><path id="Path_5230" data-name="Path 5230" class="cls-8" d="M60.6,93.1l.07-.24-1.52-3a1.09,1.09,0,0,1-.14-.38.43.43,0,0,1,0-.25.61.61,0,0,1,.17-.19.5.5,0,0,1,.23-.09.38.38,0,0,1,.34.11,1.14,1.14,0,0,1,.23.38l1.08,2.41.6-2.38a3.5,3.5,0,0,1,.14-.46.38.38,0,0,1,.39-.3.43.43,0,0,1,.22,0,.35.35,0,0,1,.17.15.42.42,0,0,1,.08.21q0,.08,0,.21c0,.08,0,.18-.06.27l-1,3.55a4.33,4.33,0,0,1-.27.74,1.13,1.13,0,0,1-.4.44,1.58,1.58,0,0,1-.71.2,1.69,1.69,0,0,1-.67,0,.33.33,0,0,1-.25-.33.3.3,0,0,1,.08-.27.43.43,0,0,1,.3-.13H60a.6.6,0,0,0,.27-.07.45.45,0,0,0,.16-.2A2.66,2.66,0,0,0,60.6,93.1Z"/></g></g></svg>