<?xml version="1.0" encoding="utf-8"?>
<!-- Generator: Adobe Illustrator 22.1.0, SVG Export Plug-In . SVG Version: 6.00 Build 0)  -->
<svg version="1.1" id="Layer_1" xmlns="http://www.w3.org/2000/svg" xmlns:xlink="http://www.w3.org/1999/xlink" x="0px" y="0px"
	 viewBox="0 0 160 50" style="enable-background:new 0 0 160 50;" xml:space="preserve">
<style type="text/css">
	.st0{fill:#F9A31E;}
	.st1{fill:#76BB43;}
	.st2{opacity:0.9;fill:#DBDDC7;}
	.st3{opacity:0.9;fill:#DDDCC5;}
	.st4{opacity:0.9;fill:none;}
	.st5{fill:#F58421;}
	.st6{fill:#E6AF73;}
	.st7{fill:#EAB776;}
	.st8{fill:#E1A369;}
	.st9{fill:#E9B69F;stroke:#06A5DA;stroke-width:0.1749;stroke-miterlimit:10;}
	.st10{fill:#D9DCC7;}
	.st11{fill:#DDDCC5;}
	.st12{fill:none;}
	.st13{fill:#D48B71;}
	.st14{fill:#009FC4;}
	.st15{fill:#05809B;}
	.st16{fill:#09ACE3;}
	.st17{fill:#FFFFFF;}
	.st18{fill:#026D77;}
	.st19{fill:#048BA5;}
	.st20{fill:#009ECA;}
	.st21{fill:#E2A084;}
	.st22{fill:#629D43;}
	.st23{fill:#D39471;}
	.st24{fill:#D7894E;}
	.st25{fill:#1F2223;}
	.st26{fill:#98C465;}
	.st27{fill:#444C52;}
	.st28{fill:#049CBF;}
	.st29{fill:#DD9E82;}
	.st30{fill:#CD8A70;}
	.st31{fill:#BAD532;}
	.st32{fill:#F5B11A;}
	.st33{fill:#1A9649;stroke:#FFFFFF;stroke-width:0.3497;stroke-miterlimit:10;}
	.st34{fill:#98C465;stroke:#FFFFFF;stroke-width:0.3497;stroke-miterlimit:10;}
</style>
<g>
	<path class="st0" d="M19,22.5v5.9c0.7-0.8,1.5-1.3,2.2-1.7C22,26.3,22.9,26,24,26c1.3,0,2.4,0.3,3.4,0.9c1,0.6,1.7,1.5,2.3,2.7
		c0.5,1.2,0.8,2.5,0.8,4.1c0,1.2-0.1,2.3-0.4,3.2c-0.3,1-0.7,1.8-1.3,2.6c-0.6,0.7-1.3,1.3-2.1,1.7c-0.8,0.4-1.7,0.6-2.7,0.6
		c-0.6,0-1.2-0.1-1.7-0.2c-0.5-0.1-1-0.3-1.3-0.6c-0.4-0.2-0.7-0.5-0.9-0.7c-0.3-0.2-0.6-0.6-1-1.1v0.4c0,0.7-0.2,1.3-0.5,1.7
		c-0.4,0.4-0.8,0.6-1.3,0.6c-0.6,0-1-0.2-1.3-0.6c-0.3-0.4-0.5-0.9-0.5-1.7v-17c0-0.8,0.2-1.4,0.5-1.8c0.3-0.4,0.8-0.6,1.3-0.6
		c0.6,0,1.1,0.2,1.4,0.6C18.8,21.2,19,21.7,19,22.5z M19.2,34c0,1.5,0.4,2.7,1.1,3.6c0.7,0.8,1.6,1.2,2.8,1.2c1,0,1.8-0.4,2.5-1.3
		c0.7-0.9,1.1-2.1,1.1-3.7c0-1-0.1-1.9-0.4-2.7c-0.3-0.7-0.7-1.3-1.3-1.7c-0.5-0.4-1.2-0.6-1.9-0.6c-0.7,0-1.4,0.2-2,0.6
		c-0.6,0.4-1,1-1.4,1.8C19.3,32.1,19.2,33,19.2,34z"/>
	<path class="st0" d="M44.5,34.9h-7.6c0,0.9,0.2,1.7,0.5,2.3c0.3,0.7,0.8,1.2,1.4,1.5c0.6,0.3,1.2,0.5,1.9,0.5
		c0.5,0,0.9-0.1,1.3-0.2c0.4-0.1,0.8-0.3,1.1-0.5c0.4-0.2,0.7-0.5,1-0.7c0.3-0.3,0.7-0.6,1.2-1.1c0.2-0.2,0.5-0.3,0.9-0.3
		c0.4,0,0.7,0.1,1,0.3c0.2,0.2,0.4,0.5,0.4,0.9c0,0.4-0.1,0.8-0.4,1.2c-0.3,0.5-0.7,0.9-1.2,1.4c-0.6,0.4-1.3,0.8-2.1,1.1
		c-0.8,0.3-1.8,0.4-2.9,0.4c-2.5,0-4.4-0.7-5.8-2.1c-1.4-1.4-2.1-3.4-2.1-5.8c0-1.1,0.2-2.2,0.5-3.2c0.3-1,0.8-1.8,1.5-2.5
		c0.7-0.7,1.5-1.2,2.4-1.6c1-0.4,2-0.6,3.2-0.6c1.5,0,2.8,0.3,3.9,1c1.1,0.6,1.9,1.5,2.4,2.5c0.5,1,0.8,2.1,0.8,3.1
		c0,1-0.3,1.6-0.8,1.9C46.3,34.7,45.5,34.9,44.5,34.9z M36.9,32.7h7.1c-0.1-1.3-0.5-2.3-1.1-3c-0.6-0.7-1.4-1-2.5-1
		c-1,0-1.8,0.3-2.4,1C37.4,30.4,37,31.4,36.9,32.7z"/>
	<path class="st0" d="M51,39.5V22.6c0-0.8,0.2-1.4,0.5-1.8c0.3-0.4,0.8-0.6,1.4-0.6c0.6,0,1.1,0.2,1.4,0.6c0.4,0.4,0.5,1,0.5,1.8
		v16.9c0,0.8-0.2,1.4-0.5,1.8c-0.4,0.4-0.8,0.6-1.4,0.6c-0.6,0-1-0.2-1.4-0.6C51.1,40.8,51,40.2,51,39.5z"/>
	<path class="st0" d="M58.9,39.5V22.6c0-0.8,0.2-1.4,0.5-1.8c0.3-0.4,0.8-0.6,1.4-0.6c0.6,0,1.1,0.2,1.4,0.6c0.4,0.4,0.5,1,0.5,1.8
		v16.9c0,0.8-0.2,1.4-0.5,1.8c-0.4,0.4-0.8,0.6-1.4,0.6c-0.6,0-1-0.2-1.4-0.6C59.1,40.8,58.9,40.2,58.9,39.5z"/>
	<path class="st1" d="M100.6,22.5v5.9c0.7-0.8,1.5-1.3,2.2-1.7c0.8-0.4,1.7-0.6,2.8-0.6c1.3,0,2.4,0.3,3.4,0.9
		c1,0.6,1.7,1.5,2.3,2.7c0.5,1.2,0.8,2.5,0.8,4.1c0,1.2-0.1,2.3-0.4,3.2c-0.3,1-0.7,1.8-1.3,2.6c-0.6,0.7-1.3,1.3-2.1,1.7
		c-0.8,0.4-1.7,0.6-2.7,0.6c-0.6,0-1.2-0.1-1.7-0.2c-0.5-0.1-1-0.3-1.3-0.6c-0.4-0.2-0.7-0.5-0.9-0.7c-0.3-0.2-0.6-0.6-1-1.1v0.4
		c0,0.7-0.2,1.3-0.5,1.7c-0.4,0.4-0.8,0.6-1.3,0.6c-0.6,0-1-0.2-1.3-0.6c-0.3-0.4-0.5-0.9-0.5-1.7v-17c0-0.8,0.2-1.4,0.5-1.8
		c0.3-0.4,0.8-0.6,1.3-0.6c0.6,0,1.1,0.2,1.4,0.6C100.4,21.2,100.6,21.7,100.6,22.5z M100.8,34c0,1.5,0.4,2.7,1.1,3.6
		c0.7,0.8,1.6,1.2,2.8,1.2c1,0,1.8-0.4,2.5-1.3c0.7-0.9,1.1-2.1,1.1-3.7c0-1-0.1-1.9-0.4-2.7c-0.3-0.7-0.7-1.3-1.3-1.7
		c-0.5-0.4-1.2-0.6-1.9-0.6c-0.7,0-1.4,0.2-2,0.6c-0.6,0.4-1,1-1.4,1.8C101,32.1,100.8,33,100.8,34z"/>
	<path class="st1" d="M129.8,33.9c0,1.2-0.2,2.2-0.5,3.2c-0.4,1-0.9,1.8-1.6,2.5c-0.7,0.7-1.5,1.2-2.5,1.6c-1,0.4-2,0.6-3.2,0.6
		c-1.2,0-2.2-0.2-3.2-0.6c-0.9-0.4-1.8-0.9-2.4-1.6c-0.7-0.7-1.2-1.5-1.6-2.5c-0.4-1-0.5-2-0.5-3.2c0-1.2,0.2-2.3,0.5-3.2
		c0.4-1,0.9-1.8,1.6-2.5c0.7-0.7,1.5-1.2,2.5-1.6c1-0.4,2-0.6,3.2-0.6c1.2,0,2.2,0.2,3.2,0.6c1,0.4,1.8,0.9,2.5,1.6
		c0.7,0.7,1.2,1.5,1.6,2.5C129.6,31.7,129.8,32.8,129.8,33.9z M125.9,33.9c0-1.6-0.3-2.8-1-3.7c-0.7-0.9-1.6-1.3-2.8-1.3
		c-0.8,0-1.4,0.2-2,0.6c-0.6,0.4-1,1-1.3,1.7c-0.3,0.8-0.5,1.7-0.5,2.7c0,1,0.2,1.9,0.5,2.7c0.3,0.8,0.8,1.3,1.3,1.7
		c0.6,0.4,1.3,0.6,2,0.6c1.2,0,2.1-0.4,2.8-1.3C125.6,36.7,125.9,35.5,125.9,33.9z"/>
	<path class="st1" d="M136.1,42.3l0.4-0.9l-4.8-12.1c-0.3-0.7-0.4-1.2-0.4-1.5c0-0.3,0.1-0.6,0.3-0.9c0.2-0.3,0.4-0.5,0.7-0.7
		c0.3-0.2,0.6-0.3,0.9-0.3c0.6,0,1,0.2,1.3,0.5c0.3,0.4,0.5,0.9,0.8,1.5l3.3,9.6l3.1-8.9c0.2-0.7,0.5-1.3,0.7-1.7
		c0.2-0.4,0.4-0.7,0.6-0.8c0.2-0.1,0.5-0.2,0.9-0.2c0.3,0,0.6,0.1,0.8,0.2c0.3,0.2,0.5,0.4,0.6,0.6c0.1,0.3,0.2,0.5,0.2,0.8
		c0,0.2-0.1,0.4-0.2,0.8c-0.1,0.3-0.2,0.7-0.3,1l-5.1,13.3c-0.4,1.2-0.9,2.1-1.3,2.8c-0.4,0.7-1,1.2-1.7,1.5
		c-0.7,0.4-1.6,0.5-2.8,0.5c-1.1,0-2-0.1-2.6-0.4c-0.6-0.2-0.9-0.7-0.9-1.4c0-0.4,0.1-0.8,0.4-1c0.3-0.2,0.7-0.4,1.2-0.4
		c0.2,0,0.4,0,0.6,0.1c0.2,0.1,0.5,0.1,0.6,0.1c0.4,0,0.8-0.1,1.1-0.2c0.3-0.1,0.5-0.4,0.7-0.7C135.6,43.4,135.8,43,136.1,42.3z"/>
	<g>
		<g>
			<path class="st0" d="M67.7,27.1c-0.2,0.1-0.5,0.4-0.8,0.7c-0.3,0.4-0.8,0.6-1.7,1.2c-0.7,0.5-1,1.1-1.1,1.3c0.1,0,0.1,0,0.2,0
				c0.1,0,0.1,0,0.2-0.1c0.1-0.2,0.4-0.6,1-1c0,0,0.1-0.1,0.1-0.1l-0.1-0.2l0.1-0.1l0.1,0.1c0.1-0.1,0.3-0.2,0.4-0.2l0-0.2l0.1-0.1
				l0.1,0.2c0.1-0.1,0.3-0.2,0.3-0.2l0-0.2l0.1,0l0,0.2c0.1,0,0.1,0,0.1,0c0,0,0,0.1,0,0.2c0.1,0,0.1,0,0.2,0l0-0.4
				c0.1,0,0.2,0,0.2,0l0,0.4c0.1,0,0.2,0,0.3,0l0.1-0.4l0.2,0l-0.1,0.4c0.1,0,0.2,0,0.2,0c0-0.1,0.3-0.5,0.6-0.8
				C68.5,28,68.1,27.4,67.7,27.1z"/>
			<path class="st2" d="M65.3,29.1c0.9-0.7,1.4-0.8,1.7-1.2c0.2-0.3,0.6-0.6,0.8-0.7c0,0-0.1-0.1-0.1-0.1c-0.3-0.3-0.8,0.3-1,0.6
				c-0.2,0.3-0.7,0.6-1,0.8c-0.3,0.2-0.9,0.7-1.3,1.3c-0.4,0.5-0.3,0.7,0,0.7C64.3,30.2,64.6,29.6,65.3,29.1z"/>
			<path class="st3" d="M65.8,29.1l0.2,0.4c0,0,0.1-0.1,0.2-0.1L65.9,29L65.8,29.1z"/>
			<path class="st3" d="M66.3,28.8l0.1,0.4c0,0,0.1,0,0.1-0.1L66.3,28.8L66.3,28.8z"/>
			<path class="st3" d="M66.8,28.5l0.1,0.4c0.1,0,0.1,0,0.2-0.1l-0.1-0.4L66.8,28.5z"/>
			<path class="st3" d="M67.3,28.4l0,0.4c0,0,0.1,0,0.1,0l0-0.4C67.4,28.4,67.3,28.3,67.3,28.4z"/>
			<path class="st3" d="M67.8,28.4l-0.1,0.4c0.1,0,0.1,0,0.2,0l0.1-0.4L67.8,28.4z"/>
			<path class="st4" d="M66.4,28.7L66.4,28.7l0,0.2c0,0,0.1,0,0.1-0.1L66.4,28.7z"/>
			<path class="st4" d="M66.9,28.5l-0.1,0l0,0.2c0.1,0,0.1,0,0.1,0L66.9,28.5z"/>
			<path class="st4" d="M65.9,29l-0.1,0.1l0.1,0.2c0,0,0.1-0.1,0.1-0.1L65.9,29z"/>
			<path class="st0" d="M66.4,29.2l-0.1-0.3c-0.1,0.1-0.2,0.2-0.4,0.2l0.1,0.2C66.2,29.3,66.3,29.3,66.4,29.2z"/>
			<path class="st0" d="M67.1,28.7c0,0-0.1,0-0.1,0l0.1,0.3c0,0,0,0,0.1,0c0,0,0,0,0,0C67.1,28.8,67.1,28.7,67.1,28.7z"/>
			<path class="st0" d="M66.9,28.9l0-0.3c-0.1,0-0.2,0.1-0.3,0.2l0.1,0.2C66.7,29,66.8,29,66.9,28.9z"/>
			<path class="st0" d="M66,29.5l-0.1-0.3c0,0-0.1,0.1-0.1,0.1c-0.6,0.4-0.9,0.9-1,1C65.1,30.2,65.6,29.8,66,29.5
				C65.9,29.6,65.9,29.6,66,29.5z"/>
		</g>
		<path class="st1" d="M76.6,27.4C76.6,27.4,76.6,27.5,76.6,27.4c-0.2,1.9-1.1,2.6-1.4,2.9c-0.3,0.4-0.2,0.6-0.2,0.8
			c0,0.2-0.2,0.2-0.2,0.2s-0.1-0.2-0.3-0.2c-0.2,0-0.4,0.2-0.4,0.2c-0.1-0.1-1.7-1-2-1.1c-0.2-0.1-0.5-0.3-0.9-0.6
			c-0.4-0.3-2.1-1.9-2.2-2c-0.1-0.1-0.3,0.1-0.3,0.1l-0.1,0.2c0,0-0.4,0.3-0.5,0.8c0,0.1,0,0.1,0.1,0.2c0.2,0.1,1.7,1.4,2.1,1.6
			c0.3,0.2,0.7,0.7,1,1c0.3,0.3,1.3,0.7,2.5,1.6c1.2,0.9,1.9,0.2,2.4-0.4c0.4-0.5,2-2.5,2.8-3.5c0,0,0,0,0,0
			c0.2-0.3,0.4-0.5,0.4-0.5C78.1,28.3,76.6,27.4,76.6,27.4z"/>
		<path class="st5" d="M76.2,14.3c0,0-0.5,1.8,1,3.2c0,0,0.7-0.2,0.6-1.1C77.8,15.5,76.7,14.3,76.2,14.3z"/>
		<path class="st6" d="M71.1,22.3c0,0-0.3-0.2-0.2-0.6c0.1-0.2,0.2-0.4,0.2-0.5c0,0-0.7,0.5-0.2,1.1C71.1,22.2,71.1,22.3,71.1,22.3z
			"/>
		<path class="st7" d="M77.5,15.9l0-0.7c-0.1-0.1-0.2-0.1-0.4,0c-0.2,0.1-1,0.5-1.2,0.5c-0.3,0-0.7,0.3-0.9,0.5
			c-0.2,0.2-0.5,0.5-0.8,0.8c-0.3,0.3-2,1.6-2.1,1.7c-0.1,0.1-0.2,0.1-0.3,0.2c-0.1,0.1-0.3,0.3-0.4,0.4c0,0-0.7,0.5-0.8,0.6
			c-0.1,0.1-0.2,0.2-0.2,0.3c0,0.1-0.1,0.8-0.1,1c0,0.1,0,0.2,0,0.2c0,0,0,0,0,0c0,0,0,0.1,0,0.1c0,0,0,0,0,0c0,0,0,0.1-0.1,0.1
			c0,0,0,0.1,0,0.1c0,0,0,0,0,0c0,0.1,0.1,0.3,0.2,0.4c0,0,0,0,0.1,0c0,0,0,0,0,0c0,0,0,0,0,0c0,0,0,0,0,0l0,0c0,0,0,0,0,0
			c0,0,0,0,0,0c0,0,0,0,0,0c0,0,0,0,0,0c0,0,0,0,0,0c0,0,0,0,0,0c0,0,0,0,0,0c0,0,0,0,0,0c0,0,0,0,0,0c0,0,0,0,0,0c0,0,0,0,0,0
			c0,0,0,0,0,0c0,0,0,0,0.1,0c0,0,0.1,0,0.1,0c-0.5-0.5,0.2-1.1,0.2-1.1c0.1-0.1,0.1-0.3,0.1-0.3c0,0,0,0.4-0.1,0.7
			c-0.1,0.3,0,0.6,0.3,0.9c0.1,0,0.1,0,0.1,0c0.1-0.1,0-0.3,0-0.4c0-0.2-0.1-0.6,0.2-1.1c0.1-0.2,0.2-0.3,0.3-0.5c0,0,0,0,0,0
			c0.1-0.2,0.1-0.3,0.1-0.4c0-0.1,0-0.4-0.1-0.4c0,0,1.2-0.9,1.6-1.1c0.3-0.1,0.8-0.3,1.3-0.5c0.3-0.1,0.5-0.2,0.7-0.4
			c0.5-0.4,2-1.2,2-1.2L77.5,15.9z"/>
		<path class="st8" d="M71.1,21.6c0.1-0.3,0.1-0.7,0.1-0.7c0,0.1,0,0.2-0.1,0.3l0,0l0,0c-0.1,0.2-0.1,0.4-0.2,0.5
			c-0.1,0.3,0.2,0.6,0.2,0.6c0,0,0.1,0.1,0.2,0.1c-0.1-0.1-0.1-0.2-0.1-0.2s0.1,0.1,0.1,0.2c0,0,0.1,0,0.1,0
			C71.1,22.2,71,21.8,71.1,21.6z"/>
		<path class="st5" d="M87.9,4.9c-0.3,0.3-0.7,0.5-1.1,0.6C86.9,5.9,87,6.2,87,6.2c4.1-1.1,4.5-3.2,4.5-3.4
			C90.5,2.8,89.5,3.5,87.9,4.9z"/>
		<path class="st9" d="M84.7,13.1C84.7,13.1,84.8,13.1,84.7,13.1C84.7,13.1,84.7,13.1,84.7,13.1L84.7,13.1z"/>
		<path class="st10" d="M92.2,39.7c-0.1,0.1-0.3,0.3-0.8,0.6c-1.1,0.7-2,0.5-2.4,0.7c-0.3,0.2-1,0.4-1.3,0.5
			c0.2,0.6,0.5,0.4,0.8,0.2c0.3-0.2,0.6-0.3,2-0.7c1.4-0.3,1.8-1.1,1.8-1.1C92.4,39.8,92.3,39.7,92.2,39.7z"/>
		<path class="st11" d="M90.2,40.4l0.2,0l0-0.5c-0.1,0-0.1,0-0.2,0.1L90.2,40.4z"/>
		<path class="st11" d="M89.6,40.6l0.1,0l0-0.5c0,0-0.1,0-0.1,0V40.6z"/>
		<path class="st11" d="M89.1,40.2l-0.1,0.5h0.1l0.1-0.5C89.2,40.2,89.2,40.2,89.1,40.2z"/>
		<path class="st11" d="M88.5,40.5c0,0,0.1,0.1,0.2,0.1l0.2-0.4c0,0-0.1,0-0.1,0L88.5,40.5z"/>
		<path class="st11" d="M88.2,40.4l0.2-0.4c-0.1,0-0.1,0-0.1-0.1l-0.2,0.3L88.2,40.4z"/>
		<path class="st12" d="M89.1,40.4l0,0.2h0.1l0-0.2C89.2,40.4,89.1,40.4,89.1,40.4z"/>
		<path class="st12" d="M89.6,40.6l0.1,0l0-0.2c0,0-0.1,0-0.1,0V40.6z"/>
		<path class="st12" d="M90.2,40.4l0.2,0l0-0.2c-0.1,0-0.1,0-0.2,0L90.2,40.4z"/>
		<path class="st0" d="M91.8,39.6c-0.2,0.3-0.8,0.5-1.4,0.7l0,0.2l-0.2,0l0-0.2c-0.1,0-0.3,0.1-0.4,0.1l0,0.2l-0.1,0v-0.2
			c0,0-0.1,0-0.1,0c-0.1,0-0.2,0-0.2,0l0,0.2h-0.1l0-0.2c-0.3,0-0.3-0.2-0.2-0.3c0,0,0,0,0,0l-0.2,0.4c-0.1,0-0.2-0.1-0.2-0.1
			l0.2-0.4c-0.1,0-0.2,0-0.3-0.1l-0.2,0.4l-0.1-0.1l0.2-0.3c-0.1-0.1-0.2-0.1-0.3-0.2c-0.2,0.2-0.4,0.3-0.6,0.3c0,0-0.1,0.1-0.3,0.1
			c0,0,0.3,0.4,0.5,1.1c0,0.1,0.1,0.2,0.1,0.3c0.3-0.1,1-0.3,1.3-0.5c0.4-0.2,1.3-0.1,2.4-0.7c0.4-0.3,0.6-0.4,0.8-0.6
			C92.1,39.6,92,39.6,91.8,39.6z"/>
		<path class="st0" d="M89.8,40.1l0,0.3c0.1,0,0.3-0.1,0.4-0.1l0-0.3C90,40,89.9,40,89.8,40.1z"/>
		<path class="st0" d="M89.3,40.2C89.3,40.2,89.3,40.2,89.3,40.2l-0.1,0.3c0.1,0,0.2,0,0.2,0c0,0,0.1,0,0.1,0v-0.3
			C89.5,40.1,89.4,40.2,89.3,40.2z"/>
		<path class="st0" d="M89.1,40.4l0-0.2c-0.1,0-0.2,0-0.2,0C88.8,40.2,88.8,40.4,89.1,40.4z"/>
		<path class="st0" d="M90.3,39.9l0,0.3c0.6-0.2,1.2-0.4,1.4-0.7c0,0,0,0-0.1,0C91.5,39.6,90.9,39.8,90.3,39.9z"/>
		<path class="st12" d="M77.4,16.4c0-0.1-0.1-0.2-0.1-0.3C77.3,16.2,77.4,16.3,77.4,16.4z"/>
		<path class="st12" d="M77.3,16C77.3,16,77.3,16,77.3,16C77.3,16,77.3,16,77.3,16z"/>
		<path class="st12" d="M76.4,14.4C76.4,14.4,76.5,14.5,76.4,14.4C76.5,14.5,76.4,14.4,76.4,14.4z"/>
		<path class="st12" d="M77.4,16.5C77.4,16.4,77.4,16.4,77.4,16.5C77.4,16.4,77.4,16.4,77.4,16.5z"/>
		<path class="st12" d="M77.3,15.9C77.2,15.9,77.2,15.9,77.3,15.9C77.2,15.9,77.2,15.9,77.3,15.9z"/>
		<path class="st12" d="M78.9,16.5C78.9,16.5,78.9,16.5,78.9,16.5C78.9,16.5,78.9,16.5,78.9,16.5z"/>
		<path class="st12" d="M77.2,15.7C77.2,15.7,77.2,15.7,77.2,15.7C77.2,15.7,77.2,15.7,77.2,15.7z"/>
		<path class="st12" d="M77.1,15.6C77.1,15.6,77.1,15.6,77.1,15.6C77.1,15.6,77.1,15.6,77.1,15.6z"/>
		<path class="st12" d="M77.1,15.5C77.1,15.5,77.1,15.5,77.1,15.5C77.1,15.5,77.1,15.5,77.1,15.5z"/>
		<path class="st12" d="M76.6,18.5c-0.1,0.1-0.1,0.1-0.2,0.2C76.5,18.6,76.5,18.6,76.6,18.5z"/>
		<path class="st12" d="M77.2,15.8C77.2,15.8,77.2,15.8,77.2,15.8C77.2,15.8,77.2,15.8,77.2,15.8z"/>
		<path class="st12" d="M77.5,16.8c0,0,0-0.2-0.1-0.4c0,0,0,0,0,0.1c0,0.1,0,0.1,0,0.1C77.5,16.7,77.5,16.8,77.5,16.8z"/>
		<path class="st12" d="M77.6,24.6"/>
		<path class="st12" d="M78.6,16.5C78.6,16.5,78.6,16.5,78.6,16.5C78.6,16.5,78.6,16.5,78.6,16.5z"/>
		<path class="st12" d="M75.5,23.6C75.5,23.6,75.5,23.6,75.5,23.6C75.5,23.6,75.5,23.6,75.5,23.6z"/>
		<path class="st12" d="M76.9,24.3C76.9,24.3,76.9,24.3,76.9,24.3C76.9,24.3,76.9,24.3,76.9,24.3z"/>
		<path class="st12" d="M76.8,24.3C76.8,24.3,76.8,24.3,76.8,24.3c-0.6-0.2-1-0.5-1.2-0.7C75.8,23.8,76.2,24.1,76.8,24.3z"/>
		<path class="st12" d="M78.7,16.5C78.7,16.5,78.8,16.5,78.7,16.5C78.8,16.5,78.7,16.5,78.7,16.5z"/>
		<path class="st12" d="M80.3,16.4C80.3,16.4,80.3,16.4,80.3,16.4C80.3,16.4,80.3,16.4,80.3,16.4z"/>
		<path class="st12" d="M76.6,14.7C76.6,14.6,76.6,14.6,76.6,14.7C76.6,14.6,76.6,14.6,76.6,14.7z"/>
		<path class="st12" d="M79.4,16.4C79.4,16.4,79.4,16.4,79.4,16.4C79.4,16.4,79.4,16.4,79.4,16.4z"/>
		<path class="st12" d="M80,16.4C80.1,16.4,80.1,16.4,80,16.4C80.1,16.4,80.1,16.4,80,16.4z"/>
		<path class="st12" d="M80.1,16.4C80.2,16.4,80.2,16.4,80.1,16.4C80.2,16.4,80.2,16.4,80.1,16.4z"/>
		<path class="st12" d="M76.7,14.8C76.7,14.8,76.7,14.7,76.7,14.8C76.7,14.7,76.7,14.8,76.7,14.8z"/>
		<path class="st12" d="M80.2,16.4C80.2,16.4,80.2,16.4,80.2,16.4C80.2,16.4,80.2,16.4,80.2,16.4z"/>
		<path class="st12" d="M79.9,16.4C79.9,16.4,79.9,16.4,79.9,16.4C79.9,16.4,79.9,16.4,79.9,16.4z"/>
		<path class="st12" d="M76.6,14.6C76.5,14.6,76.5,14.5,76.6,14.6C76.5,14.5,76.5,14.6,76.6,14.6z"/>
		<path class="st12" d="M79.8,16.4C79.8,16.4,79.8,16.4,79.8,16.4C79.8,16.4,79.8,16.4,79.8,16.4z"/>
		<path class="st12" d="M76.4,14.4C76.4,14.4,76.4,14.4,76.4,14.4C76.4,14.4,76.4,14.4,76.4,14.4z"/>
		<path class="st12" d="M79.3,16.4C79.3,16.4,79.3,16.4,79.3,16.4C79.3,16.4,79.3,16.4,79.3,16.4z"/>
		<path class="st12" d="M80,16.4C80,16.4,80,16.4,80,16.4C80,16.4,80,16.4,80,16.4z"/>
		<path class="st12" d="M80.5,16.4C80.5,16.4,80.5,16.4,80.5,16.4C80.5,16.4,80.5,16.4,80.5,16.4z"/>
		<path class="st12" d="M77,15.2c0-0.1-0.1-0.1-0.1-0.2C76.9,15.1,76.9,15.2,77,15.2z"/>
		<path class="st12" d="M80.5,16.4C80.6,16.4,80.6,16.4,80.5,16.4C80.6,16.4,80.6,16.4,80.5,16.4z"/>
		<path class="st12" d="M77,15.3C77,15.3,77,15.3,77,15.3C77,15.3,77,15.3,77,15.3z"/>
		<path class="st12" d="M77.1,15.4C77,15.4,77,15.4,77.1,15.4C77,15.4,77,15.4,77.1,15.4z"/>
		<path class="st12" d="M80.6,16.4c0.1,0,0.1,0,0.1,0C80.7,16.4,80.6,16.4,80.6,16.4z"/>
		<path class="st12" d="M76.8,14.9C76.8,14.9,76.8,14.8,76.8,14.9C76.8,14.8,76.8,14.9,76.8,14.9z"/>
		<path class="st12" d="M76.9,15c0,0,0-0.1-0.1-0.1C76.8,15,76.9,15,76.9,15z"/>
		<path class="st12" d="M80.4,16.4C80.4,16.4,80.4,16.4,80.4,16.4C80.4,16.4,80.4,16.4,80.4,16.4z"/>
		<path class="st12" d="M79.2,16.4C79.2,16.4,79.2,16.4,79.2,16.4C79.2,16.4,79.2,16.4,79.2,16.4z"/>
		<path class="st12" d="M80.4,16.4C80.4,16.4,80.4,16.4,80.4,16.4C80.4,16.4,80.4,16.4,80.4,16.4z"/>
		<path class="st12" d="M83,13.7C83,13.7,83,13.7,83,13.7C83,13.7,83,13.7,83,13.7z"/>
		<path class="st12" d="M83,18.2C83,18.3,83,18.3,83,18.2C83,18.3,83,18.3,83,18.2z"/>
		<path class="st12" d="M83,13.7C83,13.7,83,13.7,83,13.7C83,13.7,83,13.7,83,13.7z"/>
		<path class="st12" d="M83.1,18.1C83.1,18.2,83,18.2,83.1,18.1C83,18.2,83.1,18.2,83.1,18.1z"/>
		<path class="st12" d="M79.5,16.4C79.5,16.4,79.5,16.4,79.5,16.4C79.5,16.4,79.5,16.4,79.5,16.4z"/>
		<path class="st12" d="M77.7,16.8C77.7,16.8,77.7,16.8,77.7,16.8C77.7,16.8,77.7,16.8,77.7,16.8z"/>
		<path class="st12" d="M83,13.7C83,13.7,83,13.7,83,13.7C83,13.7,83,13.7,83,13.7z"/>
		<path class="st12" d="M82.9,18.4C82.9,18.4,82.9,18.4,82.9,18.4C82.9,18.4,82.9,18.4,82.9,18.4C82.9,18.4,82.9,18.4,82.9,18.4z"/>
		<path class="st12" d="M75.4,23.6C75.4,23.6,75.5,23.6,75.4,23.6C75.5,23.6,75.4,23.6,75.4,23.6z"/>
		<path class="st12" d="M83.1,14.2C83.1,14.2,83.1,14.2,83.1,14.2C83.1,14.2,83.1,14.2,83.1,14.2z"/>
		<path class="st12" d="M78.1,16.6C78.1,16.6,78.2,16.6,78.1,16.6C78.2,16.6,78.1,16.6,78.1,16.6z"/>
		<path class="st12" d="M83.2,14.3C83.2,14.2,83.2,14.2,83.2,14.3C83.2,14.2,83.2,14.2,83.2,14.3z"/>
		<path class="st12" d="M83,13.8C83,13.8,83,13.8,83,13.8C83,13.8,83,13.8,83,13.8z"/>
		<path class="st12" d="M83.1,13.6C83.1,13.6,83.1,13.6,83.1,13.6C83.1,13.6,83.1,13.6,83.1,13.6z"/>
		<path class="st12" d="M83.1,14.1C83.1,14.1,83.1,14.1,83.1,14.1C83.1,14.1,83.1,14.1,83.1,14.1z"/>
		<path class="st12" d="M80.7,16.4C80.7,16.4,80.7,16.4,80.7,16.4C80.7,16.4,80.7,16.4,80.7,16.4z"/>
		<path class="st12" d="M83,14C83,14,83,14,83,14C83,14,83,14,83,14z"/>
		<path class="st12" d="M83.1,14.1C83.1,14.1,83.1,14.1,83.1,14.1C83.1,14.1,83.1,14.1,83.1,14.1z"/>
		<path class="st12" d="M83,14C83,14,83,14,83,14C83,14,83,14,83,14z"/>
		<path class="st12" d="M83,14.1C83,14,83,14,83,14.1C83,14,83,14,83,14.1z"/>
		<path class="st12" d="M78.4,16.5C78.5,16.5,78.5,16.5,78.4,16.5C78.5,16.5,78.5,16.5,78.4,16.5z"/>
		<path class="st12" d="M77.8,16.7C77.8,16.7,77.9,16.7,77.8,16.7C77.9,16.7,77.8,16.7,77.8,16.7z"/>
		<path class="st12" d="M78,16.7C78,16.7,78,16.7,78,16.7C78,16.7,78,16.7,78,16.7z"/>
		<path class="st12" d="M93.4,16.3c0.1,0,0.1,0,0.1,0S93.5,16.3,93.4,16.3z"/>
		<path class="st12" d="M83,13.8C83,13.8,83,13.8,83,13.8C83,13.8,83,13.8,83,13.8z"/>
		<path class="st12" d="M77.5,16.8C77.5,16.8,77.5,16.8,77.5,16.8C77.5,16.8,77.5,16.8,77.5,16.8z"/>
		<path class="st12" d="M76.2,14.3C76.3,14.3,76.3,14.3,76.2,14.3C76.3,14.3,76.3,14.3,76.2,14.3z"/>
		<path class="st12" d="M83,13.9C83,13.9,83,13.9,83,13.9C83,13.9,83,13.9,83,13.9z"/>
		<path class="st13" d="M83.2,13.5c0,0,0,0-0.1,0.1c0,0,0,0,0,0L83.2,13.5z"/>
		<polygon class="st14" points="80.6,16.4 80.6,16.4 80.6,16.4 		"/>
		<path class="st14" d="M83,13.8C83,13.8,83,13.8,83,13.8C83,13.8,83,13.8,83,13.8z"/>
		<path class="st14" d="M83,13.8C83,13.8,83,13.8,83,13.8C83,13.8,83,13.8,83,13.8z"/>
		<path class="st14" d="M83,13.7C83,13.7,83,13.7,83,13.7C83,13.7,83,13.7,83,13.7z"/>
		<path class="st14" d="M83,13.9C83,13.9,83,13.8,83,13.9C83,13.8,83,13.9,83,13.9z"/>
		<path class="st14" d="M83,13.7C83,13.7,83,13.7,83,13.7C83,13.7,83,13.7,83,13.7z"/>
		<path class="st14" d="M83.1,13.6C83.1,13.6,83.1,13.6,83.1,13.6C83.1,13.6,83.1,13.6,83.1,13.6z"/>
		<path class="st14" d="M83,13.7C83,13.6,83,13.6,83,13.7C83,13.6,83,13.6,83,13.7z"/>
		<path class="st14" d="M83,13.9C83,13.9,83,13.9,83,13.9L83,13.9C83,13.9,83,13.9,83,13.9z"/>
		<polygon class="st15" points="80.6,16.4 80.6,16.4 80.6,16.4 		"/>
		<path class="st16" d="M82.9,18.4C82.9,18.4,82.9,18.4,82.9,18.4C82.9,18.4,82.9,18.4,82.9,18.4C82.9,18.4,82.9,18.4,82.9,18.4z"/>
		<path class="st12" d="M79.1,28.9c0.2,0.1,0.3,0.1,0.4,0.2C79.4,29,79.3,28.9,79.1,28.9C79.1,28.9,79.1,28.9,79.1,28.9z"/>
		<path class="st17" d="M79.8,29.3c-0.1-0.1-0.2-0.1-0.3-0.2C79.6,29.1,79.7,29.2,79.8,29.3z"/>
		<path class="st12" d="M76.9,24.3C76.9,24.4,76.9,24.4,76.9,24.3C76.9,24.4,76.9,24.4,76.9,24.3C76.9,24.4,76.9,24.4,76.9,24.3z"/>
		<path class="st12" d="M77.6,24.6C77.6,24.6,77.6,24.6,77.6,24.6C77.6,24.6,77.6,24.6,77.6,24.6C77.6,24.6,77.6,24.6,77.6,24.6z"/>
		<path class="st18" d="M77.5,16.8C77.5,16.8,77.5,16.8,77.5,16.8C77.5,16.8,77.5,16.8,77.5,16.8z"/>
		<path class="st18" d="M77.5,16.8C77.5,16.8,77.5,16.8,77.5,16.8C77.5,16.8,77.5,16.8,77.5,16.8z"/>
		<path class="st18" d="M76.8,14.9C76.8,14.9,76.8,14.9,76.8,14.9C76.8,14.9,76.8,14.9,76.8,14.9z"/>
		<path class="st18" d="M76.3,14.4C76.3,14.4,76.3,14.4,76.3,14.4C76.3,14.4,76.3,14.4,76.3,14.4z"/>
		<path class="st18" d="M76.6,14.6C76.6,14.6,76.6,14.6,76.6,14.6C76.6,14.6,76.6,14.6,76.6,14.6z"/>
		<path class="st18" d="M76.7,14.7C76.7,14.7,76.7,14.7,76.7,14.7C76.7,14.7,76.7,14.7,76.7,14.7z"/>
		<path class="st18" d="M76.5,14.5C76.5,14.5,76.5,14.5,76.5,14.5C76.5,14.5,76.5,14.5,76.5,14.5z"/>
		<path class="st18" d="M76.7,14.8C76.7,14.8,76.7,14.8,76.7,14.8C76.7,14.8,76.7,14.8,76.7,14.8z"/>
		<path class="st18" d="M76.4,14.4C76.4,14.4,76.4,14.4,76.4,14.4C76.4,14.4,76.4,14.4,76.4,14.4z"/>
		<polygon class="st18" points="76.9,15 76.9,15 76.9,15 		"/>
		<polygon class="st19" points="80.6,16.4 80.6,16.4 80.6,16.4 		"/>
		<path class="st19" d="M77.5,16.8c0.1,0,0.1,0,0.2-0.1C77.6,16.8,77.6,16.8,77.5,16.8z"/>
		<path class="st19" d="M78.8,16.5c0,0,0.1,0,0.1,0C78.8,16.5,78.8,16.5,78.8,16.5z"/>
		<path class="st19" d="M80.3,16.4C80.3,16.4,80.3,16.4,80.3,16.4C80.3,16.4,80.3,16.4,80.3,16.4z"/>
		<path class="st19" d="M80.3,16.4C80.3,16.4,80.4,16.4,80.3,16.4C80.4,16.4,80.3,16.4,80.3,16.4z"/>
		<path class="st19" d="M80.2,16.4C80.2,16.4,80.2,16.4,80.2,16.4C80.2,16.4,80.2,16.4,80.2,16.4z"/>
		<path class="st19" d="M80.4,16.4C80.4,16.4,80.4,16.4,80.4,16.4C80.4,16.4,80.4,16.4,80.4,16.4z"/>
		<path class="st19" d="M80.1,16.4C80.1,16.4,80.1,16.4,80.1,16.4C80.1,16.4,80.1,16.4,80.1,16.4z"/>
		<path class="st19" d="M80,16.4C80,16.4,80,16.4,80,16.4C80,16.4,80,16.4,80,16.4z"/>
		<path class="st19" d="M79.9,16.4C79.9,16.4,79.9,16.4,79.9,16.4C79.9,16.4,79.9,16.4,79.9,16.4z"/>
		<polygon class="st19" points="80.6,16.4 80.6,16.4 80.6,16.4 		"/>
		<polygon class="st19" points="80.6,16.4 80.6,16.4 80.6,16.4 80.6,16.4 		"/>
		<path class="st19" d="M77.7,16.8c0,0,0.1,0,0.1,0C77.8,16.7,77.8,16.7,77.7,16.8z"/>
		<path class="st19" d="M80.7,16.4C80.7,16.4,80.7,16.4,80.7,16.4C80.7,16.4,80.7,16.4,80.7,16.4z"/>
		<path class="st19" d="M80.4,16.4C80.5,16.4,80.5,16.4,80.4,16.4C80.5,16.4,80.5,16.4,80.4,16.4z"/>
		<path class="st19" d="M80.5,16.4C80.5,16.4,80.5,16.4,80.5,16.4C80.5,16.4,80.5,16.4,80.5,16.4z"/>
		<polygon class="st19" points="80.6,16.4 80.6,16.4 80.6,16.4 		"/>
		<path class="st19" d="M78,16.7c0,0,0.1,0,0.1,0C78.1,16.6,78.1,16.6,78,16.7z"/>
		<path class="st19" d="M78.6,16.5C78.7,16.5,78.7,16.5,78.6,16.5C78.7,16.5,78.7,16.5,78.6,16.5z"/>
		<path class="st19" d="M77.9,16.7C77.9,16.7,77.9,16.7,77.9,16.7C77.9,16.7,77.9,16.7,77.9,16.7z"/>
		<path class="st19" d="M79.8,16.4C79.8,16.4,79.8,16.4,79.8,16.4C79.8,16.4,79.8,16.4,79.8,16.4z"/>
		<path class="st19" d="M78.5,16.5c0,0,0.1,0,0.1,0C78.6,16.5,78.5,16.5,78.5,16.5z"/>
		<path class="st19" d="M79.2,16.4C79.2,16.4,79.2,16.4,79.2,16.4C79.2,16.4,79.2,16.4,79.2,16.4z"/>
		<path class="st19" d="M79.4,16.4C79.5,16.4,79.5,16.4,79.4,16.4C79.5,16.4,79.5,16.4,79.4,16.4z"/>
		<path class="st19" d="M79.5,16.4c0.1,0,0.1,0,0.2,0C79.7,16.4,79.6,16.4,79.5,16.4z"/>
		<path class="st19" d="M78.2,16.6c0.1,0,0.2-0.1,0.3-0.1C78.4,16.6,78.3,16.6,78.2,16.6z"/>
		<path class="st19" d="M79.3,16.4C79.3,16.4,79.4,16.4,79.3,16.4C79.4,16.4,79.3,16.4,79.3,16.4z"/>
		<path class="st19" d="M78.9,16.5c0.1,0,0.2,0,0.3,0C79.1,16.4,79,16.4,78.9,16.5z"/>
		<path class="st19" d="M80.7,16.4c0,0,0,0-0.1,0C80.6,16.5,80.7,16.4,80.7,16.4z"/>
		<polygon class="st19" points="80.6,16.4 80.6,16.4 80.6,16.4 80.6,16.4 		"/>
		<polygon class="st19" points="80.6,16.4 80.6,16.4 80.6,16.4 80.6,16.4 		"/>
		<path class="st15" d="M80.3,16.5l0.3-0.1c0,0,0,0,0,0C80.6,16.4,80.5,16.4,80.3,16.5z"/>
		<polygon class="st15" points="80.6,16.4 80.6,16.4 80.6,16.4 80.6,16.4 		"/>
		<polygon class="st15" points="80.6,16.4 80.6,16.4 80.6,16.4 		"/>
		<polygon class="st15" points="80.6,16.4 80.6,16.4 80.6,16.4 80.6,16.4 		"/>
		<path class="st16" d="M83.1,14.1C83.1,14.1,83.1,14.1,83.1,14.1C83.1,14.1,83.1,14.1,83.1,14.1z"/>
		<path class="st16" d="M83,13.9C83,13.9,83,13.9,83,13.9C83,13.9,83,13.9,83,13.9L83,13.9z"/>
		<path class="st16" d="M83.1,14.1C83.1,14.1,83.1,14.1,83.1,14.1C83.1,14.1,83.1,14.1,83.1,14.1z"/>
		<path class="st16" d="M83,14C83,14,83,14,83,14C83,14,83,14,83,14z"/>
		<path class="st16" d="M83.1,14.2C83.1,14.2,83.1,14.2,83.1,14.2C83.1,14.2,83.1,14.2,83.1,14.2z"/>
		<path class="st16" d="M83,14C83,14,83,14,83,14C83,14,83,14,83,14z"/>
		<path class="st16" d="M83.2,14.2C83.2,14.2,83.2,14.2,83.2,14.2C83.2,14.2,83.2,14.2,83.2,14.2z"/>
		<path class="st16" d="M83,18.2C83,18.2,83,18.2,83,18.2C83,18.2,83,18.2,83,18.2z"/>
		<path class="st16" d="M83,18.3C82.9,18.3,82.9,18.3,83,18.3C82.9,18.3,82.9,18.3,83,18.3z"/>
		<path class="st16" d="M83.1,18.1C83.1,18.1,83.1,18.1,83.1,18.1C83.1,18.1,83.1,18.1,83.1,18.1z"/>
		<path class="st16" d="M80.1,16.5c0.1,0,0.3-0.1,0.4-0.1c0,0,0,0,0,0C80.5,16.5,80.3,16.5,80.1,16.5z"/>
		<path class="st16" d="M80.5,16.5c0.1,0,0.1,0,0.2,0C80.7,16.4,80.6,16.5,80.5,16.5C80.6,16.5,80.5,16.5,80.5,16.5z"/>
		<path class="st20" d="M80.1,16.5c0,0-0.1,0-0.1,0c0,0,0,0,0,0C80,16.6,80.1,16.5,80.1,16.5z"/>
		<path class="st0" d="M84,14.2c-0.1,0.1-0.2,0.3-0.4,0.3c-0.1,0-0.2-0.1-0.4-0.2c0,0,0,0,0,0c0,0,0,0,0,0c0,0,0,0,0,0c0,0,0,0,0,0
			c0,0,0,0,0,0c0,0,0,0,0,0c0,0,0,0,0,0c0,0,0,0,0,0c0,0,0,0,0,0c0,0,0,0,0,0c0,0,0,0,0,0c0,0,0,0,0,0c0,0,0,0,0,0c0,0,0,0,0,0
			l-1,0.5c0,0,0.2,1.2-1.3,2c-0.1,0-0.1,0-0.2,0c-0.1,0-0.3,0.1-0.4,0.1c0,0-0.1,0-0.1,0c-0.1,0-0.2,0-0.4,0.1
			c-1.1,0.3-2,0.6-2.3,0.8c0,0-0.1,0.1-0.1,0.1c-0.3,0.3-0.5,0.7-0.8,1.2c-0.1,0.1-0.1,0.3-0.2,0.5c-0.3,0.9-0.9,3.7-0.9,4.9
			c0,0,0.8,0.6,1.4,0.7c0.1,0.1,0.8,0.2,0.8,0.2c0,0,0,0,0,0c0,0,0,0,0.1,0c0,0,0.1,0,0.1,0c0,0,0,0,0.1,0c0,0,0.1,0,0.1,0
			c0,0,0.1,0,0.1,0c0,0,0.1,0,0.1,0c0,0,0.1,0,0.1,0c0,0,0.1,0,0.1,0c0,0,0.1,0,0.1,0c0,0,0.1,0,0.1,0c0,0,0.1,0,0.1,0
			c0,0,0.1,0,0.1,0c0,0,0.1,0,0.1,0c0,0,0.1,0,0.1,0c0,0,0.1,0,0.1,0c0,0,0.1,0,0.1,0c0.1,0,0.1,0,0.2,0c0,0,0.1,0,0.1,0
			c0.1,0,0.1,0,0.2,0c0,0,0.1,0,0.1,0c0.1,0,0.2,0,0.3,0l0.4,0c-0.4-2.7,1.2-5.5,1.4-5.7c0.2-0.2,0.8-0.9,1-1.1c0,0,0,0,0,0
			c0,0,0-0.1,0.1-0.1c0,0,0,0,0,0c0,0,0,0,0-0.1c0,0,0,0,0,0c0,0,0,0,0-0.1c0,0,0,0,0,0c0.6-1,1-3,1-3C84.1,15,84,14.2,84,14.2z"/>
		<path class="st20" d="M75.5,23.6C75.5,23.6,75.5,23.6,75.5,23.6C75.5,23.6,75.5,23.6,75.5,23.6z"/>
		<path class="st20" d="M75.5,23.6C75.5,23.6,75.5,23.6,75.5,23.6C75.5,23.6,75.5,23.6,75.5,23.6z"/>
		<path class="st1" d="M87.5,40.1c0-0.5-1.4-2.6-1.6-3.1C86.1,37.5,87.4,39.5,87.5,40.1z"/>
		<path class="st21" d="M77.2,15.9C77.2,15.9,77.2,15.8,77.2,15.9C77.2,15.8,77.2,15.9,77.2,15.9z"/>
		<path class="st21" d="M77.3,16C77.3,16,77.3,15.9,77.3,16C77.3,15.9,77.3,16,77.3,16z"/>
		<path class="st21" d="M77.2,15.8C77.2,15.8,77.2,15.7,77.2,15.8C77.2,15.7,77.2,15.8,77.2,15.8z"/>
		<path class="st21" d="M77.3,16C77.3,16,77.3,16,77.3,16C77.3,16,77.3,16,77.3,16z"/>
		<path class="st21" d="M76.9,15C76.9,15.1,76.9,15.1,76.9,15C76.9,15.1,76.9,15.1,76.9,15L76.9,15z"/>
		<path class="st21" d="M77.4,16.4C77.4,16.4,77.4,16.4,77.4,16.4C77.4,16.4,77.4,16.4,77.4,16.4z"/>
		<path class="st21" d="M77,15.3C77,15.3,77,15.3,77,15.3C77,15.3,77,15.3,77,15.3z"/>
		<path class="st21" d="M77.1,15.4C77.1,15.4,77.1,15.4,77.1,15.4C77.1,15.4,77.1,15.4,77.1,15.4z"/>
		<path class="st21" d="M77.2,15.7C77.1,15.6,77.1,15.6,77.2,15.7C77.1,15.6,77.1,15.6,77.2,15.7z"/>
		<path class="st21" d="M77.1,15.6C77.1,15.5,77.1,15.5,77.1,15.6C77.1,15.5,77.1,15.5,77.1,15.6z"/>
		<path class="st21" d="M77,15.2C77,15.2,77,15.2,77,15.2C77,15.2,77,15.2,77,15.2z"/>
		<path class="st21" d="M77.4,16.5C77.4,16.5,77.4,16.5,77.4,16.5C77.4,16.5,77.4,16.5,77.4,16.5z"/>
		<polygon class="st21" points="76.9,24.4 76.9,24.4 76.9,24.4 76.9,24.4 		"/>
		<polygon class="st21" points="77.6,24.6 77.6,24.6 77.6,24.6 		"/>
		<path class="st21" d="M76.9,24.4c0,0,0.1,0.1,0.1,0.1C77,24.5,77,24.4,76.9,24.4C76.9,24.4,76.9,24.4,76.9,24.4z"/>
		<g>
			<path class="st22" d="M79.9,3.9c0.1,0,0.1,0,0.2-0.1C80,3.8,79.9,3.8,79.9,3.9C79.8,3.8,79.8,3.9,79.9,3.9z"/>
		</g>
		<path class="st23" d="M75.6,14.6"/>
		<g>
			<g>
				<g>
					<path class="st0" d="M76.2,14.3C76.2,14.3,76.2,14.3,76.2,14.3C76.2,14.3,76.2,14.3,76.2,14.3C76.2,14.3,76.2,14.3,76.2,14.3z"
						/>
				</g>
				<g>
					<path class="st0" d="M77.5,16.8C77.5,16.8,77.6,16.8,77.5,16.8L77.5,16.8C77.5,16.8,77.5,16.8,77.5,16.8z"/>
				</g>
				<g>
					<g>
						<path class="st0" d="M81.6,13.9c-1.7-0.3-3.3-0.1-4.3,0.1c-0.7,0.1-1.1,0.3-1.1,0.3c0,0,0,0,0,0c0,0,0.1,0,0.1,0c0,0,0,0,0,0
							c0,0,0,0,0.1,0c0,0,0,0,0,0c0,0,0,0,0.1,0.1c0,0,0,0,0,0c0,0,0.1,0.1,0.1,0.1c0,0,0,0,0,0c0,0,0,0.1,0.1,0.1c0,0,0,0,0,0
							c0,0,0,0.1,0.1,0.1c0,0,0,0,0,0c0,0,0,0.1,0.1,0.1c0,0,0,0,0,0c0,0,0,0.1,0.1,0.1c0,0,0,0,0,0c0,0,0,0,0,0
							c0,0.1,0.1,0.1,0.1,0.2c0,0,0,0,0,0c0,0,0,0,0,0.1c0,0,0,0,0,0c0,0,0,0,0,0.1c0,0,0,0,0,0c0,0,0,0,0,0.1c0,0,0,0,0,0
							c0,0,0,0,0,0.1c0,0,0,0,0,0c0,0,0,0,0,0.1c0,0,0,0,0,0c0,0,0,0,0,0.1c0,0,0,0,0,0c0,0,0,0,0,0.1c0,0,0,0,0,0c0,0,0,0,0,0.1
							c0,0,0,0,0,0c0,0.1,0.1,0.2,0.1,0.3c0,0,0,0,0,0c0,0,0,0,0,0.1c0,0,0,0,0,0c0.1,0.2,0.1,0.3,0.1,0.4c0,0,0,0,0,0
							c0,0,0.1,0.3-0.3,0.6c0,0,0,0,0,0c0,0,0,0,0,0c0.3-0.1,1.2-0.5,2.3-0.8c0.1,0,0.3-0.1,0.4-0.1c0,0,0,0,0,0c0,0,0.1,0,0.1,0
							c0.2,0,0.4-0.1,0.5-0.1c0.1,0,0.1,0,0.1,0c1.5-0.8,1.3-2,1.3-2l1-0.5c0,0,0,0,0,0c0,0,0,0,0,0c0,0,0,0,0,0c0,0,0,0,0,0
							c0,0,0,0,0,0c0,0,0,0,0,0c0,0,0,0,0,0c0,0,0,0,0,0c0,0,0,0,0,0c0,0,0,0,0,0c0,0,0,0,0,0c0,0,0,0,0,0c0,0,0,0,0,0c0,0,0,0,0,0
							c0,0,0,0,0,0C82.7,13.5,81.6,13.9,81.6,13.9z M80.6,16.4C80.7,16.4,80.7,16.4,80.6,16.4C80.7,16.4,80.7,16.4,80.6,16.4z
							 M80.6,16.4C80.6,16.4,80.6,16.4,80.6,16.4C80.6,16.4,80.6,16.4,80.6,16.4z"/>
					</g>
				</g>
			</g>
		</g>
		<path class="st24" d="M84.5,13.4l0.2-0.3c-0.4-0.3-0.7-0.6-0.9-0.9l-0.1,0.2C83.8,12.7,84,13.2,84.5,13.4z"/>
		<path class="st7" d="M83.7,12.5l-0.3,0.6l-0.2,0.4l-0.1,0.1c0,0,0,0,0,0c0,0,0,0,0,0c0,0,0,0,0,0c0,0,0,0,0,0c0,0,0,0,0,0
			c0,0,0,0,0,0c0,0,0,0,0,0c0,0,0,0,0,0c0,0,0,0,0,0c0,0,0,0,0,0c0,0,0,0,0,0c0,0,0,0,0,0c0,0,0,0,0,0c0,0,0,0,0,0c0,0,0,0,0,0
			c0,0,0,0,0,0c0,0,0,0,0,0c0,0,0,0,0,0c0,0,0,0,0,0c0,0,0,0,0,0c0,0,0,0,0,0c0,0,0,0,0,0c0,0,0,0,0,0c0,0,0,0,0,0c0,0,0,0,0,0
			c0,0,0,0,0,0c0,0,0,0,0,0c0,0,0,0,0,0c0,0,0,0,0,0c0,0,0,0,0,0c0.4,0.4,0.6,0.1,0.8-0.1l0.3-0.4l0.3-0.4
			C84,13.2,83.8,12.7,83.7,12.5z"/>
		<path class="st24" d="M86.5,10.4c0,0,0.6,1,1.7,1.4c0.1-0.1,0.1-0.2,0.2-0.4C88.2,11.4,87,11.1,86.5,10.4z"/>
		<path class="st25" d="M82.7,10.7c0.1,0.2,0.2,0.5,0.3,0.7c0.5,0.1,0.3-0.2,0.2-0.6c0-0.1,0-0.1,0-0.2c0,0-0.1,0-0.1,0
			C83,10.6,82.9,10.7,82.7,10.7z"/>
		<path class="st25" d="M84,5.8c0-0.1,0-0.3,0-0.4c-0.1,0-0.2,0-0.3,0c-0.2,0-0.3,0-0.3,0c-1.8,1.2-2.2,1.8-2.2,1.8
			c0,0,0.7,1.3,0.8,1.5c0.6-0.2,1,0.2,1.1,0.4c0.2,0.3,0.3,0.4,0.4,0.9c0,0,0.1-0.1,0.1-0.2c0,0,0-0.1,0-0.1c0-0.1-0.2-0.6-0.3-1.4
			c-0.1-0.7,0-0.7,0.1-1.1C83.6,7,84,6,84,5.8z"/>
		<path class="st7" d="M83.5,10.1c0,0,0-0.1,0-0.1c-0.2-0.5-0.3-0.6-0.4-0.9c-0.4-0.5-0.8-0.5-1.1-0.4c0,0-0.5,0.2-0.4,0.9
			c0,0.2,0.1,0.5,0.3,0.7c0.2,0.1,0.4,0.2,0.6,0.3c0.3,0.1,0.7,0.1,1,0c0.1,0,0.1-0.1,0.1-0.2C83.6,10.3,83.6,10.2,83.5,10.1z"/>
		<path class="st8" d="M83.4,10.2c-0.1-0.4-0.4-0.9-0.9-0.9c-0.1,0-0.2,0-0.2,0c0,0-0.3,0.1-0.3,0.6c0,0.3,0.3,0.5,0.5,0.6
			c0.1,0,0.2,0.1,0.2,0.1c0.1,0,0.3,0.1,0.4,0c0.1,0,0.1,0,0.2-0.1C83.4,10.4,83.4,10.3,83.4,10.2z"/>
		<path class="st7" d="M82.4,9.8c0,0,0.4-0.1,0.5,0.1c0.1,0.1,0,0.2-0.1,0.2c-0.1,0-0.1,0.1,0.1,0.2c0.2,0.1,0.4,0.1,0.4,0.1
			s-0.1-0.1-0.2-0.2c0-0.1,0-0.1,0-0.2c0-0.1-0.2-0.2-0.3-0.2C82.6,9.7,82.4,9.8,82.4,9.8z"/>
		<path class="st12" d="M86.8,5.8"/>
		<line class="st12" x1="86.8" y1="5.8" x2="86.8" y2="5.8"/>
		<path class="st7" d="M89.8,8.8C89.6,8.2,89,8.3,89,8.3c0-1.6-0.6-3.3-0.7-3.5c0,0,0,0,0.1-0.1l-0.1,0L88,4c0,0-0.4,0.3-1.4,0.8
			l-0.4,0L86.1,5c-0.3,0.1-0.5,0.3-0.9,0.4c-0.5,0-1,0-1.3,0c0,0.1,0,0.3,0,0.4c0,0.1-0.1,0.3-0.2,0.7c-0.1,0.2-0.2,0.5-0.3,0.8
			c0,0,0,0,0,0.1c-0.1,0.3-0.2,0.4-0.1,1.1c0.1,0.7,0.3,1.2,0.3,1.4c0,0.1-0.1,0.3-0.2,0.3c0,0,0,0,0,0c0,0,0,0.1,0,0.1
			c0.2,0.5,0,0.5-0.3,0.6c0,0.1,0,0.1,0,0.2c0.2,0.3,0.3,0.7-0.2,0.6c0.3,0.4,0.6,0.8,0.6,0.8l0,0c0.2,0.2,0.5,0.6,0.9,0.8l0,0
			c0,0,0,0,0,0c0.1,0.1,0.3,0.2,0.5,0.3c0.2,0.1,0.5,0.2,0.9,0.2c0.1,0,0.2,0,0.3,0c0,0,0,0,0,0c0,0,0,0,0.1,0
			c0.2,0,0.4-0.1,0.6-0.2c0.1,0,0.1-0.1,0.2-0.1c0.5-0.3,0.9-0.8,1.2-1.2c-1.1-0.4-1.7-1.4-1.7-1.4c0.5,0.6,1.7,1,2,1.1
			c0.5-0.9,0.6-1.8,0.6-1.8S89.9,9.4,89.8,8.8z"/>
		<path class="st26" d="M88.3,3.7C89,3.3,88.9,3.4,90.1,3c-1.8,0.5-2.6,0.8-2.8,0.9c0,0,0,0,0,0c0,0,0-0.1-0.1-0.1
			c-0.3,0.1-1,0.3-1.1,0.4C86,4.3,87.3,4.1,88.3,3.7z"/>
		<path class="st5" d="M88.3,3.7C89,3.3,88.9,3.4,90.1,3c-1.8,0.5-2.6,0.8-2.8,0.9c0,0,0,0,0,0c0,0,0-0.1-0.1-0.1
			c-0.3,0.1-1,0.3-1.1,0.4C86,4.3,87.3,4.1,88.3,3.7z"/>
		<path class="st0" d="M91.5,2.8c-0.1,0-0.3,0-0.4,0c-0.3,0-0.4,0-0.6,0.1c-0.1,0-0.2,0.1-0.3,0.1c-1.1,0.4-1,0.3-1.8,0.7
			c-1,0.5-2.3,0.6-2.2,0.5c0.1-0.1,0.7-0.3,1.1-0.4c-0.6-1-2.2-1.5-3.7-1.3c-0.4,0.1-0.9,0.3-1.2,0.6c-0.2,0.1-0.4,0.3-0.5,0.4
			c-0.6,0.6-1,1.3-1.1,1.6c0,0.1,0,0.1,0,0.2c0,0.1,0,0.2,0,0.3C80.7,6,80.8,6.4,81,6.8c0.1,0.3,0.3,0.6,0.3,0.7l0,0
			c0,0,0.3-0.5,1.7-1.5c0.2-0.1,0.4-0.3,0.6-0.4c0,0,2.3,0.3,4.1-0.4C88.7,4.8,90.3,2.8,91.5,2.8L91.5,2.8z"/>
		<g>
			<path class="st27" d="M88.6,7.5c0,0.3-0.1,0.5-0.3,0.5C88.1,8,88,7.8,88,7.5c0-0.3,0.1-0.5,0.3-0.5C88.4,7,88.5,7.2,88.6,7.5z"/>
			<path class="st27" d="M87.4,7.7c0,0.3-0.1,0.6-0.3,0.6c-0.2,0-0.4-0.2-0.4-0.6c0-0.3,0.1-0.6,0.3-0.6C87.2,7.2,87.4,7.4,87.4,7.7
				z"/>
			<path class="st17" d="M88.3,7.6c0,0.1,0,0.2-0.1,0.2c-0.1,0-0.1-0.1-0.2-0.2c0-0.1,0-0.2,0.1-0.2C88.3,7.3,88.3,7.4,88.3,7.6z"/>
			<path class="st17" d="M87.1,7.8c0,0.2-0.1,0.3-0.1,0.3c-0.1,0-0.2-0.1-0.2-0.3c0-0.2,0.1-0.3,0.1-0.3C87,7.5,87.1,7.6,87.1,7.8z"
				/>
		</g>
		<path class="st28" d="M86.7,19.5C86.7,19.5,86.7,19.5,86.7,19.5C86.7,19.5,86.7,19.5,86.7,19.5C86.7,19.5,86.7,19.5,86.7,19.5
			C86.7,19.5,86.7,19.5,86.7,19.5z"/>
		<path class="st12" d="M86.7,19.5C86.7,19.5,86.7,19.5,86.7,19.5C86.7,19.5,86.7,19.5,86.7,19.5C86.7,19.5,86.7,19.5,86.7,19.5
			C86.7,19.5,86.7,19.5,86.7,19.5z"/>
		<path class="st7" d="M91,18.2c-0.1-0.1-0.1-0.2-0.2-0.3c-0.7,0.3-3,1-3.6,1.6c-0.1,0.1-0.2,0.1-0.3,0.1c-0.1,0-0.1-0.1-0.2-0.1
			c0,0,0,0,0,0c-0.1,0.1-0.2,0.3-0.4,0.5c-0.2,0.2-0.4,0.4-0.5,0.5c0,0,0,0,0,0c0.1,0,0.2,0.1,0.4,0.3c0,0,0.1,0.1,0.1,0.1
			c0.4,0.4,0.6,0.3,0.8,0.1c0.2-0.2,1.6-0.7,3.5-2.2c0.2-0.2,0.4-0.3,0.6-0.5C91.1,18.3,91.1,18.3,91,18.2z"/>
		<path class="st12" d="M92.1,19C92.1,19,92.1,19,92.1,19C92.1,19,92.1,19,92.1,19z"/>
		<path class="st12" d="M92.4,19C92.5,19,92.5,19.1,92.4,19C92.5,19.1,92.5,19,92.4,19z"/>
		<path class="st7" d="M92.1,18.9c0,0,0.1,0.1,0,0.2l0.4,0.1c0,0,0,0-0.1-0.1c0-0.1-0.1-0.2,0.1-0.3c-0.2-0.1-0.5-0.3-0.6-0.3
			C92,18.4,92,18.6,92.1,18.9z"/>
		<path class="st29" d="M92.4,19c0-0.1-0.1-0.2,0.1-0.3C92.4,18.8,92.4,18.9,92.4,19z"/>
		<path class="st7" d="M92.9,19c0-0.1-0.1-0.2-0.3-0.3c-0.2,0.1-0.2,0.2-0.1,0.3c0,0,0.1,0.1,0.1,0.1L92.1,19c0,0-0.1,0.1-0.2,0.2
			c-0.1,0.1,0,0.3,0,0.3s-0.2-0.1-0.3,0c-0.1,0.1,0,0.2,0,0.2s-0.3-0.1-0.4,0c-0.1,0.1-0.1,0.1-0.1,0.2c0.1,0,0.1,0,0.2,0.1
			c0.4,0.1,0.2-0.2,0.4-0.2c0.2,0,0.3,0,0.4-0.2c0.1-0.2,0.1-0.1,0.3-0.1c0.2-0.1,0.2-0.2,0.2-0.3C92.5,19.1,92.8,19.2,92.9,19z"/>
		<path class="st6" d="M91.5,19.7c0,0-0.1-0.1,0-0.2c0.1-0.1,0.3,0,0.3,0s-0.1-0.1,0-0.3c0.1-0.1,0.2-0.2,0.2-0.2c0,0,0,0,0,0
			c-0.1,0-0.4-0.2-0.5-0.3c0,0,0,0,0,0c0,0,0,0,0,0.1C91.8,18.9,92,19,92,19c0,0,0,0,0,0c-0.1,0-0.6-0.3-0.7-0.2
			c-0.1,0.1,0,0.3,0,0.3C91,19.1,91,19.3,91,19.3c-0.4,0-0.2,0.3-0.2,0.3l-0.3-0.4c0,0,0,0.2-0.1,0.3c0.2,0.1,0.5,0.3,0.7,0.3
			c0-0.1,0-0.2,0.1-0.2C91.2,19.6,91.5,19.7,91.5,19.7z"/>
		<path class="st23" d="M91.2,18.2c0,0-0.1,0-0.2,0c0,0.1,0,0.2,0,0.3c0.1,0,0.1,0,0.2,0.1c0.1,0,0.3,0.1,0.4,0.2
			C91.4,18.5,91.3,18.3,91.2,18.2z"/>
		<path class="st7" d="M92,19C92,19,92,19,92,19c0,0-0.2-0.1-0.3-0.2c0,0,0,0,0-0.1c0,0,0,0,0,0c0,0,0,0,0,0c0,0,0,0,0,0
			c0-0.1-0.1-0.3,0-0.4l-0.5-0.1c0,0,0.2,0.7-0.9,0.6c0,0,0.3,0.2,0.2,0.4l0.3,0.4c0,0-0.2-0.3,0.2-0.3c0,0,0-0.2,0.3-0.2
			c0,0-0.1-0.1,0-0.3C91.4,18.7,91.9,19,92,19z"/>
		<polygon class="st30" points="91.6,18.7 91.6,18.7 91.6,18.7 		"/>
		<path class="st7" d="M92,18.3C92,18.3,92,18.3,92,18.3c0-0.1,0.1-0.3-0.7-0.4c-0.7-0.2-1.4,0.3-1.6,0.5c0,0.1-0.1,0.3-0.1,0.4
			c0.1,0,0.1,0,0.2,0.1c0.1,0.1,0.2,0.3,0.4,0.5c0.1,0.1,0.2,0.1,0.3,0.2c0.1-0.1,0.1-0.3,0.1-0.3c0-0.2-0.2-0.4-0.2-0.4
			c1.1,0.1,0.9-0.6,0.9-0.6l0.5,0.1c0,0,0,0,0,0L92,18.3C92,18.3,92,18.3,92,18.3z"/>
		<path class="st0" d="M94.9,19.8c0-0.1-0.4-1.3-0.7-1.4l-5.6,0.3c0,0,0.4,3.1,0.7,5c0.9,1.2,2.9,3.3,5.8,2
			c-0.3-0.6-0.2-1.7-0.2-2.2C95,22.9,94.9,19.9,94.9,19.8z M92.2,19.9l-1,0.1c-0.3,0-0.5-0.1-0.5-0.3c0-0.1,0-0.1,0.1-0.2
			c0.1-0.1,0.2-0.2,0.4-0.2l0.9-0.1c0.2,0,0.4,0.1,0.5,0.2c0.1,0.1,0.1,0.1,0.1,0.2C92.8,19.7,92.5,19.8,92.2,19.9z"/>
		<path class="st0" d="M89.3,23.7c0.1,0.7,0.2,1.3,0.3,1.5c0.2,0.7-0.4,1.3-0.4,1.7c0,0.4,0.4-0.1,1-0.3c0.6-0.2,4.3-0.4,4.8-0.3
			c0.5,0.1,0.7,0.1,0.3-0.4c0-0.1-0.1-0.1-0.1-0.2C92.2,27,90.2,24.9,89.3,23.7z"/>
		<path class="st0" d="M90.3,21.7c0,0,0.3,1.1,1.3,1c1-0.1,2-2.1,2-2.1s-0.3,2.1-1.5,2.6C90.8,23.6,90.2,22.5,90.3,21.7z"/>
		<path class="st0" d="M93.9,23.3c0,0-0.3,1-1,1.6C92.9,24.9,94.3,24.9,93.9,23.3z"/>
		<path class="st12" d="M92.6,19.4c-0.1-0.1-0.3-0.2-0.5-0.2l-1.1,0c-0.2,0-0.4,0.1-0.5,0.2c-0.1,0.1-0.1,0.1-0.1,0.2
			c0,0.2,0.2,0.4,0.6,0.4l1.2,0c0.3,0,0.6-0.1,0.6-0.3C92.8,19.5,92.7,19.4,92.6,19.4z"/>
		<path class="st0" d="M94.3,25.1c0.1-0.4,0.7-4.6,0.8-5c0-0.1-0.3-1.5-0.6-1.7l-1.6-0.1l-1.1-0.1l-3.5-0.2c0,0,0,0.5,0,1.3
			c0,0,0,0,0,0c0,1.2,0.1,3,0.2,4.3c0.8,1.4,2.9,4,6.2,2.9C94.5,26.1,94.2,25.7,94.3,25.1z M92.2,20l-1.2,0c-0.3,0-0.6-0.2-0.6-0.4
			c0-0.1,0-0.2,0.1-0.2c0.1-0.1,0.3-0.2,0.5-0.2l1.1,0c0.2,0,0.4,0.1,0.5,0.2c0.1,0.1,0.1,0.1,0.1,0.2C92.8,19.8,92.5,20,92.2,20z"
			/>
		<path class="st31" d="M88.2,19.6L88.2,19.6C88.3,19.5,88.3,19.5,88.2,19.6C88.3,19.5,88.2,19.6,88.2,19.6z"/>
		<path class="st32" d="M88.5,23.9c0,0.8,0.1,1.4,0.1,1.7c0.1,0.8-0.5,1.4-0.6,1.9c0,0.5,0.5-0.1,1.1-0.2c0.7-0.1,4.8,0,5.3,0.2
			c0.5,0.2,0.7,0.2,0.4-0.4c0-0.1-0.1-0.2-0.1-0.2C91.3,27.8,89.3,25.3,88.5,23.9z"/>
		<path class="st7" d="M92,18.3l-0.4,0c0,0.1,0,0.2,0,0.4c0,0,0,0,0,0c0,0.1,0.3,0.4,0.5,0.3c0,0,0,0,0,0c0.1,0,0-0.2,0-0.2
			C92,18.7,92,18.5,92,18.3z"/>
		<path class="st7" d="M91.7,19.7c0,0-0.8-0.4-0.5-0.7c0.1-0.1,0.7,0.4,0.7,0.4"/>
		<path class="st7" d="M91.2,19.8c0,0-0.3-0.2-0.1-0.4c0.1-0.1,0.7,0.4,0.7,0.4"/>
		<path class="st7" d="M92,19.5c0,0-0.8-0.4-0.5-0.7c0.1-0.1,0.7,0.4,0.7,0.4"/>
		<path class="st32" d="M95,19.8c-0.1-0.3-0.1-0.5-0.3-0.8c-0.1-0.3-0.3-0.4-0.3-0.4L92,18.5c0,0,0,0,0,0c0,0.1,0,0.1,0,0.2
			c0,0,0,0,0,0c0,0,0,0.1,0,0.1c0,0,0,0,0,0c0,0,0,0,0,0c0,0,0,0,0,0c0,0,0,0,0,0c0,0,0,0.1,0,0.1c0,0,0,0,0,0
			c0.1,0.1,0,0.2-0.1,0.2c0,0,0,0,0,0c0,0,0.1,0,0.1,0.1c0.1,0,0.3,0,0.4,0.1c0.1,0,0.1,0.2,0,0.2c0,0,0,0,0,0c0,0,0,0,0,0
			c-0.1,0.1-0.2,0.1-0.3,0.1c0,0,0,0,0,0c0,0,0,0,0,0c0,0-0.1,0.1-0.1,0.1c0,0,0,0,0,0c0,0-0.1,0.1-0.1,0c0,0-0.1,0-0.1,0
			c0,0,0,0,0,0c-0.1,0-0.3,0-0.3,0c0,0,0,0,0,0c0,0,0,0,0,0c0,0,0,0,0,0c-0.1,0-0.3,0-0.4-0.1c0,0,0-0.1-0.1-0.1
			c0-0.1,0.1-0.2,0.2-0.3c0,0,0,0,0,0c0.1,0,0.1,0,0.2,0c0-0.1,0-0.2,0.1-0.2c0.1,0,0.1,0,0.2,0c0,0,0,0,0,0c0,0,0,0,0,0
			c0,0,0,0,0,0c0,0,0,0,0,0c0,0,0,0,0,0c0,0,0,0,0,0c0,0,0,0,0,0c0,0,0-0.1,0-0.1c0-0.1,0.1-0.1,0.1,0c0,0,0.1,0,0.1,0
			c0,0,0,0,0.1,0c0,0,0,0,0,0c0,0,0,0,0,0c0-0.1-0.1-0.1-0.1-0.2c0,0,0-0.1,0-0.1c0,0,0-0.1,0-0.1l-3.3-0.2l0.1,2
			c0,0,1.5-0.3,2.3-0.1c0.8,0.2,2.4,0.5,2.9,0.3c0.5-0.2,0.9-0.3,1.1-0.3c0.1,0,0.5,0.1,0.5,0.1S95.1,20.1,95,19.8z"/>
		<g>
			<g>
				<path class="st0" d="M86.7,19.5C86.7,19.5,86.7,19.5,86.7,19.5C86.7,19.5,86.7,19.5,86.7,19.5C86.7,19.5,86.7,19.5,86.7,19.5
					C86.7,19.5,86.7,19.5,86.7,19.5z"/>
				<g>
					<g>
						<path class="st0" d="M87,18.9c-0.2-0.1-0.4-0.1-0.5-0.2c-1-0.5-1.2-1.3-1.4-2c-0.3-0.8-0.9-1.5-0.9-1.5c0,0-0.2,0.8-0.5,1.7
							c-0.2,0.5-0.3,0.9-0.6,1.3c0,0,0,0,0,0c0,0,0,0,0,0.1c0,0,0,0,0,0c0,0,0,0,0,0.1c0,0,0,0,0,0c0,0,0,0.1-0.1,0.1
							c0,0,0-0.1,0-0.1c0.6,1.2,2.1,2.6,2.1,2.6s0.2,0,0.7-0.4c0,0,0,0,0,0c0.1-0.1,0.3-0.3,0.5-0.5c0.2-0.2,0.3-0.4,0.4-0.5
							c0,0,0,0,0,0C87.1,19.1,87,18.9,87,18.9z M86.7,19.5C86.7,19.5,86.7,19.5,86.7,19.5C86.7,19.5,86.7,19.5,86.7,19.5
							C86.7,19.5,86.7,19.5,86.7,19.5C86.7,19.5,86.7,19.5,86.7,19.5z"/>
					</g>
				</g>
			</g>
		</g>
		<g>
			<g>
				<path class="st33" d="M89.3,22.4l0,0.3c0,0,0.1-0.1,0.1-0.1c0,0,0.1,0,0.1,0c0.1,0,0.1,0,0.2,0c0,0,0.1,0.1,0.1,0.1
					c0,0.1,0,0.1,0,0.2c0,0.1,0,0.1,0,0.2c0,0,0,0.1-0.1,0.1c0,0-0.1,0.1-0.1,0.1c0,0-0.1,0-0.1,0c0,0-0.1,0-0.1,0c0,0,0,0-0.1,0
					c0,0,0,0,0,0c0,0,0,0-0.1-0.1l0,0c0,0,0,0.1,0,0.1c0,0,0,0-0.1,0c0,0,0,0-0.1,0c0,0,0,0,0-0.1l0-0.9c0,0,0-0.1,0-0.1
					c0,0,0,0,0.1,0C89.2,22.3,89.2,22.3,89.3,22.4C89.3,22.4,89.3,22.4,89.3,22.4z M89.3,23c0,0.1,0,0.1,0.1,0.2
					c0,0,0.1,0.1,0.1,0.1c0,0,0.1,0,0.1-0.1c0,0,0.1-0.1,0.1-0.2c0-0.1,0-0.1,0-0.1c0,0,0-0.1-0.1-0.1c0,0-0.1,0-0.1,0
					c0,0-0.1,0-0.1,0c0,0-0.1,0-0.1,0.1C89.3,22.9,89.3,23,89.3,23z"/>
				<path class="st33" d="M90.6,23.1l-0.4,0c0,0,0,0.1,0,0.1c0,0,0,0.1,0.1,0.1c0,0,0.1,0,0.1,0c0,0,0,0,0.1,0c0,0,0,0,0.1,0
					c0,0,0,0,0.1,0C90.6,23.2,90.6,23.2,90.6,23.1C90.6,23.2,90.6,23.2,90.6,23.1c0.1,0.1,0.1,0.1,0.1,0.1c0,0,0,0,0,0
					c0,0,0,0,0,0.1c0,0,0,0-0.1,0.1c0,0-0.1,0-0.1,0.1s-0.1,0-0.1,0c-0.1,0-0.2,0-0.3-0.1C90,23.2,90,23.1,90,23c0-0.1,0-0.1,0-0.2
					c0,0,0-0.1,0.1-0.1c0,0,0.1-0.1,0.1-0.1c0,0,0.1,0,0.2,0c0.1,0,0.1,0,0.2,0.1c0.1,0,0.1,0.1,0.1,0.1c0,0.1,0,0.1,0,0.2
					c0,0,0,0.1,0,0.1C90.6,23.1,90.6,23.1,90.6,23.1z M90.2,23l0.4,0c0-0.1,0-0.1-0.1-0.2c0,0-0.1-0.1-0.1-0.1c0,0-0.1,0-0.1,0
					C90.2,22.8,90.2,22.9,90.2,23z"/>
				<path class="st33" d="M90.9,23.3l0-0.8c0,0,0-0.1,0-0.1c0,0,0,0,0.1,0c0,0,0.1,0,0.1,0c0,0,0,0.1,0,0.1l0,0.8c0,0,0,0.1,0,0.1
					c0,0,0,0-0.1,0C90.9,23.4,90.9,23.4,90.9,23.3C90.9,23.4,90.9,23.3,90.9,23.3z"/>
				<path class="st33" d="M91.3,23.3l0-0.8c0,0,0-0.1,0-0.1c0,0,0,0,0.1,0c0,0,0.1,0,0.1,0c0,0,0,0,0,0.1l0,0.8c0,0,0,0.1,0,0.1
					c0,0,0,0-0.1,0C91.3,23.4,91.3,23.4,91.3,23.3C91.3,23.4,91.3,23.4,91.3,23.3z"/>
				<path class="st34" d="M91.9,22.5l0,0.3c0,0,0.1-0.1,0.1-0.1c0,0,0.1,0,0.1,0c0.1,0,0.1,0,0.2,0c0,0,0.1,0.1,0.1,0.1
					c0,0.1,0,0.1,0,0.2c0,0.1,0,0.1,0,0.2c0,0,0,0.1-0.1,0.1c0,0-0.1,0.1-0.1,0.1c0,0-0.1,0-0.1,0c0,0-0.1,0-0.1,0c0,0,0,0-0.1,0
					c0,0,0,0,0,0c0,0,0,0-0.1-0.1l0,0c0,0,0,0.1,0,0.1c0,0,0,0-0.1,0c0,0,0,0-0.1,0c0,0,0,0,0-0.1l0-0.9c0,0,0-0.1,0-0.1
					c0,0,0,0,0.1,0C91.8,22.4,91.8,22.4,91.9,22.5C91.9,22.4,91.9,22.4,91.9,22.5z M91.9,23c0,0.1,0,0.1,0.1,0.2
					c0,0,0.1,0.1,0.1,0.1c0,0,0.1,0,0.1-0.1c0,0,0.1-0.1,0.1-0.2c0-0.1,0-0.1,0-0.1c0,0,0-0.1-0.1-0.1c0,0-0.1,0-0.1,0
					c0,0-0.1,0-0.1,0c0,0-0.1,0-0.1,0.1C91.9,22.9,91.9,23,91.9,23z"/>
				<path class="st34" d="M93.3,23.1c0,0.1,0,0.1,0,0.2c0,0,0,0.1-0.1,0.1c0,0-0.1,0.1-0.1,0.1c0,0-0.1,0-0.2,0c-0.1,0-0.1,0-0.2,0
					c0,0-0.1,0-0.1-0.1c0,0-0.1-0.1-0.1-0.1c0,0,0-0.1,0-0.2c0-0.1,0-0.1,0-0.2c0,0,0-0.1,0.1-0.1c0,0,0.1-0.1,0.1-0.1
					c0,0,0.1,0,0.2,0c0.1,0,0.1,0,0.2,0c0,0,0.1,0,0.1,0.1c0,0,0.1,0.1,0.1,0.1C93.3,22.9,93.3,23,93.3,23.1z M93.1,23.1
					c0-0.1,0-0.1-0.1-0.2c0,0-0.1-0.1-0.1-0.1c0,0-0.1,0-0.1,0c0,0-0.1,0-0.1,0.1c0,0,0,0.1,0,0.1c0,0.1,0,0.1,0,0.1
					c0,0,0,0.1,0.1,0.1c0,0,0.1,0,0.1,0c0.1,0,0.1,0,0.1-0.1C93.1,23.2,93.1,23.1,93.1,23.1z"/>
				<path class="st34" d="M93.6,23.5L93.6,23.5l-0.2-0.7c0,0,0-0.1,0-0.1c0,0,0,0,0,0c0,0,0,0,0,0c0,0,0,0,0,0c0,0,0,0,0.1,0
					c0,0,0,0,0,0.1l0.2,0.5l0.2-0.4c0,0,0-0.1,0-0.1c0,0,0,0,0,0c0,0,0,0,0,0c0,0,0,0,0,0c0,0,0,0,0,0c0,0,0,0,0,0c0,0,0,0,0,0
					c0,0,0,0,0,0.1l-0.3,0.7c0,0.1,0,0.1-0.1,0.1c0,0,0,0.1-0.1,0.1c0,0-0.1,0-0.1,0c-0.1,0-0.1,0-0.1,0c0,0,0,0,0-0.1
					c0,0,0,0,0-0.1c0,0,0,0,0.1,0c0,0,0,0,0,0c0,0,0,0,0,0c0,0,0,0,0.1,0C93.6,23.6,93.6,23.6,93.6,23.5
					C93.6,23.5,93.6,23.5,93.6,23.5z"/>
			</g>
		</g>
		<path class="st0" d="M89.3,22.4l0,0.3c0,0,0.1-0.1,0.1-0.1c0,0,0.1,0,0.1,0c0.1,0,0.1,0,0.2,0c0,0,0.1,0.1,0.1,0.1
			c0,0.1,0,0.1,0,0.2c0,0.1,0,0.1,0,0.2c0,0,0,0.1-0.1,0.1c0,0-0.1,0.1-0.1,0.1c0,0-0.1,0-0.1,0c0,0-0.1,0-0.1,0c0,0,0,0-0.1,0
			c0,0,0,0,0,0c0,0,0,0-0.1-0.1l0,0c0,0,0,0.1,0,0.1c0,0,0,0-0.1,0c0,0,0,0-0.1,0c0,0,0,0,0-0.1l0-0.9c0,0,0-0.1,0-0.1
			c0,0,0,0,0.1,0C89.2,22.3,89.2,22.3,89.3,22.4C89.3,22.4,89.3,22.4,89.3,22.4z M89.3,23c0,0.1,0,0.1,0.1,0.2c0,0,0.1,0.1,0.1,0.1
			c0,0,0.1,0,0.1-0.1c0,0,0.1-0.1,0.1-0.2c0-0.1,0-0.1,0-0.1c0,0,0-0.1-0.1-0.1c0,0-0.1,0-0.1,0c0,0-0.1,0-0.1,0c0,0-0.1,0-0.1,0.1
			C89.3,22.9,89.3,23,89.3,23z"/>
		<path class="st0" d="M90.6,23.1l-0.4,0c0,0,0,0.1,0,0.1c0,0,0,0.1,0.1,0.1c0,0,0.1,0,0.1,0c0,0,0,0,0.1,0c0,0,0,0,0.1,0
			c0,0,0,0,0.1,0C90.6,23.2,90.6,23.2,90.6,23.1C90.6,23.2,90.6,23.2,90.6,23.1c0.1,0.1,0.1,0.1,0.1,0.1c0,0,0,0,0,0c0,0,0,0,0,0.1
			c0,0,0,0-0.1,0.1c0,0-0.1,0-0.1,0.1s-0.1,0-0.1,0c-0.1,0-0.2,0-0.3-0.1C90,23.2,90,23.1,90,23c0-0.1,0-0.1,0-0.2
			c0,0,0-0.1,0.1-0.1c0,0,0.1-0.1,0.1-0.1c0,0,0.1,0,0.2,0c0.1,0,0.1,0,0.2,0.1c0.1,0,0.1,0.1,0.1,0.1c0,0.1,0,0.1,0,0.2
			c0,0,0,0.1,0,0.1C90.6,23.1,90.6,23.1,90.6,23.1z M90.2,23l0.4,0c0-0.1,0-0.1-0.1-0.2c0,0-0.1-0.1-0.1-0.1c0,0-0.1,0-0.1,0
			C90.2,22.8,90.2,22.9,90.2,23z"/>
		<path class="st0" d="M90.9,23.3l0-0.8c0,0,0-0.1,0-0.1c0,0,0,0,0.1,0c0,0,0.1,0,0.1,0c0,0,0,0.1,0,0.1l0,0.8c0,0,0,0.1,0,0.1
			c0,0,0,0-0.1,0C90.9,23.4,90.9,23.4,90.9,23.3C90.9,23.4,90.9,23.3,90.9,23.3z"/>
		<path class="st0" d="M91.3,23.3l0-0.8c0,0,0-0.1,0-0.1c0,0,0,0,0.1,0c0,0,0.1,0,0.1,0c0,0,0,0,0,0.1l0,0.8c0,0,0,0.1,0,0.1
			c0,0,0,0-0.1,0C91.3,23.4,91.3,23.4,91.3,23.3C91.3,23.4,91.3,23.4,91.3,23.3z"/>
		<path class="st1" d="M91.9,22.5l0,0.3c0,0,0.1-0.1,0.1-0.1c0,0,0.1,0,0.1,0c0.1,0,0.1,0,0.2,0c0,0,0.1,0.1,0.1,0.1
			c0,0.1,0,0.1,0,0.2c0,0.1,0,0.1,0,0.2c0,0,0,0.1-0.1,0.1c0,0-0.1,0.1-0.1,0.1c0,0-0.1,0-0.1,0c0,0-0.1,0-0.1,0c0,0,0,0-0.1,0
			c0,0,0,0,0,0c0,0,0,0-0.1-0.1l0,0c0,0,0,0.1,0,0.1c0,0,0,0-0.1,0c0,0,0,0-0.1,0c0,0,0,0,0-0.1l0-0.9c0,0,0-0.1,0-0.1
			c0,0,0,0,0.1,0C91.8,22.4,91.8,22.4,91.9,22.5C91.9,22.4,91.9,22.4,91.9,22.5z M91.9,23c0,0.1,0,0.1,0.1,0.2c0,0,0.1,0.1,0.1,0.1
			c0,0,0.1,0,0.1-0.1c0,0,0.1-0.1,0.1-0.2c0-0.1,0-0.1,0-0.1c0,0,0-0.1-0.1-0.1c0,0-0.1,0-0.1,0c0,0-0.1,0-0.1,0c0,0-0.1,0-0.1,0.1
			C91.9,22.9,91.9,23,91.9,23z"/>
		<path class="st1" d="M93.3,23.1c0,0.1,0,0.1,0,0.2c0,0,0,0.1-0.1,0.1c0,0-0.1,0.1-0.1,0.1c0,0-0.1,0-0.2,0c-0.1,0-0.1,0-0.2,0
			c0,0-0.1,0-0.1-0.1c0,0-0.1-0.1-0.1-0.1c0,0,0-0.1,0-0.2c0-0.1,0-0.1,0-0.2c0,0,0-0.1,0.1-0.1c0,0,0.1-0.1,0.1-0.1
			c0,0,0.1,0,0.2,0c0.1,0,0.1,0,0.2,0c0,0,0.1,0,0.1,0.1c0,0,0.1,0.1,0.1,0.1C93.3,22.9,93.3,23,93.3,23.1z M93.1,23.1
			c0-0.1,0-0.1-0.1-0.2c0,0-0.1-0.1-0.1-0.1c0,0-0.1,0-0.1,0c0,0-0.1,0-0.1,0.1c0,0,0,0.1,0,0.1c0,0.1,0,0.1,0,0.1
			c0,0,0,0.1,0.1,0.1c0,0,0.1,0,0.1,0c0.1,0,0.1,0,0.1-0.1C93.1,23.2,93.1,23.1,93.1,23.1z"/>
		<path class="st1" d="M93.6,23.5L93.6,23.5l-0.2-0.7c0,0,0-0.1,0-0.1c0,0,0,0,0,0c0,0,0,0,0,0c0,0,0,0,0,0c0,0,0,0,0.1,0
			c0,0,0,0,0,0.1l0.2,0.5l0.2-0.4c0,0,0-0.1,0-0.1c0,0,0,0,0,0c0,0,0,0,0,0c0,0,0,0,0,0c0,0,0,0,0,0c0,0,0,0,0,0c0,0,0,0,0,0
			c0,0,0,0,0,0.1l-0.3,0.7c0,0.1,0,0.1-0.1,0.1c0,0,0,0.1-0.1,0.1c0,0-0.1,0-0.1,0c-0.1,0-0.1,0-0.1,0c0,0,0,0,0-0.1c0,0,0,0,0-0.1
			c0,0,0,0,0.1,0c0,0,0,0,0,0c0,0,0,0,0,0c0,0,0,0,0.1,0C93.6,23.6,93.6,23.6,93.6,23.5C93.6,23.5,93.6,23.5,93.6,23.5z"/>
		<g>
			<path class="st17" d="M81.2,16.8c0.1-0.1,0.1-0.1,0.1-0.2c0-0.1,0-0.2,0-0.3c0,0,0,0,0-0.1c0,0,0,0,0,0c0,0,0,0,0,0c0,0,0,0,0,0
				c0,0,0,0,0,0c0,0,0,0,0,0.1c0,0.1,0,0.1,0,0.2c0.1-0.1,0.2-0.1,0.2-0.2c0,0,0,0,0,0c0,0,0,0,0,0c0,0,0,0,0,0c0,0,0,0,0,0
				c0,0,0,0,0,0c0,0,0,0,0,0c0,0,0,0,0,0c0,0,0,0-0.1,0c-0.1,0.1-0.2,0.1-0.3,0.2c0,0.1-0.1,0.1-0.1,0.2
				C81.2,16.9,81.2,16.9,81.2,16.8C81.2,16.9,81.2,16.9,81.2,16.8C81.1,16.9,81.1,16.9,81.2,16.8C81.1,16.9,81.1,16.8,81.2,16.8z"/>
			<path class="st17" d="M81.9,16.8C81.9,16.9,81.9,16.9,81.9,16.8c-0.1,0.1-0.1,0.1-0.2,0.2c0,0-0.1,0-0.1,0c0,0-0.1,0-0.1,0
				c0,0-0.1,0-0.1,0c0,0,0,0,0-0.1c0,0,0-0.1,0-0.1c0,0,0-0.1,0.1-0.1c0,0,0.1-0.1,0.1-0.1c0,0,0.1-0.1,0.1-0.1c0,0,0.1,0,0.1,0
				c0,0,0.1,0,0.1,0c0,0,0.1,0,0.1,0c0,0,0,0,0,0.1c0,0,0,0.1,0,0.1C82,16.8,82,16.8,81.9,16.8z M81.8,16.8c0,0,0-0.1,0-0.1
				c0,0,0,0,0-0.1c0,0,0,0-0.1,0c0,0,0,0-0.1,0c0,0,0,0-0.1,0.1c0,0,0,0.1,0,0.1c0,0,0,0,0,0.1c0,0,0,0,0,0c0,0,0.1,0,0.1,0
				C81.8,16.9,81.8,16.8,81.8,16.8z"/>
			<path class="st17" d="M82.2,17.1C82.2,17.1,82.2,17.1,82.2,17.1C82.2,17.1,82.1,17.1,82.2,17.1c-0.1,0-0.1,0-0.1,0c0,0,0,0-0.1,0
				c0,0,0,0-0.1,0c0,0,0,0,0-0.1c0,0,0-0.1,0.1-0.1c0.1-0.1,0.1-0.2,0.2-0.2c0,0,0,0,0-0.1c0,0,0,0,0,0c0,0,0,0,0,0c0,0,0,0,0,0.1
				c0,0.1-0.1,0.1-0.1,0.2c0,0,0,0.1,0,0.1c0,0,0,0,0,0C82.1,17,82.1,17,82.2,17.1C82.1,17,82.1,17,82.2,17.1
				C82.2,17,82.2,17,82.2,17.1c0.1-0.1,0.1-0.2,0.1-0.2c0-0.1,0.1-0.1,0.1-0.2c0,0,0,0,0-0.1c0,0,0,0,0,0c0,0,0,0,0,0c0,0,0,0,0,0.1
				C82.4,16.8,82.3,17,82.2,17.1C82.3,17.1,82.2,17.1,82.2,17.1C82.2,17.1,82.2,17.1,82.2,17.1C82.2,17.1,82.1,17.1,82.2,17.1
				C82.1,17.1,82.2,17.1,82.2,17.1z"/>
			<path class="st17" d="M82.5,17c0,0,0,0.1-0.1,0.1c0,0,0,0-0.1,0.1c0,0,0,0-0.1,0c0,0,0,0,0,0c0,0,0,0,0-0.1
				c0.1-0.1,0.1-0.2,0.2-0.4c0-0.1,0.1-0.1,0.1-0.1c0,0,0,0,0,0c0,0,0,0,0,0.1c0,0,0.1,0,0.1-0.1c0,0,0,0,0.1,0c0,0,0,0,0.1,0
				c0,0,0,0,0,0.1c0,0,0,0,0,0c0,0,0,0,0,0c0,0,0,0,0,0c0,0,0,0,0,0c0,0,0,0,0,0c0,0,0,0,0,0C82.6,16.9,82.6,16.9,82.5,17
				C82.6,16.9,82.6,17,82.5,17z"/>
			<path class="st17" d="M80.2,17.1C80.1,17.1,80.1,17.1,80.2,17.1c-0.1,0-0.2,0.1-0.2,0.1c0,0,0,0-0.1,0c0,0,0,0,0,0c0,0,0,0,0,0
				c0,0,0,0,0,0c0.1-0.1,0.2-0.2,0.4-0.4c0,0,0,0,0.1,0c0,0,0,0,0.1,0c0,0,0.1,0,0.1,0c0,0,0.1,0,0.1,0c0,0,0,0,0,0c0,0,0,0,0,0.1
				c0,0,0,0,0,0.1c0,0-0.1,0.1-0.1,0.1C80.3,17.1,80.2,17.1,80.2,17.1z M80.3,16.9C80.3,16.9,80.3,16.9,80.3,16.9
				c-0.1,0-0.2,0.1-0.2,0.1c0,0,0,0,0.1,0c0,0,0,0,0.1,0c0,0,0,0,0.1,0c0,0,0,0,0.1,0C80.4,17,80.4,16.9,80.3,16.9
				C80.4,16.9,80.4,16.9,80.3,16.9z"/>
			<path class="st17" d="M80.6,17.3c-0.1,0-0.1,0-0.2-0.1c0,0,0,0,0,0.1s0,0,0,0c0,0,0,0,0,0c0,0,0,0,0,0c0,0,0,0,0,0
				C80.5,17.4,80.5,17.4,80.6,17.3C80.5,17.4,80.5,17.4,80.6,17.3C80.5,17.4,80.6,17.4,80.6,17.3C80.6,17.4,80.6,17.4,80.6,17.3
				C80.6,17.4,80.6,17.4,80.6,17.3c0,0.1,0,0.1,0,0.1c0,0,0,0-0.1,0c0,0,0,0-0.1,0c0,0,0,0-0.1,0c-0.1,0-0.1-0.1-0.1-0.1
				c0,0,0-0.1,0.1-0.1c0,0,0.1,0,0.1-0.1c0,0,0.1,0,0.1,0c0,0,0.1,0,0.1,0c0,0,0.1,0,0.1,0c0,0,0.1,0,0.1,0.1c0,0,0,0,0,0.1
				c0,0,0,0.1,0,0.1C80.7,17.3,80.6,17.3,80.6,17.3C80.6,17.3,80.6,17.3,80.6,17.3z M80.4,17.2c0.1,0,0.1,0,0.2,0.1c0,0,0-0.1,0-0.1
				c0,0,0,0,0,0C80.6,17.1,80.6,17.1,80.4,17.2C80.5,17.1,80.5,17.2,80.4,17.2z"/>
			<path class="st17" d="M80.8,17.4C80.7,17.4,80.7,17.5,80.8,17.4c-0.1,0.1-0.1,0.1-0.1,0.1c0,0,0,0,0,0c0,0,0,0,0,0c0,0,0,0,0,0
				c0.1-0.1,0.2-0.2,0.2-0.3c0,0,0.1-0.1,0.1,0c0,0,0,0,0,0c0,0,0,0,0,0c0,0,0,0,0.1,0c0,0,0,0,0.1,0c0,0,0,0,0,0c0,0,0,0,0,0
				c0,0,0,0,0,0c0,0,0,0,0,0c0,0,0,0,0,0c0,0,0,0,0,0c0,0,0,0,0,0c0,0,0,0,0,0C80.9,17.3,80.8,17.3,80.8,17.4
				C80.8,17.4,80.8,17.4,80.8,17.4z"/>
			<path class="st17" d="M81.2,17.6C81.2,17.6,81.2,17.6,81.2,17.6c-0.1,0.1-0.1,0.1-0.2,0.1c0,0-0.1,0-0.1,0c0,0-0.1,0-0.1,0
				c0,0,0,0,0-0.1c0,0,0,0,0-0.1c0,0,0,0,0,0c0,0,0,0,0,0c0,0,0,0,0,0c0,0,0,0,0,0c0,0,0,0,0,0c0,0,0,0,0,0c0,0,0,0,0.1,0
				c0,0,0,0,0,0C81.1,17.6,81.1,17.5,81.2,17.6c-0.1-0.1-0.1-0.1-0.1-0.1c0,0,0,0-0.1,0c0,0,0,0,0,0c0,0,0,0,0-0.1c0,0,0,0,0.1,0
				c0,0,0.1,0,0.1,0c0,0,0.1,0,0.1,0c0,0,0,0,0.1,0c0,0,0,0,0,0c0,0,0,0,0,0c0,0,0,0,0,0c0,0,0,0,0,0c0,0,0,0,0,0c0,0,0,0,0,0
				c0,0,0,0,0,0c0,0,0,0,0,0c0,0,0,0,0,0c0,0,0,0,0,0c0,0,0,0,0,0c0,0,0,0,0,0c0,0,0,0,0,0c0,0,0,0,0,0
				C81.2,17.4,81.2,17.5,81.2,17.6C81.2,17.5,81.2,17.5,81.2,17.6C81.2,17.5,81.2,17.6,81.2,17.6z"/>
			<path class="st17" d="M81.7,17.6C81.7,17.6,81.6,17.7,81.7,17.6c-0.1,0.1-0.1,0.1-0.2,0.1c0,0-0.1,0-0.1,0c0,0-0.1,0-0.1,0
				c0,0,0,0-0.1,0c0,0,0,0,0-0.1c0,0,0,0,0-0.1c0,0,0-0.1,0.1-0.1c0,0,0.1-0.1,0.1-0.1c0,0,0.1,0,0.1-0.1c0,0,0.1,0,0.1,0
				c0,0,0.1,0,0.1,0c0,0,0,0,0.1,0c0,0,0,0,0,0.1C81.8,17.5,81.7,17.5,81.7,17.6C81.7,17.5,81.7,17.6,81.7,17.6z M81.6,17.6
				c0,0,0-0.1,0-0.1c0,0,0,0,0,0c0,0,0,0-0.1,0c0,0,0,0-0.1,0c0,0,0,0-0.1,0.1c0,0,0,0,0,0.1c0,0,0,0,0,0.1c0,0,0,0,0,0
				C81.4,17.7,81.5,17.7,81.6,17.6C81.5,17.6,81.6,17.6,81.6,17.6z"/>
			<path class="st17" d="M82,17.5C82,17.5,81.9,17.5,82,17.5C82,17.5,82,17.5,82,17.5c0.1,0,0.1,0,0.2,0c0,0,0,0,0.1,0
				c0,0,0,0,0,0.1c0,0,0,0,0,0c0,0,0,0,0,0.1c0,0.1-0.1,0.1-0.1,0.2c0,0,0,0,0,0c0,0,0,0,0,0c0,0,0,0,0,0c0,0,0,0,0,0
				c0-0.1,0.1-0.1,0.1-0.2c0,0,0-0.1,0-0.1C82.1,17.5,82,17.5,82,17.5C82,17.5,82,17.5,82,17.5C81.9,17.5,81.9,17.5,82,17.5
				c-0.1,0.1-0.1,0.1-0.1,0.2c0,0-0.1,0.1-0.1,0.1c0,0,0,0,0,0c0,0,0,0,0,0c0,0,0,0,0,0c0,0,0,0,0,0C81.7,17.7,81.8,17.6,82,17.5
				C81.9,17.4,81.9,17.4,82,17.5C81.9,17.4,81.9,17.4,82,17.5C82,17.4,82,17.4,82,17.5C82,17.4,82,17.4,82,17.5
				C82,17.5,82,17.5,82,17.5z"/>
			<path class="st17" d="M82.3,17.9C82.3,17.9,82.2,17.9,82.3,17.9c-0.1,0-0.2,0-0.2,0c0,0,0,0-0.1,0c0,0,0,0,0,0c0,0,0,0,0-0.1
				c0,0,0-0.1,0.1-0.1c0,0,0.1,0,0.1,0c0,0,0,0,0.1,0c0,0,0.1,0,0.1,0c0,0,0,0,0.1,0c0,0,0,0,0-0.1c0,0,0,0,0,0c0,0,0,0-0.1,0
				c0,0,0,0-0.1,0c0,0,0,0,0,0c0,0,0,0,0,0c0,0,0,0,0,0c0,0,0,0,0,0c0,0,0,0,0.1-0.1c0,0,0.1,0,0.1,0c0,0,0.1,0,0.1,0
				c0,0,0.1,0,0.1,0c0,0,0,0,0,0.1c0,0,0,0.1,0,0.1c0,0,0,0,0,0.1c0,0,0,0,0,0.1c0,0,0,0,0,0.1C82.4,17.9,82.4,17.9,82.3,17.9
				C82.4,17.9,82.4,17.9,82.3,17.9C82.3,17.9,82.3,17.9,82.3,17.9C82.3,17.9,82.3,17.9,82.3,17.9C82.3,17.9,82.3,17.9,82.3,17.9z
				 M82.4,17.7C82.4,17.7,82.4,17.7,82.4,17.7c-0.1,0-0.1,0-0.1,0c0,0,0,0,0,0c0,0,0,0,0,0c0,0,0,0,0,0c0,0,0,0,0,0c0,0,0,0,0.1,0
				C82.3,17.8,82.3,17.8,82.4,17.7C82.3,17.8,82.4,17.8,82.4,17.7C82.4,17.7,82.4,17.7,82.4,17.7z"/>
			<path class="st17" d="M82.5,17.9c0.1-0.2,0.2-0.3,0.3-0.5c0,0,0,0,0,0c0,0,0,0,0,0c0,0,0,0,0,0c0,0,0,0,0,0.1
				C82.8,17.6,82.7,17.8,82.5,17.9C82.6,17.9,82.6,17.9,82.5,17.9C82.5,18,82.5,18,82.5,17.9C82.5,18,82.5,18,82.5,17.9
				C82.5,17.9,82.5,17.9,82.5,17.9z"/>
			<path class="st17" d="M79.4,17.7C79.4,17.7,79.4,17.7,79.4,17.7c0-0.1-0.1-0.1-0.1-0.2c0,0-0.1,0-0.1,0c0,0-0.1,0-0.1,0s0,0,0,0
				c0,0,0,0,0,0c0,0,0,0,0,0c0,0,0,0,0,0c0,0,0,0,0,0c0.2-0.1,0.3-0.1,0.5-0.2c0,0,0,0,0,0c0,0,0,0,0,0c0,0,0,0,0,0c0,0,0,0,0,0
				c0,0,0,0,0,0c0,0,0,0,0,0c0,0,0,0,0,0c0,0,0,0,0,0c-0.1,0.1-0.1,0.2-0.2,0.3C79.5,17.8,79.5,17.8,79.4,17.7
				C79.5,17.8,79.4,17.8,79.4,17.7C79.4,17.8,79.4,17.8,79.4,17.7C79.4,17.8,79.4,17.8,79.4,17.7C79.4,17.8,79.4,17.8,79.4,17.7
				C79.4,17.8,79.4,17.8,79.4,17.7C79.4,17.7,79.4,17.7,79.4,17.7z M79.4,17.5c0,0,0.1,0,0.1,0.1c0.1-0.1,0.1-0.1,0.2-0.2
				C79.6,17.4,79.5,17.5,79.4,17.5z"/>
			<path class="st17" d="M79.9,17.9C79.9,17.9,79.8,17.9,79.9,17.9c-0.1,0.1-0.2,0.1-0.2,0.1c0,0-0.1,0-0.1,0c0,0-0.1,0-0.1-0.1
				c0,0,0,0,0-0.1c0,0,0,0,0,0c0,0,0,0,0,0c0,0,0,0,0,0c0,0,0,0,0,0c0,0,0,0,0,0c0,0,0,0,0,0c0,0,0,0,0,0c0,0,0,0,0.1,0c0,0,0,0,0,0
				C79.8,17.8,79.8,17.8,79.9,17.9c-0.1-0.1-0.1-0.1-0.1-0.1c0,0,0,0,0-0.1c0,0,0,0,0,0c0,0,0,0,0-0.1c0,0,0,0,0.1,0
				c0,0,0.1,0,0.1,0c0,0,0.1,0,0.1,0c0,0,0,0,0.1,0c0,0,0,0,0,0c0,0,0,0,0,0c0,0,0,0,0,0c0,0,0,0,0,0c0,0,0,0,0,0c0,0,0,0,0,0
				c0,0,0,0,0,0c0,0,0,0,0,0c0,0,0,0,0,0c0,0,0,0,0,0c0,0,0,0,0,0c0,0,0,0,0,0c0,0,0,0,0,0c0,0,0,0,0,0
				C79.9,17.7,79.9,17.8,79.9,17.9C79.9,17.8,79.9,17.8,79.9,17.9C79.9,17.8,79.9,17.9,79.9,17.9z"/>
			<path class="st17" d="M80.2,18C80.2,18,80.2,18.1,80.2,18c-0.1,0.1-0.2,0.1-0.2,0.1c0,0-0.1,0-0.1,0c0,0-0.1,0-0.1,0
				c0,0,0,0,0-0.1c0,0,0,0,0,0c0,0,0,0,0,0c0,0,0,0,0,0c0,0,0,0,0,0c0,0,0,0,0,0c0,0,0,0,0,0c0,0,0,0,0,0c0,0,0,0,0.1,0c0,0,0,0,0,0
				C80.2,18,80.2,18,80.2,18c-0.1-0.1-0.1-0.1-0.1-0.1c0,0,0,0,0-0.1c0,0,0,0,0,0c0,0,0,0,0-0.1c0,0,0,0,0.1,0c0,0,0.1,0,0.1,0
				c0,0,0.1,0,0.1,0c0,0,0,0,0.1,0c0,0,0,0,0,0c0,0,0,0,0,0c0,0,0,0,0,0c0,0,0,0,0,0c0,0,0,0,0,0c0,0,0,0,0,0c0,0,0,0,0,0
				c0,0,0,0,0,0c0,0,0,0,0,0c0,0,0,0,0,0c0,0,0,0,0,0c0,0,0,0,0,0c0,0,0,0,0,0c0,0,0,0,0,0C80.3,17.9,80.3,17.9,80.2,18
				C80.3,17.9,80.3,18,80.2,18C80.3,18,80.3,18,80.2,18z"/>
			<path class="st17" d="M80.6,17.9c-0.1,0.1-0.2,0.2-0.3,0.3c0,0,0,0-0.1,0c0,0,0,0,0,0c0,0,0,0,0,0c0,0,0,0,0,0
				C80.3,18,80.4,17.9,80.6,17.9C80.5,17.8,80.6,17.8,80.6,17.9C80.6,17.8,80.6,17.8,80.6,17.9C80.6,17.8,80.6,17.8,80.6,17.9
				C80.6,17.9,80.6,17.9,80.6,17.9z M80.7,17.8C80.7,17.8,80.6,17.8,80.7,17.8C80.6,17.8,80.7,17.7,80.7,17.8
				C80.7,17.7,80.7,17.7,80.7,17.8C80.7,17.7,80.7,17.7,80.7,17.8c0.1-0.1,0.1-0.1,0.1-0.1C80.8,17.7,80.8,17.7,80.7,17.8
				C80.7,17.8,80.7,17.8,80.7,17.8C80.7,17.8,80.7,17.8,80.7,17.8z"/>
			<path class="st17" d="M80.8,18.2C80.8,18.2,80.7,18.3,80.8,18.2c-0.1,0.1-0.2,0.1-0.2,0.1c0,0-0.1,0-0.1,0c0,0-0.1,0-0.1,0
				c0,0,0,0,0-0.1c0,0,0,0,0,0c0,0,0,0,0,0c0,0,0,0,0,0c0,0,0,0,0,0c0,0,0,0,0,0c0,0,0,0,0,0c0,0,0,0,0,0c0,0,0,0,0.1,0c0,0,0,0,0,0
				C80.7,18.2,80.7,18.2,80.8,18.2c-0.1-0.1-0.1-0.1-0.1-0.1c0,0,0,0-0.1,0c0,0,0,0,0,0c0,0,0,0,0-0.1c0,0,0,0,0.1,0
				c0,0,0.1,0,0.1,0c0,0,0.1,0,0.1,0c0,0,0,0,0.1,0c0,0,0,0,0,0c0,0,0,0,0,0c0,0,0,0,0,0c0,0,0,0,0,0c0,0,0,0,0,0c0,0,0,0,0,0
				c0,0,0,0,0,0c0,0,0,0,0,0c0,0,0,0,0,0c0,0,0,0-0.1,0c0,0,0,0,0,0c0,0,0,0,0,0c0,0,0,0,0,0c0,0,0,0,0,0
				C80.8,18.1,80.8,18.1,80.8,18.2C80.8,18.1,80.8,18.2,80.8,18.2C80.8,18.2,80.8,18.2,80.8,18.2z"/>
			<path class="st17" d="M81.1,18C81.1,18,81.1,18,81.1,18C81.2,18,81.2,18,81.1,18C81.2,17.9,81.2,17.9,81.1,18
				c0.1-0.1,0.1-0.1,0.1-0.1c0,0,0,0,0,0c0,0,0,0,0,0c0,0,0,0,0,0c0,0,0,0,0,0c0,0,0,0,0,0c0,0,0,0-0.1,0.1c0,0,0,0,0,0c0,0,0,0,0,0
				c0,0,0,0,0,0c0,0,0,0,0,0c0,0,0,0,0,0C81.2,18.1,81.2,18.1,81.1,18c0,0.2-0.1,0.2-0.1,0.3c0,0,0,0,0,0c0,0,0,0,0,0c0,0,0,0,0,0
				c0,0,0,0,0,0c0,0,0,0,0,0c0,0,0,0,0,0c0,0,0,0,0,0c0,0,0,0-0.1,0c0,0-0.1,0-0.1,0c0,0,0,0-0.1,0c0,0,0,0,0,0c0,0,0,0,0.1-0.1
				C81,18.2,81,18.1,81.1,18C81.1,18.1,81.1,18.1,81.1,18C81,18.1,81,18.1,81.1,18C81,18,81,18,81.1,18C81.1,18,81.1,18,81.1,18
				C81.1,18,81.1,18,81.1,18z"/>
			<path class="st17" d="M81.3,18.4c0,0-0.1,0-0.1,0c0,0-0.1,0-0.1,0c0,0,0,0-0.1,0c0,0,0,0,0-0.1c0,0,0,0,0-0.1c0,0,0.1,0,0.1-0.1
				c0,0,0.1,0,0.1,0c0,0,0,0,0.1,0c0,0,0.1,0,0.1,0c0,0,0,0,0.1,0c0,0,0,0,0-0.1c0,0,0,0,0,0c0,0,0,0-0.1,0c0,0,0,0-0.1,0
				c0,0,0,0,0,0c0,0,0,0,0,0c0,0,0,0,0,0c0,0,0,0,0,0c0,0,0,0,0.1,0c0,0,0.1,0,0.1,0c0,0,0.1,0,0.1,0c0,0,0.1,0,0.1,0c0,0,0,0,0,0.1
				c0,0,0,0.1-0.1,0.1c0,0,0,0-0.1,0.1c0,0,0,0,0,0.1c0,0,0,0,0,0.1C81.4,18.5,81.4,18.5,81.3,18.4C81.4,18.5,81.4,18.5,81.3,18.4
				C81.3,18.5,81.3,18.5,81.3,18.4C81.3,18.5,81.3,18.5,81.3,18.4C81.3,18.5,81.3,18.5,81.3,18.4z M81.4,18.3
				C81.4,18.3,81.4,18.3,81.4,18.3c-0.1,0-0.1,0-0.1,0c0,0,0,0,0,0c0,0,0,0,0,0c0,0,0,0,0,0c0,0,0,0,0,0c0,0,0,0,0.1,0
				C81.3,18.4,81.3,18.4,81.4,18.3C81.3,18.4,81.4,18.4,81.4,18.3C81.4,18.3,81.4,18.3,81.4,18.3z"/>
			<path class="st17" d="M81.8,18.2C81.8,18.2,81.8,18.2,81.8,18.2C81.9,18.2,81.9,18.2,81.8,18.2c0.1,0,0.1,0,0.2,0c0,0,0,0,0.1,0
				c0,0,0,0,0,0.1c0,0,0,0,0,0c0,0,0,0,0,0.1c-0.1,0.1-0.1,0.1-0.2,0.2c0,0,0,0-0.1,0c0,0,0,0,0,0c0,0,0,0,0,0c0,0,0,0,0,0
				c0-0.1,0.1-0.1,0.1-0.2c0,0,0-0.1,0.1-0.1C81.9,18.3,81.9,18.3,81.8,18.2C81.9,18.3,81.9,18.3,81.8,18.2
				C81.8,18.3,81.8,18.3,81.8,18.2c-0.1,0.1-0.1,0.1-0.1,0.2c0,0-0.1,0.1-0.1,0.1c0,0,0,0-0.1,0c0,0,0,0,0,0c0,0,0,0,0,0
				c0,0,0,0,0,0C81.6,18.4,81.7,18.3,81.8,18.2C81.8,18.2,81.8,18.2,81.8,18.2C81.8,18.2,81.8,18.2,81.8,18.2
				C81.8,18.2,81.8,18.2,81.8,18.2C81.8,18.2,81.8,18.2,81.8,18.2C81.8,18.2,81.8,18.2,81.8,18.2z"/>
			<path class="st17" d="M82.2,18.2C82.2,18.2,82.2,18.2,82.2,18.2C82.2,18.2,82.3,18.2,82.2,18.2C82.3,18.2,82.3,18.1,82.2,18.2
				c0.1-0.1,0.1-0.1,0.1-0.1c0,0,0,0,0,0c0,0,0,0,0,0c0,0,0,0,0,0c0,0,0,0,0,0c0,0,0,0,0,0c0,0,0,0-0.1,0.1c0,0,0,0,0,0c0,0,0,0,0,0
				c0,0,0,0,0,0c0,0,0,0,0,0C82.3,18.3,82.3,18.3,82.2,18.2C82.3,18.3,82.3,18.3,82.2,18.2c0,0.2-0.1,0.2-0.1,0.3c0,0,0,0,0,0
				c0,0,0,0,0,0c0,0,0,0,0,0c0,0,0,0,0,0c0,0,0,0,0,0c0,0,0,0,0,0c0,0,0,0,0,0c0,0,0,0-0.1,0c0,0-0.1,0-0.1,0c0,0-0.1,0-0.1,0
				c0,0,0,0,0,0c0,0,0,0,0.1-0.1C82.1,18.4,82.1,18.4,82.2,18.2C82.2,18.3,82.2,18.3,82.2,18.2C82.1,18.3,82.1,18.3,82.2,18.2
				C82.1,18.3,82.1,18.3,82.2,18.2C82.2,18.3,82.2,18.3,82.2,18.2C82.2,18.2,82.2,18.2,82.2,18.2z"/>
		</g>
		<g>
			<g>
				<path class="st17" d="M84.8,3.1L85,3.4c0-0.1,0-0.1,0.1-0.1c0,0,0.1-0.1,0.1-0.1c0.1,0,0.1,0,0.2,0c0.1,0,0.1,0,0.2,0.1
					c0.1,0,0.1,0.1,0.2,0.2c0,0.1,0.1,0.1,0.1,0.2c0,0.1,0,0.1,0,0.1c0,0,0,0.1-0.1,0.1c0,0-0.1,0.1-0.1,0.1c0,0-0.1,0-0.1,0
					c0,0-0.1,0-0.1,0c0,0,0,0-0.1,0c0,0,0,0-0.1,0l0,0c0,0,0,0.1,0,0.1c0,0,0,0-0.1,0.1c0,0-0.1,0-0.1,0c0,0-0.1,0-0.1-0.1l-0.5-0.8
					c0,0,0-0.1,0-0.1c0,0,0,0,0.1-0.1C84.7,3,84.7,3,84.8,3.1C84.7,3.1,84.8,3.1,84.8,3.1z M85.1,3.7c0,0.1,0.1,0.1,0.2,0.1
					c0.1,0,0.1,0,0.2,0c0.1,0,0.1-0.1,0.1-0.1c0-0.1,0-0.1-0.1-0.2c0,0-0.1-0.1-0.1-0.1c0,0-0.1,0-0.1-0.1c0,0-0.1,0-0.1,0
					c0,0-0.1,0-0.1,0.1c0,0,0,0.1,0,0.1C85.1,3.6,85.1,3.6,85.1,3.7z"/>
				<path class="st17" d="M85.7,2.8L85.9,3c0-0.1,0-0.1,0.1-0.1c0,0,0.1-0.1,0.1-0.1c0.1,0,0.1,0,0.2,0c0.1,0,0.1,0,0.2,0.1
					c0.1,0,0.1,0.1,0.2,0.2c0,0.1,0.1,0.1,0.1,0.2c0,0.1,0,0.1,0,0.1c0,0,0,0.1-0.1,0.1c0,0-0.1,0.1-0.1,0.1c0,0-0.1,0-0.1,0
					c0,0-0.1,0-0.1,0c0,0,0,0-0.1,0c0,0,0,0-0.1,0l0,0c0,0,0,0.1,0,0.1c0,0,0,0-0.1,0.1c0,0-0.1,0-0.1,0c0,0-0.1,0-0.1-0.1l-0.5-0.8
					c0,0,0-0.1,0-0.1c0,0,0,0,0.1-0.1C85.6,2.7,85.6,2.7,85.7,2.8C85.7,2.7,85.7,2.7,85.7,2.8z M86.1,3.3c0,0.1,0.1,0.1,0.2,0.1
					c0.1,0,0.1,0,0.2,0c0.1,0,0.1-0.1,0.1-0.1c0-0.1,0-0.1-0.1-0.2c0,0-0.1-0.1-0.1-0.1c0,0-0.1,0-0.1-0.1c0,0-0.1,0-0.1,0
					c0,0-0.1,0-0.1,0.1c0,0,0,0.1,0,0.1C86,3.2,86,3.3,86.1,3.3z"/>
			</g>
		</g>
		<path class="st1" d="M88,39.7c0-0.3-1.6-3.8-1.9-4.6c-0.3-0.7-1-2.4-1.1-3c-0.1-0.6-0.4-1.2-0.5-1.3c-0.1-0.1-1.9-2-2-2.2
			c-0.2-0.3-1-0.7-1.4-1.1c-0.4-0.4-0.5-0.8-0.7-0.9c-0.2-0.1-0.4-0.1-0.4-0.1c0-0.1,0.1-1.5,0.1-1.5c-0.1,0-0.2,0-0.3,0
			c0,0-0.1,0-0.1,0c-0.1,0-0.1,0-0.2,0c0,0-0.1,0-0.1,0c-0.1,0-0.1,0-0.2,0c0,0-0.1,0-0.1,0c0,0-0.1,0-0.1,0c0,0-0.1,0-0.1,0
			c0,0-0.1,0-0.1,0c0,0-0.1,0-0.1,0c0,0-0.1,0-0.1,0c0,0-0.1,0-0.1,0c0,0-0.1,0-0.1,0c0,0-0.1,0-0.1,0c0,0-0.1,0-0.1,0
			c0,0-0.1,0-0.1,0c0,0-0.1,0-0.1,0c0,0-0.1,0-0.1,0c0,0,0,0-0.1,0c0,0-0.1,0-0.1,0c0,0,0,0-0.1,0c0,0-0.7-0.2-0.7-0.2
			c0,0,0,0-0.1,0c0,0,0,0,0,0c0,0,0,0,0,0c0,0,0,0-0.1,0c-0.6-0.2-1-0.5-1.2-0.7c0,0,0,0,0,0c0,0,0,0-0.1,0c0,0,0,0,0,0
			c0,0,0,0-0.1,0c0,0.5-0.1,1.1-0.3,1.4c-0.2,0.5-0.2,1,0,1.4c0.2,0.3,0.7,0.7,1.1,1l0,0c0,0,1.8,1,2.9,1.6c0,0,0,0,0,0
			c0.1,0.1,0.3,0.1,0.4,0.2c0.1,0.1,0.2,0.1,0.3,0.2c2.8,1.7,2.9,2.5,2.8,2.7c0,0.2,0,0.3,0.3,0.4c0.2,0.1,0.4,0.2,0.4,0.4
			c0,0.2-0.2,0.4,0.2,0.7c0.4,0.3,0.4,0.7,0.5,1.6c0.1,0.8,1,2.4,1.3,2.5c0.3,0.2,1.2,1.5,1.4,2.1c0.3,0.6,0.5,0.6,0.5,0.6l0,0
			c0.1,0,0.3-0.1,0.3-0.1c-0.1-0.6-1.4-2.6-1.6-3.1c0.3,0.4,1.6,2.5,1.6,3.1C87.6,40.1,87.9,40,88,39.7C88,39.8,88,39.8,88,39.7z"/>
		<path class="st17" d="M92.5,19.3C92.5,19.3,92.5,19.3,92.5,19.3c0.1,0.3-0.1,0.4-0.4,0.4l-0.9,0.1c-0.2,0-0.5-0.1-0.5-0.2
			c0,0,0-0.1,0-0.1c-0.1,0.1-0.1,0.1-0.1,0.2c0,0.2,0.3,0.3,0.5,0.3l1-0.1c0.3,0,0.5-0.2,0.4-0.4C92.6,19.4,92.6,19.3,92.5,19.3z"/>
		<path class="st6" d="M91.8,19.8c0,0,0.4,0,0.5-0.1c0,0,0.1-0.1,0.2-0.1c0,0,0-0.1,0-0.1c0,0,0-0.1-0.1-0.2l-0.1,0
			c0,0,0,0.2-0.2,0.2c0,0-0.2,0-0.3,0.1C92,19.7,91.8,19.8,91.8,19.8z"/>
	</g>
</g>
</svg>
